<svg width="809.8967" height="1358.2659" xmlns="http://www.w3.org/2000/svg" version="1.1"
     xmlns:xlink="http://www.w3.org/1999/xlink">
  <path
    d="M589.0 687.60004 L586.8 688.0 L584.0 688.6 L580.80005 689.0 L577.4 689.80005 L574.0 690.0 L570.80005 690.0 L567.2 689.4 L559.39996 687.2 L554.39996 685.80005 L549.19995 684.4 L543.4 683.0 L536.4 681.2 L529.0 679.0 L521.8 677.60004 L514.0 675.80005 L505.80002 674.4 L497.8 673.6 L474.19998 674.4 L467.59998 675.0 L453.80002 675.80005 L451.19998 675.80005 L449.59998 675.80005 L449.4 675.80005 L449.4 675.80005"
    stroke="rgb(25,25,25)" stroke-width="1" fill="none" stroke-linejoin="round"/>
  <path
    d="M557.4 692.60004 L555.4 693.6 L553.4 694.0 L550.80005 694.4 L548.8 694.80005 L546.8 695.0 L542.4 695.4 L540.2 695.0 L538.4 694.4 L536.4 693.6 L535.0 692.2 L533.4 691.2 L531.0 690.0 L529.19995 689.0 L527.4 687.60004 L525.4 686.8 L522.8 686.2 L520.0 685.80005 L517.0 685.0 L513.8 684.80005 L510.40002 684.80005 L507.2 684.4 L504.0 684.0 L501.0 683.6 L492.40002 682.2 L489.59998 681.8 L487.40002 681.2 L485.0 680.4 L482.59998 679.80005 L480.6 679.4 L478.4 679.4 L476.0 679.4 L474.0 679.4 L471.4 680.4 L469.0 681.2 L466.19998 682.2 L463.80002 683.2 L458.80002 685.4 L454.0 687.2 L451.8 687.60004 L449.19998 687.60004 L446.8 687.60004 L444.0 688.0 L440.80002 687.60004 L437.59998 687.2 L430.40002 686.8 L426.4 685.80005 L421.8 684.80005 L417.0 683.6 L410.80002 683.6 L404.19998 683.0 L397.40002 682.2 L390.2 681.8 L382.40002 681.2 L374.4 681.2 L366.0 681.2 L357.8 681.8 L350.2 682.2 L343.0 682.60004 L337.40002 682.2 L328.80002 681.2 L325.2 680.80005 L325.2 680.80005"
    stroke="rgb(25,25,25)" stroke-width="1" fill="none" stroke-linejoin="round"/>
  <path
    d="M529.39996 702.2 L527.0 701.8 L523.8 701.60004 L520.4 701.2 L516.4 701.2 L512.4 701.2 L508.0 701.2 L504.0 701.2 L500.0 701.2 L495.6 700.80005 L487.40002 700.0 L483.4 699.4 L479.59998 699.0 L476.0 698.0 L469.4 697.60004 L465.80002 696.8 L462.0 696.2 L458.6 696.2 L455.0 696.2 L451.8 696.2 L448.0 695.80005 L444.59998 695.0 L441.4 694.4 L438.4 694.0 L435.0 692.60004 L430.80002 691.8 L427.40002 690.80005 L423.4 689.80005 L419.0 688.6 L410.6 686.60004 L405.80002 685.4 L402.0 683.6 L397.40002 682.2 L389.19998 681.2 L384.19998 680.4 L379.19998 680.0 L374.0 680.4 L368.0 681.2 L362.0 681.2 L356.0 681.8 L350.2 682.2 L344.0 682.2 L329.4 682.60004 L325.0 682.2 L321.19998 681.8 L317.80002 680.0 L315.2 678.0 L313.6 674.80005 L313.4 669.0 L313.4 669.0"
    stroke="rgb(25,25,25)" stroke-width="1" fill="none" stroke-linejoin="round"/>
  <path
    d="M582.4 687.2 L582.4 687.60004 L582.2 688.0 L582.2 688.6 L582.4 689.0 L582.6 690.80005 L582.8 691.60004 L582.8 693.0 L583.6 694.4 L584.19995 696.60004 L585.4 698.6 L586.2 701.8 L587.6 705.4 L589.0 709.0 L590.4 712.60004 L592.0 716.8 L593.0 720.80005 L594.0 725.4 L595.60004 730.0 L597.0 733.6 L598.6 737.2 L602.4 742.60004 L606.0 746.8 L610.4 750.0 L612.4 752.60004 L613.8 755.0 L615.80005 757.60004 L617.4 760.80005 L619.6 764.0 L621.2 767.60004 L622.8 771.8 L624.39996 775.80005 L627.4 783.0 L628.0 786.8 L629.19995 790.4 L630.2 794.0 L632.2 800.0 L633.0 802.2 L633.4 804.80005 L634.0 806.60004 L634.0 808.0 L634.6 810.0 L635.60004 811.8 L636.0 813.0 L636.4 815.0 L638.8 818.2 L645.80005 827.60004 L646.8 828.6 L648.0 830.80005 L648.0 830.80005"
    stroke="rgb(25,25,25)" stroke-width="1" fill="none" stroke-linejoin="round"/>
  <path
    d="M635.80005 833.0 L635.80005 833.0 L635.80005 833.0 L635.4 833.0 L635.60004 833.2 L635.60004 833.2 L635.60004 833.2 L635.2 833.2 L635.4 833.2 L635.4 833.2 L635.2 833.2 L635.0 833.2 L635.0 833.2 L634.6 833.2 L634.6 833.2 L634.6 833.0 L635.0 833.2 L634.39996 833.0 L634.39996 833.0 L634.39996 833.0 L634.39996 833.0 L634.39996 833.0 L634.39996 833.0 L634.0 833.0 L634.0 833.0 L634.0 833.0 L634.0 833.0 L634.0 833.0 L634.0 833.0 L634.0 833.0 L633.8 833.0 L633.8 833.0 L634.0 833.0 L634.0 833.0 L634.0 833.0 L634.39996 833.0 L635.4 832.60004 L635.80005 832.60004 L637.2 832.2 L637.6 831.8 L638.8 831.2 L639.39996 830.80005 L641.2 830.4 L642.2 830.0 L645.4 830.4 L646.8 830.0 L648.2 830.0 L650.0 830.0 L651.60004 830.0 L653.0 830.0 L653.6 830.4 L655.80005 830.80005 L657.2 831.60004 L659.4 831.8 L661.2 832.2 L663.2 832.60004 L665.80005 832.60004 L668.6 832.60004 L671.2 832.60004 L674.0 832.60004 L676.60004 833.0 L679.4 833.0 L682.2 833.0 L684.80005 832.60004 L686.8 832.2 L689.4 832.2 L691.2 831.8 L694.80005 831.2 L700.4 831.2 L701.8 831.2 L704.0 831.60004 L705.0 831.60004 L705.80005 832.2 L706.2 832.2 L706.8 832.2 L707.2 832.2 L707.2 832.2 L707.60004 832.2 L707.60004 832.2 L708.2 832.2 L708.6 832.2 L709.4 832.2 L709.80005 832.2 L710.0 832.2 L710.4 831.8 L710.80005 831.8 L711.60004 831.8 L712.2 831.60004 L712.60004 831.60004 L713.0 831.2 L713.2 831.2 L713.6 830.80005 L713.6 830.80005"
    stroke="rgb(25,25,25)" stroke-width="1" fill="none" stroke-linejoin="round"/>
  <path
    d="M717.2 875.4 L717.60004 877.2 L717.2 879.0 L718.0 880.80005 L718.0 882.2 L718.0 884.0 L718.2 885.0 L718.6 886.2 L718.6 887.2 L719.0 888.2 L718.6 890.0 L718.6 890.80005 L718.6 892.2 L719.0 894.0 L719.0 895.80005 L719.0 898.0 L718.6 900.4 L718.6 902.60004 L718.6 905.0 L718.0 906.8 L718.0 909.0 L717.60004 910.4 L717.60004 911.2 L717.2 911.8 L717.2 911.8 L717.2 911.8 L717.2 911.8"
    stroke="rgb(25,25,25)" stroke-width="1" fill="none" stroke-linejoin="round"/>
  <path
    d="M689.80005 902.60004 L687.60004 903.0 L683.0 904.4 L680.4 905.0 L678.0 905.4 L676.2 906.2 L674.0 906.8 L672.2 906.8 L669.80005 906.8 L667.60004 906.8 L665.80005 906.8 L664.0 906.60004 L661.8 905.80005 L660.0 905.4 L658.0 905.0 L656.2 905.0 L654.0 904.80005 L651.8 904.4 L643.2 905.0 L636.2 905.80005 L632.4 906.2 L628.8 906.60004 L624.6 906.8 L620.80005 907.2 L611.8 908.2 L609.0 908.6 L606.2 909.4 L604.0 910.0 L602.0 910.80005 L600.60004 910.80005 L599.6 911.2 L597.4 912.60004 L596.4 913.0 L595.80005 913.6 L595.2 914.0 L594.6 914.0 L594.19995 913.6 L594.19995 913.6"
    stroke="rgb(25,25,25)" stroke-width="1" fill="none" stroke-linejoin="round"/>
  <path
    d="M607.8 978.2 L607.8 978.2 L607.6 978.6 L607.6 978.6 L607.4 979.0 L607.4 979.4 L607.4 979.4 L607.4 979.80005 L607.4 980.0 L606.8 980.80005 L606.8 981.2 L606.8 981.60004 L606.8 981.60004 L606.8 981.60004 L606.8 981.8 L606.8 981.8 L606.8 981.8 L606.8 981.8 L606.8 981.8 L606.8 981.8 L606.8 982.2 L606.4 982.60004 L606.2 983.2 L606.0 983.6 L605.80005 984.0 L605.80005 984.0 L605.4 984.4 L604.6 985.0 L604.19995 985.4 L604.0 985.80005 L603.4 986.2 L602.4 986.60004 L601.8 986.60004 L600.4 986.2 L598.6 986.2 L597.0 986.2 L594.6 986.2 L592.4 986.60004 L590.0 986.60004 L587.4 986.60004 L584.19995 986.8 L582.2 987.2 L579.39996 988.0 L577.4 989.0 L575.2 989.80005 L573.6 989.80005 L572.4 989.4 L570.60004 989.0 L569.0 988.6 L566.4 988.0 L563.8 988.0 L560.80005 987.2 L558.4 986.60004 L555.4 985.80005 L551.8 985.80005 L547.6 986.60004 L543.8 986.2 L540.2 986.60004 L536.4 986.60004 L532.6 986.60004 L529.19995 986.2 L522.4 984.4 L520.2 983.2 L518.4 981.8 L517.4 980.80005 L516.2 979.80005 L515.0 978.0 L513.0 976.2 L512.4 974.80005 L510.6 973.0 L508.80002 970.4 L507.40002 967.60004 L505.80002 965.0 L504.19998 961.8 L502.40002 958.6 L501.4 956.60004 L500.40002 954.0 L499.0 951.8 L498.4 950.0 L497.59998 946.8 L497.2 944.80005 L496.8 942.60004 L497.0 940.4 L497.40002 937.60004 L498.0 934.4 L499.19998 931.8 L501.0 928.2 L502.59998 925.4 L505.0 922.60004 L507.40002 919.4 L509.19998 916.8 L510.80002 915.4 L512.4 914.0 L514.0 912.60004 L515.60004 911.2 L517.8 910.4 L522.6 908.6 L525.2 907.2 L527.8 905.80005 L530.80005 904.4 L534.0 903.0 L537.6 901.60004 L541.2 899.80005 L545.0 898.0 L548.4 896.8 L552.0 895.4 L555.4 895.0 L558.8 894.4 L562.6 894.4 L566.2 894.4 L569.39996 894.80005 L572.6 895.4 L575.4 895.80005 L578.6 896.2 L581.0 896.8 L583.8 897.60004 L586.4 898.6 L588.6 899.0 L590.0 899.4 L591.8 900.0 L595.4 901.2 L597.4 902.2 L599.0 903.2 L600.60004 904.0 L602.0 905.4 L603.8 906.60004 L605.4 908.2 L607.0 910.4 L608.0 911.8 L609.39996 913.0 L610.60004 914.0 L612.0 915.80005 L613.0 918.0 L613.8 920.0 L616.0 924.4 L616.4 925.80005 L616.4 928.6 L617.0 931.60004 L617.2 934.0 L617.6 937.60004 L617.4 940.4 L617.2 943.0 L616.8 945.80005 L616.2 948.2 L616.0 951.60004 L615.80005 954.4 L615.0 957.60004 L614.0 961.2 L613.4 964.80005 L612.6 967.60004 L611.8 970.4 L610.80005 973.2 L610.0 976.60004 L609.19995 979.80005 L608.0 982.60004 L607.0 985.0 L605.60004 988.0 L604.0 991.8 L602.2 995.4 L600.80005 998.2 L599.0 1001.2 L597.6 1002.60004 L596.2 1003.2 L595.60004 1003.6 L594.39996 1003.6 L593.8 1003.6 L592.8 1003.2 L591.8 1003.2 L590.80005 1003.0 L590.0 1002.60004 L588.0 1002.2 L586.4 1001.2 L585.0 1000.0 L583.8 998.6 L582.4 997.2 L581.8 996.60004 L581.0 995.4 L580.80005 995.0 L580.80005 995.0"
    stroke="rgb(25,25,25)" stroke-width="1" fill="none" stroke-linejoin="round"/>
  <path
    d="M562.2 959.0 L560.4 958.6 L559.0 958.2 L558.0 958.2 L557.2 958.0 L556.0 957.60004 L555.2 957.2 L554.19995 956.8 L553.6 956.2 L552.8 955.80005 L552.4 952.2 L551.8 950.0 L551.4 948.0 L551.2 945.80005 L551.0 943.6 L550.80005 940.80005 L551.0 939.0 L551.2 937.60004 L551.2 937.2 L552.0 936.60004 L552.4 936.2 L552.8 936.8 L553.8 937.2 L554.6 939.4 L555.60004 940.80005 L556.2 942.2 L557.2 944.0 L557.6 947.60004 L558.4 949.4 L558.6 951.2 L558.6 952.2 L558.4 953.0 L557.8 953.2 L557.4 953.2 L557.0 953.2 L556.0 953.0 L555.4 952.2 L553.8 951.2 L551.0 948.2 L550.2 946.60004 L549.39996 944.4 L549.39996 941.8 L549.6 940.0 L550.2 939.0 L550.4 938.2 L550.80005 937.60004 L551.2 937.2 L551.8 936.8 L552.2 936.8 L552.4 936.60004 L553.0 936.2 L553.8 935.80005 L554.19995 935.80005 L555.4 935.80005 L556.0 936.2 L557.0 936.8 L557.6 937.60004 L558.4 938.6 L559.19995 939.0 L559.6 940.0 L560.0 940.80005 L560.2 942.2 L560.2 942.2"
    stroke="rgb(25,25,25)" stroke-width="1" fill="none" stroke-linejoin="round"/>
  <path
    d="M317.19998 678.2 L317.0 678.2 L317.0 678.0 L317.0 678.2 L317.0 678.2 L317.0 678.2 L317.0 678.2 L317.0 678.2 L317.0 678.6 L316.8 678.6 L316.8 678.6 L316.8 678.6 L316.4 679.0 L316.4 679.0 L316.2 679.4 L316.2 679.80005 L316.0 680.0 L315.40002 680.4 L315.40002 680.80005 L315.40002 681.2 L315.2 681.60004 L315.0 681.8 L314.4 682.60004 L314.2 683.6 L313.6 684.4 L313.4 685.4 L312.80002 686.2 L312.6 686.8 L312.0 687.60004 L311.8 688.0 L311.2 689.0 L310.40002 690.80005 L309.59998 693.2 L308.8 694.4 L308.0 696.2 L307.19998 697.2 L306.4 698.6 L306.0 699.4 L305.40002 700.4 L304.4 702.2 L303.6 703.6 L302.6 705.4 L301.2 707.60004 L300.6 709.0 L299.59998 710.80005 L298.4 713.2 L297.0 715.4 L295.40002 718.0 L293.8 719.4 L292.80002 721.8 L291.8 724.0 L290.40002 726.2 L289.4 728.6 L287.80002 731.8 L286.4 735.0 L285.2 739.0 L284.2 742.60004 L282.19998 745.4 L281.0 748.6 L279.4 752.2 L278.0 756.60004 L276.2 760.4 L275.2 765.4 L272.80002 770.4 L271.2 775.80005 L268.8 781.60004 L266.2 786.8 L263.8 792.2 L261.8 797.60004 L259.2 802.2 L256.8 806.8 L254.40001 810.80005 L252.6 815.0 L250.59999 818.0 L249.40001 820.80005 L248.0 823.0 L247.0 825.4 L246.20001 827.2 L245.20001 829.0 L244.2 830.80005 L243.6 832.2 L242.0 834.4 L241.20001 837.60004 L239.59999 840.80005 L238.4 843.6 L237.6 846.2 L236.8 848.0 L236.20001 849.4 L236.0 851.60004 L235.40001 852.60004 L235.40001 853.6 L235.40001 854.0 L235.40001 854.0 L235.8 853.6 L236.0 853.0 L236.4 850.80005 L237.2 846.8 L237.2 846.8"
    stroke="rgb(25,25,25)" stroke-width="1" fill="none" stroke-linejoin="round"/>
  <path
    d="M305.0 710.80005 L304.4 711.8 L303.8 713.2 L303.0 714.80005 L302.6 719.4 L302.0 720.80005 L301.0 722.60004 L299.4 724.0 L299.2 725.0 L299.4 726.8 L298.8 727.60004 L297.80002 729.0 L297.19998 730.0 L297.0 730.80005 L296.8 731.60004 L296.2 732.60004 L295.40002 734.0 L295.0 735.0 L294.4 736.8 L293.6 738.6 L293.4 740.0 L292.80002 741.2 L292.0 742.60004 L291.2 744.4 L290.6 745.4 L290.40002 748.0 L289.4 750.4 L288.6 752.60004 L287.80002 755.4 L286.2 758.2 L285.40002 761.2 L284.4 764.4 L283.6 767.2 L282.6 770.0 L281.4 772.2 L280.6 774.4 L280.0 776.2 L278.8 778.0 L278.0 779.80005 L277.0 781.2 L276.2 783.0 L275.40002 784.0 L274.59998 785.80005 L273.8 787.60004 L272.6 790.0 L271.8 791.8 L270.6 794.0 L269.59998 796.2 L268.6 798.0 L267.19998 799.80005 L266.2 801.8 L265.0 804.4 L264.2 806.2 L262.80002 808.0 L262.80002 809.80005 L262.19998 811.60004 L261.8 813.2 L261.0 815.4 L260.2 817.60004 L259.4 820.0 L258.0 822.60004 L257.0 824.0 L256.0 826.2 L255.0 828.0 L253.79999 829.80005 L252.8 831.60004 L251.8 833.6 L250.40001 835.0 L249.40001 836.8 L248.0 839.4 L246.4 841.8 L244.59999 844.4 L243.6 847.2 L241.8 850.0 L240.40001 852.60004 L239.59999 855.80005 L238.6 858.0 L237.8 860.4 L236.8 864.4 L236.20001 866.2 L236.20001 868.0 L235.8 869.80005 L235.40001 871.2 L235.40001 872.2 L235.20001 873.6 L235.0 875.4 L234.40001 877.2 L234.2 878.6 L233.6 880.4 L233.0 881.8 L232.8 884.0 L232.2 885.80005 L232.0 887.60004 L231.20001 889.0 L231.0 890.4 L230.40001 891.8 L230.40001 893.0 L230.20001 894.0 L230.20001 895.4 L230.0 897.2 L229.59999 899.4 L229.40001 901.2 L229.2 903.2 L229.2 905.4 L228.6 906.2 L228.4 908.0 L227.8 909.0 L227.0 910.4 L227.0 912.2 L226.4 914.0 L226.20001 915.4 L226.0 916.8 L225.40001 918.6 L225.40001 920.4 L225.40001 922.60004 L225.0 923.6 L224.40001 925.80005 L223.79999 928.0 L224.2 932.2 L223.6 934.4 L223.4 936.8 L223.6 940.4 L223.6 942.2 L222.8 944.0 L222.2 945.4 L222.2 947.2 L222.0 948.6 L222.0 950.0 L222.0 951.2 L222.0 952.2 L221.4 953.2 L221.4 954.4 L221.20001 955.0 L221.20001 956.2 L220.59999 958.0 L220.40001 960.0 L220.20001 962.60004 L220.20001 965.0 L219.59999 967.2 L218.79999 969.80005 L218.6 972.2 L218.0 974.4 L217.6 976.8 L217.0 978.6 L217.0 980.0 L216.8 980.80005 L216.20001 981.8 L216.20001 982.2 L216.20001 983.0 L216.0 984.0 L216.0 984.4 L216.0 984.4 L216.0 984.0 L216.0 983.6 L216.20001 981.2 L217.0 977.60004 L217.8 972.2 L217.8 972.2"
    stroke="rgb(25,25,25)" stroke-width="1" fill="none" stroke-linejoin="round"/>
  <path
    d="M271.8 1040.0 L271.2 1041.2001 L270.40002 1042.2 L269.59998 1043.0 L269.2 1043.6 L268.4 1044.4 L267.19998 1045.4 L266.8 1045.8 L265.6 1045.8 L265.0 1046.2001 L263.8 1046.6001 L263.0 1046.8 L260.40002 1047.2 L259.4 1047.2 L257.80002 1047.2 L256.0 1047.2 L254.2 1046.8 L252.2 1046.8 L250.40001 1046.8 L248.79999 1047.2 L247.0 1047.2 L245.40001 1047.2 L243.6 1047.2 L242.0 1047.2 L241.20001 1046.8 L239.40001 1046.6001 L237.8 1046.2001 L236.4 1045.4 L235.40001 1045.0 L234.2 1044.0 L232.6 1042.6 L231.20001 1041.2001 L229.2 1039.8 L227.6 1037.2 L226.0 1035.4 L224.40001 1032.6 L222.8 1030.4 L221.8 1028.0 L220.59999 1025.4 L220.0 1022.60004 L219.2 1020.0 L218.4 1018.0 L217.8 1016.2 L217.0 1014.80005 L216.8 1012.60004 L215.40001 1010.4 L215.0 1008.2 L214.40001 1006.2 L213.6 1003.2 L213.0 1002.2 L212.8 999.4 L212.8 996.60004 L212.2 993.0 L212.8 990.0 L213.0 986.8 L213.79999 983.6 L214.59999 980.4 L215.8 976.8 L216.20001 974.0 L217.0 971.2 L217.6 968.0 L218.4 966.2 L219.40001 963.6 L220.40001 962.60004 L221.20001 961.8 L225.0 958.0 L226.20001 956.8 L227.0 956.2 L228.6 955.0 L230.40001 954.0 L232.8 953.6 L234.40001 953.0 L236.20001 952.60004 L237.8 952.60004 L240.0 953.0 L242.2 953.2 L244.40001 953.6 L247.0 954.4 L249.2 955.0 L250.59999 955.80005 L252.8 957.2 L255.0 958.0 L257.0 959.4 L259.2 961.2 L261.2 963.0 L262.80002 965.0 L264.59998 966.8 L266.4 969.0 L268.0 971.2 L269.59998 974.0 L271.2 977.60004 L272.80002 981.2 L274.4 985.0 L276.0 989.0 L277.6 996.2 L278.6 1000.4 L279.4 1004.4 L280.0 1008.0 L280.6 1012.2 L281.2 1015.80005 L282.0 1020.4 L282.0 1025.0 L282.19998 1029.4 L282.0 1033.6 L281.8 1036.8 L281.0 1039.8 L279.4 1043.6 L277.6 1046.8 L275.8 1049.0 L273.8 1050.4 L272.0 1051.8 L270.0 1053.6 L267.6 1055.0 L265.40002 1055.8 L263.8 1056.8 L262.6 1057.6 L261.2 1058.2 L260.2 1059.0 L259.59998 1059.0 L259.2 1059.4 L258.6 1059.4 L258.4 1059.4 L258.0 1059.4 L257.19998 1059.0 L255.8 1058.0 L253.6 1056.8 L252.6 1054.8 L252.6 1054.8"
    stroke="rgb(25,25,25)" stroke-width="1" fill="none" stroke-linejoin="round"/>
  <path
    d="M245.0 1004.0 L245.0 1004.4 L244.40001 1004.0 L244.40001 1003.6 L244.59999 1004.0 L244.59999 1004.0 L245.0 1004.0 L245.0 1004.0 L245.40001 1004.4 L245.59999 1004.4 L246.20001 1005.0 L246.8 1005.4 L247.6 1006.2 L247.8 1007.2 L248.0 1008.6 L248.0 1008.6 L248.0 1008.6 L248.0 1008.6 L247.8 1008.6 L247.8 1008.6 L247.8 1008.6 L247.6 1008.2 L247.2 1008.0 L247.0 1007.60004 L246.8 1007.2 L246.20001 1006.8 L246.0 1006.2 L245.0 1005.0 L244.59999 1004.0 L244.2 1001.60004 L243.6 1000.0 L243.6 998.0 L243.79999 996.2 L244.2 995.4 L244.40001 994.80005 L244.59999 994.4 L245.0 994.4 L245.20001 994.4 L245.40001 994.80005 L246.0 995.0 L247.2 997.2 L248.4 998.6 L248.79999 1000.80005 L250.0 1001.60004 L250.0 1002.2 L250.0 1002.2"
    stroke="rgb(25,25,25)" stroke-width="1" fill="none" stroke-linejoin="round"/>
  <path
    d="M267.19998 963.0 L267.19998 962.60004 L267.19998 962.60004 L267.19998 962.60004 L267.19998 962.60004 L267.19998 963.0 L267.19998 963.0 L267.19998 963.0 L267.6 963.0 L267.80002 963.0 L268.0 963.0 L268.8 963.0 L269.4 963.0 L270.6 963.0 L271.2 963.0 L273.0 963.0 L273.6 963.2 L273.8 963.2 L275.0 963.2 L275.8 963.6 L276.8 963.6 L277.19998 963.2 L277.80002 963.2 L278.6 963.2 L280.0 963.0 L281.0 963.0 L282.0 963.0 L283.6 963.0 L284.4 963.0 L285.6 962.60004 L287.0 962.60004 L288.4 962.2 L291.4 963.0 L293.0 963.2 L294.4 963.6 L296.2 964.0 L297.19998 964.0 L298.6 964.0 L300.0 964.0 L301.0 964.0 L302.0 963.6 L304.4 963.6 L306.2 963.2 L307.80002 963.6 L309.2 963.2 L311.0 963.2 L312.19998 963.0 L313.6 963.0 L315.8 963.0 L317.0 963.2 L318.8 963.2 L321.0 963.6 L322.40002 963.2 L323.6 963.0 L324.4 962.60004 L325.40002 962.60004 L326.0 962.60004 L326.8 962.60004 L327.40002 962.60004 L328.0 962.60004 L329.19998 962.60004 L330.2 962.60004 L330.80002 962.60004 L331.19998 962.60004 L331.8 962.60004 L332.40002 963.0 L334.0 963.0 L334.59998 963.0 L335.80002 963.2 L337.0 963.6 L337.59998 963.6 L338.80002 963.6 L340.2 963.6 L341.19998 963.6 L342.59998 963.6 L343.6 963.6 L344.59998 964.0 L345.6 964.0 L346.19998 963.6 L347.40002 963.6 L348.4 963.6 L349.19998 963.6 L350.2 963.6 L351.0 963.6 L352.0 963.6 L352.40002 963.6 L352.59998 964.0 L353.4 964.0 L354.0 964.4 L355.40002 965.0 L356.19998 965.4 L357.40002 965.80005 L358.80002 966.2 L360.0 966.8 L360.80002 967.2 L361.19998 967.2 L361.8 967.2 L362.0 967.2 L362.0 967.2 L362.0 967.2 L361.8 967.2 L361.8 967.2 L361.4 967.2 L361.19998 966.60004 L360.80002 965.4 L359.4 963.0 L357.59998 959.4 L357.59998 959.4"
    stroke="rgb(25,25,25)" stroke-width="1" fill="none" stroke-linejoin="round"/>
  <path
    d="M500.80002 955.0 L500.6 955.0 L500.40002 955.0 L500.2 955.0 L500.0 955.0 L499.4 955.0 L498.6 955.4 L498.0 955.4 L497.40002 955.80005 L497.0 955.80005 L496.0 955.80005 L495.40002 956.2 L494.4 956.60004 L493.6 957.2 L492.59998 957.60004 L492.2 957.60004 L490.80002 958.0 L490.2 958.0 L489.19998 957.60004 L487.59998 957.2 L487.40002 957.2 L486.0 957.2 L485.40002 957.2 L484.4 957.2 L483.80002 956.8 L483.0 956.8 L482.40002 956.8 L482.0 956.60004 L481.0 956.60004 L480.6 956.2 L480.2 956.2 L479.19998 956.2 L478.6 956.2 L478.0 956.2 L477.40002 956.2 L476.8 956.2 L475.80002 956.2 L474.59998 956.2 L474.0 956.2 L473.6 956.2 L472.59998 956.2 L472.2 956.2 L471.8 956.2 L470.6 956.2 L469.0 956.60004 L468.6 956.60004 L466.8 957.2 L466.4 957.2 L465.80002 957.60004 L465.40002 957.60004 L463.0 958.0 L462.8 958.0 L463.0 958.0 L462.40002 958.0 L461.4 958.6 L461.0 958.6 L460.80002 958.6 L460.6 959.0 L460.6 958.6 L460.2 959.0 L459.19998 959.0 L458.80002 959.0 L457.2 960.0 L451.19998 961.8 L450.80002 962.2 L449.4 962.2 L445.0 963.2 L444.0 963.6 L443.6 963.6 L443.0 963.6 L442.59998 964.0 L442.40002 964.0 L442.40002 964.0 L442.2 964.0 L442.2 964.0 L442.2 964.0 L442.0 964.0 L442.0 964.0 L442.0 964.0 L442.0 964.0 L441.8 964.4 L441.8 964.4 L441.19998 964.80005 L441.0 965.4 L440.80002 967.60004 L440.0 969.80005 L440.0 969.80005"
    stroke="rgb(25,25,25)" stroke-width="1" fill="none" stroke-linejoin="round"/>
  <path
    d="M359.19998 964.0 L359.19998 963.6 L359.0 963.0 L359.0 962.2 L359.0 961.60004 L358.80002 960.4 L358.6 956.8 L358.80002 954.4 L359.0 952.2 L359.0 950.0 L359.0 947.60004 L359.0 945.0 L359.19998 943.0 L359.59998 937.60004 L359.4 936.60004 L359.59998 934.0 L359.59998 931.2 L360.0 928.6 L361.19998 924.0 L361.4 921.60004 L361.8 919.4 L362.40002 915.4 L362.59998 914.80005 L362.8 914.0 L362.8 913.6 L362.8 913.0 L362.8 913.0 L362.40002 912.60004 L362.40002 912.60004 L362.40002 912.60004 L362.40002 912.60004 L362.40002 912.60004 L362.40002 912.60004 L362.40002 912.60004 L362.40002 912.60004 L362.2 913.0 L362.2 913.0 L362.2 913.0 L362.2 913.0 L362.2 913.0 L362.2 913.0 L362.2 913.0 L362.2 913.0 L362.2 913.0 L362.2 913.0 L362.2 913.0 L362.40002 913.0 L362.8 913.0 L364.0 913.0 L365.6 913.0 L367.0 913.2 L368.80002 913.2 L371.0 913.2 L373.0 913.6 L375.80002 914.0 L378.6 915.4 L385.0 917.60004 L388.80002 918.6 L392.40002 920.0 L396.8 921.2 L400.6 922.2 L404.0 922.60004 L407.40002 922.60004 L410.2 923.0 L412.2 923.0 L413.0 923.0 L413.80002 923.0 L414.0 923.0 L414.0 923.0 L414.0 923.0 L414.0 923.0 L414.0 923.0 L414.0 923.0 L414.0 923.0 L414.0 923.2 L414.0 923.2 L414.0 923.2 L414.0 923.2 L414.0 923.2 L414.0 923.2 L414.0 923.2 L414.0 923.2 L414.0 923.2 L414.0 923.2 L414.19998 923.2 L414.19998 923.6 L414.59998 923.6 L415.2 924.0 L415.80002 924.4 L416.19998 925.0 L417.40002 925.80005 L417.59998 926.2 L418.6 926.2 L421.4 926.8 L422.59998 927.60004 L423.80002 928.0 L424.4 928.6 L425.40002 929.0 L426.0 930.0 L427.0 930.80005 L428.4 931.2 L429.4 931.8 L430.40002 932.2 L430.80002 932.2 L431.4 932.60004 L432.40002 933.0 L432.8 933.6 L433.4 933.6 L433.6 934.0 L434.0 934.4 L433.80002 934.4 L434.0 935.0 L434.19998 935.0 L434.59998 935.4 L435.0 935.80005 L435.6 936.60004 L435.80002 936.8 L437.0 938.0 L437.40002 938.2 L437.40002 938.6 L437.40002 938.6 L437.40002 938.6 L437.40002 938.6 L437.40002 938.6 L437.40002 938.6 L437.40002 938.6 L437.40002 938.6 L437.59998 939.0 L437.59998 939.0 L437.8 939.4 L438.6 940.80005 L439.19998 942.2 L440.0 943.2 L440.2 944.0 L440.40002 944.80005 L440.80002 946.2 L441.0 948.0 L441.8 949.80005 L442.0 951.60004 L442.2 952.60004 L442.40002 953.6 L442.40002 954.4 L442.8 955.4 L443.4 956.60004 L444.0 960.0 L444.19998 960.4 L444.59998 961.2 L444.4 960.80005 L444.4 960.80005 L444.4 960.80005 L444.4 960.80005 L444.19998 960.80005 L444.19998 961.2 L444.19998 961.2 L444.19998 961.2 L444.0 961.2 L444.0 961.2 L444.0 961.2 L443.4 961.2 L442.2 961.60004 L439.59998 961.2 L436.4 960.80005 L436.4 960.80005"
    stroke="rgb(25,25,25)" stroke-width="1" fill="none" stroke-linejoin="round"/>
  <path
    d="M360.0 966.60004 L359.59998 966.8 L359.59998 966.8 L359.4 966.8 L359.4 966.8 L359.4 966.8 L359.4 966.8 L359.4 966.8 L359.4 966.8 L359.4 966.8 L359.4 966.8 L359.59998 966.8 L359.59998 966.8 L360.0 966.8 L360.40002 967.2 L360.80002 967.2 L361.0 966.8 L361.4 967.2 L362.2 967.2 L363.4 967.60004 L364.4 968.6 L366.0 969.4 L367.8 970.4 L370.6 971.8 L373.4 973.0 L375.0 973.0 L375.80002 973.2 L377.0 973.2 L377.8 973.2 L380.40002 973.6 L383.4 973.6 L384.4 973.0 L386.19998 972.60004 L387.40002 972.2 L390.2 971.2 L391.19998 971.2 L393.6 970.80005 L395.0 970.80005 L396.0 970.80005 L396.8 970.80005 L397.40002 970.80005 L397.59998 970.80005 L400.40002 971.2 L401.4 971.2 L403.80002 971.2 L405.0 971.2 L405.80002 971.60004 L407.8 971.8 L409.0 971.8 L410.0 971.8 L410.80002 972.2 L411.4 971.8 L412.0 972.2 L412.40002 972.2 L412.8 972.2 L414.19998 971.8 L415.2 971.2 L416.0 970.80005 L417.40002 970.80005 L420.40002 969.80005 L421.4 969.0 L422.59998 968.6 L425.40002 967.2 L426.8 966.8 L428.4 966.2 L430.40002 965.4 L430.80002 965.4 L432.40002 965.80005 L432.59998 965.80005 L432.59998 966.2 L433.4 966.2 L434.0 966.8 L434.4 967.2 L435.6 967.60004 L435.80002 967.60004 L436.0 967.60004 L436.4 967.60004 L436.8 967.2 L437.0 967.2 L437.2 966.8 L437.59998 966.60004 L439.0 965.80005 L440.0 965.4 L440.80002 965.0 L441.8 964.80005 L442.2 964.80005 L442.8 965.0 L443.80002 965.0 L444.0 965.4 L445.40002 967.2 L445.80002 968.0 L446.19998 968.6 L447.0 969.4 L447.40002 969.4 L447.40002 969.4 L447.59998 969.0 L447.2 968.6 L447.2 968.6"
    stroke="rgb(25,25,25)" stroke-width="1" fill="none" stroke-linejoin="round"/>
  <path
    d="M397.0 961.60004 L397.40002 961.8 L398.4 961.8 L399.19998 961.8 L400.2 961.2 L401.4 960.80005 L402.40002 960.4 L403.4 959.80005 L404.0 959.0 L404.0 958.6 L404.59998 958.2 L405.2 958.0 L405.40002 957.60004 L405.40002 957.60004 L405.6 957.60004 L405.80002 957.60004 L406.0 957.60004 L406.19998 958.0 L406.8 958.2 L407.2 958.6 L407.8 959.4 L408.80002 959.80005 L409.4 960.0 L410.2 960.4 L410.6 960.4 L411.0 960.4 L412.0 960.4 L412.40002 960.4 L412.59998 960.4 L413.0 960.4 L413.4 960.4 L413.4 960.4 L413.6 960.4 L413.6 960.4 L413.6 960.0 L413.4 960.0 L413.6 960.0 L413.4 960.4 L413.4 960.0 L413.4 960.0 L413.0 960.0 L413.0 960.0 L413.0 960.0 L412.8 960.0 L412.59998 960.0 L412.40002 960.0 L412.2 959.4 L410.6 959.0 L410.0 959.0 L409.19998 958.6 L409.0 958.2 L409.0 958.2 L408.80002 958.0 L408.0 957.60004 L407.40002 957.2 L407.2 956.60004 L406.19998 955.80005 L406.0 955.4 L405.80002 955.4 L405.40002 955.0 L405.0 954.4 L404.0 953.6 L403.0 952.60004 L402.40002 951.2 L401.0 950.4 L400.40002 949.4 L399.0 948.0 L398.4 947.2 L397.40002 946.60004 L396.4 945.4 L395.6 944.4 L395.0 943.6 L394.0 942.60004 L393.6 942.2 L393.0 941.8 L392.59998 941.2 L392.0 940.4 L390.80002 939.4 L389.0 936.2 L388.6 935.80005 L387.8 935.0 L387.2 934.0 L386.4 933.6 L386.4 933.6 L386.19998 933.6 L386.19998 933.6 L386.19998 933.2 L386.19998 933.2 L386.0 933.6 L386.0 933.6 L386.0 933.6 L385.80002 933.6 L385.80002 933.6 L385.80002 933.6 L385.80002 933.6 L385.2 933.2 L384.4 933.6 L384.4 933.6"
    stroke="rgb(25,25,25)" stroke-width="1" fill="none" stroke-linejoin="round"/>
  <path
    d="M383.0 960.4 L383.6 959.4 L383.80002 959.0 L384.0 959.0 L384.4 958.2 L384.59998 957.60004 L385.40002 957.2 L387.0 955.4 L387.8 955.0 L389.0 954.0 L390.2 953.6 L391.19998 953.0 L392.2 952.60004 L393.0 952.60004 L394.0 951.8 L395.6 950.80005 L397.2 950.4 L398.80002 949.4 L400.0 949.0 L400.80002 949.0 L401.8 948.6 L402.8 948.0 L404.19998 947.60004 L405.2 947.2 L405.6 947.2 L406.0 946.8 L406.4 946.8 L407.40002 946.2 L407.8 945.80005 L408.6 945.0 L409.19998 944.80005 L410.0 944.4 L410.40002 943.6 L410.80002 943.2 L411.4 943.0 L411.4 942.60004 L412.0 942.60004 L412.2 942.2 L412.40002 941.8 L412.8 941.2 L413.0 940.80005 L413.4 940.80005 L413.6 940.80005 L414.0 940.4 L414.19998 939.80005 L414.59998 939.0 L415.2 939.0 L415.6 938.6 L415.80002 938.6 L416.0 938.6 L416.19998 938.6 L416.19998 938.6 L416.4 938.6 L416.4 938.6 L416.4 938.6 L416.4 938.6 L416.4 938.6 L416.4 938.6 L416.19998 938.6 L416.19998 938.6 L416.19998 938.6 L416.0 938.6 L415.6 938.6 L414.0 938.2 L414.0 938.2"
    stroke="rgb(25,25,25)" stroke-width="1" fill="none" stroke-linejoin="round"/>
  <path
    d="M502.8 812.60004 L502.40002 815.4 L502.40002 818.6 L502.40002 821.2 L503.4 823.0 L504.0 824.4 L504.19998 824.80005 L504.59998 825.0 L504.59998 825.0 L505.0 825.0 L505.0 825.4 L505.0 825.4 L505.0 825.4 L505.0 825.4 L505.0 825.4 L505.0 825.0 L504.19998 825.0 L504.19998 824.4 L504.0 823.6 L504.0 823.0 L503.4 821.8 L502.40002 816.8 L501.4 813.6 L501.0 810.0 L500.80002 807.2 L500.40002 804.0 L500.40002 799.80005 L500.6 794.4 L500.80002 789.4 L500.80002 784.4 L501.19998 778.6 L502.40002 767.60004 L503.0 761.8 L505.80002 748.2 L506.8 743.6 L508.0 738.6 L509.4 734.0 L510.6 730.4 L512.0 727.2 L513.0 724.4 L514.0 723.0 L514.6 721.8 L515.0 721.2 L515.2 721.2 L515.2 721.2 L515.2 721.2 L515.2 721.60004 L515.4 721.8 L515.4 721.8 L515.60004 721.8 L515.80005 722.2 L516.0 722.60004 L516.4 723.0 L517.0 723.2 L517.4 723.6 L517.6 724.0 L518.0 724.0 L518.6 724.4 L519.0 724.4 L519.6 724.80005 L520.80005 725.0 L522.2 725.4 L524.0 726.2 L526.2 727.2 L530.80005 728.0 L535.2 729.0 L545.4 731.60004 L550.80005 733.0 L556.2 735.80005 L567.2 741.2 L579.0 748.6 L582.0 750.0 L584.19995 751.60004 L587.0 752.60004 L587.8 754.0 L588.6 754.80005 L589.0 755.4 L589.6 755.80005 L590.4 756.8 L591.4 758.2 L592.2 759.4 L592.4 759.4 L592.4 759.80005 L592.6 760.0 L593.4 760.0 L594.0 760.80005 L595.2 761.8 L596.2 763.6 L597.2 764.4 L597.4 765.0 L597.6 765.80005 L598.0 766.8 L598.6 768.0 L598.8 769.0 L599.0 770.80005 L598.6 780.0 L597.8 784.0 L597.2 790.0 L595.80005 795.80005 L593.8 802.2 L592.0 809.4 L590.0 817.2 L587.8 824.80005 L585.4 832.2 L583.0 839.0 L580.80005 844.4 L579.0 848.6 L576.8 851.60004 L575.2 853.6 L573.0 855.80005 L572.6 856.2 L572.4 856.8 L572.2 856.8 L572.0 857.2 L571.2 857.2 L570.4 856.8 L568.4 856.60004 L566.8 856.2 L565.4 855.80005 L562.8 855.4 L560.60004 855.4 L557.8 854.80005 L555.2 854.0 L552.2 854.0 L549.0 854.0 L542.4 854.0 L535.80005 854.4 L529.19995 854.0 L525.60004 854.0 L517.8 854.80005 L514.0 854.80005 L510.0 855.0 L506.0 855.4 L501.8 855.4 L497.8 855.80005 L494.19998 855.80005 L490.80002 855.80005 L487.2 855.4 L483.6 855.0 L480.2 854.0 L477.0 853.6 L474.19998 852.60004 L472.40002 851.60004 L471.4 850.4 L470.80002 849.80005 L470.6 848.6 L470.80002 847.2 L471.19998 844.80005 L473.80002 838.0 L478.0 828.6 L482.40002 818.0 L482.40002 818.0"
    stroke="rgb(25,25,25)" stroke-width="1" fill="none" stroke-linejoin="round"/>
</svg>
