<svg width="809.8967" height="1358.2659" xmlns="http://www.w3.org/2000/svg" version="1.1" xmlns:xlink="http://www.w3.org/1999/xlink" ><path d="M357.0 635.2 L365.80002 636.0 L366.4 635.80005 L367.0 635.80005 L367.2 635.80005 L367.2 635.2 L367.40002 634.6 L367.0 634.19995 L366.8 633.8 L365.80002 631.0 L366.19998 630.2 L365.80002 629.6 L365.80002 630.0 L365.80002 630.2 L365.6 630.4 L365.6 630.60004 L365.6 630.80005 L365.80002 630.80005 L365.80002 630.80005 L366.8 631.4 L367.0 631.4 L367.2 631.8 L368.0 632.4 L368.0 632.4 L367.8 632.4 L367.40002 632.4 L367.59998 632.6 L367.40002 632.6 L367.40002 632.6 L367.59998 632.6 L367.59998 632.6 L367.8 632.8 L367.8 633.0 L367.59998 633.0 L367.59998 633.0 L367.8 633.0 L367.8 633.0 L367.8 633.0 L367.8 633.0 L367.8 633.4 L368.0 633.4 L368.0 633.4 L368.0 633.4 L368.80002 633.4 L368.4 633.4 L368.6 633.4 L368.6 633.4 L368.80002 633.4 L368.4 633.4 L368.6 633.4 L368.80002 633.6 L369.0 633.4 L369.0 633.4 L371.0 633.6 L371.8 633.6 L375.0 634.0 L375.80002 634.0 L376.19998 634.0 L376.8 634.19995 L377.2 634.39996 L377.8 635.0 L378.4 634.6 L381.19998 635.80005 L381.19998 635.80005 L381.19998 635.80005 L381.4 635.80005 L385.80002 636.0 L386.19998 636.2 L387.2 636.4 L389.0 636.8 L389.0 637.0 L389.59998 636.8 L390.40002 636.8 L392.59998 636.4 L394.0 636.2 L394.0 636.2 L394.0 636.4 L394.0 636.2 L394.19998 636.2 L395.0 636.2 L395.0 636.2 L395.40002 636.4 L395.6 636.2 L396.0 636.0 L398.0 635.60004 L400.2 635.2 L402.40002 634.6 L404.19998 634.39996 L405.0 634.39996 L405.80002 634.39996 L406.0 634.39996 L406.19998 634.39996 L406.4 634.39996 L406.8 634.39996 L406.8 634.39996 L406.8 634.39996 L406.19998 634.39996 L406.19998 634.19995 L406.4 634.39996 L406.4 634.39996 L410.0 634.0 L411.8 634.0 L412.59998 633.8 L413.6 633.8 L414.19998 634.0 L415.2 634.0 L415.80002 634.0 L416.4 634.0 L417.40002 634.19995 L419.0 634.39996 L420.40002 635.0 L420.80002 635.0 L421.0 635.0 L421.8 635.2 L421.19998 635.2 L421.4 635.2 L421.4 635.2 L421.8 635.0 L421.8 635.2 L421.8 635.2 L422.0 635.2 L422.0 635.2 L422.2 635.2 L422.40002 635.2 L422.59998 635.2 L422.8 635.2 L423.6 635.4 L424.4 635.4 L427.2 635.80005 L428.0 635.80005 L429.4 635.80005 L430.6 635.80005 L431.0 635.80005 L431.19998 635.80005 L431.4 635.80005 L431.4 635.80005 L431.4 635.80005 L431.4 636.0 L431.4 636.0 L431.4 636.0 L431.8 636.2 L431.8 636.4 L432.0 636.8 L432.2 637.0 L432.40002 637.4 L432.8 638.0 L433.4 638.4 L433.6 638.6 L433.80002 638.8 L434.0 638.8 L434.0 638.8 L434.0 638.8 L434.0 638.8 L434.0 638.8 L434.0 638.8 L434.0 638.8 L434.0 638.8 L433.80002 638.8 L433.80002 639.0 L434.0 639.0 L433.80002 639.0 L433.80002 639.0 L433.80002 639.0 L433.80002 638.8 L433.80002 639.0 L433.80002 639.0 L433.80002 639.0 L433.80002 639.0 L433.80002 639.0 L433.80002 639.0 L433.80002 639.0 L433.80002 639.0 L433.80002 638.8 L433.80002 639.0 L433.6 638.8 L433.6 638.8 L433.80002 639.0 L433.80002 638.8 L433.6 638.8 L433.6 638.8 L433.6 638.8 L433.6 638.8 L433.6 638.8 L433.6 638.8 L433.6 638.8 L433.80002 638.8 L433.80002 638.8 L433.80002 638.8 L433.6 638.8 L433.80002 638.8 L433.80002 638.8 L433.80002 638.8 L433.80002 638.8 L433.6 638.6 L433.80002 638.8 L433.80002 638.8 L433.80002 638.8 L433.80002 638.8 L433.80002 638.8 L433.80002 638.8 L433.6 638.8 L433.80002 638.8 L433.80002 638.8 L433.6 638.8 L433.80002 638.8 L433.6 638.6 L433.80002 638.8 L433.80002 638.6 L433.80002 638.6 L433.6 638.6 L433.80002 638.6 L433.6 638.6 L433.6 638.6 L433.6 638.6 L433.80002 638.6 L433.6 638.4 L433.6 638.4 L433.6 638.4 L433.6 638.4 L433.6 638.4 L433.6 638.4 L433.6 638.4 L433.6 638.4 L433.6 638.4 L434.0 638.4 L434.0 638.0 L434.0 638.4 L434.0 638.0 L434.0 638.0 L434.0 638.0 L434.19998 637.4 L434.0 637.8 L433.80002 637.4 L433.80002 636.4 L433.6 634.6 L433.6 633.8 L433.6 633.6 L433.6 633.8 L433.6 633.6 L433.6 633.6 L433.6 633.6 L433.6 633.6 L433.6 633.6 L433.6 633.6 L433.6 633.6 L433.6 633.6 L433.6 633.6 L433.4 633.6 L433.4 633.4 L433.4 633.6 L433.4 633.4 L433.4 633.4 L433.4 633.4 L433.0 633.0 L433.0 633.0 L432.8 632.8 L432.8 632.8 L432.59998 632.4 L432.2 632.2 L432.2 632.0 L432.2 631.8 L432.2 631.4 L432.2 631.4 L432.0 631.2 L432.0 631.2 L432.0 631.0 L433.4 631.2 L434.0 631.2 L433.80002 631.2 L433.4 631.0 L433.4 631.0 L433.4 631.0 L433.4 631.0 L433.4 631.0 L433.4 631.0 L433.4 631.0 L433.0 631.0 L433.0 630.80005 L433.0 630.80005 L433.0 630.80005 L432.8 630.80005 L432.8 630.80005 L432.59998 630.60004 L432.40002 630.60004 L432.2 630.2 L432.0 629.6 L431.8 629.19995 L431.4 629.0 L431.19998 628.8 L431.0 628.8 L431.0 628.6 L430.80002 628.4 L423.80002 618.8 L423.4 618.4 L422.8 618.0 L422.40002 617.6 L422.2 617.4 L421.8 617.2 L421.19998 616.8 L421.0 616.2 L420.80002 616.0 L420.80002 616.0 L420.6 615.80005 L420.6 615.80005 L420.40002 615.80005 L420.40002 615.80005 L420.2 615.80005 L419.59998 615.80005 L418.80002 615.60004 L418.0 615.4 L417.40002 615.2 L417.0 615.0 L416.8 614.6 L416.4 614.39996 L415.80002 614.39996 L413.80002 613.6 L412.8 613.0 L412.40002 612.8 L412.2 612.6 L412.0 612.8 L411.4 612.6 L411.19998 612.4 L410.6 612.4 L410.6 612.4 L410.40002 612.4 L410.2 612.4 L410.2 612.2 L409.0 612.2 L407.40002 611.8 L407.2 611.8 L407.0 611.8 L406.8 611.8 L406.19998 612.0 L405.80002 612.0 L405.80002 612.0 L405.80002 612.2 L405.6 612.2 L405.6 612.0 L405.40002 612.0 L404.59998 612.0 L404.59998 612.0 L404.4 612.0 L404.19998 612.0 L404.0 612.0 L402.8 611.8 L400.6 610.60004 L400.80002 610.2 L400.2 610.2 L399.19998 610.0 L399.19998 609.6 L399.0 610.0 L399.0 610.0 L398.80002 609.6 L398.80002 609.6 L398.6 609.6 L398.6 610.0 L398.4 609.6 L398.0 610.0 L397.8 609.6 L396.8 609.6 L396.0 610.0 L395.6 610.0 L394.4 609.6 L394.0 609.39996 L393.6 609.19995 L392.59998 609.0 L392.40002 608.8 L392.40002 608.8 L393.0 608.6 L392.59998 608.4 L392.2 607.8 L391.8 608.0 L391.4 607.8 L391.19998 607.8 L390.80002 608.0 L390.6 607.8 L390.40002 608.0 L389.0 607.8 L389.0 608.0 L388.80002 608.4 L388.6 608.4 L388.0 608.6 L387.2 608.8 L387.0 609.0 L386.4 609.0 L386.0 609.19995 L385.0 610.0 L384.0 610.4 L383.6 610.60004 L383.6 610.80005 L383.0 610.80005 L382.8 610.80005 L382.59998 610.80005 L382.40002 610.80005 L382.40002 611.0 L381.4 611.0 L381.0 611.0 L380.6 611.2 L380.0 611.4 L380.6 612.4 L368.4 624.0 L368.0 623.8 L365.40002 625.60004 L364.59998 625.80005 L365.0 625.80005 L364.4 626.2 L362.59998 627.0 L360.6 629.0 L360.6 629.0" stroke="rgb(25,25,25)" stroke-width="1" fill="none" stroke-linejoin="round" /> <path d="M434.19998 665.0 L434.59998 664.80005 L434.59998 664.80005 L435.2 665.0 L435.40002 665.0 L435.6 665.0 L435.6 665.0 L435.40002 665.0 L435.40002 665.4 L435.40002 665.0 L435.2 665.0 L434.59998 665.0 L434.59998 665.0 L434.19998 665.0 L434.0 665.0 L433.6 665.0 L433.0 665.0 L432.59998 665.4 L432.40002 665.4 L432.40002 665.4 L431.4 665.80005 L430.40002 666.2 L430.0 666.2 L429.0 666.8 L428.4 667.60004 L427.59998 668.6 L427.40002 670.0 L427.0 671.2 L427.2 672.2 L427.2 672.60004 L427.2 672.60004 L427.0 673.6 L426.0 675.4 L426.0 675.80005 L426.0 675.80005 L426.0 675.4 L426.0 675.80005 L426.0 675.80005 L426.0 675.80005 L426.0 675.80005 L426.0 675.80005 L426.0 675.80005 L425.6 675.80005 L425.6 676.60004 L425.6 677.2 L425.40002 681.2 L425.40002 681.60004 L425.2 682.2 L425.2 682.2 L425.2 682.2 L425.2 682.60004 L425.2 682.60004 L425.0 683.0 L425.0 683.0 L425.0 683.6 L425.0 683.6 L425.0 684.0 L425.0 684.0 L425.0 684.4 L425.2 685.0 L424.59998 687.60004 L425.40002 688.6 L425.40002 689.4 L423.80002 691.8 L423.80002 692.2 L423.80002 692.2 L423.80002 692.2 L423.6 692.2 L423.6 692.60004 L423.6 692.2 L423.6 692.2 L423.6 692.2 L423.6 692.60004 L423.6 692.60004 L423.4 692.60004 L422.8 693.0 L422.40002 694.0 L422.0 695.80005 L421.4 696.2 L420.80002 697.2 L419.59998 698.0 L419.4 698.0 L419.4 698.0 L419.19998 698.0 L419.0 698.2 L418.80002 698.6 L418.0 699.0 L417.40002 700.0 L415.80002 701.60004 L415.40002 702.2 L413.6 703.0 L413.0 703.2 L412.0 703.6 L410.80002 704.4 L410.6 704.80005 L409.59998 705.0 L409.4 705.4 L409.0 705.4 L409.0 705.4 L408.6 705.80005 L407.8 706.2 L407.0 706.2 L406.19998 706.8 L405.80002 706.8 L405.6 707.2 L405.0 707.60004 L404.4 707.60004 L404.19998 708.0 L404.0 708.0 L402.8 708.2 L402.40002 708.6 L400.2 710.0 L399.0 710.0 L395.40002 710.80005 L395.2 710.80005 L393.80002 710.4 L393.0 710.0 L391.8 709.0 L390.0 709.0 L389.0 709.0 L387.8 709.0 L387.40002 709.0 L385.80002 709.0 L384.0 709.4 L380.80002 710.80005 L379.0 711.2 L379.0 711.2 L378.80002 711.2 L378.80002 711.2 L378.80002 711.2 L378.4 711.2 L377.59998 711.2 L375.80002 710.80005 L375.2 710.4 L374.59998 710.4 L374.0 710.4 L372.59998 710.0 L370.80002 709.80005 L370.6 709.4 L370.2 709.0 L370.0 708.6 L369.4 708.2 L369.19998 708.0 L369.19998 708.2 L369.19998 708.2 L363.4 703.6 L360.80002 701.60004 L360.6 701.60004 L360.40002 701.60004 L360.2 701.60004 L360.2 701.2 L360.0 701.2 L359.59998 700.4 L359.0 700.0 L356.4 695.80005 L356.0 695.0 L356.8 693.2 L355.80002 692.60004 L355.40002 691.8 L355.2 691.2 L355.0 690.80005 L354.4 690.80005 L354.4 690.80005 L354.19998 691.2 L354.0 690.80005 L354.0 690.80005 L354.0 690.80005 L354.0 690.4 L354.0 690.4 L354.0 690.4 L353.6 690.4 L353.4 685.80005 L353.4 683.2 L353.6 682.2 L353.6 681.2 L353.0 679.0 L352.8 678.6 L352.8 678.2 L352.2 677.60004 L352.2 676.8 L352.2 676.2 L352.40002 675.0 L352.0 674.4 L352.2 673.0 L352.59998 666.60004 L352.8 665.80005 L353.4 664.80005 L354.0 662.60004 L354.0 662.60004 L354.0 662.60004 L353.6 662.60004 L353.4 662.60004 L353.6 662.60004 L353.6 662.60004 L353.6 663.2 L353.80002 665.80005 L353.80002 668.0 L353.80002 668.0" stroke="rgb(25,25,25)" stroke-width="1" fill="none" stroke-linejoin="round" /> <path d="M346.19998 661.2 L346.8 661.60004 L346.4 661.2 L347.2 661.2 L348.80002 661.2 L350.80002 662.60004 L351.4 662.60004 L352.40002 662.60004 L353.6 662.2 L354.0 662.2 L354.59998 661.8 L354.59998 661.8 L354.59998 661.8 L354.19998 662.2 L354.4 661.8 L356.19998 661.8 L357.2 661.8 L357.59998 661.8 L360.40002 661.8 L360.6 661.60004 L364.4 661.2 L365.2 661.2 L367.40002 661.8 L367.8 662.2 L370.2 663.0 L375.0 662.60004 L375.80002 662.2 L375.80002 662.2 L376.0 661.8 L380.80002 660.0 L387.59998 660.80005 L391.19998 663.0 L392.40002 663.6 L392.8 663.6 L394.0 664.4 L394.19998 664.4 L394.19998 664.4 L394.4 664.4 L395.0 664.4 L394.4 664.80005 L395.2 664.80005 L397.40002 665.4 L397.59998 665.4 L397.0 665.4 L397.40002 665.4 L397.40002 665.4 L398.80002 665.80005 L402.2 666.60004 L403.0 666.60004 L403.6 666.8 L404.0 666.60004 L407.2 667.2 L410.0 667.60004 L410.80002 668.0 L411.4 668.0 L415.0 667.60004 L415.2 667.60004 L415.40002 667.2 L416.19998 666.8 L418.6 665.80005 L419.0 665.80005 L420.40002 665.0 L421.4 664.80005 L424.0 664.0 L424.59998 664.0 L425.2 664.0 L425.6 663.6 L426.4 664.0 L427.40002 664.0 L429.0 664.0 L430.2 663.6 L430.40002 663.2 L430.80002 663.0 L431.19998 663.0 L432.40002 662.2 L433.4 661.8 L434.19998 661.8 L436.0 661.60004 L436.19998 661.60004 L436.4 661.8 L436.8 661.8 L437.40002 661.8 L437.40002 661.8 L437.40002 661.8 L437.40002 661.8 L437.40002 661.8 L437.40002 661.8 L437.40002 661.8 L437.40002 661.8 L437.40002 661.8 L437.2 661.8 L437.40002 661.8 L437.40002 661.8 L437.2 661.8 L437.2 661.8 L437.59998 663.6 L437.59998 663.6" stroke="rgb(25,25,25)" stroke-width="5" fill="none" stroke-linejoin="round" /> <path d="M429.4 664.4 L430.2 664.4 L429.59998 664.4 L429.0 665.0 L429.0 665.4 L429.0 667.60004 L428.80002 670.80005 L428.6 670.80005 L429.0 670.80005 L428.6 671.2 L428.4 670.80005 L428.4 670.80005 L427.8 670.0 L427.40002 669.4 L426.19998 668.0 L425.80002 667.60004 L426.0 667.60004 L425.40002 666.8 L424.4 666.2 L424.19998 666.2 L424.19998 666.2 L423.4 666.2 L423.0 665.80005 L422.40002 665.4 L421.0 665.4 L420.80002 665.4 L420.0 665.4 L419.4 665.4 L419.0 665.4 L419.0 665.4 L418.4 665.4 L417.8 665.80005 L417.40002 665.80005 L417.59998 665.80005 L417.40002 665.80005 L417.0 665.80005 L417.40002 665.80005 L415.2 665.80005 L415.6 665.80005 L414.4 665.80005 L413.80002 665.80005 L413.6 665.80005 L412.40002 666.2 L411.8 666.2 L410.2 666.60004 L409.59998 666.60004 L409.0 666.2 L408.4 666.2 L407.59998 665.80005 L407.40002 666.2 L407.0 666.2 L403.80002 666.60004 L402.2 666.2 L400.80002 666.2 L400.2 666.2 L399.4 665.80005 L399.0 665.80005 L397.40002 665.80005 L394.0 666.2 L393.6 666.2 L391.4 665.80005 L391.4 665.4 L390.2 665.4 L389.19998 665.0 L386.8 664.0 L382.2 661.8 L374.0 660.80005 L373.0 661.2 L371.8 661.60004 L370.2 662.2 L368.0 662.60004 L366.8 661.2 L366.19998 661.2 L365.2 659.0 L362.40002 655.80005 L361.19998 654.4 L361.19998 654.0 L360.80002 653.6 L359.0 648.2 L380.2 641.2 L401.4 637.6 L402.40002 637.4 L405.80002 637.0 L405.80002 637.0 L433.6 637.8 L435.80002 638.8 L435.80002 638.8 L436.0 639.0 L437.0 639.39996 L440.0 641.60004 L442.8 643.6 L443.4 643.6 L443.4 644.0 L444.4 645.80005 L445.0 646.60004 L445.6 647.2 L445.80002 647.60004 L445.80002 648.0 L446.0 648.6 L446.0 649.4 L446.8 650.80005 L447.0 651.60004 L447.2 651.8 L447.40002 652.2 L447.40002 653.0 L447.2 654.0 L448.0 657.2 L448.0 657.2 L448.4 657.60004 L448.4 657.60004 L448.6 658.0 L448.6 658.0 L448.6 658.2 L448.6 658.6 L448.80002 659.0 L448.0 659.4 L448.4 659.4 L448.4 659.4 L448.4 659.80005 L448.0 659.80005 L448.0 660.0 L448.0 660.0 L448.0 660.0 L448.0 660.0 L448.0 660.0 L448.0 660.0 L448.0 660.0 L447.8 660.4 L447.40002 660.4 L447.40002 660.80005 L447.2 660.80005 L446.8 661.8 L445.80002 663.6 L445.0 665.80005 L444.0 667.2 L443.4 668.2 L442.2 669.0 L442.2 669.0 L441.19998 669.4 L440.6 669.4 L439.4 669.80005 L438.80002 670.0 L437.8 670.4 L436.8 670.80005 L435.0 671.60004 L434.59998 671.8 L434.4 671.60004 L434.0 671.8 L433.80002 671.8 L433.0 671.8 L432.40002 671.8 L432.2 671.8 L432.2 671.8 L432.2 671.8 L432.2 671.8 L432.40002 671.8 L432.2 671.8 L432.40002 671.8 L432.2 671.8 L431.8 671.8 L431.8 671.8 L431.8 671.8 L431.8 671.8 L432.0 671.8 L432.0 671.8 L432.0 671.8 L432.0 671.8 L432.0 671.8 L432.2 671.8 L432.2 672.2 L432.40002 672.2 L432.40002 672.2 L432.40002 674.0 L432.40002 675.0 L432.40002 675.80005 L432.40002 675.80005" stroke="rgb(245,60,30)" stroke-width="5" fill="none" stroke-linejoin="round" /> <path d="M410.80002 667.2 L408.4 665.80005 L404.0 665.80005 L403.0 666.2 L402.2 666.60004 L401.4 666.60004 L400.80002 666.8 L400.6 666.8 L399.59998 666.8 L399.19998 666.8 L398.80002 666.8 L377.0 660.0 L376.0 660.80005 L376.4 660.4 L365.80002 662.60004 L364.4 662.2 L364.0 662.2 L362.59998 661.8 L360.0 660.80005 L358.80002 660.80005 L358.0 660.4 L358.0 660.4 L357.0 659.80005 L357.0 659.4 L356.4 659.0 L355.6 659.0 L355.6 659.0 L355.0 658.6 L354.4 658.6 L353.6 658.2 L353.0 658.0 L353.80002 640.4 L355.0 640.4 L358.6 640.0 L364.4 637.8 L364.59998 637.4 L365.2 637.4 L365.2 637.4 L365.2 637.4 L365.2 637.4 L365.40002 637.4 L365.40002 637.4 L365.40002 637.6 L365.6 637.4 L365.80002 637.6 L365.80002 637.6" stroke="rgb(0,190,150)" stroke-width="5" fill="none" stroke-linejoin="round" /> <path d="M415.2 654.80005 L415.2 655.0 L414.59998 655.0 L415.40002 655.0 L417.0 658.6 L416.4 658.6 L416.4 658.6 L415.80002 658.0 L415.80002 658.2 L415.6 658.0 L415.2 658.0 L414.19998 658.2 L414.19998 658.6 L414.19998 658.6" stroke="rgb(50,90,240)" stroke-width="5" fill="none" stroke-linejoin="round" /> <path d="M413.6 657.2 L414.0 657.60004 L414.0 657.60004 L414.4 658.0 L414.4 657.60004 L409.0 651.8 L407.59998 650.0 L407.40002 648.6 L406.8 646.8 L405.40002 643.6 L405.2 643.0 L405.0 642.60004 L404.59998 641.8 L404.0 641.2 L403.80002 641.2 L400.6 637.4 L400.40002 637.4 L400.2 637.4 L399.4 637.4 L399.4 637.4 L399.19998 637.6 L399.0 637.8 L399.0 638.4 L398.80002 638.8 L398.6 639.0 L398.6 639.0 L397.8 639.0 L398.0 639.0 L398.0 639.0 L398.0 639.0 L398.0 639.0 L398.0 639.0 L398.0 639.0 L397.40002 639.0 L397.40002 638.8 L397.40002 639.0 L397.59998 639.0 L397.59998 639.0 L398.0 640.0 L398.4 640.80005 L398.4 641.2 L398.4 641.2" stroke="rgb(50,90,240)" stroke-width="5" fill="none" stroke-linejoin="round" /> <path d="M379.19998 652.2 L386.19998 648.0 L387.8 646.2 L393.4 643.0 L395.40002 641.8 L395.6 641.2 L397.40002 641.2 L397.8 641.2 L398.6 640.80005 L399.0 640.80005 L401.8 641.60004 L402.59998 641.8 L404.0 642.60004 L404.59998 642.60004 L405.80002 643.0 L407.2 643.2 L407.59998 643.6 L409.0 644.0 L409.59998 644.4 L411.4 644.80005 L412.2 645.4 L413.6 645.80005 L414.0 646.2 L415.40002 646.8 L415.80002 647.60004 L416.19998 647.60004 L416.4 648.0 L416.8 648.2 L416.8 648.6 L417.2 649.0 L417.40002 648.6 L417.59998 649.0 L417.59998 649.0 L418.0 649.0 L418.6 649.0 L419.19998 649.80005 L419.59998 650.0 L420.0 650.0 L420.6 650.4 L420.80002 650.4 L421.19998 650.4 L421.8 650.4 L422.2 650.4 L422.40002 650.80005 L423.4 651.2 L423.80002 651.2 L424.19998 651.2 L424.59998 650.80005 L424.59998 650.80005" stroke="rgb(50,90,240)" stroke-width="5" fill="none" stroke-linejoin="round" /> <path d="M438.4 667.2 L438.4 667.2 L437.59998 666.60004 L437.40002 666.2 L436.8 665.4 L436.4 664.4 L436.0 664.0 L435.80002 663.0 L435.40002 662.60004 L434.0 661.2 L433.6 661.60004 L432.59998 661.60004 L432.0 661.8 L429.19998 662.60004 L428.0 663.0 L426.19998 664.4 L425.80002 664.0 L425.6 664.0 L425.2 664.4 L424.59998 664.4 L424.4 664.4 L424.59998 664.0 L424.4 664.0 L424.0 664.0 L422.2 663.6 L419.4 662.2 L418.80002 661.60004 L418.0 661.2 L417.8 661.2 L417.0 660.80005 L415.40002 660.0 L413.80002 659.0 L410.0 657.60004 L403.6 657.60004 L402.40002 657.60004 L401.4 657.60004 L397.2 657.60004 L387.59998 656.2 L382.0 651.8 L379.59998 650.0 L374.0 645.0 L371.8 643.6 L371.8 643.6 L371.19998 643.6 L371.4 643.6 L371.19998 643.6 L371.8 643.6 L371.8 643.2 L371.0 643.6 L371.0 643.6 L371.0 643.6" stroke="rgb(50,90,240)" stroke-width="5" fill="none" stroke-linejoin="round" /> <path d="M362.2 658.0 L374.4 651.8 L380.0 648.0 L383.4 647.60004 L396.8 649.0 L401.4 648.6 L402.59998 648.6 L405.80002 649.0 L407.40002 649.0 L409.0 649.4 L410.0 649.4 L410.80002 649.4 L410.80002 649.0 L411.8 649.0 L412.40002 649.0 L415.0 647.2 L415.40002 646.8 L416.19998 646.2 L417.0 646.2 L416.8 645.80005 L417.59998 645.80005 L418.0 645.80005 L418.80002 645.80005 L420.6 645.0 L421.19998 644.80005 L422.40002 644.4 L424.4 643.2 L425.0 643.2 L425.40002 643.0 L426.0 642.60004 L427.0 642.2 L427.8 641.8 L431.4 639.6 L431.8 639.6 L432.2 639.39996 L432.40002 639.6 L432.40002 640.0 L432.40002 640.0 L432.40002 640.0 L432.59998 640.0 L432.59998 640.0 L432.59998 640.0 L432.40002 640.0 L432.8 640.0 L432.8 640.0 L432.8 640.4 L432.59998 640.0 L432.59998 640.0 L432.8 640.0 L432.59998 640.0 L432.59998 640.0 L432.59998 640.0 L432.8 640.4 L433.6 640.4 L434.0 640.80005 L434.0 641.8 L434.0 643.2 L434.0 643.2" stroke="rgb(50,90,240)" stroke-width="5" fill="none" stroke-linejoin="round" /> <path d="M442.0 667.2 L441.8 666.8 L441.8 666.8 L441.4 667.2 L441.19998 667.2 L440.80002 667.2 L440.40002 667.60004 L440.0 667.60004 L439.4 667.60004 L439.4 667.60004 L439.4 667.60004 L439.19998 667.2 L438.80002 666.8 L437.40002 665.4 L437.40002 664.80005 L437.2 664.4 L437.0 664.0 L436.8 663.6 L436.19998 662.60004 L435.80002 661.2 L435.6 660.80005 L435.40002 660.80005 L435.2 660.80005 L435.2 660.4 L435.0 660.4 L435.0 660.4 L435.0 660.4 L435.0 660.0 L434.59998 660.0 L434.4 660.0 L434.0 660.0 L433.0 659.0 L430.2 656.60004 L430.2 656.2 L430.0 656.2 L430.2 655.80005 L428.6 655.0 L427.40002 654.4 L427.40002 654.0 L426.8 653.6 L425.80002 653.0 L425.2 652.60004 L424.19998 652.2 L423.80002 651.8 L423.0 651.8 L422.40002 651.2 L421.4 650.4 L420.80002 650.0 L420.40002 649.80005 L420.0 649.4 L419.59998 649.0 L419.0 648.6 L418.6 648.0 L415.80002 645.4 L414.4 645.0 L414.4 644.4 L414.4 644.80005 L414.4 644.80005 L414.4 644.4 L414.19998 644.4 L414.19998 644.4 L414.4 644.4 L414.19998 644.80005 L414.19998 644.80005 L414.19998 644.80005 L414.19998 644.80005 L414.19998 644.80005 L414.19998 644.80005 L414.19998 644.80005 L414.19998 644.80005 L414.0 644.80005 L414.0 644.80005 L414.0 644.80005 L414.19998 644.80005 L414.19998 644.80005 L414.19998 645.0 L414.19998 645.0 L414.0 643.6 L413.0 634.6 L413.0 634.6" stroke="rgb(0,190,150)" stroke-width="5" fill="none" stroke-linejoin="round" /> <path d="M362.8 624.6 L391.19998 626.2 L402.2 649.4 L402.59998 646.2 L416.4 653.0 L419.59998 657.60004 L420.6 657.60004 L421.4 656.8 L422.40002 655.0 L423.0 652.2 L429.0 640.4 L430.40002 646.8 L431.0 650.0 L432.59998 654.80005 L433.0 656.2 L433.4 656.8 L433.6 656.8 L433.6 656.2 L433.80002 655.0 L435.2 634.6 L435.2 632.6 L435.6 629.6 L435.80002 630.0 L436.19998 631.0 L438.80002 636.0 L444.19998 648.0 L448.80002 654.0 L449.19998 655.4 L449.59998 656.8 L450.2 657.60004 L449.59998 658.0 L449.4 658.0 L449.4 657.60004 L449.4 657.2 L449.4 657.2 L449.59998 656.2 L450.0 655.4 L450.0 653.6 L449.59998 648.6 L450.80002 639.39996 L451.0 638.4 L451.4 637.6 L451.4 637.2 L450.80002 637.0 L451.8 637.0 L451.8 637.2 L452.0 637.2 L452.0 637.4 L452.2 637.4 L455.6 637.6 L462.8 644.80005 L464.19998 645.4 L465.0 645.4 L465.0 645.4 L465.0 645.0 L464.4 645.0 L463.6 645.0 L464.19998 645.0 L464.19998 645.0 L464.4 645.0 L464.19998 645.0 L463.80002 644.80005 L463.80002 644.0 L465.40002 643.6 L465.40002 643.6 L465.40002 643.6 L465.0 643.6 L465.0 643.6 L465.2 643.6 L465.2 643.6" stroke="rgb(0,190,150)" stroke-width="5" fill="none" stroke-linejoin="round" /> <path d="M537.2 630.0 L536.8 630.2 L535.80005 630.80005 L532.2 633.6 L532.0 634.0 L530.80005 634.0 L529.19995 634.6 L527.2 635.60004 L526.0 635.60004 L524.0 635.80005 L523.0 635.80005 L521.8 636.4 L520.2 636.8 L519.39996 636.8 L518.8 636.8 L518.4 636.8 L518.0 636.8 L517.8 636.4 L517.6 636.4 L517.2 636.4 L516.4 636.2 L516.0 636.2 L515.60004 636.2 L514.6 636.0 L514.39996 635.80005 L514.0 635.80005 L513.4 635.80005 L512.8 635.60004 L512.6 635.4 L512.4 635.4 L512.2 635.2 L512.0 635.0 L511.4 634.39996 L511.19998 634.19995 L510.0 632.8 L509.4 632.4 L509.4 632.4 L509.19998 632.4 L509.0 632.2 L509.0 632.0 L508.6 631.2 L507.8 630.80005 L507.59998 630.2 L507.40002 629.39996 L507.0 628.6 L506.4 627.4 L506.0 626.8 L505.80002 626.2 L505.80002 625.80005 L505.80002 625.80005 L505.6 625.60004 L505.40002 625.4 L505.0 625.0 L503.6 620.80005 L502.59998 617.8 L502.40002 616.8 L502.2 615.80005 L502.0 615.4 L502.0 614.39996 L502.0 614.0 L501.4 613.0 L500.80002 607.4 L500.40002 600.80005 L499.0 598.8 L499.0 597.8 L498.80002 597.4 L498.4 594.6 L497.0 589.6 L496.0 587.4 L495.6 582.0 L494.19998 576.8 L492.2 555.0 L492.40002 550.2 L492.40002 548.0 L492.0 532.4 L490.80002 527.2 L491.4 522.4 L492.40002 517.4 L494.4 505.0 L512.6 493.6 L513.6 493.80002 L520.60004 497.2 L523.8 500.6 L525.80005 502.8 L529.0 505.80002 L529.39996 506.4 L531.0 510.2 L538.0 520.60004 L539.6 524.39996 L540.60004 526.4 L540.80005 527.8 L542.6 530.80005 L544.0 533.6 L544.39996 536.2 L545.4 538.8 L545.80005 540.80005 L546.8 542.8 L547.8 545.4 L548.4 547.8 L549.0 550.80005 L550.4 555.60004 L552.0 560.80005 L557.6 583.8 L561.0 620.60004 L561.2 622.0 L555.80005 637.4 L544.19995 640.80005 L543.6 640.80005 L542.2 641.2 L542.4 641.2 L539.0 641.8 L534.0 642.2 L531.0 641.2 L531.0 641.2" stroke="rgb(25,25,25)" stroke-width="2" fill="none" stroke-linejoin="round" /> <path d="M537.0 610.80005 L537.4 610.80005 L537.4 610.60004 L536.8 610.80005 L536.4 610.80005 L536.8 610.80005 L536.8 610.80005 L536.8 610.80005 L536.0 611.0 L536.0 611.0 L536.0 611.0 L536.0 611.0 L535.80005 611.0 L535.80005 611.0 L535.80005 611.0 L536.2 610.80005 L535.80005 611.0 L535.80005 610.80005 L535.4 610.80005 L535.0 610.4 L534.39996 610.4 L534.0 610.4 L534.0 610.2 L532.8 609.6 L530.80005 609.0 L530.4 609.0 L529.19995 608.8 L529.0 608.6 L528.6 609.0 L528.4 609.0 L528.0 609.0 L520.60004 604.6 L520.60004 604.19995 L520.4 604.0 L519.19995 602.4 L518.0 602.0 L519.0 600.2 L519.0 597.4 L517.6 591.0 L518.6 583.4 L517.2 569.0 L517.6 567.8 L518.0 567.4 L518.6 564.19995 L519.39996 562.4 L522.0 560.2 L521.8 560.2 L521.8 560.0 L522.8 559.6 L522.4 560.2 L525.80005 561.2 L528.0 562.6 L529.0 564.19995 L530.4 565.2 L531.4 565.80005 L531.2 565.80005 L532.0 565.80005 L532.2 565.80005 L532.2 566.2 L532.4 566.2 L532.6 566.0 L533.8 566.8 L533.4 567.0 L534.6 567.6 L534.39996 568.4 L536.0 569.0 L537.4 570.4 L537.8 570.80005 L538.8 571.4 L539.39996 573.0 L544.0 585.80005 L545.60004 591.8 L545.60004 592.4 L545.80005 594.19995 L546.0 603.0 L546.0 603.8 L545.4 606.8 L545.2 607.2 L544.39996 607.4 L544.0 607.4 L538.6 610.60004 L533.0 616.2 L532.2 617.4 L531.0 618.4 L525.60004 615.80005 L525.0 614.0 L525.0 614.0" stroke="rgb(50,90,240)" stroke-width="5" fill="none" stroke-linejoin="round" /> <path d="M497.59998 537.2 L497.40002 537.4 L497.0 537.6 L497.0 537.6 L495.80002 537.8 L497.0 537.6 L497.0 537.6 L497.59998 537.6 L498.4 538.0 L498.6 539.0 L498.6 539.19995 L498.80002 539.19995 L498.80002 539.19995 L500.2 535.0 L500.6 534.39996 L501.0 532.8 L501.19998 532.2 L502.2 532.4 L502.40002 534.0 L502.59998 534.39996 L502.59998 535.2 L502.40002 536.0 L502.40002 538.8 L505.6 543.8 L505.40002 545.80005 L507.2 545.80005 L507.0 545.80005 L507.8 545.80005 L506.8 546.8 L506.4 546.4 L505.80002 545.2 L503.80002 540.80005 L503.4 539.6 L502.59998 537.4 L502.40002 536.0 L502.59998 535.80005 L502.59998 536.0 L502.59998 536.0 L502.40002 536.2 L502.40002 536.4 L503.0 536.2 L503.4 536.8 L502.8 536.8 L502.8 537.0 L503.4 537.0 L503.4 537.0 L503.6 537.2 L503.0 537.4 L503.4 537.6 L502.8 542.4 L502.59998 544.19995 L502.0 547.0 L501.8 545.80005 L502.40002 544.6 L502.8 544.0 L503.4 542.4 L503.80002 540.80005 L504.0 539.39996 L504.59998 537.4 L504.59998 537.4" stroke="rgb(245,60,30)" stroke-width="5" fill="none" stroke-linejoin="round" /> <path d="M534.39996 550.4 L534.19995 551.0 L534.19995 551.0 L534.0 551.4 L534.0 551.8 L533.0 552.0 L533.0 552.0 L532.8 552.0 L531.4 551.4 L530.80005 551.0 L530.4 550.80005 L529.0 550.60004 L528.6 550.4 L528.4 550.0 L527.2 549.0 L527.0 547.8 L526.4 547.2 L526.2 546.2 L525.80005 545.60004 L525.80005 544.6 L525.60004 544.19995 L528.4 538.6 L528.8 538.0 L529.0 537.6 L529.19995 537.0 L529.19995 536.8 L530.60004 536.8 L531.2 537.4 L531.2 538.8 L531.4 540.2 L531.0 541.4 L531.2 543.4 L531.4 544.39996 L531.4 545.80005 L531.4 546.0 L531.2 547.0 L531.0 547.8 L530.80005 548.6 L530.60004 548.6 L530.60004 548.4 L530.60004 548.6 L530.60004 548.6 L530.60004 548.4 L530.4 548.0 L530.2 547.8 L529.0 547.4 L527.8 544.6 L528.6 541.4 L528.0 540.60004 L528.6 537.6 L527.8 537.6 L527.6 537.4 L527.6 536.8 L527.4 535.80005 L527.6 535.4 L527.4 535.60004 L527.4 535.80005 L530.80005 540.80005 L531.8 545.80005 L531.8 546.0 L531.4 547.2 L531.4 547.6 L531.0 548.0 L531.0 548.0 L531.0 548.0 L531.0 547.8 L530.80005 547.8 L530.80005 547.6 L530.80005 547.4 L530.80005 547.4 L530.4 547.4 L530.2 547.0 L530.0 545.80005 L529.6 543.0 L529.39996 541.8 L529.19995 540.4 L529.0 539.0 L528.8 539.0 L528.8 538.6 L530.0 537.8 L529.39996 538.4 L529.39996 538.4 L529.39996 538.0 L530.0 538.4 L527.6 541.0 L527.6 541.0" stroke="rgb(245,60,30)" stroke-width="5" fill="none" stroke-linejoin="round" /> <path d="M527.8 581.0 L528.0 579.6 L527.4 576.8 L524.6 575.60004 L524.39996 575.60004 L522.8 574.6 L523.4 574.39996 L523.4 574.39996 L523.0 574.39996 L522.8 574.6 L523.0 574.6 L522.4 575.0 L522.4 575.4 L522.4 575.4 L522.4 575.80005 L522.4 577.0 L522.4 578.6 L522.4 580.60004 L522.0 581.8 L521.2 584.6 L520.80005 589.6 L521.0 592.4 L524.39996 602.0 L525.2 607.6 L525.0 608.4 L525.2 609.39996 L525.2 610.2 L525.4 610.60004 L525.80005 612.4 L525.60004 613.0 L525.60004 613.6 L525.60004 613.8 L525.80005 613.8 L526.0 614.0 L526.0 614.0 L526.2 614.39996 L526.2 614.19995 L526.2 614.19995 L526.8 615.0 L526.4 615.80005 L527.0 615.80005 L527.0 616.0 L527.4 616.2 L527.4 616.4 L528.0 617.0 L528.8 617.2 L529.19995 617.4 L530.2 618.0 L530.80005 618.4 L531.4 618.8 L532.0 619.0 L532.4 619.0 L532.4 619.0 L532.4 619.19995 L532.6 619.19995 L532.8 619.19995 L533.4 619.19995 L533.6 619.39996 L533.8 619.39996 L533.8 619.39996 L534.19995 619.19995 L534.19995 619.39996 L534.39996 619.6 L534.39996 619.6 L534.39996 619.6 L534.0 620.0 L534.0 620.0 L535.0 620.0 L535.4 620.2 L536.0 620.4 L537.4 620.4 L538.6 620.80005 L539.39996 621.2 L540.4 621.4 L540.80005 621.2 L541.0 621.4 L541.4 621.4 L542.2 621.8 L542.4 621.4 L542.4 621.4 L542.4 621.4 L542.4 621.2 L543.6 620.80005 L544.0 620.80005 L544.0 620.80005 L544.39996 620.60004 L545.0 620.4 L545.2 620.4 L545.2 620.2 L545.4 620.4 L545.4 620.2 L545.60004 620.2 L545.80005 620.2 L545.80005 620.0 L546.2 619.39996 L547.0 619.0 L547.4 618.8 L548.0 617.6 L550.4 614.0 L550.2 614.0 L550.2 614.0 L550.2 613.8 L550.4 613.4 L550.4 613.4 L550.4 613.4 L550.60004 613.0 L550.80005 612.2 L551.2 610.80005 L551.8 609.39996 L552.4 608.8 L552.4 608.4 L552.2 607.8 L552.2 607.4 L552.0 607.0 L552.0 606.0 L551.8 605.80005 L551.4 605.0 L551.4 604.39996 L551.0 604.0 L551.0 604.0 L551.0 603.8 L551.0 603.6 L551.0 603.6 L550.80005 603.6 L550.60004 603.4 L550.2 602.8 L548.8 602.0 L546.8 600.2 L545.0 597.8 L543.4 596.4 L542.8 596.0 L542.6 595.80005 L542.0 594.39996 L541.2 594.19995 L540.80005 593.6 L540.80005 593.4 L540.60004 593.0 L540.4 592.8 L539.0 590.60004 L537.6 587.4 L537.4 587.4 L537.4 587.0 L536.2 582.2 L535.4 580.2 L535.0 579.6 L534.19995 579.0 L532.8 577.4 L532.0 577.0 L531.4 576.2 L530.80005 575.80005 L530.80005 575.60004 L530.80005 575.4 L530.60004 575.4 L530.60004 575.60004 L530.60004 575.4 L530.4 575.4 L530.4 575.4 L529.0 575.0 L529.0 575.0" stroke="rgb(25,25,25)" stroke-width="5" fill="none" stroke-linejoin="round" /> <path d="M512.2 633.6 L506.19998 633.6 L503.6 634.39996 L501.0 662.2 L501.19998 665.0 L501.8 670.0 L501.8 671.2 L501.8 673.0 L501.19998 676.8 L500.80002 681.2 L500.80002 682.2 L500.40002 684.0 L500.40002 685.80005 L500.40002 687.60004 L502.2 690.4 L502.40002 693.0 L502.40002 695.4 L502.40002 698.0 L502.40002 700.4 L501.8 707.2 L501.8 709.80005 L502.2 722.60004 L502.59998 725.4 L502.59998 728.2 L502.40002 730.80005 L503.4 736.2 L503.80002 741.60004 L505.80002 752.2 L505.80002 755.0 L507.40002 758.2 L509.19998 764.80005 L510.0 767.60004 L510.80002 770.80005 L512.0 774.4 L513.0 778.0 L514.0 782.2 L514.6 786.2 L515.0 790.80005 L517.0 795.4 L519.19995 806.2 L522.2 823.6 L523.0 829.80005 L525.80005 841.60004 L528.8 852.60004 L532.0 863.2 L534.0 869.0 L539.0 879.0 L540.60004 884.0 L542.4 888.2 L544.0 893.0 L545.80005 897.2 L554.19995 915.4 L555.60004 918.2 L557.2 920.80005 L564.0 931.8 L566.4 932.60004 L567.4 933.6 L567.6 934.0 L567.6 934.0 L567.6 934.0 L567.6 933.6 L567.4 933.6 L567.0 933.2 L561.4 929.80005 L557.6 926.2 L557.6 926.2" stroke="rgb(0,190,150)" stroke-width="5" fill="none" stroke-linejoin="round" /> <path d="M579.0 696.2 L579.19995 699.4 L579.39996 700.4 L580.0 699.4 L580.2 697.60004 L580.2 695.80005 L579.6 694.0 L579.0 692.2 L578.0 690.80005 L577.4 690.80005 L576.4 690.80005 L575.60004 690.80005 L574.0 690.80005 L573.6 690.4 L572.8 690.4 L572.8 690.4" stroke="rgb(0,190,150)" stroke-width="5" fill="none" stroke-linejoin="round" /> <path d="M561.2 654.80005 L561.0 655.0 L560.80005 656.2 L561.0 658.6 L561.4 659.4 L561.8 659.80005 L563.0 661.2 L564.0 661.8 L565.0 663.6 L566.2 667.2 L566.2 668.2 L566.8 670.4 L567.0 671.8 L567.0 673.2 L567.2 675.0 L567.4 676.2 L567.4 678.6 L567.8 680.4 L568.0 683.2 L569.0 690.80005 L569.39996 695.4 L570.4 700.4 L570.80005 704.4 L573.8 716.2 L577.2 729.4 L578.8 734.4 L581.0 744.4 L583.0 755.80005 L585.0 767.60004 L586.2 773.6 L587.8 783.6 L588.8 788.0 L589.6 792.2 L590.80005 795.80005 L592.8 803.0 L593.6 806.60004 L594.39996 810.4 L596.4 822.2 L597.0 826.2 L598.4 834.4 L599.0 838.2 L599.39996 842.2 L600.2 846.8 L600.80005 851.60004 L601.4 856.2 L602.4 860.80005 L603.0 865.0 L604.0 870.0 L604.0 875.80005 L604.39996 880.80005 L604.6 886.8 L605.0 897.60004 L605.0 901.8 L605.0 905.4 L604.19995 908.6 L603.6 911.8 L602.8 914.4 L601.0 919.4 L600.4 921.8 L599.39996 924.0 L598.6 926.8 L598.4 929.4 L597.4 941.60004 L596.8 943.2 L596.0 945.80005 L595.60004 948.0 L595.0 950.4 L594.0 952.60004 L593.4 955.80005 L592.6 956.8 L592.2 958.0 L592.2 958.0 L592.0 958.6 L591.2 959.0 L591.0 959.0 L590.80005 959.0 L590.80005 959.0 L590.60004 959.0 L590.4 959.0 L589.6 959.0 L589.0 958.6 L588.0 957.60004 L587.4 957.2 L586.4 956.2 L586.0 955.80005 L585.80005 955.80005 L585.80005 955.4 L585.80005 955.4 L585.80005 955.4 L585.60004 955.4 L585.0 955.0 L584.19995 954.0 L584.0 953.6 L584.0 953.0 L584.0 952.60004 L583.8 952.60004 L583.8 952.60004 L583.8 952.60004 L583.8 952.60004 L583.8 953.0 L583.6 953.0 L583.6 953.0 L583.8 953.0 L583.0 953.6 L583.0 953.6 L583.0 953.6 L583.0 953.6 L583.0 953.6 L583.0 953.6 L583.0 953.6 L583.0 953.6 L584.0 953.0 L584.0 953.0 L584.0 953.0 L584.19995 953.0 L584.0 953.0 L584.19995 953.0 L584.19995 952.60004 L584.39996 952.60004 L584.39996 952.60004 L584.0 953.0 L584.0 953.0 L584.0 953.0 L584.0 953.0 L584.0 953.0 L583.8 953.0 L582.4 952.60004 L582.4 952.60004" stroke="rgb(0,190,150)" stroke-width="5" fill="none" stroke-linejoin="round" /> <path d="M503.4 653.2 L503.4 653.0 L503.6 652.60004 L504.0 650.80005 L504.19998 650.4 L504.19998 649.4 L505.0 649.0 L505.0 648.6 L505.0 648.6 L504.59998 648.6 L504.59998 648.6 L505.40002 648.2 L505.40002 648.2 L505.2 648.2 L505.2 648.2 L505.2 648.6 L501.4 645.0 L495.80002 641.2 L493.6 639.19995 L492.40002 639.0 L490.40002 637.4 L489.59998 637.0 L479.0 626.2 L478.0 625.80005 L477.8 625.80005 L477.8 625.60004 L477.40002 625.80005 L477.40002 625.80005 L477.40002 625.80005 L477.40002 626.0 L477.40002 626.0 L477.40002 626.2 L477.40002 626.2 L477.40002 626.4 L477.59998 626.4 L477.59998 626.8 L479.4 629.0 L480.80002 630.80005 L482.59998 632.6 L482.8 633.0 L482.59998 633.4 L482.59998 633.4 L482.59998 633.4 L482.59998 633.4 L482.59998 633.4 L482.59998 633.4 L482.8 633.4 L482.8 633.0 L482.59998 633.4 L482.59998 633.0 L482.59998 633.0 L482.59998 633.0 L482.40002 633.4 L482.40002 633.4 L482.40002 633.4 L482.40002 633.4 L482.40002 633.4 L482.40002 633.4 L482.40002 633.4 L482.40002 633.4 L482.40002 633.6 L482.40002 633.4 L482.40002 633.4 L482.40002 633.4 L482.40002 633.4 L482.40002 633.4 L482.40002 633.4 L482.40002 633.4 L482.59998 633.4 L483.4 633.6 L483.80002 633.6 L485.40002 634.19995 L498.80002 641.60004 L499.59998 642.60004 L504.19998 643.6 L504.4 644.4 L508.0 645.80005 L508.4 645.80005 L509.0 646.8 L509.0 646.8 L510.2 646.8 L511.19998 646.2 L510.80002 646.60004 L510.40002 646.8 L510.40002 646.8 L510.80002 646.60004 L510.80002 646.60004 L511.0 646.8 L510.80002 646.60004 L510.80002 646.8 L510.80002 646.60004 L510.6 646.8 L510.80002 646.8 L510.80002 646.8 L510.6 646.8 L508.6 647.60004 L506.8 649.80005 L505.80002 649.4 L505.0 648.0 L504.4 647.60004 L502.2 645.4 L502.40002 644.4 L501.4 643.2 L501.0 642.60004 L500.80002 639.0 L500.2 638.0 L499.59998 637.8 L499.19998 637.6 L498.4 635.80005 L496.0 635.0 L495.40002 633.6 L495.2 633.6 L489.19998 627.2 L488.80002 626.4 L489.0 626.2 L487.59998 624.6 L486.8 622.8 L486.19998 622.2 L485.80002 621.4 L485.6 621.2 L485.2 620.80005 L485.0 619.39996 L484.0 618.6 L484.0 617.8 L483.6 616.8 L483.6 614.39996 L483.6 614.0 L487.40002 615.4 L488.6 617.4 L490.2 619.6 L491.8 622.2 L502.40002 630.80005 L502.8 630.80005 L502.8 630.4 L503.80002 630.4 L504.4 629.6 L509.59998 627.4 L501.8 611.4 L500.40002 608.4 L500.2 608.6 L499.59998 608.4 L500.6 608.4 L500.40002 608.4 L500.0 608.4 L500.2 608.6 L500.0 608.8 L500.0 609.19995 L500.2 609.6 L500.6 610.4 L500.40002 610.80005 L501.0 611.4 L501.19998 611.8 L501.4 612.0 L502.2 612.4 L502.40002 613.4 L502.8 614.6 L504.59998 630.80005 L505.2 631.0 L505.2 631.0" stroke="rgb(250,40,140)" stroke-width="5" fill="none" stroke-linejoin="round" /> <path d="M577.4 663.2 L577.8 663.2 L578.0 663.2 L577.6 663.0 L577.4 663.0 L577.2 663.0 L576.4 663.0 L575.80005 662.60004 L572.2 663.0 L572.0 663.6 L571.8 664.4 L571.2 664.80005 L571.2 665.0 L571.4 665.4 L571.2 665.4 L571.2 665.4 L571.2 665.4 L570.80005 665.80005 L570.2 666.2 L570.0 666.2 L568.4 666.60004 L567.4 666.8 L565.80005 666.60004 L564.39996 666.60004 L564.39996 666.60004" stroke="rgb(250,40,140)" stroke-width="5" fill="none" stroke-linejoin="round" /> <path d="M569.0 692.2 L569.19995 693.6 L569.39996 694.4 L569.6 694.80005 L569.6 695.4 L570.0 695.80005 L570.2 695.80005 L570.0 696.60004 L570.2 696.8 L570.4 696.8 L570.60004 697.60004 L570.80005 698.0 L570.80005 698.2 L571.2 698.6 L571.4 699.0 L571.8 699.0 L571.8 699.0 L571.4 699.0 L571.4 699.0 L571.4 699.4 L571.4 699.4 L571.4 699.4 L571.4 699.4 L571.4 699.4 L571.2 699.4 L571.2 699.4 L571.2 699.4 L571.2 699.4 L571.4 699.4 L571.4 699.4 L571.2 699.4 L571.4 699.4 L571.4 699.4 L571.4 699.4 L571.4 699.4 L571.8 699.0 L571.8 699.0 L571.8 699.0 L572.0 699.0 L572.4 696.8 L574.0 695.4 L577.4 691.8 L580.60004 687.60004 L584.0 681.2 L585.4 676.8 L587.0 672.2 L587.6 668.6 L589.0 664.80005 L590.2 660.80005 L591.0 657.2 L594.19995 649.0 L594.6 647.60004 L595.60004 646.60004 L596.2 645.80005 L597.2 645.0 L597.8 644.4 L598.0 644.0 L598.6 644.0 L599.0 644.0 L599.0 644.0 L599.19995 644.0 L599.39996 644.0 L599.6 644.4 L600.4 645.4 L605.2 654.0 L605.60004 658.0 L605.80005 662.60004 L605.60004 667.2 L605.0 671.60004 L604.39996 676.60004 L604.0 682.2 L603.4 688.2 L603.0 694.0 L602.8 700.0 L602.0 705.80005 L601.4 711.8 L600.80005 717.2 L600.4 721.8 L599.6 726.60004 L598.4 731.2 L596.0 733.2 L595.60004 733.6 L595.0 733.2 L594.19995 733.0 L593.0 732.2 L591.8 731.2 L590.60004 729.80005 L588.8 727.2 L587.6 724.4 L586.2 721.8 L586.2 720.0 L585.80005 718.6 L585.2 717.2 L584.6 715.4 L584.39996 714.4 L584.19995 714.4 L584.0 714.0 L584.0 714.0 L583.6 713.6 L583.0 713.6 L582.4 713.0 L581.4 711.8 L580.60004 710.80005 L580.2 710.80005 L579.6 710.4 L577.8 707.2 L576.4 704.80005 L573.6 697.60004 L572.6 693.2 L571.8 690.0 L572.0 687.60004 L571.8 685.80005 L572.0 684.0 L572.4 683.0 L572.4 682.2 L572.8 681.8 L573.0 681.8 L573.0 681.8 L574.0 681.8 L574.6 681.8 L575.80005 682.2 L577.4 683.0 L579.6 684.4 L581.4 685.80005 L583.4 687.60004 L585.60004 690.4 L587.4 693.0 L594.19995 705.0 L594.6 706.2 L594.6 706.8 L595.0 706.60004 L594.6 706.60004 L594.6 706.2 L594.39996 705.80005 L594.0 705.4 L589.0 693.0 L587.4 690.0 L585.80005 686.2 L583.6 678.0 L582.8 675.0 L581.4 672.60004 L581.2 671.2 L581.0 670.4 L580.80005 670.0 L580.80005 670.0 L581.0 670.4 L581.8 671.2 L582.4 673.0 L583.8 675.80005 L584.6 680.4 L586.8 685.80005 L588.6 691.2 L590.60004 706.8 L590.2 707.2 L589.39996 707.2 L587.8 706.2 L585.80005 704.4 L582.8 701.8 L579.19995 698.2 L579.19995 698.2" stroke="rgb(250,40,140)" stroke-width="5" fill="none" stroke-linejoin="round" /> <path d="M515.60004 760.0 L515.0 760.4 L514.39996 761.2 L514.0 761.8 L513.8 762.2 L513.4 762.2 L513.0 762.2 L512.8 762.60004 L512.6 762.60004 L512.4 762.60004 L512.4 762.60004 L512.2 762.60004 L511.8 763.0 L511.19998 763.0 L510.80002 763.6 L510.2 763.6 L510.2 764.0 L510.2 764.0 L510.2 764.0 L510.2 764.0 L510.2 764.4 L510.0 764.0 L510.0 764.0 L509.4 764.0 L508.4 764.4 L507.2 764.80005 L506.0 765.0 L504.59998 764.80005 L502.40002 765.4 L501.0 765.80005 L500.0 766.2 L499.0 766.60004 L497.59998 766.60004 L496.4 766.8 L495.80002 767.2 L494.59998 767.2 L494.0 767.60004 L492.8 768.0 L492.2 768.0 L491.8 768.0 L491.0 768.2 L490.80002 768.2 L490.80002 768.6 L490.2 768.6 L489.4 768.6 L488.4 768.6 L487.59998 769.0 L487.2 769.4 L486.4 769.4 L485.6 770.0 L485.40002 769.80005 L485.0 769.80005 L484.19998 769.4 L484.0 769.4 L477.8 767.2 L475.80002 766.2 L475.80002 766.2 L475.6 766.2 L475.40002 766.2 L475.2 765.80005 L473.80002 765.80005 L472.2 765.0 L470.2 764.4 L465.6 761.8 L453.80002 756.2 L452.40002 755.80005 L450.80002 755.0 L449.59998 754.80005 L445.2 753.0 L441.19998 751.8 L439.4 750.80005 L437.0 749.0 L434.0 747.60004 L432.40002 745.80005 L428.0 744.0 L426.4 743.0 L424.4 741.8 L419.0 738.2 L417.40002 737.2 L416.8 737.2 L416.19998 736.8 L416.0 736.60004 L415.0 735.80005 L413.0 734.4 L411.19998 731.8 L409.59998 730.80005 L409.0 730.0 L407.40002 727.60004 L405.80002 725.4 L404.4 723.6 L403.6 722.60004 L401.8 718.6 L400.80002 717.2 L400.80002 716.8 L400.40002 715.80005 L400.0 715.80005 L399.19998 715.0 L399.19998 715.0" stroke="rgb(50,90,240)" stroke-width="5" fill="none" stroke-linejoin="round" /> <path d="M590.60004 737.60004 L590.80005 737.60004 L592.2 737.60004 L592.4 738.6 L592.4 739.4 L592.4 739.80005 L592.2 740.0 L592.2 740.0 L591.8 740.0 L591.4 740.0 L591.0 740.4 L591.0 740.4 L590.80005 740.4 L590.80005 740.4 L590.0 740.80005 L589.19995 740.80005 L588.6 741.2 L586.2 741.8 L585.60004 741.8 L584.6 741.8 L584.0 741.8 L583.8 741.8 L582.8 742.2 L582.6 742.2 L582.4 742.2 L581.4 743.0 L580.80005 743.0 L580.60004 743.0 L580.0 743.2 L579.6 743.0 L580.0 742.60004 L578.0 742.60004 L577.2 743.0 L572.6 744.0 L570.2 744.4 L560.60004 744.4 L558.6 744.0 L556.0 744.0 L554.0 743.2 L547.4 743.0 L546.8 743.0 L545.80005 743.0 L542.0 741.8 L540.80005 741.60004 L527.4 738.6 L504.59998 735.80005 L497.40002 733.6 L495.80002 732.60004 L493.80002 731.8 L491.0 730.4 L489.0 729.0 L486.19998 728.0 L485.40002 727.60004 L484.0 726.8 L482.59998 725.80005 L479.0 723.6 L475.2 721.60004 L472.8 719.80005 L457.2 706.60004 L456.4 706.2 L455.80002 705.4 L455.2 704.80005 L454.0 703.6 L452.40002 701.8 L451.4 701.2 L450.2 700.0 L448.6 698.2 L447.8 697.60004 L447.59998 697.2 L445.80002 695.4 L444.59998 692.2 L444.0 691.8 L443.4 690.4 L442.40002 688.6 L441.0 688.0 L440.6 686.8 L440.0 685.80005 L439.4 684.4 L439.0 684.0 L437.40002 681.60004 L437.40002 681.2 L437.2 681.2 L437.2 681.2 L436.4 681.2 L436.0 680.4 L435.80002 679.80005 L435.40002 679.80005 L435.2 679.4 L437.0 678.0 L437.0 678.0 L436.4 678.0 L436.4 678.0 L436.19998 678.2 L436.0 678.0 L436.0 677.60004 L435.80002 677.2 L435.2 676.8 L435.2 676.2 L434.0 674.80005 L434.0 673.0 L435.6 669.4 L438.4 669.80005 L440.0 669.4 L441.19998 670.0 L441.19998 670.0" stroke="rgb(50,90,240)" stroke-width="5" fill="none" stroke-linejoin="round" /> <path d="M538.0 901.8 L535.80005 905.80005 L535.80005 908.0 L535.80005 909.80005 L535.80005 912.2 L535.80005 913.6 L535.60004 915.0 L535.80005 916.2 L535.80005 916.8 L536.0 918.0 L536.4 921.2 L536.2 930.0 L530.60004 962.2 L530.60004 962.2" stroke="rgb(250,200,40)" stroke-width="5" fill="none" stroke-linejoin="round" /> <path d="M616.0 941.2 L620.80005 950.80005 L625.80005 960.4 L651.8 1024.0 L651.8 1024.0" stroke="rgb(250,200,40)" stroke-width="5" fill="none" stroke-linejoin="round" /> <path d="M587.6 873.2 L587.0 874.4 L586.2 875.4 L585.80005 875.80005 L585.80005 876.2 L585.60004 876.2 L585.4 875.80005 L584.6 876.2 L584.0 876.2 L582.8 876.2 L582.4 876.2 L581.4 876.60004 L581.0 876.8 L579.6 876.8 L578.8 877.2 L577.6 877.60004 L577.2 878.0 L574.19995 878.2 L573.4 878.0 L572.2 877.60004 L571.0 877.60004 L570.2 877.60004 L568.0 876.8 L564.19995 874.4 L561.4 870.4 L560.4 869.4 L559.39996 868.6 L558.8 867.60004 L557.6 865.80005 L557.0 864.0 L555.80005 862.60004 L555.4 860.80005 L557.8 849.80005 L561.2 848.6 L565.80005 848.0 L567.4 848.0 L569.0 847.60004 L570.80005 847.2 L572.8 847.2 L574.0 847.60004 L575.60004 847.60004 L577.4 847.60004 L579.6 847.60004 L581.8 847.60004 L583.8 848.0 L585.80005 848.2 L587.4 849.0 L589.19995 852.2 L588.8 855.4 L587.6 859.0 L587.0 864.0 L586.0 868.0 L584.19995 874.4 L583.4 877.60004 L581.2 879.80005 L580.80005 881.2 L580.2 882.2 L579.39996 883.0 L579.0 884.0 L578.4 885.4 L577.8 886.2 L577.0 888.0 L576.4 888.6 L576.0 888.6 L576.0 888.6 L575.80005 889.0 L575.80005 889.0 L575.60004 889.0 L575.60004 889.0 L575.0 889.4 L575.0 889.4 L574.6 889.0 L573.8 888.6 L572.6 887.60004 L571.4 885.80005 L570.80005 884.4 L570.0 883.0 L567.8 879.0 L567.0 878.2 L567.0 878.2" stroke="rgb(0,190,150)" stroke-width="9" fill="none" stroke-linejoin="round" /> <path d="M558.6 829.80005 L558.6 829.80005 L557.6 830.0 L557.6 829.80005 L557.6 829.80005 L557.2 829.80005 L557.2 829.80005 L556.4 829.4 L555.0 829.0 L554.0 828.6 L552.8 828.2 L552.0 828.0 L551.4 827.60004 L551.0 827.60004 L550.80005 826.8 L550.4 826.2 L549.0 822.60004 L548.4 819.0 L547.4 808.6 L549.19995 799.0 L551.8 795.4 L553.0 794.0 L555.4 792.60004 L556.0 792.2 L557.0 792.2 L558.0 791.8 L559.39996 792.2 L563.0 793.2 L565.4 795.0 L567.2 795.80005 L569.19995 797.2 L570.80005 798.0 L572.4 799.80005 L575.4 804.80005 L577.0 807.2 L578.0 809.4 L579.0 811.2 L581.2 818.6 L581.2 821.2 L581.0 822.60004 L580.80005 824.0 L580.4 825.0 L579.6 825.80005 L579.0 826.8 L577.8 827.60004 L576.8 828.2 L574.6 829.4 L573.4 830.80005 L572.0 831.60004 L570.60004 831.8 L566.8 833.2 L565.60004 833.6 L565.0 833.6 L563.4 833.6 L558.0 830.4 L556.4 829.4 L555.80005 828.6 L555.4 827.60004 L554.0 824.0 L552.4 820.4 L552.4 820.4" stroke="rgb(0,190,150)" stroke-width="9" fill="none" stroke-linejoin="round" /> <path d="M548.6 768.0 L549.39996 779.0 L550.80005 781.60004 L553.4 788.6 L552.2 786.8 L545.4 778.6 L535.2 766.8 L538.0 764.80005 L545.0 763.0 L557.8 764.4 L561.2 768.6 L562.0 769.4 L562.2 769.4 L563.8 771.8 L564.0 772.60004 L564.19995 773.2 L565.0 775.80005 L564.6 779.0 L564.6 779.4 L564.6 781.60004 L564.0 782.2 L563.6 782.60004 L563.0 782.60004 L562.0 783.0 L560.4 782.60004 L558.8 782.60004 L558.0 783.0 L556.0 783.6 L555.60004 783.6 L554.0 783.2 L553.4 783.2 L552.8 783.2 L552.2 783.0 L551.4 782.2 L550.4 782.2 L548.8 780.0 L548.8 780.0" stroke="rgb(0,190,150)" stroke-width="9" fill="none" stroke-linejoin="round" /> <path d="M547.8 716.8 L546.0 716.60004 L541.2 711.60004 L539.39996 707.2 L532.6 701.2 L530.80005 700.4 L529.6 700.0 L528.4 699.0 L527.4 698.0 L528.6 693.0 L529.39996 691.60004 L533.4 688.0 L534.0 687.60004 L535.4 686.8 L538.6 686.2 L541.2 687.60004 L545.0 691.60004 L548.6 693.6 L549.6 695.4 L553.8 699.4 L555.4 714.4 L552.4 720.0 L549.0 721.2 L544.6 721.2 L544.6 721.2" stroke="rgb(140,45,200)" stroke-width="9" fill="none" stroke-linejoin="round" /> <path d="M535.4 663.6 L535.80005 664.4 L539.6 668.6 L541.2 672.2 L545.0 684.0 L544.0 684.80005 L538.8 687.60004 L537.4 687.2 L536.2 687.2 L535.80005 686.8 L535.60004 686.8 L535.4 686.8 L535.0 686.60004 L534.39996 686.8 L534.39996 686.60004 L534.39996 686.2 L534.19995 685.0 L534.0 684.0 L533.6 683.0 L533.6 683.0" stroke="rgb(140,45,200)" stroke-width="2" fill="none" stroke-linejoin="round" /> <path d="M505.40002 496.8 L505.40002 496.4 L505.80002 495.80002 L506.19998 495.40002 L507.0 494.59998 L506.4 494.59998 L506.4 494.59998 L506.8 495.0 L507.0 495.2 L507.40002 495.80002 L507.8 496.0 L508.4 496.8 L509.0 497.0 L509.4 496.8 L510.6 494.4 L510.80002 494.0 L510.80002 494.0 L510.6 493.80002 L510.40002 493.4 L510.0 492.40002 L510.0 492.40002 L509.4 491.19998 L509.0 490.6 L508.80002 490.6 L508.80002 490.40002 L508.80002 490.40002 L508.4 490.6 L508.0 490.6 L508.0 490.6 L508.0 490.6 L508.0 490.6 L508.0 490.6 L508.0 490.6 L508.0 490.6 L508.0 490.6 L508.4 490.40002 L508.4 490.6 L508.0 490.6 L508.4 490.6 L508.4 490.6 L508.0 490.6 L508.0 490.6 L508.0 490.6 L508.0 490.6 L508.0 490.40002 L507.8 490.6 L508.0 490.6 L508.0 490.6 L508.0 490.6 L507.59998 490.6 L507.59998 490.6 L507.59998 490.6 L507.59998 490.6 L507.59998 490.6 L507.59998 490.6 L507.59998 490.6 L507.59998 490.6 L507.59998 490.6 L508.6 490.40002 L508.6 490.40002 L508.6 490.40002 L508.80002 490.2 L509.0 490.2 L509.0 490.2 L508.80002 490.2 L509.0 490.2 L509.0 490.2 L508.80002 490.40002 L508.80002 490.2 L509.4 490.2 L509.4 490.2 L509.4 490.2 L509.4 490.2 L509.4 490.2 L509.4 490.2 L509.4 490.2 L509.4 490.2 L509.0 490.40002 L509.0 490.2 L509.0 490.40002 L509.0 490.40002 L509.0 490.6 L509.0 490.6 L508.6 490.80002 L508.6 490.80002 L508.6 490.80002 L508.6 490.80002 L508.6 490.80002 L508.6 490.80002 L508.6 490.80002 L508.6 490.80002 L508.6 490.80002 L508.6 490.80002 L508.6 490.80002 L508.4 490.80002 L508.6 490.80002 L508.6 490.80002 L508.4 490.80002 L508.6 490.80002 L508.6 490.80002 L509.0 490.80002 L508.80002 490.80002 L508.80002 490.80002 L508.80002 490.80002 L508.80002 490.80002 L508.80002 490.80002 L509.0 490.80002 L508.80002 490.80002 L508.80002 490.80002 L508.80002 490.80002 L508.80002 490.80002 L508.4 490.80002 L508.4 490.80002 L508.4 490.80002 L508.4 490.80002 L508.4 490.80002 L508.4 490.80002 L508.4 490.80002 L508.4 490.80002 L508.4 490.80002 L508.4 490.80002 L508.4 490.80002 L508.4 490.80002 L508.4 490.80002 L508.4 490.80002 L508.4 490.80002 L508.4 490.80002 L508.4 490.80002 L508.4 490.80002 L508.4 490.80002 L507.8 490.80002 L507.8 490.80002 L507.8 490.80002 L507.8 490.80002 L507.8 490.80002 L507.8 490.80002 L507.8 490.80002 L507.8 490.80002 L507.8 490.80002 L508.6 490.80002 L508.6 490.6 L508.6 490.80002 L508.80002 490.80002 L508.80002 490.80002 L508.6 490.80002 L508.6 490.80002 L508.6 490.80002 L508.6 490.80002 L508.6 490.80002 L508.80002 490.80002 L508.4 490.80002 L508.4 490.80002 L508.4 490.80002 L508.4 490.80002 L508.4 490.80002 L508.4 490.80002 L508.4 490.80002 L508.4 490.80002 L508.4 490.80002 L508.4 490.80002 L508.4 490.80002 L508.4 490.80002 L508.4 490.80002 L508.4 490.80002 L508.4 490.80002 L508.4 490.80002 L508.4 490.80002 L508.6 490.80002 L509.4 490.80002 L510.2 490.40002 L510.40002 490.40002 L510.40002 490.40002 L510.40002 490.40002 L510.2 490.40002 L510.2 490.40002 L510.2 490.40002 L510.40002 490.40002 L510.40002 490.40002 L510.40002 490.40002 L510.2 490.6 L510.2 490.40002 L510.40002 490.40002 L510.80002 490.40002 L510.80002 490.40002 L510.80002 490.40002 L510.6 490.40002 L510.80002 490.40002 L510.80002 490.40002 L510.80002 490.40002 L510.6 490.40002 L510.6 490.40002 L510.80002 490.40002 L510.80002 490.40002 L510.80002 490.40002 L510.80002 490.40002 L511.19998 490.2 L511.19998 490.2 L511.0 490.2 L511.0 490.2 L511.0 490.40002 L510.80002 490.40002 L510.80002 490.2 L510.80002 490.40002 L510.80002 490.40002 L510.80002 490.40002 L510.80002 490.40002 L510.6 490.6 L510.6 490.40002 L510.80002 490.40002 L510.80002 490.40002 L510.6 490.40002 L510.40002 490.6 L510.40002 490.6 L510.40002 490.6 L510.40002 490.6 L510.2 490.6 L510.0 490.6 L510.80002 490.40002 L510.80002 490.40002 L510.80002 490.40002 L510.6 490.6 L510.6 490.40002 L510.6 490.40002 L510.40002 490.6 L510.40002 490.6 L510.40002 490.6 L510.2 490.6 L510.2 490.6 L510.0 490.6 L510.0 490.6 L510.0 490.6 L509.59998 490.80002 L509.59998 490.80002 L509.59998 490.6 L509.59998 490.80002 L509.59998 490.80002 L509.4 490.80002 L509.19998 490.80002 L509.19998 490.80002 L509.4 490.80002 L509.19998 490.80002 L509.4 490.80002 L509.0 490.80002 L509.0 490.80002 L509.0 490.80002 L509.0 490.80002 L509.0 490.6 L509.0 490.6 L509.19998 490.6 L508.80002 490.80002 L508.6 490.80002 L507.40002 490.6 L506.0 490.6 L504.59998 490.40002 L503.80002 490.40002 L503.4 490.40002 L503.4 490.40002 L502.8 490.40002 L503.0 490.40002 L502.8 490.6 L502.8 490.6 L502.59998 490.6 L502.2 490.80002 L501.8 490.80002 L500.40002 492.2 L499.19998 493.4 L498.4 494.19998 L497.8 494.4 L497.40002 495.2 L497.40002 495.80002 L497.40002 496.0 L497.0 497.0 L496.4 498.4 L496.19998 500.0 L495.80002 501.8 L495.6 502.8 L495.2 505.0 L495.0 505.6 L494.4 505.80002 L494.4 505.80002 L494.4 505.80002 L494.19998 505.6 L494.59998 505.6 L494.59998 505.2 L494.59998 504.4 L495.0 503.6 L495.0 502.8 L494.59998 502.0 L494.4 499.59998 L494.0 497.40002 L493.6 495.80002 L493.6 494.4 L493.4 493.0 L493.6 492.40002 L493.4 491.19998 L493.4 491.0 L493.4 491.0 L493.4 491.0 L493.4 491.0 L493.6 491.19998 L493.6 491.8 L493.6 492.2 L493.6 492.59998 L493.80002 494.0 L494.0 496.4 L494.0 498.6 L495.0 500.0 L495.6 501.4 L495.80002 503.0 L495.80002 504.59998 L495.80002 507.40002 L495.80002 508.0 L496.19998 508.6 L496.4 508.80002 L496.8 508.6 L496.4 508.6 L496.8 508.4 L496.8 507.8 L496.8 507.2 L496.4 505.80002 L496.19998 503.4 L495.80002 497.0 L495.0 489.0 L494.19998 484.59998 L493.80002 477.40002 L492.59998 471.4 L492.8 471.8 L492.8 472.59998 L493.4 473.6 L493.80002 475.40002 L494.4 480.2 L495.80002 489.19998 L496.0 495.2 L496.4 497.0 L496.8 498.4 L497.40002 499.0 L498.0 500.2 L498.0 500.40002 L498.4 500.6 L498.6 500.40002 L498.80002 500.2 L499.19998 498.80002 L499.19998 497.0 L499.4 494.0 L500.2 490.2 L500.40002 486.4 L500.6 482.40002 L500.80002 479.19998 L501.0 473.6 L501.4 471.4 L502.0 470.2 L502.2 468.6 L502.40002 468.0 L502.8 468.0 L502.8 468.0 L503.0 468.4 L503.6 468.80002 L504.4 470.2 L505.40002 472.0 L506.0 474.19998 L507.0 477.0 L507.8 483.4 L508.4 486.8 L508.4 490.0 L508.6 492.40002 L509.0 496.19998 L509.0 496.8 L510.2 495.2 L510.6 492.2 L510.6 490.0 L510.80002 484.59998 L511.19998 477.40002 L511.4 475.40002 L512.2 471.4 L512.4 470.2 L512.4 470.0 L512.4 469.59998 L512.6 469.59998 L514.0 469.59998 L515.4 470.6 L516.4 473.80002 L517.4 476.0 L519.6 481.4 L520.4 484.59998 L521.0 487.59998 L522.8 493.6 L523.6 495.6 L524.0 497.40002 L524.39996 498.4 L525.0 498.6 L525.0 498.4 L525.2 497.8 L525.4 497.40002 L525.80005 495.40002 L526.0 492.8 L526.4 489.59998 L527.2 486.0 L528.4 479.0 L529.39996 474.0 L530.2 472.40002 L530.80005 471.4 L531.4 470.80002 L531.8 470.80002 L532.0 471.0 L532.2 471.19998 L532.2 471.19998 L532.4 471.4 L532.8 472.0 L533.4 472.59998 L533.8 474.0 L534.39996 475.80002 L535.4 477.59998 L536.2 479.59998 L537.2 482.0 L537.4 484.0 L538.4 486.19998 L538.8 488.0 L539.39996 490.40002 L540.0 492.40002 L540.2 494.19998 L540.60004 496.8 L540.80005 498.80002 L540.80005 500.6 L540.80005 502.0 L540.80005 502.2 L540.80005 502.2 L540.80005 502.0 L540.80005 501.8 L540.80005 501.19998 L540.80005 500.6 L540.60004 499.0 L540.4 497.2 L540.4 494.59998 L540.0 491.8 L539.39996 488.80002 L539.19995 485.6 L539.19995 481.0 L539.39996 480.2 L539.6 479.19998 L540.0 479.0 L540.0 479.19998 L540.2 479.59998 L540.4 480.40002 L540.60004 481.19998 L540.80005 483.0 L541.4 485.40002 L542.4 487.8 L542.8 490.80002 L543.8 494.0 L544.0 497.40002 L544.0 504.0 L543.8 507.40002 L543.6 510.80002 L543.4 514.0 L543.4 517.2 L542.8 520.0 L542.4 522.4 L542.0 524.19995 L541.0 525.80005 L540.4 526.8 L539.6 527.4 L539.0 527.4 L538.0 527.4 L537.2 526.8 L535.80005 525.4 L534.39996 522.8 L533.0 519.39996 L532.2 515.0 L531.0 508.80002 L530.60004 500.80002 L529.19995 491.0 L529.19995 491.0" stroke="rgb(140,45,200)" stroke-width="2" fill="none" stroke-linejoin="round" /> <path d="M310.0 989.4 L310.2 989.4 L310.2 989.80005 L310.40002 990.4 L310.40002 991.2 L310.40002 991.2 L310.40002 991.2 L310.6 991.2 L310.6 991.2 L310.6 991.2 L311.0 991.2 L310.6 991.2 L310.6 991.2 L310.40002 991.2 L310.40002 990.80005 L310.40002 990.80005 L310.40002 990.4 L310.40002 990.0 L310.40002 987.2 L310.0 985.80005 L310.0 984.0 L310.2 981.8 L310.0 979.0 L309.59998 977.2 L309.4 974.4 L308.8 971.60004 L308.6 959.0 L308.4 956.60004 L308.0 953.6 L307.80002 950.4 L307.6 947.60004 L307.6 945.0 L307.19998 927.2 L307.0 922.60004 L306.0 912.60004 L305.6 910.4 L305.40002 903.6 L305.0 899.4 L304.4 896.60004 L304.2 893.0 L303.8 889.80005 L303.6 886.60004 L303.8 877.60004 L303.8 873.6 L303.8 868.6 L305.40002 855.4 L305.2 853.0 L305.2 850.4 L305.40002 847.2 L306.0 844.0 L306.2 841.2 L306.8 838.6 L307.0 835.4 L307.19998 833.0 L307.80002 830.4 L308.0 828.6 L308.4 826.60004 L310.0 824.0 L310.0 824.0 L310.0 824.0 L309.4 824.0 L309.4 824.0 L309.4 824.0 L309.4 824.0 L309.4 824.0 L309.59998 824.0 L310.40002 824.0 L310.40002 824.0" stroke="rgb(50,90,240)" stroke-width="2" fill="none" stroke-linejoin="round" /> <path d="M462.8 994.80005 L460.80002 995.4 L459.19998 996.2 L458.0 996.2 L457.40002 996.2 L457.40002 995.80005 L457.0 995.4 L456.0 993.6 L454.59998 991.2 L453.0 989.0 L451.0 987.2 L449.4 985.4 L448.6 984.80005 L448.4 984.4 L447.8 984.0 L445.80002 978.6 L441.0 966.2 L440.6 962.60004 L440.40002 958.6 L440.2 955.0 L440.2 950.80005 L439.59998 942.60004 L440.0 939.0 L440.0 935.80005 L439.0 928.0 L439.19998 925.0 L439.0 923.0 L438.80002 920.4 L438.6 917.2 L437.59998 912.60004 L437.8 910.80005 L437.8 909.4 L437.59998 907.60004 L437.59998 905.4 L439.0 896.8 L439.0 894.0 L439.4 892.2 L439.4 890.80005 L439.4 889.4 L439.19998 888.0 L439.19998 885.80005 L439.0 884.80005 L439.0 883.6 L438.0 882.60004 L437.40002 872.2 L437.40002 870.80005 L437.40002 868.2 L437.40002 867.60004 L437.40002 867.2 L436.0 865.0 L433.6 844.80005 L430.6 835.4 L429.59998 834.80005 L429.0 833.6 L428.4 831.8 L427.59998 830.80005 L427.2 829.4 L425.80002 825.80005 L425.40002 825.4 L425.40002 825.0 L424.59998 825.0 L424.4 824.4 L424.0 823.2 L423.4 820.4 L422.8 816.8 L422.0 814.0 L421.4 813.0 L421.4 813.0 L420.80002 812.2 L420.6 811.8 L420.40002 811.2 L420.2 810.80005 L420.0 810.4 L419.59998 810.4 L419.4 810.0 L419.4 810.0 L419.4 810.0 L419.19998 810.0 L419.19998 810.0 L419.19998 810.0 L418.80002 810.4 L418.80002 810.4 L418.6 810.4 L417.40002 811.2 L412.59998 815.0 L410.40002 816.2 L407.2 817.60004 L407.2 817.60004" stroke="rgb(0,190,150)" stroke-width="2" fill="none" stroke-linejoin="round" /> <path d="M426.0 830.80005 L425.80002 830.80005 L425.80002 830.80005 L425.80002 830.80005 L425.80002 830.80005 L425.80002 830.4 L425.2 829.80005 L425.0 829.0 L424.59998 828.6 L424.0 828.0 L423.80002 827.60004 L423.6 827.60004 L423.0 827.2 L422.8 826.8 L422.40002 826.8 L422.40002 826.8 L421.8 827.2 L420.6 828.0 L419.0 829.4 L417.59998 830.0 L417.0 831.2 L415.80002 831.8 L414.59998 832.2 L413.4 832.60004 L412.2 832.60004 L410.2 832.60004 L408.4 832.2 L407.0 832.2 L406.4 832.2 L406.4 832.2 L406.4 832.2 L406.19998 832.2 L406.19998 832.2 L405.80002 832.2 L402.59998 831.2 L401.4 831.2 L400.6 831.2 L399.4 831.2 L398.0 831.2 L394.0 830.80005 L390.2 831.60004 L381.0 834.0 L363.80002 838.6 L360.6 838.6 L344.4 836.2 L340.80002 836.60004 L333.80002 836.2 L327.59998 837.2 L325.0 838.0 L318.8 838.0 L317.0 838.2 L315.0 838.6 L313.4 839.0 L311.2 839.0 L309.4 839.4 L307.80002 840.0 L307.0 840.0 L305.2 840.0 L304.4 840.4 L303.6 840.80005 L303.0 840.80005 L302.6 840.80005 L301.4 840.80005 L300.40002 840.80005 L299.4 840.4 L298.4 840.4 L297.0 840.4 L285.6 839.4 L283.6 839.0 L282.0 838.6 L279.59998 838.0 L276.4 837.2 L273.8 836.60004 L272.80002 836.2 L272.80002 836.2 L272.0 835.4 L265.40002 824.80005 L264.59998 823.0 L262.80002 820.0 L261.2 816.8 L261.0 815.0 L261.0 814.4 L261.0 814.0 L261.0 813.2 L261.2 811.8 L261.2 809.0 L262.19998 806.2 L262.6 804.4 L262.80002 801.8 L263.0 800.0 L263.4 799.4 L263.4 799.0 L263.4 798.6 L263.6 797.60004 L263.6 795.4 L264.4 794.80005 L264.59998 793.6 L265.6 792.60004 L266.8 791.2 L269.59998 788.6 L271.2 787.2 L272.0 786.60004 L273.4 785.80005 L273.8 785.80005 L275.2 785.4 L276.2 785.0 L277.6 784.80005 L278.0 784.4 L278.6 784.4 L281.0 783.6 L282.0 783.2 L283.6 783.0 L288.4 781.2 L290.0 780.80005 L295.0 779.0 L296.4 779.0 L297.80002 778.2 L300.2 775.80005 L304.4 770.80005 L312.19998 765.0 L314.4 763.6 L316.2 763.0 L317.80002 762.2 L320.0 761.8 L321.8 761.8 L323.4 761.8 L324.59998 761.8 L326.0 762.2 L327.40002 762.2 L330.6 762.2 L332.59998 761.8 L335.2 760.80005 L339.0 760.0 L342.40002 759.0 L345.6 758.0 L348.80002 757.2 L351.8 757.2 L360.6 759.4 L367.0 760.80005 L373.4 762.2 L377.8 763.0 L379.0 763.0 L383.80002 763.6 L385.80002 763.6 L389.59998 764.80005 L390.2 764.80005 L390.40002 764.80005 L392.2 765.0 L398.0 768.6 L400.0 770.4 L402.0 771.8 L403.80002 772.60004 L405.80002 773.6 L407.8 775.4 L409.19998 776.2 L410.0 777.2 L410.6 777.60004 L410.80002 778.0 L411.19998 778.6 L419.0 781.2 L419.59998 781.8 L420.0 782.2 L420.80002 782.60004 L421.4 783.0 L422.40002 784.0 L422.40002 784.0 L422.59998 784.4 L422.8 784.4 L422.8 784.4 L423.0 784.80005 L423.4 785.0 L423.4 785.0 L423.4 785.0 L423.4 785.0 L423.6 785.4 L423.6 785.4 L423.6 785.4 L423.0 785.80005 L423.4 786.2 L423.6 789.0 L424.0 791.8 L424.4 795.0 L425.2 799.0 L425.80002 801.2 L426.4 804.0 L427.0 805.80005 L427.2 806.60004 L427.2 806.8 L427.40002 807.2 L427.40002 807.60004 L427.40002 808.0 L428.0 809.80005 L428.6 810.80005 L429.0 811.2 L429.0 811.8 L429.0 811.8 L429.0 812.60004 L429.0 813.0 L429.19998 814.4 L429.19998 815.4 L429.19998 815.80005 L429.0 816.2 L429.0 816.8 L429.0 818.6 L429.19998 820.4 L429.4 823.0 L429.4 823.0 L429.4 823.0 L429.4 823.0 L429.4 823.0 L429.4 823.0 L429.4 823.0 L429.4 823.0 L429.4 823.0 L429.4 823.0 L429.19998 823.0 L429.19998 823.0 L429.0 823.0 L429.0 823.0 L429.0 823.0 L429.0 823.0 L428.80002 823.0 L428.6 823.0 L427.40002 823.0 L424.4 824.0 L421.8 825.0 L419.4 825.80005 L419.0 825.80005 L419.0 825.80005 L417.8 826.2 L417.2 826.8 L417.2 826.8 L417.2 826.8 L417.40002 826.8 L417.40002 826.8 L417.40002 826.60004 L417.40002 826.60004 L417.40002 826.60004 L417.40002 826.2 L417.59998 826.2 L417.59998 825.80005 L417.59998 825.80005" stroke="rgb(140,45,200)" stroke-width="9" fill="none" stroke-linejoin="round" /> <path d="M314.4 787.2 L312.80002 785.80005 L312.0 786.2 L307.80002 787.60004 L306.8 788.2 L305.40002 788.6 L304.59998 789.0 L304.4 789.4 L304.2 790.4 L303.6 790.80005 L302.80002 790.4 L303.0 790.80005 L303.0 790.80005 L303.4 790.80005 L303.6 791.2 L303.6 791.8 L303.6 791.8 L303.6 791.8 L303.8 791.8 L304.2 792.2 L303.6 791.8 L303.6 791.8 L303.6 791.8 L303.6 791.60004 L303.6 791.8 L303.4 791.60004 L303.0 791.60004 L303.0 791.60004 L302.80002 791.60004 L302.80002 791.60004 L302.80002 791.60004 L301.8 791.60004 L302.0 791.60004 L302.0 791.2 L301.4 791.60004 L301.4 791.60004 L301.2 791.60004 L301.2 791.2 L301.2 791.2 L301.2 791.60004 L301.0 791.60004 L300.40002 791.2 L301.0 791.60004 L300.6 791.60004 L300.6 791.60004 L300.6 791.60004 L300.40002 791.60004 L300.2 791.60004 L300.40002 791.2 L300.6 791.60004 L300.6 791.60004 L301.0 791.60004 L301.0 791.8 L301.2 791.8 L301.2 791.8 L301.4 792.2 L302.6 792.2 L303.8 793.0 L304.4 793.2 L306.0 794.0 L307.6 794.80005 L308.6 795.0 L309.59998 795.4 L310.40002 796.2 L311.2 796.2 L311.8 796.60004 L312.80002 797.2 L317.0 798.6 L321.8 799.4 L325.2 800.80005 L334.4 805.4 L335.6 805.80005 L336.19998 805.80005 L337.0 806.2 L337.40002 806.2 L338.0 805.80005 L348.4 808.0 L349.19998 808.6 L350.40002 808.6 L353.0 808.6 L356.0 808.2 L362.40002 807.60004 L380.80002 799.4 L396.19998 791.60004 L399.0 791.60004 L404.0 790.4 L404.0 790.4 L404.0 790.0 L404.19998 790.0 L404.4 790.0 L404.4 789.80005 L405.2 789.4 L405.80002 788.6 L406.8 788.2 L407.40002 787.60004 L407.59998 787.60004 L407.8 787.60004 L408.0 787.60004 L408.4 787.2 L408.4 787.2 L408.6 787.2 L408.6 787.2 L408.6 787.2 L408.6 787.2 L408.0 787.2 L407.8 787.2 L407.8 787.2 L407.8 787.2 L407.8 787.2 L407.8 787.2 L407.8 787.2 L407.8 787.2 L407.59998 787.2 L407.59998 786.8 L407.59998 787.2 L407.59998 787.2 L407.59998 786.8 L407.59998 786.8 L407.59998 786.8 L407.59998 786.8 L407.8 786.8 L407.8 786.8" stroke="rgb(140,45,200)" stroke-width="9" fill="none" stroke-linejoin="round" /> <path d="M407.40002 786.8 L407.40002 786.8 L407.2 786.8 L407.0 786.8 L407.0 786.8 L406.8 786.8 L406.8 786.60004 L406.4 786.2 L406.4 785.80005 L406.0 785.0 L405.80002 785.0 L405.80002 785.0 L405.80002 785.0 L405.80002 785.0 L405.6 785.0 L405.80002 785.0 L405.40002 785.4 L405.2 785.4 L405.0 785.80005 L403.6 786.60004 L402.59998 786.2 L402.40002 786.2 L402.59998 786.2 L402.40002 786.2 L402.40002 786.2 L402.40002 786.2 L402.40002 786.2 L402.0 785.80005 L402.0 785.80005 L402.2 786.2 L402.0 786.2 L401.8 786.2 L401.19998 786.2 L397.59998 786.60004 L393.0 787.60004 L392.0 788.0 L392.0 788.0 L392.2 788.0 L392.0 788.0 L392.0 788.0 L391.19998 788.0 L388.80002 790.4 L384.4 792.60004 L383.4 793.0 L382.40002 793.2 L380.40002 793.0 L372.40002 792.2 L364.4 792.60004 L363.6 792.2 L363.0 792.2 L362.59998 792.2 L324.4 788.6 L318.6 788.6 L317.80002 787.60004 L317.6 787.2 L315.8 786.2 L313.6 785.4 L312.80002 785.0 L310.40002 784.80005 L309.4 784.80005 L307.80002 784.80005 L307.0 784.80005 L307.0 784.80005 L306.2 784.80005 L306.0 784.80005 L304.4 785.80005 L302.0 788.6 L302.0 788.6" stroke="rgb(250,40,140)" stroke-width="9" fill="none" stroke-linejoin="round" /> </svg>