<svg width="809.8967" height="1358.2659" xmlns="http://www.w3.org/2000/svg" version="1.1"
     xmlns:xlink="http://www.w3.org/1999/xlink">
  <path
    d="M613.4 232.8 L613.6 232.6 L613.4 232.0 L613.6 232.0 L613.4 231.8 L613.4 231.8 L613.4 231.8 L613.4 232.0 L613.4 232.0 L613.4 232.0 L613.4 232.6 L613.4 233.0 L613.0 234.2 L612.8 235.20001 L612.4 236.20001 L612.4 237.0 L612.2 238.4 L612.2 239.40001 L612.0 240.40001 L612.0 241.8 L611.4 243.0 L611.0 244.40001 L610.80005 245.59999 L610.80005 247.0 L610.80005 247.6 L610.80005 248.4 L610.80005 249.40001 L610.80005 251.0 L610.60004 251.8 L610.4 252.6 L610.2 252.8 L610.2 253.4 L610.0 253.6 L610.0 253.79999 L610.0 254.40001 L609.6 254.59999 L609.19995 255.40001 L609.0 256.2 L608.8 256.8 L608.8 257.0 L608.8 257.0 L608.8 257.0 L608.8 256.8 L609.0 256.4 L609.0 256.2 L609.39996 256.0 L609.6 255.8 L610.4 255.40001 L611.0 255.20001 L612.8 254.59999 L615.80005 254.40001 L617.4 254.2 L619.0 254.2 L622.6 254.2 L626.0 255.20001 L628.6 255.20001 L630.0 255.40001 L631.0 255.40001 L634.0 255.40001 L635.80005 255.8 L639.0 255.8 L640.4 255.8 L641.2 256.0 L642.60004 256.2 L644.4 256.2 L646.2 256.2 L647.2 256.4 L648.0 256.8 L649.80005 257.0 L651.2 257.0 L652.2 257.0 L652.60004 257.0 L653.0 257.19998 L653.6 257.6 L654.4 257.80002 L655.0 258.0 L655.4 258.0 L655.80005 258.4 L656.60004 258.6 L657.2 258.6 L657.60004 258.8 L658.0 258.8 L658.0 259.2 L658.0 259.2 L660.0 260.0 L660.4 260.2 L660.80005 260.40002 L660.80005 260.40002 L660.80005 260.40002 L660.80005 260.40002 L660.4 260.2 L660.4 259.59998 L659.4 258.6 L659.0 257.80002 L659.0 257.19998 L658.6 257.0 L658.6 256.2 L658.6 255.40001 L658.0 254.59999 L658.0 253.79999 L658.0 253.4 L658.0 252.8 L658.0 252.0 L658.0 251.4 L658.0 251.0 L657.60004 250.40001 L657.60004 249.59999 L657.60004 248.79999 L657.60004 247.8 L657.60004 247.0 L658.0 246.20001 L658.0 245.40001 L658.0 245.0 L658.0 244.40001 L658.6 243.6 L658.0 242.8 L658.0 242.2 L658.6 241.8 L658.6 241.20001 L659.0 240.40001 L659.0 240.0 L659.0 239.40001 L659.0 239.2 L659.0 238.79999 L659.0 238.6 L659.0 238.6 L659.0 238.6 L659.0 238.4 L659.0 238.4 L659.0 238.0 L659.0 237.8 L659.0 237.8 L659.0 237.8 L659.0 237.8 L659.0 237.8 L659.0 237.8 L659.0 237.8 L659.0 237.8 L659.0 237.8 L659.0 237.8 L659.0 237.8 L658.6 237.8 L658.6 237.8 L658.6 237.8 L658.0 237.8 L658.0 237.8 L657.60004 237.8 L656.2 237.8 L654.4 238.0 L653.0 238.4 L651.2 238.4 L649.80005 238.6 L648.0 238.4 L647.2 238.4 L646.2 238.0 L645.0 238.0 L644.4 238.0 L643.6 237.8 L642.2 237.8 L640.4 238.4 L638.8 238.6 L637.4 238.6 L635.80005 238.6 L634.19995 238.6 L630.80005 238.0 L629.19995 237.8 L627.6 237.8 L626.4 237.8 L625.2 237.8 L623.4 237.6 L621.8 237.6 L620.60004 237.6 L619.0 237.2 L617.4 237.8 L615.80005 237.6 L612.4 237.8 L611.8 237.8 L611.0 237.8 L610.80005 237.6 L610.2 237.6 L609.19995 237.8 L609.0 237.8 L608.8 237.8 L608.8 237.0 L609.0 237.0 L609.19995 237.0 L610.80005 237.0"
    stroke="rgb(25,25,25)" stroke-width="1" fill="none" stroke-linejoin="round"/>
  <path
    d="M673.0 245.40001 L674.0 245.40001 L675.80005 246.20001 L677.60004 246.20001 L679.80005 246.20001 L681.60004 246.0 L683.6 246.0 L685.80005 246.20001 L687.2 246.20001 L688.6 246.20001 L689.0 246.20001 L689.80005 246.20001 L690.0 246.20001 L690.0 246.20001 L690.0 246.20001 L690.0 246.20001 L689.4 246.20001 L687.60004 246.20001 L685.80005 246.0 L684.0 245.59999 L681.2 245.59999 L678.0 245.40001 L675.0 245.40001 L672.60004 245.40001 L670.4 245.20001 L669.0 245.20001 L668.0 245.20001 L668.6 245.40001 L668.6 245.40001 L669.0 245.40001 L670.4 245.40001 L672.60004 245.59999 L675.4 245.59999 L678.6 246.0 L681.8 245.59999 L685.4 245.59999 L688.0 246.0 L690.4 246.0 L692.60004 246.0 L694.4 246.0 L695.4 245.59999 L695.80005 246.0 L696.2 245.59999 L695.80005 246.0 L695.80005 246.0 L695.4 246.0 L694.4 246.0 L691.8 246.0 L688.0 246.20001 L684.0 246.20001 L679.80005 246.20001 L675.4 246.4 L672.2 246.8 L670.80005 247.0 L670.0 247.0 L670.0 247.0 L670.4 247.0 L671.2 247.0 L673.6 247.0 L676.8 247.0 L680.4 246.8 L684.4 246.8 L688.0 246.8 L690.80005 246.4 L693.0 246.20001 L695.4 246.20001 L695.80005 246.20001 L695.80005 246.20001 L695.80005 246.20001 L695.80005 246.20001 L695.4 246.20001 L694.0 246.0 L690.80005 246.0 L687.2 246.20001 L682.2 246.20001 L678.0 246.20001 L674.4 246.20001 L672.2 246.20001 L671.60004 246.20001 L671.60004 246.20001 L671.60004 246.20001 L672.2 246.4 L674.0 246.4 L677.60004 246.4 L681.2 246.8 L685.0 246.8 L688.0 246.8 L690.0 246.8 L692.2 247.0 L694.0 246.8 L695.4 246.4 L695.4 246.20001 L695.4 246.20001 L695.4 246.20001 L695.0 246.20001 L693.6 246.20001 L690.80005 246.0 L687.2 246.0 L683.6 246.0 L680.0 245.59999 L677.60004 246.0 L675.4 246.20001 L674.0 246.20001 L672.60004 246.20001 L672.60004 246.20001 L672.60004 246.20001 L673.0 246.20001 L676.8 246.4 L679.0 246.20001 L680.80005 246.4 L682.2 246.4 L683.6 246.8"
    stroke="rgb(25,25,25)" stroke-width="1" fill="none" stroke-linejoin="round"/>
  <path
    d="M711.2 235.20001 L711.2 235.0 L711.2 235.0 L711.2 235.0 L711.2 235.0 L711.2 235.20001 L711.60004 235.20001 L711.60004 235.40001 L711.8 236.20001 L711.8 236.8 L711.8 238.6 L711.8 239.59999 L711.60004 241.20001 L711.2 242.6 L710.80005 244.2 L710.4 245.40001 L710.4 246.20001 L710.0 247.8 L709.80005 249.40001 L709.4 250.59999 L709.0 252.0 L709.0 253.0 L708.6 253.79999 L708.6 255.20001 L708.0 256.0 L708.0 257.0 L707.60004 258.6 L707.2 259.4 L707.2 260.0 L707.2 260.40002 L707.2 260.40002 L707.2 260.40002 L707.2 260.40002 L707.2 260.40002 L707.2 260.40002 L707.60004 260.40002 L707.60004 260.40002 L708.0 260.2 L709.4 260.0 L710.80005 259.59998 L712.60004 259.4 L714.4 259.2 L715.80005 259.2 L717.60004 258.6 L719.4 258.6 L721.60004 258.6 L723.0 258.6 L723.6 258.6 L725.0 258.0 L726.8 257.80002 L728.6 257.80002 L731.8 258.0 L733.0 258.0 L735.0 258.4 L739.0 258.6 L740.4 258.8 L743.0 259.2 L746.8 258.6 L748.0 258.8 L749.4 258.8 L750.4 258.8 L751.2 258.8 L752.60004 259.2 L753.0 258.8 L754.0 258.8 L754.4 258.8 L754.4 258.8 L754.4 258.8 L754.4 258.8 L754.4 258.8 L754.4 258.8 L754.80005 259.4 L755.0 259.2 L755.0 259.2 L755.0 259.2 L755.0 259.2 L755.0 259.2 L755.0 259.2 L755.0 259.2 L755.0 259.2 L755.4 259.2 L755.4 259.2 L755.0 258.8 L755.4 258.8 L755.4 258.8 L755.4 258.8 L755.4 258.8 L755.4 258.6 L755.0 258.6 L755.4 258.4 L755.4 258.6 L755.4 258.4 L755.4 258.4 L755.4 258.4 L755.4 258.4 L755.4 258.4 L755.4 258.4 L755.4 258.4 L755.4 258.4 L755.80005 258.0 L756.2 258.0 L756.60004 257.80002 L756.8 257.80002 L758.0 257.6 L759.80005 257.0 L761.2 257.0 L762.2 256.8 L762.2 256.4 L762.60004 256.4 L762.60004 256.4 L763.0 256.4 L763.0 256.2 L763.0 256.2 L762.60004 256.2 L762.60004 256.2 L762.60004 256.2 L762.60004 256.4 L762.60004 256.4 L762.60004 256.2 L762.60004 256.4 L762.60004 257.0 L762.60004 257.0 L762.60004 257.0 L762.60004 257.0 L762.60004 257.0 L762.60004 256.8 L762.60004 256.8 L762.2 255.8 L761.8 255.0 L761.60004 254.2 L761.2 253.6 L761.2 252.6 L761.2 251.8 L761.2 250.59999 L761.2 249.40001 L760.80005 248.4 L760.80005 247.2 L760.80005 246.20001 L760.4 245.40001 L760.4 244.59999 L760.0 244.2 L760.0 243.4 L760.0 242.8 L760.0 242.2 L760.0 241.8 L760.0 241.20001 L760.0 240.59999 L760.0 240.20001 L759.80005 239.40001 L759.80005 239.2 L759.80005 238.6 L759.80005 238.6 L759.80005 238.6 L759.80005 238.4 L759.80005 238.0 L759.80005 238.0 L759.80005 237.8 L759.80005 237.6 L759.80005 237.0 L759.80005 236.4 L759.4 236.20001 L759.4 235.8 L759.4 235.40001 L759.4 235.20001 L759.0 235.0 L759.0 235.0 L759.0 234.59999 L759.0 234.59999 L759.0 234.40001 L759.0 234.40001 L758.6 234.2 L758.0 233.6 L758.0 233.6 L758.0 233.6 L758.0 233.6 L758.0 233.6 L758.0 233.6 L758.0 233.6 L757.60004 233.79999 L756.8 234.40001 L755.80005 234.40001 L754.4 235.0 L753.0 235.20001 L751.2 235.40001 L749.0 235.8 L746.2 235.40001 L743.6 236.20001 L740.4 236.20001 L736.8 236.4 L733.0 236.8 L730.0 237.0 L726.8 237.0 L724.80005 237.0 L723.0 237.2 L721.2 237.2 L719.0 237.2 L718.0 237.2 L716.8 237.2 L715.80005 237.2 L715.4 237.0 L715.0 237.0 L714.80005 237.0 L714.80005 237.0 L714.4 237.0 L714.80005 237.0"
    stroke="rgb(25,25,25)" stroke-width="1" fill="none" stroke-linejoin="round"/>
  <path
    d="M575.4 278.0 L575.4 278.4 L575.80005 278.6 L575.80005 278.6 L575.80005 278.6 L575.80005 278.6 L576.2 278.6 L576.2 278.6 L576.4 279.2 L576.8 279.2 L577.2 279.4 L577.2 279.59998 L577.2 279.4 L577.2 279.4 L577.2 279.59998 L577.2 279.59998 L577.2 279.59998 L577.4 280.2 L577.4 280.2 L577.4 280.2 L577.4 280.2 L577.4 280.2 L577.4 280.2 L577.4 280.2 L577.4 280.2 L577.8 280.40002 L577.4 280.40002 L577.4 280.40002 L577.4 280.40002 L577.4 280.40002 L577.4 280.6 L577.4 280.40002 L577.4 280.6 L577.4 280.6 L577.4 280.6 L577.4 280.6 L577.6 281.0 L577.6 281.2 L577.6 281.0 L577.6 281.0 L577.6 281.0 L577.6 281.0 L577.6 281.0 L577.6 281.0 L577.6 281.0 L577.6 281.0 L577.6 281.0 L577.4 281.0 L577.6 281.0 L577.6 281.0 L577.6 281.0 L577.6 281.2 L577.6 281.2 L577.6 281.2 L577.6 281.2 L577.6 281.2 L577.6 281.2 L577.6 281.4 L577.6 281.2 L577.6 281.2 L577.6 281.2 L577.6 281.2 L577.6 281.2 L577.6 281.2 L577.6 281.2 L577.6 281.2 L577.6 281.2 L577.6 281.2 L577.6 281.2 L577.6 281.2 L577.8 281.8 L577.6 281.8 L577.6 281.8 L577.8 281.8 L577.8 281.8 L577.8 281.8 L577.6 281.8 L577.6 281.8 L577.6 281.8 L577.6 281.8 L577.8 281.8 L577.6 281.8 L577.8 281.8 L577.8 281.8 L577.8 281.8 L577.8 281.8 L577.8 281.8 L577.8 281.8 L577.8 281.8 L577.8 281.8 L577.8 281.8 L577.8 281.8 L577.6 281.8 L577.6 281.8 L577.6 281.8 L577.6 281.8 L577.6 281.8 L577.6 281.8 L577.6 281.8 L578.4 282.80002 L578.4 282.80002 L578.4 282.80002 L578.0 282.80002 L578.4 282.80002 L578.4 282.80002 L578.0 282.80002 L578.0 282.80002 L578.0 282.80002 L578.0 282.19998 L578.0 282.19998 L578.0 282.19998 L578.0 282.19998 L578.0 282.19998 L578.0 282.19998 L578.0 282.6 L578.0 282.19998 L578.0 282.19998 L578.0 282.19998 L578.0 282.19998 L578.0 282.19998 L578.0 282.6 L578.0 282.6 L578.0 282.6 L578.0 282.6 L578.0 282.19998 L578.0 282.6 L578.0 282.6 L578.0 282.6 L578.0 282.19998 L578.0 282.19998 L578.0 282.6 L578.0 282.6 L578.0 282.6 L578.0 282.6 L578.0 282.6 L578.0 282.6 L578.0 282.6 L578.0 282.6 L578.0 282.6 L578.0 282.6 L578.0 282.6 L577.8 282.0 L577.8 282.0 L577.8 282.0 L577.8 282.0 L577.8 282.0 L577.8 282.0 L577.8 282.0 L577.8 282.0 L577.8 282.0 L577.8 282.0 L577.8 282.0 L577.8 282.0 L578.0 282.6 L578.0 282.6 L578.0 282.6 L578.0 282.6 L578.0 282.6 L578.0 282.6 L578.0 282.6 L578.0 282.6 L577.8 282.0 L577.8 282.0 L577.8 282.0 L577.8 282.0 L577.8 282.0 L577.8 282.0 L577.8 282.0 L577.8 282.0 L577.8 282.0 L577.8 282.0 L577.8 282.0 L577.8 282.0 L577.8 282.0 L577.8 282.0 L577.8 282.0 L577.8 282.0 L577.8 282.0 L577.8 282.0 L577.8 282.0 L577.8 282.0 L578.4 283.0 L578.4 283.0 L578.4 283.0 L578.4 283.0 L578.4 282.80002 L578.4 282.80002 L578.0 282.80002 L578.4 282.80002 L578.0 282.80002 L578.0 282.80002 L578.0 282.80002 L578.0 282.80002 L578.0 282.80002 L578.0 282.80002 L578.4 282.80002 L578.0 282.80002 L578.0 282.6 L578.0 282.6 L578.0 282.6 L578.0 282.6 L578.0 282.6 L577.8 282.6 L578.0 282.6 L577.8 282.6 L578.0 282.6 L578.0 282.6 L578.4 283.4 L578.4 283.4 L578.4 283.4 L578.4 283.4 L578.4 282.80002 L578.4 282.80002 L578.4 282.80002 L578.4 282.80002 L578.4 282.80002 L578.4 282.80002 L578.4 282.80002 L578.4 282.80002 L577.8 282.80002 L578.0 282.80002 L578.0 282.80002 L578.0 282.80002 L578.0 282.80002 L578.0 282.80002 L578.0 282.80002 L578.0 282.80002 L578.0 282.80002 L578.0 282.80002 L578.0 282.80002 L578.0 282.80002 L578.0 282.80002 L577.8 282.6 L577.8 282.19998 L577.8 282.19998 L577.8 282.6 L577.8 282.19998 L577.8 282.6 L577.8 282.19998 L577.8 282.19998 L577.8 282.6 L577.8 282.6 L577.8 282.6 L577.8 282.19998 L577.8 282.19998 L577.8 282.6 L577.8 282.19998 L577.8 282.6 L577.8 282.19998 L577.6 282.0 L578.0 282.19998 L577.8 282.19998 L577.8 282.19998 L577.6 282.0 L577.6 282.0 L577.6 282.0 L577.6 282.0 L577.4 282.0 L577.4 282.0 L576.8 282.0 L575.80005 282.0 L574.6 282.19998 L574.0 282.19998 L573.0 282.19998"
    stroke="rgb(25,25,25)" stroke-width="1" fill="none" stroke-linejoin="round"/>
  <path
    d="M573.4 285.2 L573.6 285.2 L573.6 285.2 L573.6 285.40002 L573.8 285.40002 L573.8 285.40002 L574.0 285.40002 L574.0 285.2 L574.0 285.2 L574.0 285.2 L574.0 285.0 L573.8 285.0 L573.8 284.59998 L574.0 285.2"
    stroke="rgb(25,25,25)" stroke-width="1" fill="none" stroke-linejoin="round"/>
  <path
    d="M575.2 284.59998 L575.0 284.4 L575.0 284.4 L575.4 285.2 L575.4 284.59998 L575.4 284.59998 L575.60004 284.59998 L575.60004 284.59998 L575.60004 284.59998 L575.80005 285.2 L575.80005 285.2 L575.80005 285.2 L575.80005 285.0 L575.80005 285.40002"
    stroke="rgb(25,25,25)" stroke-width="1" fill="none" stroke-linejoin="round"/>
  <path
    d="M610.80005 293.4 L609.19995 296.4 L609.0 298.6 L608.6 300.6 L608.0 302.80002 L607.6 305.40002 L607.4 307.19998 L607.4 308.6 L607.4 309.59998 L607.4 310.40002 L607.2 310.6 L607.4 311.0 L607.2 310.40002 L607.2 310.40002 L607.2 310.40002 L606.8 309.4 L606.4 309.2 L606.2 308.6 L606.0 308.0 L605.80005 307.80002 L605.80005 307.80002 L605.80005 307.19998 L605.80005 307.0 L605.80005 306.4 L606.0 305.6 L606.2 304.4 L606.8 303.0 L607.2 301.2 L607.4 299.4 L608.4 294.2 L608.6 291.0 L609.19995 287.80002 L610.2 283.0 L610.4 281.8 L610.2 280.40002 L610.2 280.2 L610.4 280.6 L610.60004 281.0 L610.80005 281.2 L611.0 282.0 L611.2 283.0 L612.0 283.6 L612.4 284.4 L614.0 285.40002 L615.80005 286.2 L618.0 286.4 L620.80005 287.0 L623.6 287.0 L626.0 286.8 L628.8 287.0 L632.0 287.0 L635.2 287.19998 L638.6 287.6 L642.60004 287.80002 L646.60004 287.80002 L650.0 287.80002 L652.60004 287.80002 L656.60004 287.6 L658.0 287.80002 L658.0 287.80002 L658.0 287.80002 L658.0 287.80002 L658.0 287.6 L658.0 287.6 L658.0 287.6 L658.0 287.19998 L658.0 287.0 L658.6 286.8 L659.4 286.2 L660.0 286.0 L660.4 285.6 L660.80005 285.6 L660.4 285.6 L660.80005 285.6 L660.4 285.40002 L660.80005 285.40002 L661.60004 285.40002 L662.2 285.2 L663.6 285.0 L664.0 285.0 L664.0 285.2 L664.0 285.2 L664.0 285.40002 L664.0 285.40002 L663.6 286.2 L663.0 287.0 L662.60004 288.4 L662.2 289.4 L661.8 291.0 L661.60004 292.80002 L661.2 295.40002 L660.4 297.80002 L660.4 299.4 L660.0 300.6 L659.4 302.6 L659.4 303.6 L659.0 304.59998 L659.0 305.40002 L658.6 305.6 L658.6 305.6 L658.6 305.6 L658.6 305.6 L658.6 305.6 L658.0 305.40002 L658.0 305.40002 L657.2 305.0 L654.80005 304.4 L651.60004 304.4 L643.0 303.6 L637.6 303.6 L631.8 303.6 L625.80005 303.6 L621.0 303.6 L617.6 303.8 L615.60004 303.8 L614.0 304.2 L612.8 304.4 L612.4 304.4 L612.4 304.4 L612.4 304.4 L613.0 304.4 L614.0 304.59998 L616.2 304.4 L618.4 304.2 L620.80005 303.8 L622.8 303.6 L625.2 303.6 L627.4 303.6 L629.39996 303.4 L631.2 303.0 L632.6 303.0 L633.4 303.0 L633.4 303.0 L633.0 303.0 L632.8 303.0 L632.2 303.0 L630.2 303.0 L627.0 303.6 L623.8 303.8 L620.0 304.2 L616.0 303.8 L612.4 303.8 L609.6 303.6 L609.0 303.6 L609.0 303.6 L609.19995 303.6 L610.60004 303.6 L613.0 303.6 L616.2 303.6 L620.0 303.6 L623.6 303.6 L627.4 303.6 L630.60004 303.6 L633.8 303.4 L635.80005 303.6 L636.4 303.6 L636.4 303.6 L636.2 303.6 L635.80005 304.4 L634.0 303.4 L630.80005 303.4 L626.4 303.6 L622.0 303.6 L617.4 303.6 L614.0 303.6 L611.0 303.6 L610.2 303.4 L610.4 303.4 L610.4 302.80002 L611.8 302.80002 L614.0 302.80002 L617.0 302.80002 L620.2 302.80002 L622.6 302.80002 L625.0 302.80002 L627.2 302.80002 L629.0 303.0 L631.2 303.8 L631.2 303.8 L631.0 303.8 L630.4 304.2 L628.8 303.8 L627.0 303.8 L625.2 303.8 L623.6 303.8"
    stroke="rgb(25,25,25)" stroke-width="1" fill="none" stroke-linejoin="round"/>
  <path
    d="M611.4 282.0 L611.4 282.0 L611.4 282.0 L611.4 282.19998 L611.4 282.6 L611.8 282.80002 L612.2 283.6 L612.4 284.59998 L612.4 286.2 L612.4 287.80002 L612.0 289.59998 L612.0 291.8 L611.8 294.4 L611.0 297.0 L610.60004 299.4 L610.2 301.4 L609.6 303.0 L609.19995 304.4 L609.0 305.6 L609.0 306.8 L609.0 307.6 L609.0 307.80002 L609.0 308.0 L609.0 308.0 L609.0 308.0 L609.0 308.0 L609.19995 307.80002 L610.2 307.80002 L611.8 307.19998 L613.8 306.8 L615.80005 306.4 L617.4 306.2 L619.0 305.6 L621.8 305.40002 L624.39996 304.59998 L627.4 304.4 L630.2 303.8 L632.8 303.6 L635.60004 303.4 L637.6 303.0 L639.6 303.0 L641.8 303.6 L644.0 303.6 L645.80005 303.6 L648.0 303.6 L649.4 303.6 L651.8 304.2 L654.4 303.8 L655.80005 303.8 L656.8 303.6 L658.2 303.6 L659.80005 303.4 L660.4 303.4 L660.4 303.4 L660.4 303.6 L660.4 303.4 L660.4 303.6 L660.4 303.6 L660.4 303.6 L660.4 303.6 L660.4 303.6 L660.4 303.6 L660.4 303.6 L660.4 303.6 L660.4 303.6 L660.4 303.4 L660.80005 303.0 L660.80005 302.80002 L661.60004 301.4 L663.0 298.4 L664.0 296.0 L665.0 293.0 L665.80005 290.40002 L666.2 287.80002 L666.2 285.40002 L665.80005 283.8 L665.4 282.80002 L664.80005 282.19998 L664.4 282.0 L664.0 282.0 L664.0 282.0 L663.6 282.19998 L663.2 282.80002 L663.0 282.80002 L662.60004 283.4 L661.2 284.2 L660.0 284.4 L659.0 285.2 L657.2 285.6 L654.80005 285.40002 L650.80005 286.2 L646.2 286.8 L641.60004 286.8 L636.2 286.4 L630.80005 286.2 L626.2 286.0 L622.2 285.6 L619.0 285.40002 L616.8 285.2 L615.80005 285.0 L615.4 284.59998 L614.6 285.0 L615.0 285.6 L616.2 286.2 L616.2 286.2"
    stroke="rgb(25,25,25)" stroke-width="1" fill="none" stroke-linejoin="round"/>
  <path
    d="M592.4 335.80002 L593.6 334.59998 L594.19995 333.80002 L594.6 332.40002 L595.0 330.80002 L594.6 329.4 L594.0 328.6 L592.8 327.8 L590.80005 327.40002 L588.0 328.4 L584.19995 330.0 L580.80005 331.8 L578.0 334.0 L575.80005 336.4 L574.6 339.0 L575.0 341.8 L575.60004 343.6 L577.2 345.40002 L579.0 345.80002 L582.2 345.80002 L585.60004 344.59998 L593.8 341.0 L597.0 338.80002 L599.39996 335.80002 L601.8 333.6 L602.4 331.8 L602.6 330.80002 L602.4 330.80002 L601.8 331.0 L599.6 332.8 L597.0 335.80002 L594.0 339.4 L590.80005 343.80002 L587.4 349.19998 L583.4 355.80002 L579.0 362.40002 L573.6 369.0 L569.0 375.40002 L566.0 379.19998 L564.39996 381.8 L564.0 382.59998 L564.0 382.59998 L564.0 382.0 L565.2 380.2 L567.8 376.19998 L572.4 370.80002 L577.6 364.59998 L583.4 358.6 L588.0 353.6 L592.2 349.19998 L595.60004 346.19998 L598.6 344.0 L600.80005 342.40002 L602.4 341.4 L603.0 341.0 L603.0 341.0"
    stroke="rgb(25,25,25)" stroke-width="1" fill="none" stroke-linejoin="round"/>
  <path
    d="M621.0 330.0 L620.80005 329.4 L620.60004 330.0 L619.39996 331.0 L617.4 333.4 L615.60004 336.0 L613.6 338.80002 L612.2 341.19998 L611.0 343.80002 L610.4 345.40002 L610.4 345.80002 L610.60004 346.0 L610.80005 346.0 L612.0 345.6 L614.0 344.59998 L616.4 343.0 L619.0 341.19998 L622.2 339.19998 L624.0 337.8 L625.60004 337.0 L627.0 336.0 L627.6 335.80002 L628.4 335.80002 L628.4 336.0 L628.0 337.0 L627.6 338.6 L626.8 340.80002 L625.80005 342.59998 L625.2 345.0 L624.6 346.0 L625.0 347.0 L625.60004 347.40002 L626.2 347.40002 L628.4 347.40002 L630.80005 346.8 L634.0 345.40002 L637.4 343.6 L640.80005 342.0 L643.6 340.0 L646.2 339.0 L646.60004 338.6 L646.60004 338.80002 L646.8 338.80002 L646.8 339.0 L646.60004 339.19998 L646.2 340.0 L645.4 341.0 L644.4 343.0 L641.8 347.59998 L640.4 350.2 L640.0 350.80002 L639.6 351.19998 L639.6 351.19998 L639.6 351.19998 L640.4 350.80002 L641.8 348.6 L645.0 346.0 L647.60004 342.2 L649.80005 338.80002 L650.80005 336.0 L651.2 333.6 L650.80005 331.0 L650.80005 330.0 L650.80005 329.19998 L650.80005 329.19998 L651.60004 329.4 L652.60004 330.2 L654.0 331.0 L655.4 332.2 L658.2 335.0 L659.80005 335.80002 L660.80005 336.8 L663.2 337.40002 L664.0 337.40002 L664.4 337.40002 L664.4 337.40002 L664.4 337.40002 L664.4 337.40002 L663.6 337.40002 L661.8 338.0 L659.0 339.0 L656.60004 341.0 L654.0 342.8 L652.60004 345.0 L651.2 346.8 L650.80005 348.6 L651.2 349.4 L652.2 350.2 L654.80005 350.2 L658.2 349.19998 L662.2 347.59998 L666.60004 345.6 L671.2 342.59998 L676.2 339.4 L681.2 335.80002 L686.8 331.0 L692.60004 326.4 L697.60004 322.0 L705.0 313.6 L706.8 311.2 L707.2 310.6 L707.2 310.6 L706.8 311.2 L705.80005 312.19998 L703.2 314.59998 L700.0 317.80002 L696.60004 321.4 L692.2 326.0 L688.0 331.0 L684.0 335.2 L680.80005 338.6 L679.0 340.80002 L678.6 341.4 L678.6 342.0 L679.0 341.8 L679.0 341.8 L680.0 341.4 L682.2 340.6 L685.80005 339.19998 L689.0 338.6 L690.80005 338.0 L691.8 338.0 L692.2 339.59998 L692.2 340.6 L691.60004 344.19998 L690.80005 346.4 L689.4 349.0 L688.0 350.80002 L687.60004 352.2 L687.60004 352.2"
    stroke="rgb(25,25,25)" stroke-width="1" fill="none" stroke-linejoin="round"/>
  <path
    d="M618.0 367.40002 L618.4 367.2 L618.0 367.40002 L617.8 367.59998 L617.0 368.80002 L615.0 370.6 L612.8 372.59998 L610.60004 375.40002 L607.8 377.59998 L605.80005 379.4 L603.6 382.2 L603.6 382.40002 L603.8 382.40002 L604.19995 382.40002 L605.80005 381.0 L609.0 379.0 L612.6 377.2 L616.4 374.59998 L620.0 373.0 L623.0 371.8 L625.60004 370.80002 L627.2 370.2 L628.8 370.6 L629.0 371.0 L629.0 371.8 L629.0 372.59998 L628.6 374.0 L627.4 375.80002 L626.2 377.59998 L625.80005 378.6 L625.80005 379.4 L625.60004 380.40002 L625.80005 380.80002 L627.2 381.19998 L629.6 381.0 L637.2 380.2 L640.80005 378.80002 L644.0 377.40002 L647.2 375.80002 L653.0 373.80002 L653.0 374.19998 L652.2 374.59998 L650.0 375.6 L647.60004 376.8 L644.4 378.80002 L641.8 380.6 L640.0 382.2 L640.0 384.0 L640.0 384.19998 L640.80005 384.59998 L641.8 385.0 L644.0 384.4 L645.80005 384.0 L647.2 383.0 L647.2 382.8 L647.2 382.8 L647.2 382.8 L646.8 382.59998 L646.8 382.59998 L647.2 382.40002 L648.0 382.0 L650.0 380.80002 L652.60004 379.4 L655.4 378.0 L658.2 376.8 L661.60004 375.0 L664.4 372.40002 L668.0 370.2 L671.8 367.59998 L675.0 365.80002 L678.0 363.6 L680.80005 361.4 L683.0 360.40002 L684.0 360.0 L684.4 359.59998 L684.0 360.0 L683.2 360.40002 L682.2 360.80002 L680.0 362.2 L678.0 363.80002 L672.2 369.0 L669.80005 372.40002 L667.60004 375.6 L666.8 378.0 L666.2 380.2 L665.80005 381.4 L665.80005 382.40002 L665.80005 382.40002 L666.2 382.40002 L666.2 382.40002 L666.60004 382.0 L666.8 381.19998 L666.8 380.80002 L666.8 380.80002 L666.8 380.80002 L666.8 380.80002 L667.2 381.0 L668.6 381.19998 L670.80005 380.80002 L673.2 380.80002 L676.2 379.59998 L679.0 378.80002 L682.60004 377.40002 L685.4 376.19998 L688.2 374.59998 L690.0 373.6 L690.4 372.2 L691.2 371.0 L690.80005 370.80002 L690.80005 370.80002 L690.0 371.0 L688.0 371.8 L686.60004 372.59998 L685.4 374.0 L683.6 375.80002 L682.2 377.59998 L681.60004 379.19998 L682.2 380.0 L682.2 380.80002 L682.60004 380.80002 L683.6 381.4 L685.4 381.8 L688.0 380.80002 L691.2 379.59998 L694.4 377.8 L698.0 376.0 L701.8 374.0 L705.4 372.2 L707.60004 370.6 L708.6 370.0 L708.2 369.59998 L708.2 369.59998 L708.0 369.59998 L708.0 370.0 L708.0 370.0 L708.0 370.40002 L708.6 371.4 L709.4 372.59998 L710.80005 374.19998 L711.8 376.0 L712.2 377.40002 L712.2 379.19998 L711.60004 380.80002 L710.4 381.8 L708.2 382.8 L705.0 384.0 L702.2 384.59998 L699.4 385.40002 L698.2 385.40002 L698.2 385.40002"
    stroke="rgb(25,25,25)" stroke-width="1" fill="none" stroke-linejoin="round"/>
  <path
    d="M625.80005 290.0 L620.80005 292.19998 L617.8 293.6 L615.60004 294.2 L614.0 294.59998 L612.8 295.2 L612.6 295.40002 L613.0 295.40002 L614.0 295.2 L619.6 293.8 L623.0 293.0 L626.2 292.0 L628.8 291.2 L630.60004 290.6 L632.2 290.40002 L633.0 290.0 L633.4 289.59998 L633.0 289.59998 L632.8 289.59998 L631.8 290.0 L629.0 291.0 L625.2 292.0 L620.60004 293.8 L617.0 295.40002 L614.0 296.2 L612.4 296.8 L612.2 297.6 L612.4 297.6 L612.8 297.6 L614.19995 297.19998 L629.39996 294.2 L632.4 293.4 L634.39996 292.6 L637.0 291.8 L638.4 291.4 L638.8 291.0 L638.6 291.0 L638.0 290.40002 L637.4 291.2 L635.2 292.0 L622.8 297.19998 L619.0 299.2 L614.0 303.0 L613.8 303.6 L614.0 304.2 L615.2 305.0 L632.4 302.6 L637.6 300.6 L641.8 299.4 L645.4 298.0 L648.6 297.0 L650.80005 296.2 L651.2 295.8 L651.2 295.8 L650.80005 295.40002 L648.6 296.2 L645.80005 296.4 L641.2 298.8 L635.80005 300.6 L630.80005 302.0 L627.2 303.6 L624.6 306.2 L625.80005 306.8 L627.4 306.4 L631.2 306.2 L646.2 302.0 L650.0 300.6 L654.0 299.4 L657.60004 297.80002 L660.0 296.8 L661.8 296.0 L661.8 295.8 L660.80005 295.40002 L658.0 296.2 L654.4 297.0 L649.4 298.8 L644.0 300.6 L638.8 302.0 L634.0 303.0 L632.0 304.4 L631.2 304.4 L633.8 305.2 L637.0 304.4 L641.2 302.80002 L646.60004 301.4 L651.8 300.2 L656.2 298.6 L660.4 297.80002 L663.6 297.0 L665.80005 296.8 L665.4 297.0 L664.0 297.80002 L653.0 301.8 L649.4 303.0 L647.2 303.8 L646.2 305.40002 L647.60004 306.0 L649.80005 306.0 L653.0 305.40002 L657.2 305.40002 L661.2 304.59998 L664.0 303.6 L665.80005 303.4 L658.6 303.6 L655.80005 304.4 L654.4 305.0 L654.4 305.40002 L654.4 305.40002 L654.4 305.2 L654.80005 305.40002 L655.80005 305.40002 L655.80005 305.40002"
    stroke="rgb(0,190,150)" stroke-width="1" fill="none" stroke-linejoin="round"/>
  <path
    d="M617.0 239.40001 L618.6 239.2 L620.80005 238.4 L622.6 238.4 L624.6 238.0 L626.8 238.0 L628.4 237.2 L630.2 238.4 L629.0 238.6 L626.8 240.0 L623.0 241.20001 L617.6 243.0 L616.8 243.6 L616.8 243.6 L618.0 243.79999 L620.4 243.6 L623.0 242.8 L625.80005 241.4 L628.6 241.0 L630.60004 241.0 L627.8 242.6 L608.0 250.20001 L608.0 250.40001 L608.4 250.59999 L609.0 250.59999 L612.0 249.59999 L622.0 247.0 L613.8 250.20001 L611.2 252.8 L636.4 247.8 L649.4 244.40001 L649.0 243.79999 L647.2 244.40001 L644.4 245.0 L624.6 251.4 L625.60004 251.8 L639.19995 248.6 L645.0 247.2 L650.0 246.0 L654.80005 245.0 L659.0 243.79999 L661.8 243.0 L662.60004 242.8 L663.0 242.8 L662.60004 242.8 L662.2 242.8 L660.0 243.0 L655.4 244.40001 L650.0 246.0 L636.0 250.20001 L632.8 251.8 L633.0 252.0 L634.0 252.0 L635.80005 252.0 L654.0 248.4 L658.0 247.2 L660.80005 247.0 L661.2 246.4 L661.2 246.8 L658.2 247.2 L655.0 248.4 L650.4 249.40001 L641.2 252.2 L640.4 253.6 L642.2 253.79999 L653.2 253.4 L655.80005 253.4 L657.60004 253.6 L658.0 253.6 L656.60004 254.2 L654.4 255.0 L651.8 256.0 L650.0 256.4 L649.4 257.0 L649.4 257.0 L649.80005 257.0 L650.0 257.6 L651.2 257.80002 L652.60004 257.80002 L652.60004 257.80002"
    stroke="rgb(250,40,140)" stroke-width="1" fill="none" stroke-linejoin="round"/>
  <path
    d="M719.4 242.8 L716.8 244.2 L714.4 245.40001 L712.2 246.4 L710.4 247.6 L709.80005 247.8 L709.4 247.8 L709.4 247.6 L710.0 247.0 L710.80005 246.20001 L715.0 243.4 L717.60004 241.8 L720.4 240.40001 L722.60004 239.40001 L724.4 238.6 L725.0 238.0 L725.0 238.0 L725.0 238.0 L724.4 238.4 L723.6 238.79999 L721.60004 239.59999 L718.6 241.20001 L715.80005 242.8 L712.60004 244.40001 L710.80005 245.40001 L710.4 245.59999 L710.4 246.0 L710.4 246.0 L711.2 245.59999 L713.2 245.0 L716.2 243.79999 L719.4 242.8 L722.60004 241.20001 L727.60004 239.40001 L729.80005 238.6 L731.2 237.8 L731.8 237.6 L731.8 237.6 L731.60004 237.8 L727.2 239.40001 L723.6 241.20001 L720.0 242.8 L716.8 244.2 L714.0 245.20001 L713.0 246.0 L712.60004 246.20001 L713.0 246.20001 L713.6 246.20001 L715.4 245.59999 L717.60004 245.20001 L721.2 243.79999 L725.0 242.6 L728.6 241.20001 L732.2 239.59999 L735.4 238.4 L738.0 237.2 L739.80005 236.8 L740.4 236.4 L740.0 236.4 L739.4 236.8 L738.0 237.2 L735.0 238.6 L731.2 240.40001 L726.2 242.2 L722.2 244.40001 L718.0 246.20001 L715.4 247.6 L714.0 248.6 L714.0 249.2 L714.0 249.40001 L715.0 249.40001 L716.8 249.2 L720.0 248.4 L724.4 246.4 L729.80005 245.0 L734.4 243.0 L739.4 241.20001 L743.2 239.40001 L746.8 238.0 L749.0 237.0 L750.4 236.4 L751.2 236.20001 L750.80005 236.20001 L750.80005 236.4 L749.4 237.0 L746.60004 238.4 L742.2 240.20001 L736.8 242.6 L731.2 245.20001 L725.4 247.8 L721.2 249.59999 L719.0 251.20001 L717.60004 252.6 L717.60004 252.8 L717.60004 253.0 L718.6 253.0 L720.80005 252.8 L724.4 251.4 L729.0 250.20001 L734.0 248.0 L738.6 246.20001 L742.60004 244.40001 L746.2 242.8 L749.0 242.0 L750.4 241.4 L750.4 241.4 L750.0 241.4 L749.4 241.8 L746.8 242.6 L742.2 244.40001 L737.2 246.4 L732.2 248.6 L728.0 250.40001 L724.80005 252.0 L722.2 252.8 L721.2 253.79999 L721.2 254.40001 L722.2 254.2 L724.80005 253.6 L728.0 252.2 L733.2 251.0 L738.6 248.6 L743.2 247.0 L748.0 245.20001 L751.2 243.6 L754.0 242.8 L755.4 242.2 L755.4 242.2 L755.4 242.2 L755.0 242.6 L753.2 243.0 L749.80005 244.59999 L740.4 248.6 L735.0 251.0 L730.4 253.0 L727.2 255.0 L725.80005 256.2 L725.80005 257.0 L726.2 257.19998 L728.0 257.80002 L731.8 257.6 L737.60004 256.2 L743.2 254.2 L749.4 252.0 L754.0 251.0 L757.2 250.0 L759.0 249.40001 L760.0 249.40001 L759.80005 249.40001 L759.4 249.40001 L757.60004 250.0 L754.4 251.0 L749.4 252.8 L744.80005 254.2 L741.2 255.40001 L739.0 256.2 L738.2 257.0 L738.2 257.19998 L739.80005 257.80002 L741.8 257.80002 L745.0 257.19998 L749.0 256.8 L753.0 256.0 L756.60004 255.40001 L756.60004 255.40001 L756.2 255.8 L755.80005 256.0 L755.4 256.0 L753.2 256.2 L751.60004 256.8 L750.4 257.19998 L750.0 257.19998 L750.4 257.19998 L750.80005 257.6 L751.60004 257.19998 L752.60004 257.19998 L753.6 257.19998 L755.0 257.19998 L756.2 257.0 L757.2 256.8 L757.2 256.8"
    stroke="rgb(50,90,240)" stroke-width="1" fill="none" stroke-linejoin="round"/>
  <path
    d="M578.4 408.80002 L579.0 408.0 L579.39996 407.8 L580.2 407.40002 L580.60004 407.40002 L580.80005 407.2 L581.0 407.59998 L580.80005 408.6 L580.2 410.0 L575.80005 414.59998 L573.6 417.40002 L570.80005 421.4 L570.4 422.59998 L570.60004 423.4 L571.0 424.0 L572.2 424.0 L576.4 422.40002 L580.2 420.80002 L584.0 418.6 L587.6 416.8 L590.80005 415.0 L593.0 413.6 L595.0 412.40002 L595.80005 412.40002 L596.2 412.40002 L596.2 412.8 L596.0 413.80002 L595.2 415.6 L593.0 417.59998 L590.80005 420.2 L589.39996 422.0 L588.6 423.6 L588.4 424.19998 L588.6 425.0 L589.0 425.40002 L590.4 425.6 L592.8 425.0 L596.8 423.80002 L600.80005 421.8 L605.4 419.59998 L609.6 417.40002 L614.0 415.40002 L617.4 413.4 L620.60004 411.8 L622.0 411.19998 L622.4 411.19998 L622.2 411.4 L621.4 412.2 L620.60004 413.4 L619.0 415.0 L617.4 417.0 L615.80005 419.0 L615.60004 420.40002 L615.60004 421.19998 L615.80005 422.0 L617.2 422.40002 L619.39996 422.40002 L623.4 421.4 L626.4 420.6 L630.80005 418.80002 L634.39996 416.8 L638.4 414.59998 L642.2 412.8 L645.0 411.19998 L646.8 410.6 L646.8 410.40002 L646.8 410.6 L646.2 410.80002 L645.80005 412.2 L644.0 414.0 L642.2 415.2 L641.60004 417.40002 L640.80005 419.0 L640.80005 420.2 L641.60004 421.0 L642.2 421.8 L644.0 422.2 L646.60004 421.8 L650.80005 421.0 L655.4 420.0 L659.80005 418.6 L663.2 417.40002 L666.8 416.8 L669.0 416.0 L670.4 415.80002 L670.80005 415.80002 L670.4 416.0 L670.4 416.19998 L669.4 417.2 L668.0 419.0 L667.2 420.0 L667.2 420.80002 L667.60004 421.8 L669.0 422.59998 L672.2 423.4 L676.8 423.80002 L681.60004 424.0 L685.80005 424.0 L689.80005 424.0 L693.0 424.0 L696.2 424.0 L698.6 423.6 L698.6 423.6"
    stroke="rgb(25,25,25)" stroke-width="1" fill="none" stroke-linejoin="round"/>
  <path
    d="M562.0 476.19998 L562.4 475.80002 L562.4 475.6 L562.4 475.2 L561.8 474.19998 L561.4 473.4 L561.2 473.0 L561.2 472.59998 L561.4 472.40002 L561.4 472.2 L561.2 472.2 L561.2 472.59998 L560.2 473.4 L560.2 473.4"
    stroke="rgb(250,40,140)" stroke-width="2" fill="none" stroke-linejoin="round"/>
  <path
    d="M622.6 447.0 L623.0 446.8 L624.0 446.19998 L625.2 445.80002 L627.4 445.0 L630.60004 444.0 L633.8 443.4 L636.4 443.0 L639.0 443.0 L641.60004 443.6 L642.60004 444.4 L643.6 445.6 L643.6 447.0 L642.60004 448.4 L640.80005 449.59998 L638.6 450.80002 L635.80005 452.40002 L633.4 453.6 L632.0 454.19998 L631.4 454.59998 L631.4 455.0 L632.4 455.2 L633.8 455.40002 L636.2 455.40002 L639.6 455.40002 L643.2 455.40002 L649.4 456.0 L651.2 456.4 L652.60004 457.40002 L653.0 457.59998 L652.60004 458.6 L652.2 459.0 L649.4 460.6 L648.0 461.4 L647.60004 462.59998 L647.60004 463.4 L648.2 464.0 L649.80005 465.0 L652.60004 465.40002 L655.4 466.4 L659.4 467.59998 L663.0 468.6 L666.2 469.19998 L668.6 470.6 L670.80005 471.4 L672.60004 472.59998 L674.0 473.6 L675.80005 474.59998 L677.2 475.6 L678.2 476.0 L678.6 476.19998 L679.4 476.8 L679.4 477.40002 L679.4 477.40002"
    stroke="rgb(250,40,140)" stroke-width="2" fill="none" stroke-linejoin="round"/>
  <path
    d="M730.4 185.20001 L731.2 184.59999 L731.8 184.2 L732.2 183.6 L732.2 183.6 L732.2 183.6 L732.2 183.6 L732.2 183.6 L731.8 183.6 L731.8 184.40001 L731.2 185.40001 L730.4 186.20001 L730.0 187.6 L729.80005 188.79999 L729.80005 188.79999 L729.80005 188.79999 L729.80005 189.2 L729.80005 189.2 L729.80005 188.79999 L729.80005 188.79999 L729.80005 188.79999 L729.80005 188.79999 L729.80005 188.79999 L729.80005 188.79999 L729.80005 188.6 L729.80005 188.6 L729.80005 188.4 L729.80005 188.0 L729.4 187.6 L729.4 187.0 L729.80005 185.40001 L729.80005 185.40001"
    stroke="rgb(250,40,140)" stroke-width="2" fill="none" stroke-linejoin="round"/>
  <path
    d="M473.0 325.6 L474.0 325.2 L474.59998 324.59998 L475.40002 324.0 L477.0 323.4 L478.4 322.59998 L480.2 321.19998 L482.0 320.2 L482.8 319.4 L484.0 319.2 L484.0 319.2 L483.80002 319.4 L483.4 320.80002 L482.40002 323.6 L480.80002 326.4 L479.0 329.0 L478.80002 330.40002 L478.80002 330.80002 L478.80002 331.0 L478.80002 331.0 L479.0 330.80002 L482.59998 330.40002 L483.6 329.0 L483.80002 327.8 L483.80002 327.8 L483.80002 327.8 L483.6 327.8 L484.0 329.59998 L482.59998 330.6 L482.59998 330.6"
    stroke="rgb(25,25,25)" stroke-width="1" fill="none" stroke-linejoin="round"/>
  <path
    d="M309.59998 320.40002 L309.2 320.6 L307.80002 320.80002 L305.40002 322.0 L301.8 324.4 L297.0 327.8 L292.19998 332.0 L287.80002 335.80002 L284.4 339.0 L282.0 341.8 L281.2 343.4 L281.2 344.0 L281.4 344.19998 L282.6 344.0 L285.0 343.4 L288.0 340.80002 L288.0 340.80002"
    stroke="rgb(25,25,25)" stroke-width="1" fill="none" stroke-linejoin="round"/>
  <path
    d="M307.0 325.40002 L306.4 325.2 L305.40002 325.6 L304.4 326.19998 L302.80002 327.40002 L301.0 329.4 L298.6 332.0 L295.8 335.40002 L292.19998 339.4 L287.80002 344.19998 L283.8 348.6 L280.40002 352.8 L278.4 356.4 L277.19998 358.6 L277.6 360.2 L278.4 360.6 L280.2 360.2 L283.8 358.6 L289.59998 355.6 L296.2 351.8 L303.4 347.40002 L309.4 343.4 L314.59998 339.19998 L319.59998 336.0 L323.80002 333.0 L326.8 331.19998 L328.4 330.80002 L328.4 330.80002 L327.59998 331.19998 L325.6 332.8 L321.8 335.80002 L316.2 340.80002 L309.59998 346.19998 L303.6 352.0 L298.6 357.0 L295.40002 360.80002 L294.4 364.0 L294.4 365.80002 L295.40002 366.19998 L297.0 366.4 L300.6 365.80002 L306.2 364.0 L312.6 360.80002 L319.59998 357.0 L326.4 353.4 L332.40002 350.0 L338.6 347.40002 L342.40002 345.40002 L345.2 345.0 L345.80002 345.40002 L345.40002 346.19998 L343.4 349.0 L339.4 352.8 L335.0 357.2 L330.80002 361.19998 L327.40002 364.4 L325.80002 366.4 L325.6 367.59998 L325.80002 368.0 L327.40002 369.0 L333.80002 367.8 L339.0 365.40002 L350.2 360.2 L354.19998 358.0 L357.2 357.0 L358.6 356.8 L358.4 357.2 L357.8 357.8 L356.8 359.0 L355.0 361.0 L352.59998 363.4 L350.80002 365.2 L349.4 366.8 L348.80002 367.59998 L348.80002 367.8 L349.0 368.4 L349.19998 368.6 L349.59998 368.80002 L350.2 369.0 L350.80002 369.0 L351.4 369.0 L352.40002 369.0 L353.4 368.80002 L354.0 368.4 L354.59998 367.59998 L355.2 367.0 L355.80002 365.6 L355.80002 365.6"
    stroke="rgb(25,25,25)" stroke-width="1" fill="none" stroke-linejoin="round"/>
</svg>
