<svg width="809.8967" height="1358.2659" xmlns="http://www.w3.org/2000/svg" version="1.1" xmlns:xlink="http://www.w3.org/1999/xlink" ><path d="M642.2 784.80005 L640.4 784.4 L638.0 784.4 L636.0 784.4 L634.0 785.4 L632.0 786.2 L630.0 787.2 L627.8 788.2 L625.80005 789.0 L624.0 790.4 L622.2 791.8 L620.4 793.0 L617.4 795.80005 L616.2 797.2 L615.4 798.6 L614.39996 800.4 L613.4 801.60004 L612.4 803.2 L611.8 805.0 L611.8 805.0" stroke="rgb(25,25,25)" stroke-width="1" fill="none" stroke-linejoin="round" /> <path d="M608.8 811.2 L607.8 813.0 L607.2 815.0 L607.2 815.0" stroke="rgb(25,25,25)" stroke-width="1" fill="none" stroke-linejoin="round" /> <path d="M434.59998 713.6 L433.0 714.4 L430.80002 716.2 L430.0 717.2 L429.0 717.60004 L428.4 718.0 L427.40002 718.0 L426.8 718.6 L425.80002 718.6 L425.6 718.6 L425.0 719.80005 L424.0 719.80005 L423.80002 720.4 L423.0 720.80005 L422.40002 720.80005 L422.2 721.2 L421.4 721.2 L420.40002 721.2 L419.59998 721.8 L418.0 721.8 L417.2 721.8 L415.80002 722.2 L415.0 722.2 L414.0 722.2 L413.4 722.60004 L412.40002 722.60004 L411.8 723.0 L411.0 723.2 L410.40002 723.6 L409.4 724.0 L408.80002 725.0 L407.40002 725.4 L406.8 726.2 L405.80002 727.2 L404.59998 728.0 L404.0 729.0 L402.8 730.4 L402.40002 731.2 L401.0 732.60004 L398.80002 734.0 L399.0 735.4 L397.8 736.2 L397.0 737.2 L395.80002 738.6 L394.59998 739.4 L393.6 740.4 L392.40002 741.8 L391.0 742.2 L389.59998 742.60004 L388.6 743.6 L387.40002 744.4 L385.40002 746.8 L384.19998 748.0 L383.6 749.0 L382.40002 750.0 L381.19998 750.0 L380.0 751.2 L379.0 751.8 L378.80002 752.2 L378.0 752.60004 L376.4 754.0 L375.6 755.0 L374.4 755.4 L372.40002 757.2 L371.8 758.0 L370.80002 759.4 L369.4 760.0 L368.80002 760.80005 L367.59998 761.60004 L366.8 762.2 L365.6 762.60004 L365.0 762.60004 L364.4 762.60004 L364.0 762.60004 L364.0 762.2 L364.0 761.8 L363.80002 761.2 L363.0 760.80005 L363.4 760.80005 L363.4 760.80005 L363.4 760.80005 L363.4 760.80005" stroke="rgb(25,25,25)" stroke-width="1" fill="none" stroke-linejoin="round" /> <path d="M462.59998 703.6 L460.6 704.4 L458.4 705.0 L456.0 705.80005 L454.0 706.60004 L452.40002 707.60004 L450.40002 707.60004 L449.0 709.0 L444.19998 713.0 L441.19998 714.80005 L439.0 716.2 L437.40002 717.2 L435.2 717.60004 L433.4 718.6 L431.0 719.80005 L426.8 720.80005 L424.0 721.2 L422.0 721.60004 L420.0 722.2 L417.8 722.60004 L415.80002 722.60004 L414.0 723.0 L412.2 723.2 L410.6 723.6 L409.0 724.0 L407.59998 724.0 L406.8 724.4 L405.40002 724.4 L404.0 725.0 L402.59998 726.60004 L400.6 728.0 L397.40002 730.4 L395.80002 731.2 L394.4 732.60004 L392.8 733.0 L392.0 734.0 L390.80002 734.80005 L389.19998 735.80005 L388.0 737.2 L386.4 739.0 L384.4 740.80005 L382.2 743.0 L380.40002 744.4 L378.4 746.2 L376.19998 746.8 L374.4 747.2 L373.6 747.60004 L372.40002 748.0 L371.8 748.2 L370.80002 748.6 L370.40002 748.6 L369.59998 749.0 L369.19998 749.4 L369.0 749.80005 L368.6 750.4 L367.40002 751.60004 L367.2 752.2 L367.2 752.60004 L366.4 753.6 L366.0 754.0 L365.6 754.0 L364.59998 754.80005 L364.0 755.0 L362.8 755.80005 L362.0 756.8 L360.0 759.4 L358.80002 760.0 L357.2 760.4 L356.19998 761.60004 L355.0 762.60004 L353.80002 763.2 L352.40002 764.0 L351.0 764.4 L350.0 765.4 L348.6 766.2 L346.8 767.2 L346.19998 768.6 L344.0 770.0 L343.4 770.80005 L341.8 772.60004 L340.2 774.0 L339.0 775.0 L337.59998 776.2 L335.80002 777.60004 L334.0 779.4 L332.2 781.2 L330.40002 782.60004 L328.80002 784.0 L327.59998 785.4 L326.4 786.2 L326.0 786.8 L325.40002 787.60004 L324.59998 788.0 L324.0 788.6 L323.6 788.6 L323.0 789.0 L322.59998 789.4 L322.40002 789.4 L321.8 789.80005 L321.4 791.8 L321.0 792.2 L320.80002 792.60004 L320.40002 792.60004 L320.0 794.4 L319.4 795.4 L318.6 797.60004 L317.80002 798.6 L316.2 800.4 L315.40002 801.2 L314.4 802.60004 L313.6 804.0 L312.6 805.4 L311.8 807.2 L310.6 808.6 L310.6 808.6 L310.40002 808.0 L311.4 805.80005 L311.4 805.80005" stroke="rgb(25,25,25)" stroke-width="1" fill="none" stroke-linejoin="round" /> <path d="M305.2 801.8 L304.59998 801.8 L304.59998 802.2 L304.59998 802.2 L304.59998 802.60004 L304.59998 803.0 L304.4 803.2 L305.0 804.4 L305.0 804.4 L305.0 805.0 L305.0 805.4 L304.59998 805.4 L304.59998 805.80005 L304.59998 805.80005 L304.59998 805.80005 L304.59998 805.80005 L304.59998 805.80005 L305.2 806.2 L305.40002 806.8 L305.40002 807.2 L305.6 807.2 L306.0 807.60004 L306.0 807.60004 L306.0 807.60004 L306.0 807.60004 L306.2 807.60004 L306.2 807.60004 L306.2 807.2 L306.2 807.2" stroke="rgb(25,25,25)" stroke-width="1" fill="none" stroke-linejoin="round" /> <path d="M302.0 808.0 L301.4 808.0 L301.0 807.60004 L300.40002 807.2 L300.0 807.2 L299.2 806.8 L298.4 806.8 L297.6 806.2 L297.0 806.2 L296.2 806.2 L295.2 806.2 L294.2 806.2 L293.0 806.2 L292.0 806.60004 L290.40002 806.8 L289.2 806.8 L287.19998 806.8 L285.2 807.60004 L282.80002 808.0 L280.6 809.0 L278.4 809.4 L276.2 809.80005 L274.4 810.0 L272.19998 810.0 L270.40002 810.0 L268.4 809.4 L266.2 808.6 L263.8 807.60004 L261.8 806.2 L259.4 804.4 L256.8 803.0 L254.2 801.2 L251.4 800.4 L248.6 800.0 L245.59999 800.0 L242.8 800.4 L231.8 804.4 L228.79999 805.80005 L226.20001 806.8 L223.4 808.0 L221.0 809.0 L218.4 809.80005 L216.20001 810.4 L214.59999 810.80005 L214.40001 810.80005 L214.40001 810.80005" stroke="rgb(25,25,25)" stroke-width="1" fill="none" stroke-linejoin="round" /> <path d="M291.4 806.2 L290.2 806.2 L288.0 806.2 L286.2 806.2 L284.4 806.2 L282.0 806.2 L279.59998 805.80005 L277.80002 806.2 L275.40002 806.60004 L273.6 806.2 L272.0 806.60004 L270.6 806.60004 L269.59998 806.8 L268.6 807.2 L267.80002 807.60004 L266.4 808.2 L265.2 808.6 L263.6 809.0 L261.2 809.4 L259.4 810.0 L257.80002 810.80005 L255.40001 811.2 L253.6 811.60004 L251.8 811.8 L250.40001 812.2 L248.6 812.2 L247.0 812.2 L245.40001 812.2 L243.79999 811.8 L242.8 811.2 L241.8 810.80005 L240.59999 810.0 L239.40001 808.6 L238.0 808.0 L237.0 806.8 L235.40001 806.2 L233.6 805.80005 L232.6 805.0 L230.59999 805.0 L229.59999 804.80005 L227.8 804.80005 L226.4 805.0 L225.20001 805.4 L223.79999 805.80005 L221.4 806.8 L220.40001 807.60004 L219.40001 808.0 L218.0 809.0 L217.0 810.4 L216.0 811.2 L215.40001 811.8 L215.0 812.2 L214.40001 812.2 L214.40001 812.2 L214.40001 811.8 L214.40001 811.8" stroke="rgb(25,25,25)" stroke-width="1" fill="none" stroke-linejoin="round" /> <path d="M268.4 808.2 L266.2 808.0 L264.4 807.2 L262.0 805.80005 L260.40002 805.0 L258.6 804.0 L257.0 803.0 L255.40001 803.2 L253.79999 802.60004 L251.8 802.60004 L249.40001 802.60004 L247.2 803.2 L245.0 803.6 L242.8 804.0 L240.40001 804.4 L238.6 804.80005 L236.8 805.0 L234.40001 805.0 L233.0 805.0 L232.0 805.0 L231.20001 804.80005 L230.40001 804.4 L230.0 804.0 L229.40001 803.6 L229.40001 803.0 L229.40001 802.2 L230.0 801.2 L231.0 799.4 L231.0 799.4" stroke="rgb(25,25,25)" stroke-width="1" fill="none" stroke-linejoin="round" /> <path d="M368.4 801.2 L371.19998 799.0 L374.0 796.8 L376.4 794.80005 L379.0 792.2 L382.40002 790.0 L385.2 787.60004 L388.4 785.4 L391.4 783.0 L394.59998 780.4 L397.59998 778.0 L400.80002 776.2 L403.6 774.0 L405.80002 771.60004 L408.80002 769.4 L411.19998 766.8 L414.0 765.0 L417.0 763.0 L420.0 761.2 L422.40002 760.0 L425.2 759.0 L427.0 757.60004 L429.0 756.60004 L431.0 755.4 L432.8 754.4 L435.2 753.2 L437.0 751.8 L439.19998 750.4 L441.4 749.0 L444.0 747.60004 L446.0 745.80005 L448.6 744.4 L450.6 743.0 L452.0 741.8 L453.80002 740.80005 L455.40002 740.80005 L456.19998 740.4 L457.59998 740.0 L459.19998 739.80005 L460.2 739.4 L460.80002 739.4 L461.4 739.4 L462.0 739.4 L462.40002 739.4 L464.4 740.4 L465.2 740.4 L465.40002 740.4 L465.2 740.4 L465.2 740.4 L465.40002 740.80005 L465.6 740.80005 L465.80002 740.80005 L465.80002 741.2 L465.80002 741.2 L465.80002 741.60004 L466.0 741.60004 L466.0 741.60004 L465.80002 741.60004 L465.80002 741.8 L465.80002 741.8 L465.80002 741.8 L465.80002 742.2 L465.80002 742.2" stroke="rgb(25,25,25)" stroke-width="1" fill="none" stroke-linejoin="round" /> <path d="M419.0 842.60004 L417.0 843.0 L414.59998 842.60004 L412.40002 842.2 L410.80002 841.2 L408.4 840.80005 L406.8 840.0 L399.19998 839.4 L399.19998 839.4" stroke="rgb(25,25,25)" stroke-width="1" fill="none" stroke-linejoin="round" /> <path d="M306.2 811.8 L306.4 811.8 L306.8 811.8 L307.0 811.8 L307.6 811.8 L307.80002 811.8 L308.4 811.8 L308.6 811.8 L308.8 811.8 L309.2 811.8 L309.4 811.8 L309.4 811.8 L309.4 812.2 L309.4 812.2 L309.59998 812.2 L309.59998 812.2 L309.59998 812.60004 L310.0 812.60004 L310.2 813.0 L310.40002 813.2 L310.40002 813.6 L310.6 814.0 L311.0 814.4 L311.0 814.4 L311.2 815.0 L311.2 815.4 L311.4 815.80005 L311.4 816.2 L311.8 816.60004 L311.8 816.8 L312.0 817.2 L312.0 817.2 L312.0 817.60004 L312.0 817.60004 L312.19998 818.2 L312.19998 818.6 L312.6 819.4 L312.80002 820.0 L312.80002 820.80005 L312.80002 821.2 L313.0 821.8 L313.0 822.2 L312.80002 823.0 L312.80002 823.6 L312.80002 825.0 L312.80002 826.60004 L312.80002 828.6 L312.6 830.4 L312.6 831.8 L312.19998 833.2 L312.19998 834.80005 L312.19998 835.4 L312.19998 835.80005 L312.19998 835.80005" stroke="rgb(25,25,25)" stroke-width="1" fill="none" stroke-linejoin="round" /> <path d="M637.8 1003.2 L637.4 1004.0 L636.2 1004.4 L633.8 1006.60004 L632.0 1007.60004 L630.4 1008.6 L628.8 1009.4 L627.4 1010.4 L626.0 1011.60004 L624.0 1012.60004 L622.6 1013.6 L620.0 1015.0 L618.6 1015.4 L616.8 1015.80005 L615.0 1016.2 L612.4 1016.2 L609.0 1015.80005 L607.0 1015.80005 L605.80005 1015.4 L604.19995 1015.0 L602.4 1014.80005 L599.0 1013.6 L597.4 1013.2 L595.60004 1013.0 L594.0 1013.0 L592.6 1013.0 L591.4 1012.60004 L587.6 1012.2 L585.2 1011.8 L583.8 1011.2 L582.4 1010.4 L580.60004 1009.80005 L579.0 1008.2 L577.4 1007.60004 L575.80005 1006.60004 L575.2 1005.0 L574.19995 1004.4 L573.8 1003.6 L573.0 1000.80005 L572.8 998.6 L572.8 994.0 L573.0 991.60004 L573.4 988.6 L573.6 985.0 L573.4 982.2 L572.8 979.0 L572.6 975.80005 L572.8 972.2 L573.4 968.6 L573.8 965.4 L574.39996 962.60004 L575.4 960.0 L576.4 957.60004 L578.0 955.80005 L580.4 953.0 L582.6 950.4 L584.6 947.2 L587.0 944.4 L589.0 941.8 L590.2 939.4 L591.8 937.60004 L593.0 935.80005 L595.0 933.6 L596.4 931.2 L599.19995 928.6 L601.4 926.60004 L603.4 925.0 L605.0 923.6 L606.4 922.60004 L607.4 921.8 L609.6 920.4 L611.4 919.4 L612.8 918.6 L614.6 917.60004 L616.0 916.8 L617.8 916.60004 L619.19995 916.2 L620.80005 915.80005 L622.8 915.4 L625.4 915.0 L627.4 915.4 L629.39996 915.4 L632.0 916.2 L634.0 917.2 L636.2 918.0 L639.0 919.0 L641.2 920.0 L643.0 921.2 L646.2 923.6 L647.60004 924.0 L649.0 924.4 L650.0 925.4 L651.2 926.2 L651.8 927.60004 L653.0 930.0 L654.4 931.60004 L655.0 932.60004 L655.80005 934.4 L657.60004 935.80005 L658.6 937.60004 L660.0 939.0 L661.8 940.80005 L663.0 942.60004 L664.4 944.0 L665.0 945.80005 L665.80005 947.60004 L666.60004 949.4 L667.2 950.80005 L667.60004 952.60004 L667.60004 954.0 L668.0 955.4 L668.0 956.8 L668.2 958.6 L668.0 960.0 L667.60004 961.2 L667.60004 962.60004 L667.2 964.0 L666.8 965.4 L666.2 967.2 L665.80005 969.4 L665.0 971.60004 L664.0 972.60004 L663.2 974.0 L663.0 975.0 L662.2 976.60004 L661.60004 978.0 L660.80005 980.0 L659.4 984.0 L659.0 986.2 L658.2 988.6 L657.60004 990.80005 L657.2 993.0 L656.60004 994.0 L655.80005 995.0 L655.4 995.80005 L655.0 996.60004 L654.4 996.8 L653.6 997.2 L653.0 997.60004 L652.2 997.60004 L651.8 998.0 L651.2 998.6 L650.0 999.0 L648.6 1000.4 L647.2 1001.2 L645.0 1001.8 L644.0 1002.2 L641.8 1003.0 L640.80005 1003.6 L639.6 1003.6 L638.8 1003.6 L637.6 1004.0 L638.4 1003.6 L635.80005 1003.6 L635.2 1003.6 L635.80005 1003.2 L635.0 1003.2 L633.6 1002.60004 L633.0 1002.2 L632.8 1001.8 L632.6 1001.60004 L632.4 1000.4 L632.2 998.6 L631.8 997.60004 L631.8 997.60004" stroke="rgb(25,25,25)" stroke-width="1" fill="none" stroke-linejoin="round" /> <path d="M611.4 995.0 L610.2 995.80005 L609.39996 995.80005 L607.4 997.2 L607.4 997.2 L607.4 998.0 L606.2 998.6 L605.4 999.0 L604.0 999.4 L601.8 1000.0 L599.39996 1000.4 L598.6 1000.4 L597.0 999.4 L596.0 998.6 L595.80005 998.0 L595.2 997.2 L594.39996 996.2 L594.19995 995.4 L594.0 993.6 L593.8 991.8 L594.0 989.80005 L593.8 986.8 L593.6 985.4 L593.6 983.6 L592.8 981.60004 L592.8 979.80005 L593.4 978.0 L594.0 976.60004 L594.39996 975.0 L595.4 973.6 L596.0 972.60004 L597.0 971.8 L597.6 970.80005 L598.6 970.0 L599.0 969.4 L600.0 968.2 L600.80005 966.8 L601.4 965.4 L602.4 963.6 L603.0 962.2 L603.4 960.80005 L604.19995 959.4 L605.2 957.60004 L607.2 954.4 L607.8 953.6 L608.6 953.0 L610.60004 951.2 L610.80005 950.80005 L612.0 950.0 L614.0 949.0 L614.6 948.6 L615.80005 948.6 L616.8 948.0 L618.4 947.60004 L619.19995 947.60004 L620.2 947.2 L621.2 947.60004 L622.4 947.2 L623.0 947.2 L624.0 947.2 L625.60004 947.2 L626.0 947.60004 L626.8 948.0 L627.4 948.0 L628.6 948.6 L629.0 948.6 L630.4 949.0 L630.60004 949.4 L631.0 950.0 L632.0 950.4 L632.4 950.80005 L633.0 951.2 L633.6 951.60004 L634.0 952.2 L634.19995 953.0 L635.0 953.6 L635.4 954.0 L635.80005 955.0 L635.60004 955.4 L635.80005 955.80005 L636.2 956.8 L636.8 957.60004 L637.4 958.6 L637.4 959.4 L637.8 960.0 L638.0 960.80005 L638.0 962.2 L638.0 963.0 L638.0 964.4 L638.0 965.80005 L637.8 966.8 L637.6 968.0 L637.6 970.80005 L637.6 971.8 L637.6 972.60004 L637.4 975.0 L637.4 978.0 L637.4 979.0 L637.6 979.80005 L637.4 980.80005 L637.4 982.2 L637.2 983.0 L637.0 983.6 L636.4 984.4 L635.80005 985.4 L635.80005 985.80005 L634.6 986.8 L632.6 988.6 L632.0 990.0 L629.39996 992.60004 L628.8 993.0 L628.4 993.6 L627.4 994.0 L627.0 995.0 L626.2 995.0 L625.4 995.80005 L625.0 995.80005 L623.8 995.80005 L621.4 995.80005 L620.60004 995.4 L619.19995 995.4 L618.0 995.0 L617.2 995.0 L615.80005 994.80005 L615.4 994.4 L614.19995 994.4 L613.6 994.4 L613.0 994.4 L612.4 994.0 L612.4 994.0 L612.0 994.0 L611.8 994.0 L610.80005 994.4 L610.0 994.80005 L609.39996 995.0 L609.19995 995.0 L608.8 995.4 L607.4 995.80005 L607.2 995.80005 L606.2 996.60004 L606.4 996.8 L606.0 996.8 L605.80005 996.8 L605.60004 996.60004 L605.4 996.60004 L605.4 996.60004" stroke="rgb(25,25,25)" stroke-width="1" fill="none" stroke-linejoin="round" /> <path d="M305.0 1035.4 L304.4 1036.8 L303.8 1038.6 L302.80002 1040.4 L302.0 1042.2 L301.2 1044.4 L300.2 1046.2001 L299.59998 1048.0 L298.4 1050.4 L297.0 1052.6 L295.40002 1054.8 L295.40002 1056.2001 L295.0 1060.0 L291.8 1064.0 L289.4 1066.2001 L287.80002 1068.6 L285.6 1070.8 L283.6 1073.0 L281.4 1075.4 L279.4 1078.6 L275.2 1083.2 L272.80002 1084.4 L271.4 1085.8 L270.2 1086.6001 L266.4 1090.4 L265.2 1091.8 L261.8 1094.0 L259.4 1094.8 L257.80002 1095.4 L256.2 1096.6001 L253.79999 1096.8 L251.20001 1097.2 L248.4 1097.6 L245.40001 1097.6 L243.0 1097.2 L241.0 1096.8 L239.40001 1095.8 L238.0 1095.4 L236.20001 1095.0 L235.0 1093.6 L233.6 1091.8 L232.6 1090.4 L231.20001 1088.0 L229.2 1084.4 L227.8 1082.6 L227.0 1081.2001 L226.20001 1079.0 L225.40001 1077.2 L224.2 1075.4 L222.8 1074.0 L221.8 1072.2 L221.0 1070.8 L220.20001 1068.0 L218.79999 1066.2001 L218.4 1063.2 L217.6 1061.2001 L217.0 1058.6 L216.20001 1055.8 L215.40001 1052.6 L215.0 1050.0 L212.8 1045.0 L211.8 1042.6 L211.0 1040.8 L210.40001 1039.4 L210.20001 1038.0 L209.59999 1036.6001 L210.0 1033.6 L210.20001 1031.8 L210.40001 1029.4 L211.0 1026.8 L211.0 1024.8 L211.8 1020.4 L212.2 1018.0 L212.8 1015.80005 L213.6 1013.2 L214.40001 1010.80005 L215.0 1008.2 L216.0 1004.80005 L217.0 1000.4 L218.4 996.60004 L219.2 993.6 L220.40001 990.80005 L221.20001 988.6 L221.8 987.2 L222.6 985.80005 L223.79999 984.0 L225.20001 981.8 L226.4 980.80005 L227.0 979.80005 L227.8 978.6 L230.40001 976.2 L232.0 975.0 L232.6 974.4 L236.20001 971.2 L237.8 970.0 L239.40001 968.6 L241.0 966.60004 L242.8 964.4 L244.40001 962.60004 L245.40001 960.80005 L247.2 958.6 L248.6 957.2 L250.40001 955.80005 L251.8 954.4 L253.6 953.0 L255.40001 952.2 L257.6 949.4 L258.8 948.6 L260.2 947.60004 L261.4 946.8 L263.4 945.80005 L264.59998 945.0 L266.8 944.4 L268.0 944.0 L269.59998 942.60004 L271.2 941.8 L272.80002 940.4 L275.2 939.0 L277.6 937.60004 L279.4 936.8 L283.6 935.4 L285.40002 935.0 L287.0 934.80005 L288.6 934.0 L290.0 933.6 L291.0 933.6 L292.80002 933.2 L294.59998 933.0 L296.2 933.0 L298.0 933.0 L300.2 933.2 L301.8 933.6 L303.6 934.0 L305.2 934.4 L307.0 935.0 L308.6 936.2 L310.40002 937.2 L312.0 938.2 L313.6 939.0 L314.4 939.80005 L315.40002 940.4 L316.4 942.2 L317.6 943.6 L318.6 945.0 L320.2 946.60004 L321.4 948.0 L322.59998 949.80005 L324.0 951.60004 L325.6 953.6 L326.19998 956.2 L327.40002 958.2 L328.6 960.4 L329.59998 963.0 L330.6 965.80005 L331.19998 968.6 L331.8 970.80005 L332.0 973.6 L332.59998 976.8 L332.8 980.0 L333.4 983.6 L333.6 987.2 L333.4 990.4 L333.0 993.6 L332.40002 997.2 L331.8 1000.0 L330.80002 1003.2 L330.40002 1005.4 L329.59998 1007.60004 L328.80002 1010.4 L327.40002 1013.0 L326.0 1015.80005 L324.59998 1018.2 L323.0 1021.2 L321.19998 1024.4 L319.4 1026.8 L317.80002 1030.0 L316.2 1032.6 L314.4 1035.8 L312.80002 1038.6 L311.2 1041.2001 L310.0 1043.6 L308.6 1045.8 L307.6 1047.6 L306.2 1050.0 L304.4 1052.2 L303.6 1054.0 L302.6 1056.2001 L301.0 1058.0 L299.4 1060.0 L297.80002 1062.6 L296.2 1064.4 L294.4 1065.8 L292.80002 1066.8 L292.19998 1069.0 L290.6 1070.4 L289.59998 1071.8 L288.6 1072.2 L287.80002 1072.6 L286.0 1073.0 L285.2 1073.0 L284.4 1073.0 L283.6 1073.0 L283.0 1073.0 L282.0 1071.6001 L281.4 1070.4 L281.4 1069.0 L281.2 1067.2 L282.0 1064.8 L282.6 1061.8 L282.6 1061.8" stroke="rgb(25,25,25)" stroke-width="1" fill="none" stroke-linejoin="round" /> <path d="M272.6 1020.4 L270.40002 1021.2 L267.80002 1021.8 L267.19998 1022.2 L266.8 1021.8 L266.2 1021.8 L265.40002 1021.8 L264.2 1021.60004 L262.80002 1021.60004 L261.4 1021.60004 L260.0 1021.8 L258.6 1021.8 L257.0 1021.60004 L255.8 1021.60004 L254.59999 1021.2 L253.79999 1020.80005 L253.0 1020.4 L252.6 1020.0 L252.0 1019.80005 L251.8 1019.4 L251.0 1018.6 L250.40001 1017.60004 L250.20001 1016.8 L250.0 1015.80005 L249.59999 1014.4 L249.40001 1013.2 L249.40001 1011.8 L249.59999 1009.80005 L250.0 1007.60004 L250.20001 1005.4 L250.20001 1003.6 L250.40001 1001.8 L250.59999 1000.0 L251.20001 998.2 L252.0 996.2 L252.2 994.0 L252.6 992.60004 L252.8 991.2 L253.4 989.4 L255.0 985.80005 L255.40001 984.0 L255.8 982.60004 L256.8 980.0 L257.0 979.0 L257.6 978.0 L257.80002 976.8 L258.4 976.2 L258.6 974.80005 L259.2 974.0 L259.4 973.0 L259.4 972.2 L260.2 970.80005 L259.59998 970.0 L260.40002 968.6 L260.40002 968.2 L260.6 967.2 L261.2 966.2 L261.4 965.0 L261.4 964.4 L261.8 964.0 L262.0 963.6 L262.0 963.0 L262.80002 962.2 L262.80002 961.8 L263.6 961.60004 L264.2 960.4 L266.2 958.2 L267.19998 958.0 L271.2 955.0 L272.19998 954.4 L272.80002 954.0 L273.6 954.0 L274.59998 953.0 L275.8 952.60004 L276.2 952.2 L277.19998 951.8 L278.6 951.60004 L280.0 951.2 L281.0 951.60004 L282.0 951.60004 L284.2 951.2 L285.6 951.8 L287.0 951.8 L289.2 951.8 L290.2 951.60004 L291.4 951.8 L292.19998 952.2 L293.6 953.0 L294.4 953.6 L295.40002 954.4 L295.8 955.0 L296.2 955.4 L296.4 956.2 L297.0 957.2 L299.2 960.0 L300.2 961.2 L300.40002 962.2 L301.4 963.0 L302.0 964.0 L302.80002 967.2 L303.0 969.0 L303.6 969.4 L304.4 970.0 L305.2 973.2 L305.40002 975.0 L305.40002 976.2 L306.0 978.2 L306.0 979.80005 L306.0 980.80005 L305.6 982.2 L305.40002 984.80005 L305.40002 986.8 L305.0 988.6 L304.4 990.0 L304.4 990.4 L303.8 992.2 L303.6 993.6 L303.0 995.0 L302.80002 996.2 L302.19998 998.2 L301.2 1000.0 L300.0 1001.8 L298.6 1004.0 L298.0 1005.4 L296.4 1007.60004 L293.8 1011.2 L292.6 1013.0 L291.2 1014.4 L290.40002 1015.4 L289.4 1016.2 L288.6 1016.60004 L288.4 1016.8 L287.6 1017.2 L287.0 1018.0 L286.8 1018.6 L286.2 1019.0 L286.0 1019.80005 L285.0 1020.80005 L283.8 1022.2 L283.0 1023.0 L282.6 1024.0 L282.0 1025.0 L281.4 1025.4 L280.6 1025.4 L280.2 1025.8 L279.4 1025.8 L279.2 1026.2001 L278.6 1026.2001 L277.6 1026.2001 L276.2 1026.2001 L274.59998 1026.6001 L273.6 1026.6001 L272.80002 1026.6001 L271.8 1026.2001 L270.6 1026.8 L270.2 1026.8 L268.8 1026.8 L266.8 1027.6 L266.0 1028.0 L265.2 1028.6 L264.4 1029.0 L264.2 1029.4 L263.6 1030.0 L263.6 1030.0 L263.6 1030.0 L263.6 1030.0 L263.6 1030.0 L263.6 1030.0 L263.6 1030.0 L263.4 1030.0 L263.4 1030.0 L263.6 1030.0 L263.8 1030.4 L265.0 1030.8 L266.4 1031.8 L268.4 1032.6 L268.4 1032.6" stroke="rgb(25,25,25)" stroke-width="1" fill="none" stroke-linejoin="round" /> <path d="M266.2 900.80005 L265.40002 900.4 L265.0 900.4 L263.6 899.4 L262.80002 899.0 L262.6 898.6 L262.0 897.60004 L261.2 896.60004 L260.6 895.4 L260.2 894.4 L259.4 893.2 L258.8 892.2 L258.4 890.80005 L257.6 889.4 L256.8 888.0 L256.2 886.2 L255.0 883.6 L254.40001 882.2 L254.2 880.80005 L253.6 879.80005 L253.0 878.6 L252.8 878.0 L252.0 877.60004 L251.4 877.60004 L251.0 877.2 L250.40001 876.2 L249.59999 875.0 L249.2 873.6 L248.6 871.8 L247.8 870.4 L247.2 869.4 L246.8 868.6 L246.0 867.2 L245.40001 866.2 L244.40001 865.0 L243.6 863.6 L242.8 862.60004 L242.2 861.2 L241.8 859.80005 L241.0 858.6 L240.40001 857.60004 L239.59999 856.2 L239.40001 855.0 L238.6 853.6 L238.0 852.2 L237.8 850.80005 L237.0 849.80005 L236.4 848.0 L236.20001 847.2 L235.8 845.80005 L235.20001 844.4 L234.40001 843.6 L233.6 842.60004 L232.8 841.60004 L232.0 840.0 L230.59999 836.8 L228.79999 833.6 L227.8 832.2 L227.0 830.80005 L226.4 829.4 L226.20001 828.2 L225.59999 827.2 L225.40001 826.60004 L225.40001 825.80005 L225.40001 825.0 L225.20001 824.80005 L225.20001 824.0 L225.20001 823.6 L225.20001 823.2 L224.59999 822.60004 L225.0 822.2 L225.0 821.2 L225.40001 820.4 L225.40001 819.4 L225.40001 819.4" stroke="rgb(25,25,25)" stroke-width="1" fill="none" stroke-linejoin="round" /> <path d="M273.8 904.0 L274.2 904.4 L274.2 905.0 L274.2 905.4 L274.2 905.80005 L274.4 906.2 L274.4 906.60004 L274.4 906.8 L275.0 906.8 L275.40002 906.8 L275.8 906.8 L276.4 906.8 L277.80002 906.2 L279.4 905.80005 L280.6 905.0 L282.6 905.0 L283.8 904.0 L286.0 903.6 L288.0 903.0 L290.2 902.2 L292.0 901.8 L293.8 901.8 L296.2 901.8 L297.80002 901.8 L299.4 902.60004 L304.4 902.60004 L308.6 902.2 L311.2 902.60004 L312.80002 902.60004 L315.0 902.60004 L317.0 902.60004 L319.2 902.60004 L321.19998 902.2 L323.6 902.2 L324.59998 902.60004 L330.80002 903.0 L332.8 903.2 L335.40002 903.2 L337.40002 903.2 L339.19998 903.6 L341.19998 903.6 L342.8 903.0 L345.2 902.2 L348.0 901.8 L350.0 901.8 L351.0 901.8 L352.40002 901.8 L353.4 901.60004 L354.4 901.2 L355.80002 901.2 L356.4 901.2 L358.6 901.8 L359.0 902.2 L359.59998 902.2 L360.6 903.0 L361.8 903.6 L362.59998 904.0 L363.4 904.4 L364.4 904.80005 L365.0 905.0 L365.80002 905.0 L366.0 904.80005 L366.19998 904.80005 L366.4 904.4 L366.19998 904.4 L366.19998 904.0 L366.0 903.2 L366.0 902.2 L366.0 902.2" stroke="rgb(25,25,25)" stroke-width="1" fill="none" stroke-linejoin="round" /> <path d="M435.80002 912.2 L435.6 910.4 L435.40002 909.0 L435.2 905.0 L435.40002 903.2 L435.40002 901.2 L434.59998 896.8 L435.0 894.0 L435.40002 885.80005 L435.40002 882.60004 L435.80002 879.0 L436.4 875.0 L437.0 871.2 L437.40002 867.60004 L438.0 864.4 L438.80002 862.2 L439.0 860.80005 L440.0 859.4 L440.6 859.0 L441.8 858.0 L442.2 858.0 L442.59998 858.2 L442.59998 858.2" stroke="rgb(25,25,25)" stroke-width="1" fill="none" stroke-linejoin="round" /> <path d="M361.19998 903.2 L361.8 903.2 L362.0 903.6 L362.40002 903.6 L362.40002 904.0 L362.40002 904.0 L362.40002 904.0 L362.8 904.4 L363.6 905.0 L364.19998 905.4 L366.4 906.60004 L368.0 907.2 L369.59998 907.2 L371.4 908.0 L373.4 908.6 L377.59998 910.4 L380.40002 911.2 L382.59998 912.2 L385.80002 912.2 L388.0 913.6 L391.0 914.4 L394.19998 915.0 L397.40002 915.80005 L401.19998 916.8 L404.4 917.2 L411.4 918.6 L414.59998 919.0 L417.59998 919.4 L422.40002 919.80005 L423.80002 919.80005 L425.80002 920.0 L427.0 920.4 L428.0 920.4 L429.59998 920.4 L431.4 920.4 L432.40002 920.4 L435.0 920.4 L435.80002 920.0 L438.6 919.80005 L440.0 919.4 L440.80002 919.4 L442.2 919.0 L445.2 919.0 L445.80002 919.4 L445.80002 919.4 L446.0 919.4 L446.19998 920.0 L446.4 920.4 L446.4 920.80005 L446.8 920.80005 L447.0 921.2 L447.0 921.2 L446.8 919.80005 L446.8 919.80005" stroke="rgb(25,25,25)" stroke-width="1" fill="none" stroke-linejoin="round" /> <path d="M453.80002 869.4 L454.19998 870.0 L454.59998 870.4 L455.40002 870.80005 L455.80002 871.2 L455.80002 871.60004 L455.80002 871.8 L456.0 871.8 L456.4 872.2 L456.8 873.0 L457.2 873.2 L457.59998 874.0 L458.80002 875.0 L459.59998 876.8 L461.0 877.60004 L462.40002 879.0 L464.0 880.0 L465.2 881.2 L467.0 882.60004 L468.4 885.0 L470.40002 886.60004 L471.8 888.6 L472.8 890.4 L474.19998 891.8 L475.6 892.60004 L476.19998 893.0 L477.40002 893.6 L478.6 894.0 L480.0 895.4 L481.4 895.80005 L483.0 896.60004 L484.59998 896.8 L485.2 897.2 L487.40002 897.60004 L489.0 897.2 L490.40002 897.60004 L491.4 897.60004 L493.6 898.0 L494.59998 898.0 L495.80002 898.2 L497.0 898.6 L497.8 899.4 L498.80002 899.80005 L500.0 900.80005 L501.0 901.60004 L502.40002 902.2 L503.80002 903.0 L505.0 903.6 L506.8 904.4 L507.8 904.80005 L510.0 905.0 L511.0 905.0 L512.4 905.4 L513.8 905.4 L516.0 905.80005 L517.6 906.8 L519.0 906.8 L520.0 907.2 L520.80005 907.2 L521.8 907.60004 L522.6 908.0 L523.8 908.6 L524.6 909.0 L525.60004 909.0 L527.4 909.80005 L530.4 910.4 L531.8 910.4 L532.6 910.80005 L533.6 910.80005 L534.39996 911.8 L535.60004 911.8 L536.2 912.60004 L537.4 913.0 L537.8 913.6 L539.0 914.4 L540.60004 915.4 L541.4 916.2 L542.6 916.8 L544.0 918.0 L546.8 920.0 L548.0 920.4 L549.39996 921.60004 L550.60004 922.2 L551.8 923.0 L552.8 923.6 L553.6 924.0 L554.0 924.0 L554.6 924.4 L555.0 924.4 L555.2 924.4 L555.2 924.4 L555.2 924.4 L555.2 924.4 L555.2 924.0 L555.2 924.0 L555.2 924.0 L555.2 924.0 L555.2 924.0" stroke="rgb(25,25,25)" stroke-width="1" fill="none" stroke-linejoin="round" /> <path d="M585.4 899.0 L587.4 897.2 L590.4 895.4 L592.6 893.2 L596.2 890.80005 L600.60004 888.2 L605.2 885.0 L610.4 882.2 L614.6 879.4 L618.6 877.2 L623.0 875.4 L634.19995 870.4 L636.8 868.6 L639.39996 867.2 L641.8 865.4 L644.4 863.0 L647.2 861.2 L649.0 859.4 L650.80005 858.0 L652.60004 855.80005 L655.0 854.80005 L656.8 853.0 L658.0 852.2 L660.80005 850.80005 L661.60004 850.4 L661.2 850.4 L661.2 850.4 L660.4 850.80005 L654.80005 856.2 L653.6 856.8 L653.0 857.2 L653.2 857.2 L653.2 857.2" stroke="rgb(25,25,25)" stroke-width="1" fill="none" stroke-linejoin="round" /> <path d="M511.19998 822.60004 L511.19998 824.80005 L511.4 826.8 L510.80002 830.80005 L510.40002 832.60004 L509.59998 833.6 L509.0 835.0 L508.4 835.80005 L507.8 836.2 L507.40002 836.60004 L507.40002 836.60004 L507.40002 836.60004 L507.40002 836.2 L508.4 835.80005 L508.6 835.4 L509.0 834.4 L509.59998 833.0 L509.59998 833.0" stroke="rgb(25,25,25)" stroke-width="1" fill="none" stroke-linejoin="round" /> <path d="M655.4 862.60004 L655.4 862.60004 L655.0 862.60004 L655.0 862.60004 L654.4 862.60004 L654.4 862.60004 L654.4 862.60004 L654.4 862.60004 L654.4 862.60004 L654.4 862.60004 L654.4 862.60004 L654.4 862.60004 L654.4 862.60004 L654.4 862.60004 L654.0 862.60004 L654.0 862.60004 L654.0 863.0 L653.6 863.0 L653.2 863.2 L653.2 863.6 L653.0 863.6 L652.60004 863.6 L652.60004 864.0 L652.2 864.0 L652.2 864.0 L651.8 864.0 L651.8 864.0 L651.8 864.0 L651.8 864.0 L651.8 864.4 L651.8 864.4 L651.8 864.4 L651.8 864.0 L651.60004 864.4 L651.60004 864.0 L651.60004 864.0 L651.2 864.0 L651.2 864.0 L651.60004 864.0 L651.2 864.0 L650.4 864.0 L650.0 864.0 L649.4 864.0 L649.0 864.0 L649.0 863.6 L648.6 864.0 L648.2 863.6 L648.0 864.0 L647.60004 863.6 L647.2 863.6 L646.8 863.6 L646.60004 863.6 L645.80005 864.0 L645.4 864.0 L645.0 864.0 L644.4 864.0 L643.2 864.4 L642.60004 864.80005 L642.2 865.0 L641.2 865.0 L640.4 865.4 L639.6 865.4 L639.0 865.4 L638.0 865.4 L637.4 865.4 L636.0 865.4 L635.0 865.4 L633.8 865.4 L632.6 865.4 L632.0 865.4 L630.80005 865.4 L628.0 865.4 L627.2 865.4 L625.2 866.2 L624.39996 866.2 L624.0 866.60004 L623.6 866.8 L623.0 866.8 L622.6 867.2 L622.0 867.60004 L621.2 868.0 L620.2 868.0 L619.6 868.0 L619.0 868.0 L617.8 868.0 L616.4 869.4 L615.60004 870.0 L615.0 870.4 L614.19995 870.80005 L613.6 871.2 L612.6 871.8 L611.4 872.60004 L610.60004 873.0 L610.4 873.2 L610.2 873.2 L610.2 873.2 L610.0 873.6 L609.39996 873.6 L608.8 873.6 L607.4 874.0 L606.4 874.4 L605.60004 875.0 L603.8 875.4 L602.0 876.8 L600.4 878.0 L599.0 878.6 L597.8 879.80005 L597.0 880.4 L596.2 881.2 L595.60004 881.60004 L595.2 882.2 L594.39996 882.60004 L594.0 883.2 L593.4 884.0 L592.8 884.4 L592.4 885.0 L591.8 885.4 L590.80005 885.80005 L591.2 886.60004 L590.80005 887.2 L590.2 887.60004 L589.0 888.0 L587.8 888.6 L587.2 889.0 L585.80005 889.4 L584.39996 889.4 L583.4 889.80005 L582.0 890.4 L580.80005 890.80005 L578.6 891.8 L577.4 892.60004 L576.2 892.60004 L575.80005 892.60004 L575.4 892.60004 L575.0 892.60004 L574.6 892.60004 L573.4 892.60004 L573.4 892.60004 L572.2 892.60004 L572.2 892.60004 L571.4 892.60004 L570.60004 892.60004 L570.0 893.0 L569.0 893.6 L568.6 893.6 L568.0 893.6 L567.4 894.0 L567.0 894.0 L566.8 894.0 L566.4 894.0 L566.2 894.0 L566.2 894.0 L565.80005 894.0 L565.80005 894.0 L565.80005 894.0 L565.80005 894.0 L565.80005 894.0 L565.80005 894.0 L566.0 894.0 L565.60004 894.0 L565.80005 894.0 L565.80005 894.0 L565.60004 894.0 L565.80005 894.0 L565.80005 894.0 L565.60004 894.0 L565.80005 894.0 L565.2 894.0 L565.2 894.0 L565.2 894.0 L565.2 894.0 L565.2 894.0 L565.2 894.0 L565.4 894.0 L565.4 894.0 L565.4 894.0 L565.60004 893.6 L565.80005 893.0 L566.0 891.2 L566.0 891.2" stroke="rgb(25,25,25)" stroke-width="1" fill="none" stroke-linejoin="round" /> <path d="M563.8 887.2 L563.8 887.2 L563.8 887.60004 L563.6 888.0 L563.6 889.0 L563.0 890.4 L562.8 893.6 L560.80005 897.60004 L560.80005 898.0 L560.60004 898.0 L560.4 898.0 L560.0 898.0 L559.6 898.0 L559.39996 897.2 L559.19995 896.60004 L559.0 895.80005 L558.4 893.2 L558.0 891.8 L558.4 890.4 L558.4 890.0 L559.0 889.0 L559.0 888.6 L559.0 888.6 L559.0 888.6 L559.39996 889.0 L559.6 889.0 L560.4 889.4 L560.80005 889.4 L560.80005 889.4" stroke="rgb(25,25,25)" stroke-width="1" fill="none" stroke-linejoin="round" /> <path d="M562.6 893.2 L562.0 893.0 L561.4 892.2 L560.80005 891.8 L560.4 890.80005 L559.39996 890.4 L557.8 888.6 L557.0 888.0 L555.80005 887.2 L555.2 886.8 L554.19995 885.80005 L552.8 885.0 L551.4 884.4 L550.80005 884.0 L550.2 883.6 L549.39996 883.6 L548.8 883.0 L547.6 882.60004 L546.4 882.2 L545.2 881.2 L544.0 880.4 L542.4 879.4 L541.4 878.6 L540.4 877.60004 L539.0 876.8 L538.0 876.60004 L537.2 875.80005 L536.8 875.4 L535.80005 874.80005 L535.4 874.0 L534.6 873.2 L534.0 872.60004 L533.8 872.2 L533.0 871.2 L532.4 870.4 L531.8 869.4 L530.80005 868.6 L529.6 867.60004 L528.8 866.60004 L527.4 865.0 L526.8 862.60004 L525.80005 860.80005 L524.6 858.2 L523.6 856.2 L522.4 854.0 L520.60004 852.2 L518.8 850.0 L516.8 848.0 L514.39996 845.80005 L512.4 844.4 L510.0 841.2 L508.6 840.4 L507.8 839.80005 L507.59998 839.4 L507.40002 839.0 L507.2 838.0 L507.2 837.2 L507.0 836.2 L506.0 835.4 L505.80002 835.0 L505.80002 833.6 L505.80002 833.2 L505.80002 832.60004 L506.19998 832.2 L507.0 831.60004 L507.8 831.2 L507.8 831.2" stroke="rgb(25,25,25)" stroke-width="1" fill="none" stroke-linejoin="round" /> <path d="M504.4 827.60004 L502.8 828.0 L501.8 828.0 L500.80002 828.0 L499.59998 828.0 L498.80002 828.0 L497.59998 828.0 L496.8 828.6 L495.40002 828.6 L494.0 828.6 L492.40002 828.6 L491.0 829.4 L489.4 830.0 L488.0 831.2 L486.4 832.60004 L484.59998 834.0 L482.8 835.4 L481.0 837.2 L479.19998 839.0 L477.40002 840.80005 L475.6 843.6 L474.0 845.4 L472.2 846.2 L468.6 848.0 L467.0 848.6 L465.2 849.4 L463.80002 849.80005 L462.2 849.80005 L459.0 850.0 L457.40002 850.4 L455.80002 851.2 L453.6 851.60004 L451.0 851.8 L449.59998 851.8 L447.0 852.2 L445.40002 853.0 L444.0 853.0 L442.59998 853.2 L441.4 853.6 L439.59998 854.0 L439.0 854.4 L438.4 855.0 L437.59998 855.0 L437.2 855.80005 L436.4 857.2 L436.19998 858.6 L435.80002 860.0 L435.6 861.8 L434.59998 862.60004 L435.80002 863.0 L435.80002 863.2 L436.19998 863.0 L435.40002 863.0 L435.40002 863.0" stroke="rgb(25,25,25)" stroke-width="1" fill="none" stroke-linejoin="round" /> <path d="M323.6 960.80005 L324.0 960.4 L324.0 960.4 L324.0 960.4 L324.0 960.4 L324.19998 960.4 L324.19998 960.4 L324.19998 960.4 L324.4 960.80005 L324.4 960.80005 L324.4 960.80005 L324.59998 960.80005 L325.0 960.80005 L325.0 960.80005 L325.2 960.80005 L325.2 960.80005 L325.2 960.80005 L325.2 960.80005 L325.6 960.80005 L325.80002 960.80005 L325.80002 960.80005 L325.80002 960.80005 L325.80002 960.80005 L326.0 961.2 L326.8 961.60004 L327.40002 962.2 L328.80002 962.60004 L330.2 962.60004 L331.4 963.6 L332.59998 964.4 L333.80002 965.0 L335.2 965.80005 L337.0 966.2 L338.80002 966.8 L340.40002 967.2 L343.0 968.0 L345.0 968.0 L347.2 967.60004 L349.0 967.60004 L353.0 968.0 L355.2 968.6 L357.40002 968.6 L359.19998 969.0 L361.19998 969.80005 L363.6 970.4 L365.80002 971.60004 L368.4 972.60004 L370.80002 973.6 L373.6 974.80005 L376.0 975.80005 L378.80002 976.8 L380.80002 977.60004 L382.59998 978.0 L384.0 978.2 L385.40002 978.6 L386.4 978.6 L387.0 978.0 L387.40002 977.60004 L387.40002 977.2 L387.40002 976.8 L387.40002 976.60004 L387.40002 975.80005 L387.40002 975.4 L387.2 974.4 L387.2 974.0 L387.0 973.6 L386.8 972.60004 L386.8 972.2 L386.8 971.8 L386.8 971.60004 L386.19998 969.4 L385.80002 966.8 L385.6 965.0 L385.6 963.6 L385.0 955.80005 L384.0 950.80005 L383.4 947.2 L382.8 943.6 L382.40002 937.60004 L382.40002 934.4 L382.40002 928.0 L382.40002 924.4 L382.40002 920.80005 L382.40002 916.8 L382.40002 911.2 L382.2 908.6 L382.2 906.60004 L382.0 905.4 L382.0 904.0 L381.8 903.0 L381.8 902.60004 L381.8 901.8 L381.8 901.8 L381.4 901.60004 L381.4 901.8 L381.4 901.60004 L381.19998 901.60004 L381.19998 901.60004 L381.19998 901.60004" stroke="rgb(25,25,25)" stroke-width="1" fill="none" stroke-linejoin="round" /> <path d="M246.20001 964.80005 L245.59999 965.0 L245.40001 965.0 L244.59999 965.4 L244.40001 965.80005 L243.6 966.2 L242.8 966.8 L242.6 967.2 L242.0 967.60004 L241.8 968.0 L241.20001 968.0 L240.40001 968.2 L239.2 968.6 L237.6 968.6 L236.0 969.0 L233.79999 969.0 L232.0 968.6 L230.0 968.6 L228.6 968.2 L226.4 968.0 L225.59999 968.0 L223.79999 968.0 L222.8 968.2 L221.8 968.2 L220.59999 968.6 L220.20001 969.0 L220.0 969.0 L219.59999 969.0 L219.40001 969.0 L219.40001 969.0 L219.40001 969.0 L219.40001 969.0 L219.59999 969.0 L219.59999 969.0 L220.0 968.6 L219.59999 968.6 L220.20001 968.2 L220.40001 967.60004 L221.0 966.2 L221.4 963.6 L222.0 960.80005 L222.8 957.60004 L223.4 954.4 L223.79999 951.2 L224.40001 947.60004 L225.20001 944.0 L226.20001 941.2 L227.0 938.0 L227.8 935.80005 L228.79999 934.0 L229.59999 932.2 L230.40001 930.4 L231.20001 928.6 L232.0 926.60004 L232.2 923.6 L233.6 921.2 L234.2 918.0 L234.40001 914.80005 L235.40001 911.2 L236.20001 907.2 L236.4 904.4 L237.8 900.4 L239.2 896.60004 L240.40001 893.0 L241.20001 889.0 L241.8 885.80005 L242.8 882.60004 L242.8 879.80005 L243.4 877.2 L243.6 874.80005 L243.6 872.60004 L244.2 870.80005 L244.2 869.4 L244.2 867.60004 L244.2 866.2 L243.79999 865.0 L244.2 864.4 L244.2 863.6 L244.40001 863.0 L244.40001 862.2 L244.40001 861.60004 L244.40001 860.4 L244.40001 859.0 L244.40001 858.0 L244.40001 856.8 L244.40001 855.4 L244.40001 854.0 L244.59999 853.0 L245.20001 851.60004 L245.40001 850.80005 L245.40001 850.4 L245.40001 849.4 L245.40001 849.0 L246.20001 848.0 L249.40001 848.0 L249.40001 848.0" stroke="rgb(25,25,25)" stroke-width="1" fill="none" stroke-linejoin="round" /> <path d="M663.6 943.0 L664.4 943.0 L665.0 943.0 L665.4 943.2 L665.80005 943.6 L666.60004 943.6 L666.8 944.0 L667.60004 944.0 L669.0 944.4 L670.80005 944.4 L672.2 944.80005 L673.6 944.80005 L674.4 945.0 L675.80005 945.0 L677.2 945.0 L678.2 945.0 L679.80005 945.4 L680.80005 945.4 L682.2 945.4 L683.0 945.4 L683.2 945.4 L683.6 945.4 L684.4 945.4 L685.4 945.4 L686.2 945.4 L686.8 945.4 L687.2 945.4 L687.2 945.0 L687.2 945.4 L686.8 945.4 L686.8 945.4 L686.8 945.4 L686.8 945.4 L686.8 945.4 L686.8 945.4 L686.8 945.4 L686.8 945.4 L686.8 945.4 L686.8 945.0 L686.8 945.4 L686.2 945.4 L686.2 945.4 L686.2 945.4 L686.2 945.4 L686.2 945.0 L685.80005 944.80005 L685.80005 944.4 L685.80005 944.0 L685.4 943.0 L684.4 940.80005 L684.0 939.4 L684.0 939.0 L683.6 937.2 L683.0 936.2 L683.0 935.0 L682.2 933.6 L681.2 932.2 L680.4 930.0 L679.4 928.0 L678.0 925.80005 L676.8 923.6 L674.0 918.0 L672.60004 915.4 L671.60004 913.0 L670.4 910.80005 L669.4 906.8 L668.6 902.60004 L668.6 900.0 L668.2 897.2 L668.0 894.0 L667.60004 891.60004 L667.60004 889.4 L667.60004 887.2 L667.2 885.4 L666.8 883.2 L666.8 881.8 L666.2 880.4 L665.4 879.0 L664.80005 877.60004 L663.6 875.0 L662.60004 872.2 L661.60004 869.80005 L660.0 867.2 L659.4 865.0 L658.6 863.0 L658.2 861.2 L658.0 859.80005 L658.0 859.0 L658.0 858.6 L658.0 858.6 L657.60004 858.6 L658.0 858.6 L658.0 858.6 L658.0 859.0 L658.0 859.0 L658.0 859.4 L658.0 860.0 L657.60004 860.4 L657.60004 860.80005 L657.60004 860.80005" stroke="rgb(25,25,25)" stroke-width="1" fill="none" stroke-linejoin="round" /> <path d="M577.8 957.2 L577.2 957.60004 L576.4 958.0 L575.80005 958.0 L575.0 957.60004 L574.19995 957.60004 L573.4 957.60004 L572.4 958.0 L571.2 958.0 L570.0 958.6 L568.6 959.0 L567.0 959.4 L565.60004 959.4 L563.8 960.0 L561.8 960.80005 L560.0 961.8 L558.0 962.60004 L556.2 963.2 L555.60004 965.0 L554.0 966.2 L552.4 966.8 L550.80005 967.2 L550.2 967.60004 L549.6 968.0 L549.39996 968.2 L549.19995 968.2 L549.19995 968.6 L549.19995 968.2 L549.39996 968.2 L549.39996 968.2 L549.0 968.2 L549.19995 968.2 L549.39996 968.0 L550.0 966.8 L550.2 966.8 L550.0 966.2 L550.0 965.0 L549.6 962.60004 L549.39996 959.4 L548.6 957.2 L548.4 955.0 L547.8 954.0 L547.4 951.8 L547.0 950.0 L546.2 947.60004 L545.80005 946.2 L545.4 944.0 L545.0 941.8 L544.39996 939.4 L544.19995 938.0 L543.8 936.2 L544.0 933.6 L544.0 932.60004 L543.8 930.80005 L544.0 928.0 L544.0 925.80005 L544.0 924.80005 L544.19995 923.6 L544.0 922.60004 L544.19995 921.2 L544.19995 920.0 L544.19995 919.80005 L544.19995 919.80005 L544.19995 920.0 L545.2 920.0 L545.2 920.80005 L545.0 921.8 L544.39996 923.2 L544.39996 926.2 L544.19995 928.2 L544.39996 930.0 L544.6 931.2 L545.2 931.8 L545.60004 931.8 L545.60004 931.8" stroke="rgb(25,25,25)" stroke-width="1" fill="none" stroke-linejoin="round" /> </svg>