<svg width="809.8967" height="1358.2659" xmlns="http://www.w3.org/2000/svg" version="1.1"
     xmlns:xlink="http://www.w3.org/1999/xlink">
  <path
    d="M156.40001 1145.8 L158.8 1148.0 L160.20001 1149.4 L160.59999 1150.0 L161.20001 1150.4 L161.8 1151.8 L162.0 1152.2 L162.2 1153.6 L163.79999 1154.8 L163.79999 1155.4 L165.40001 1156.8 L166.20001 1157.2 L166.8 1157.6 L167.2 1158.0 L168.0 1158.6 L168.6 1159.0 L169.59999 1159.0 L171.8 1159.0 L172.8 1158.2 L175.0 1156.6001 L176.20001 1155.8 L177.2 1154.0 L180.40001 1150.0 L182.0 1147.6 L183.6 1145.0 L185.40001 1143.0 L187.0 1141.6001 L189.40001 1139.4 L190.59999 1137.6 L192.0 1136.6001 L193.6 1136.2001 L195.0 1135.8 L196.8 1135.8 L198.6 1137.2 L199.40001 1138.2 L200.40001 1140.0 L201.8 1142.2 L203.4 1144.4 L205.40001 1150.0 L207.8 1155.8 L210.40001 1161.2001 L211.4 1163.0 L212.8 1165.4 L214.40001 1167.6 L215.20001 1170.0 L216.20001 1171.8 L217.2 1172.6 L219.2 1173.6 L220.20001 1174.0 L222.0 1173.6 L223.0 1173.6 L227.0 1171.8 L228.79999 1170.4 L231.8 1168.2 L241.20001 1160.0 L245.20001 1156.8 L249.40001 1153.0 L253.6 1149.4 L262.0 1142.2 L270.6 1135.8 L280.2 1130.0 L284.4 1127.6 L287.80002 1125.0 L291.4 1124.0 L294.59998 1122.6 L297.80002 1121.8 L300.40002 1121.2001 L303.0 1120.4 L305.40002 1120.4 L306.8 1120.4 L308.0 1120.8 L309.4 1121.6001 L310.6 1122.6 L312.0 1124.0 L315.2 1130.0 L316.4 1132.6 L317.80002 1135.4 L319.4 1138.6 L321.0 1141.8 L322.40002 1144.4 L323.80002 1147.2 L325.6 1149.4 L327.2 1151.6001 L328.80002 1153.0 L332.0 1155.0 L334.0 1155.8 L343.80002 1153.2 L345.80002 1151.6001 L348.4 1149.0 L350.80002 1146.2001 L353.80002 1143.2 L357.2 1140.0 L364.19998 1133.2 L373.0 1126.8 L377.59998 1124.0 L382.59998 1121.6001 L387.59998 1119.0 L393.0 1116.2001 L398.80002 1114.4 L404.19998 1113.0 L410.2 1111.8 L422.0 1112.2 L427.8 1112.6 L434.0 1113.6 L445.2 1117.6 L450.6 1119.8 L455.80002 1122.6 L465.80002 1128.6 L470.80002 1131.8 L482.0 1138.2 L492.2 1144.4 L497.40002 1147.2 L502.2 1150.0 L507.40002 1152.6 L512.0 1155.0 L517.0 1156.8 L521.2 1158.0 L525.4 1159.4 L529.19995 1160.0 L533.4 1160.0 L537.0 1160.0 L540.0 1159.0 L543.4 1157.6 L546.2 1155.8 L549.0 1153.6 L552.4 1150.4 L555.4 1146.8 L558.4 1142.2 L560.80005 1137.6 L566.0 1129.0 L569.0 1125.4 L571.8 1122.6 L574.39996 1120.0 L577.4 1118.0 L580.2 1115.8 L582.8 1114.0 L586.2 1111.8 L595.60004 1108.0 L601.8 1108.0 L605.0 1108.6 L608.0 1110.8 L615.80005 1115.4 L623.4 1121.2001 L630.4 1126.8 L634.0 1129.4 L638.0 1132.2 L641.60004 1135.0 L645.0 1137.6 L649.0 1139.8 L658.0 1145.0 L660.80005 1146.8 L663.2 1148.0 L665.4 1149.4 L667.60004 1150.4 L671.60004 1152.6 L674.80005 1154.0 L675.80005 1154.4 L676.60004 1154.8 L676.8 1154.4 L676.8 1154.0 L676.8 1153.2 L677.2 1151.8 L677.2 1146.8 L678.2 1140.8 L680.80005 1135.0 L686.2 1128.6 L689.0 1126.8 L692.2 1125.0 L696.2 1123.0 L703.6 1120.0 L707.2 1119.4 L710.4 1119.4 L713.6 1120.0 L717.2 1121.2001 L725.80005 1125.8 L728.6 1127.2 L731.8 1128.6 L735.0 1129.4 L741.2 1132.2 L744.4 1134.0 L746.8 1135.8 L749.4 1137.2 L749.4 1137.2"
    stroke="rgb(250,40,140)" stroke-width="9" fill="none" stroke-linejoin="round"/>
  <path
    d="M681.60004 1238.0 L681.2 1237.2 L680.4 1236.2001 L679.4 1235.0 L678.0 1233.6 L677.2 1233.2 L676.60004 1233.0 L676.60004 1233.0"
    stroke="rgb(250,40,140)" stroke-width="9" fill="none" stroke-linejoin="round"/>
  <path
    d="M278.6 976.8 L279.2 977.2 L278.8 977.2 L278.6 977.2 L277.80002 978.2 L277.80002 978.6 L277.80002 979.0 L277.80002 979.4 L277.80002 979.4 L277.6 979.4 L277.19998 979.4 L277.19998 979.4 L276.4 980.0 L276.2 980.0 L276.2 980.0 L276.0 980.4 L276.0 980.4 L275.8 980.4 L275.8 980.80005 L276.0 980.80005 L275.40002 981.60004 L275.8 983.2 L276.2 985.4 L276.4 986.8 L276.8 988.0 L277.0 988.6 L277.6 990.0 L277.80002 991.2 L278.6 992.2 L279.4 995.0 L280.2 996.60004 L281.2 997.2 L281.8 998.6 L282.0 999.4 L283.0 1000.4 L283.6 1001.2 L284.2 1001.8 L285.6 1004.80005 L286.4 1006.2 L287.0 1006.60004 L287.6 1007.60004 L288.4 1009.4 L291.0 1010.80005 L294.2 1015.0 L299.4 1022.60004 L300.40002 1024.0 L302.0 1026.2001 L306.2 1029.0 L307.0 1029.4 L307.0 1030.0 L310.0 1031.8 L311.8 1033.0 L312.80002 1034.0 L314.2 1035.4 L315.2 1035.8 L316.2 1036.6001 L317.6 1037.2 L318.4 1038.0 L319.4 1038.6 L320.2 1039.4 L321.0 1039.8 L322.59998 1040.4 L324.19998 1040.8 L326.19998 1041.8 L328.80002 1043.2 L330.80002 1044.4 L332.8 1046.2001 L334.4 1047.2 L336.19998 1048.2 L337.59998 1049.0 L339.0 1049.8 L340.6 1050.0 L341.19998 1050.8 L342.59998 1050.8 L343.6 1051.2001 L345.40002 1051.2001 L351.19998 1051.8 L355.0 1052.6 L358.6 1053.6 L362.2 1054.4 L370.6 1056.2001 L382.0 1059.0 L386.4 1059.0 L388.4 1058.6 L391.0 1058.6 L392.40002 1058.0 L394.0 1058.0 L395.40002 1057.2 L396.19998 1057.2 L397.8 1057.2 L399.0 1056.8 L401.0 1056.8 L403.0 1056.6001 L407.8 1055.0 L413.80002 1053.6 L416.4 1053.2 L419.19998 1053.0 L421.0 1053.0 L423.80002 1052.6 L427.2 1052.2 L431.0 1051.8 L435.40002 1050.4 L439.0 1049.4 L442.8 1049.0 L450.80002 1047.6 L454.0 1047.2 L460.6 1046.2001 L465.80002 1046.2001 L468.0 1046.2001 L470.6 1045.8 L473.0 1045.4 L477.59998 1045.0 L479.19998 1044.8 L481.8 1044.8 L483.6 1044.4 L487.0 1043.6 L489.0 1043.0 L493.0 1041.2001 L494.59998 1040.0 L497.0 1039.0 L499.0 1038.2 L501.19998 1037.2 L503.6 1035.8 L505.2 1034.4 L507.40002 1032.6 L509.19998 1031.2001 L513.8 1028.0 L515.4 1027.2 L517.6 1025.4 L520.2 1024.0 L525.80005 1020.0 L530.4 1017.2 L532.2 1016.2 L538.0 1011.60004 L541.8 1009.0 L543.4 1007.60004 L545.60004 1006.2 L548.8 1003.6 L552.6 1001.2 L555.0 999.4 L557.4 997.60004 L559.0 996.2 L560.80005 994.80005 L566.8 989.4 L570.4 986.60004 L574.39996 982.60004 L577.2 980.4 L577.6 980.0 L578.6 979.0 L580.2 977.60004 L581.4 976.60004 L583.6 974.4 L587.2 970.0 L588.0 968.2 L590.2 964.80005 L591.0 963.0 L591.2 962.2 L591.8 961.60004 L592.2 960.80005 L592.4 960.0 L592.4 959.0 L593.0 955.80005 L596.0 949.80005 L599.0 946.2 L603.4 940.4 L606.8 936.2 L607.2 935.80005 L607.0 935.4 L607.2 935.4 L607.2 935.0 L607.2 935.0 L607.2 935.0 L607.4 934.4 L607.2 934.0 L607.2 933.6 L607.2 933.2 L607.2 933.0 L607.4 933.0 L607.4 932.60004 L607.8 931.2 L607.8 929.80005 L608.0 929.4 L608.4 929.0 L608.6 928.0 L609.0 927.2 L609.39996 925.80005 L609.6 924.4 L610.80005 922.60004 L611.4 921.60004 L611.8 920.80005 L612.2 920.4 L612.2 920.4 L612.2 920.0 L612.4 920.0 L612.4 920.0 L612.2 920.0 L612.4 920.0 L613.0 919.4 L613.0 919.0 L613.0 919.0 L612.8 918.6 L613.0 917.60004 L613.0 916.60004 L613.0 915.0 L613.0 913.0 L613.0 912.2 L613.4 911.60004 L613.4 911.60004 L613.4 911.60004 L613.4 911.60004 L613.4 911.60004 L613.0 911.60004 L613.0 911.8 L613.0 911.8 L612.8 911.8 L612.6 911.8 L612.6 912.2 L612.4 913.2 L612.4 915.0 L612.2 916.2 L611.4 917.2 L611.4 917.2"
    stroke="rgb(25,25,25)" stroke-width="9" fill="none" stroke-linejoin="round"/>
  <path
    d="M275.0 986.8 L275.0 987.2 L275.0 987.2 L274.4 986.2 L274.59998 985.4 L275.0 985.4 L275.2 984.80005 L275.8 984.80005 L275.8 984.0 L276.0 983.6 L276.0 984.0 L276.0 983.6 L276.0 983.6 L276.2 983.6 L276.2 983.2 L276.2 983.2 L276.2 983.0 L276.2 983.0 L276.2 982.60004 L276.2 982.60004 L276.2 982.60004 L276.2 982.2 L276.2 981.8 L276.4 981.8 L276.2 981.8 L276.4 981.2 L276.8 981.2 L277.0 981.2 L277.0 980.80005 L277.0 980.80005 L277.0 980.80005 L277.0 980.80005 L277.0 980.4 L277.0 980.4 L282.80002 976.8 L283.6 975.4 L284.2 975.0 L284.59998 974.4 L285.40002 974.4 L286.4 974.0 L287.80002 973.2 L289.4 972.60004 L291.0 972.2 L291.8 971.8 L292.6 971.8 L294.2 971.2 L295.40002 970.4 L296.8 969.0 L297.80002 969.0 L298.8 968.6 L301.2 968.0 L302.0 968.0 L302.80002 967.60004 L304.2 968.2 L307.0 967.60004 L310.0 967.2 L310.6 967.2 L311.2 967.60004 L312.80002 967.2 L313.0 967.60004 L315.2 967.2 L316.0 967.60004 L317.0 967.2 L320.40002 966.8 L321.0 966.8 L322.2 967.2 L323.80002 966.8 L325.0 966.8 L325.80002 966.8 L327.2 967.2 L328.80002 967.2 L330.0 967.2 L331.19998 967.2 L334.0 967.2 L335.80002 967.60004 L337.40002 968.0 L339.4 968.0 L341.19998 968.6 L343.0 968.6 L347.59998 969.0 L350.0 969.4 L352.8 970.0 L361.0 971.8 L367.2 972.2 L370.40002 972.60004 L373.0 973.2 L376.0 973.6 L379.0 974.4 L381.19998 975.0 L384.0 975.0 L389.0 975.4 L390.80002 975.80005 L392.40002 975.80005 L395.40002 976.2 L398.80002 976.8 L399.59998 977.2 L400.6 977.60004 L402.2 977.60004 L403.80002 978.0 L409.19998 978.6 L410.40002 978.6 L413.0 979.0 L414.4 979.0 L417.40002 978.6 L419.0 978.6 L420.6 978.6 L422.2 978.6 L426.0 979.0 L427.59998 978.6 L429.0 978.6 L429.4 978.6 L430.40002 978.6 L431.19998 978.6 L434.59998 978.0 L436.8 977.60004 L440.6 977.2 L453.0 975.0 L459.0 974.0 L462.2 973.6 L475.40002 970.80005 L478.80002 970.4 L482.0 970.0 L488.0 969.0 L491.4 968.6 L494.0 968.2 L496.0 968.2 L500.6 968.0 L502.2 968.2 L502.8 968.2 L504.4 968.6 L505.80002 968.6 L506.8 968.6 L507.40002 968.6 L507.59998 968.6 L508.4 968.6 L508.6 969.0 L508.6 969.0 L508.4 969.0 L508.4 969.0 L508.4 969.0 L508.4 969.0 L508.6 969.0 L508.6 969.0 L508.80002 969.0 L508.80002 969.0 L508.80002 969.0 L508.80002 969.0 L509.0 969.4 L509.0 969.4 L509.0 969.4 L508.80002 969.4 L509.0 969.4 L509.0 969.4 L509.19998 969.80005 L509.4 969.80005 L510.40002 970.0 L511.19998 970.4 L511.4 970.4 L511.8 970.4 L512.0 970.4 L512.2 970.4 L512.4 970.80005 L512.6 970.80005 L513.0 970.80005 L513.0 971.2 L513.0 971.2 L513.6 971.60004 L513.4 971.60004 L513.4 971.60004 L513.4 971.8 L513.6 971.8 L513.4 971.8 L513.6 971.8 L513.6 971.8 L513.8 971.8 L514.0 971.8 L514.0 972.2 L514.19995 972.2 L514.6 972.60004 L515.2 972.60004 L515.2 973.2 L515.4 973.2 L515.4 973.6 L516.4 973.2 L516.8 973.2 L518.6 973.6 L533.6 976.8 L570.2 977.2 L570.4 977.2 L570.2 977.2 L570.0 977.2 L570.0 977.2 L570.0 977.2 L570.0 977.2 L570.2 977.2 L570.4 977.2 L570.80005 977.2 L570.60004 977.2 L570.60004 977.2 L570.80005 977.2 L570.80005 977.2 L570.80005 977.2 L571.0 977.2 L571.4 977.2 L573.0 976.8 L574.0 976.8 L574.0 977.2 L574.0 977.2 L574.19995 977.2 L574.19995 976.8 L574.19995 977.2 L574.0 977.2 L574.19995 978.0 L575.0 979.0 L574.0 981.2 L574.0 981.2"
    stroke="rgb(25,25,25)" stroke-width="2" fill="none" stroke-linejoin="round"/>
  <path
    d="M168.79999 1089.8 L179.59999 1090.8 L182.8 1090.0 L185.40001 1089.4 L187.8 1089.4 L189.59999 1089.4 L192.0 1089.0 L194.2 1089.0 L196.4 1089.0 L198.79999 1089.4 L206.4 1090.4 L208.6 1090.8 L211.20001 1091.8 L213.4 1092.6 L218.6 1095.0 L222.8 1097.2 L224.59999 1097.6 L227.0 1099.0 L228.6 1099.8 L235.0 1102.6 L236.8 1104.0 L238.4 1104.4 L241.0 1105.4 L242.8 1106.2001 L245.0 1105.8 L247.0 1106.2001 L249.2 1105.4 L251.4 1104.8 L261.0 1101.2001 L264.59998 1099.0 L268.6 1096.6001 L280.40002 1090.8 L284.2 1089.0 L287.6 1087.6 L290.40002 1086.8 L293.0 1086.6001 L295.40002 1086.2001 L297.0 1086.6001 L298.6 1087.2 L301.2 1087.2 L301.8 1088.6 L302.80002 1090.0 L303.4 1091.8 L304.2 1093.0 L304.4 1094.8 L305.2 1096.8 L305.6 1099.0 L306.4 1101.2001 L307.19998 1103.6 L308.4 1106.2001 L308.8 1108.6 L310.2 1110.4 L311.4 1111.2001 L312.80002 1111.8 L314.2 1112.2 L315.8 1112.6 L317.0 1112.6 L318.6 1112.2 L320.6 1111.8 L327.40002 1107.6 L330.2 1105.4 L332.8 1103.2 L335.80002 1100.8 L339.0 1098.6 L344.59998 1095.0 L361.4 1093.6 L365.2 1093.6 L368.6 1094.0 L371.8 1094.8 L375.0 1095.8 L378.6 1097.6 L381.4 1099.4 L389.19998 1104.8 L392.2 1106.8 L395.0 1109.4 L397.40002 1111.2001 L399.4 1113.0 L401.8 1115.0 L403.6 1116.6001 L405.2 1117.6 L407.2 1118.6 L410.2 1120.0 L412.59998 1119.4 L414.0 1118.6 L415.80002 1116.8 L417.0 1114.4 L418.0 1111.8 L419.59998 1108.6 L422.40002 1105.0 L427.59998 1099.4 L430.2 1096.2001 L433.6 1093.0 L437.59998 1088.0 L440.0 1086.2001 L444.4 1083.6 L446.19998 1082.6 L448.4 1082.6 L452.0 1083.2 L453.80002 1084.4 L455.6 1085.8 L457.40002 1087.2 L461.0 1090.0 L465.40002 1094.0 L467.2 1095.8 L469.0 1097.6 L471.19998 1099.0 L473.4 1099.4 L475.40002 1100.0 L477.40002 1100.0 L482.40002 1097.6 L484.59998 1096.2001 L486.4 1095.0 L488.6 1093.2 L491.0 1091.2001 L492.8 1089.0 L495.2 1087.2 L502.40002 1079.0 L504.59998 1076.6001 L507.40002 1074.4 L510.0 1072.2 L512.4 1071.2001 L515.2 1070.4 L517.8 1069.8 L522.6 1069.4 L525.0 1070.0 L527.2 1070.8 L529.0 1072.2 L531.0 1074.0 L532.8 1075.8 L535.2 1078.0 L536.2 1080.4 L537.8 1082.2 L539.39996 1084.0 L540.80005 1085.8 L542.0 1087.6 L543.0 1089.4 L543.8 1091.2001 L544.39996 1091.8 L545.60004 1092.6 L547.4 1092.6 L549.0 1090.4 L550.4 1088.2 L552.2 1085.4 L556.2 1078.2 L558.8 1074.8 L561.2 1071.8 L567.6 1066.2001 L571.0 1064.0 L574.19995 1061.8 L577.4 1060.4 L580.80005 1059.4 L584.39996 1058.6 L587.8 1058.0 L590.80005 1057.6 L594.0 1058.2 L596.8 1059.4 L599.19995 1060.8 L605.60004 1064.8 L609.6 1069.4 L612.4 1071.8 L615.0 1074.4 L617.2 1076.8 L619.39996 1079.8 L621.4 1082.2 L623.0 1084.0 L625.2 1085.4 L627.0 1087.2 L628.4 1088.0 L630.0 1088.6 L631.2 1088.6 L632.6 1088.6 L634.39996 1088.0 L636.2 1086.8 L637.6 1086.2001 L641.60004 1082.2 L644.0 1079.0 L647.60004 1075.0 L650.80005 1071.6001 L654.0 1068.2 L658.0 1065.4 L662.2 1063.0 L666.2 1060.4 L670.4 1057.6 L674.80005 1055.8 L684.0 1054.0 L691.8 1054.4 L695.80005 1055.8 L700.0 1057.6 L704.0 1059.4 L707.2 1062.2 L710.80005 1065.8 L713.6 1069.0 L716.8 1071.8 L720.0 1074.4 L723.0 1077.6 L728.2 1082.6 L731.60004 1086.6001 L733.0 1088.0 L734.0 1089.0 L735.4 1091.6001 L735.80005 1091.8 L735.80005 1091.8 L735.80005 1091.8 L735.80005 1091.8 L735.80005 1091.8 L735.80005 1091.6001 L736.2 1090.4 L736.60004 1090.0 L737.2 1084.8 L739.0 1078.0 L739.80005 1069.8 L739.80005 1069.8"
    stroke="rgb(25,25,25)" stroke-width="2" fill="none" stroke-linejoin="round"/>
  <path
    d="M170.20001 1057.2 L177.0 1063.6 L180.40001 1063.6 L182.0 1063.6 L191.20001 1060.0 L197.8 1055.8 L216.0 1048.0 L219.40001 1051.2001 L244.40001 1081.2001 L246.4 1082.6 L247.8 1083.0 L251.0 1082.2 L253.6 1079.0 L257.19998 1073.0 L259.2 1069.8 L262.19998 1064.0 L264.2 1061.8 L266.0 1059.4 L267.6 1057.2 L271.4 1054.8 L273.6 1054.0 L276.0 1054.0 L278.0 1054.0 L280.2 1054.8 L285.0 1057.2 L290.6 1061.2001 L293.4 1062.6 L296.0 1065.0 L298.6 1066.6001 L303.4 1069.4 L306.0 1070.4 L308.4 1071.2001 L310.40002 1072.2 L312.19998 1072.6 L313.6 1072.6 L315.40002 1071.8 L317.19998 1070.8 L318.8 1070.0 L320.6 1068.2 L324.0 1064.4 L336.0 1050.0 L339.0 1047.2 L344.59998 1043.6 L348.80002 1042.6 L352.2 1044.0 L354.0 1048.0 L355.40002 1050.0 L357.40002 1055.4 L358.4 1058.0 L359.4 1064.4 L360.2 1068.2 L360.6 1071.8 L361.8 1074.8 L362.59998 1079.4 L363.0 1081.2001 L363.6 1081.6001 L364.4 1082.2 L364.4 1082.2 L364.59998 1081.6001 L365.0 1080.4 L365.40002 1079.0 L365.40002 1077.2 L365.6 1075.4 L365.80002 1073.6 L366.0 1069.8 L367.0 1066.2001 L369.0 1063.6 L370.0 1062.2 L371.19998 1061.2001 L372.40002 1060.4 L374.0 1060.4 L376.0 1061.2001 L378.4 1061.8 L380.6 1062.6 L382.8 1063.6 L385.6 1065.4 L388.4 1066.6001 L391.0 1068.0 L393.6 1069.8 L396.0 1071.6001 L399.0 1073.0 L401.8 1075.0 L404.19998 1076.8 L406.8 1077.6 L409.4 1078.6 L411.4 1080.0 L413.4 1080.4 L415.40002 1080.4 L417.40002 1080.0 L420.80002 1077.6 L422.40002 1075.8 L424.0 1073.6 L426.0 1069.4 L427.0 1066.8 L427.8 1063.2 L428.80002 1060.0 L429.19998 1057.2 L429.19998 1055.0 L429.4 1054.4 L430.2 1054.4 L430.2 1055.0 L430.40002 1055.8 L430.80002 1057.2 L431.0 1058.6 L433.0 1062.6 L434.19998 1065.8 L435.80002 1069.0 L437.40002 1072.2 L439.19998 1075.4 L441.19998 1078.0 L448.0 1083.6 L450.40002 1083.6 L452.40002 1083.2 L454.4 1082.6 L457.0 1081.2001 L459.4 1079.0 L461.8 1076.2001 L464.19998 1073.0 L466.8 1069.4 L469.0 1066.6001 L474.0 1060.4 L476.8 1057.2 L479.59998 1054.0 L483.0 1051.6001 L486.19998 1049.0 L490.0 1047.2 L492.8 1045.8 L499.59998 1044.4 L503.6 1044.4 L506.19998 1044.4 L509.19998 1045.4 L512.4 1047.2 L515.2 1048.6 L517.4 1050.0 L520.0 1052.2 L522.2 1054.8 L523.8 1057.2 L528.6 1062.2 L529.39996 1063.0 L530.0 1063.0 L530.80005 1064.0 L531.4 1064.8 L532.2 1065.0 L532.4 1065.0 L532.2 1064.4 L532.4 1064.4 L532.4 1064.0 L533.0 1062.6 L534.0 1060.4 L535.2 1057.6 L536.0 1055.4 L537.4 1051.8 L539.0 1048.2 L540.80005 1044.4 L543.4 1040.8 L545.80005 1037.2 L548.8 1034.8 L552.0 1032.6 L557.4 1029.8 L560.4 1028.0 L563.4 1027.2 L565.80005 1026.6001 L569.6 1027.2 L571.0 1028.0 L573.0 1029.4 L574.0 1033.6 L574.19995 1036.6001 L574.6 1038.6 L575.0 1040.0 L575.2 1041.2001 L575.60004 1041.6001 L575.80005 1042.2 L576.0 1042.2 L576.2 1042.2 L576.8 1041.8 L577.2 1041.8 L578.0 1041.2001 L579.19995 1040.0 L581.0 1038.2 L583.4 1036.2001 L585.80005 1033.6 L594.6 1026.2001 L598.0 1024.0 L601.4 1022.2 L608.0 1018.0 L621.2 1011.8 L624.39996 1011.2 L630.2 1011.2 L634.0 1014.0 L635.80005 1015.80005 L637.4 1018.2 L638.8 1020.80005 L641.8 1025.0 L644.0 1029.4 L645.4 1031.2001 L647.60004 1035.4 L648.6 1037.2 L650.0 1038.0 L651.2 1038.6 L652.2 1039.0 L653.6 1038.6 L660.4 1033.2 L663.0 1030.8 L665.80005 1028.0 L669.0 1025.0 L672.2 1021.8 L678.6 1017.2 L683.6 1014.0 L688.6 1011.60004 L690.0 1011.2 L692.60004 1010.80005 L693.6 1010.80005 L695.0 1011.60004 L696.2 1012.2 L697.60004 1013.2 L699.4 1014.80005 L701.2 1016.8 L703.0 1019.4 L705.0 1022.2 L707.2 1024.8 L709.0 1027.6 L714.0 1036.6001 L715.4 1039.0 L717.2 1041.2001 L720.4 1044.4 L721.8 1045.0 L725.0 1045.8 L726.2 1045.4 L728.0 1044.4 L734.4 1040.0 L737.60004 1036.6001 L740.80005 1033.0 L742.60004 1031.6001 L743.6 1030.0 L744.4 1029.4 L745.4 1028.6 L746.2 1028.0 L746.8 1028.0 L747.2 1028.0 L747.60004 1028.2 L747.60004 1028.6 L747.60004 1029.0 L748.0 1029.4 L748.0 1030.4 L748.2 1031.2001 L749.4 1033.2 L750.0 1034.8 L751.2 1035.8 L753.0 1042.2 L753.6 1044.8 L753.2 1047.6 L753.2 1047.6"
    stroke="rgb(25,25,25)" stroke-width="2" fill="none" stroke-linejoin="round"/>
  <path
    d="M174.40001 1211.2001 L173.6 1212.2 L172.8 1214.0 L172.8 1214.0 L172.2 1215.0 L172.0 1216.8 L171.8 1218.6 L171.4 1220.4 L171.20001 1221.8 L171.20001 1224.0 L170.59999 1226.2001 L170.40001 1226.8 L170.59999 1226.8 L170.59999 1226.8 L171.0 1225.8 L171.8 1224.8 L174.40001 1218.0 L177.0 1211.8 L180.0 1204.8 L183.6 1196.8 L187.6 1189.0 L192.0 1182.6 L196.4 1177.2 L200.59999 1173.6 L204.59999 1171.2001 L208.0 1170.4 L211.4 1170.4 L215.20001 1171.2001 L218.6 1173.0 L221.20001 1175.0 L224.40001 1178.0 L227.8 1181.8 L231.4 1186.8 L235.20001 1192.2 L238.4 1198.2 L241.8 1204.8 L245.0 1210.0 L253.4 1218.0 L295.40002 1214.4 L301.2 1209.8 L307.80002 1205.0 L315.0 1200.0 L322.40002 1195.8 L330.2 1191.6001 L338.0 1188.0 L345.40002 1185.8 L352.40002 1183.6 L359.4 1182.2 L367.0 1181.2001 L374.19998 1181.2001 L381.8 1182.6 L387.59998 1184.4 L394.0 1187.2 L399.4 1191.2001 L404.4 1196.2001 L409.0 1201.8 L413.4 1208.0 L420.80002 1220.4 L423.80002 1226.2001 L426.8 1231.2001 L430.2 1234.8 L433.4 1237.6 L437.40002 1240.4 L442.0 1242.6 L446.4 1244.0 L451.0 1244.4 L456.0 1244.0 L462.0 1241.2001 L467.59998 1237.2 L474.19998 1231.8 L481.19998 1225.8 L489.0 1219.0 L523.0 1200.0 L531.2 1197.2 L539.39996 1195.4 L547.6 1194.0 L554.19995 1193.6 L561.0 1194.0 L568.0 1196.2001 L579.6 1201.8 L585.4 1205.0 L590.80005 1208.6 L601.2 1219.0 L611.2 1228.2 L616.4 1233.0 L621.4 1238.0 L626.2 1242.2 L631.0 1246.2001 L641.2 1253.0 L646.8 1255.4 L665.80005 1257.2 L673.6 1256.2001 L681.8 1254.0 L690.4 1250.4 L700.0 1246.6001 L716.8 1235.8 L725.80005 1230.4 L725.80005 1230.4"
    stroke="rgb(25,25,25)" stroke-width="2" fill="none" stroke-linejoin="round"/>
  <path
    d="M168.6 1295.2001 L169.40001 1295.2001 L170.20001 1294.6001 L171.20001 1294.0 L173.6 1293.0 L175.20001 1292.2 L177.0 1290.2001 L179.59999 1288.0 L182.8 1285.0 L186.4 1281.6001 L190.59999 1277.6 L206.4 1264.0 L213.0 1259.4 L220.0 1255.4 L236.20001 1248.2 L244.59999 1246.2001 L253.4 1244.8 L276.2 1247.6 L283.0 1250.0 L288.8 1253.0 L295.0 1256.6001 L306.0 1264.0 L311.8 1267.2 L317.0 1271.2001 L322.40002 1273.6 L327.59998 1275.8 L333.4 1278.0 L339.0 1280.0 L344.19998 1280.8 L349.59998 1280.8 L355.40002 1279.4 L361.0 1277.2 L367.40002 1274.4 L374.0 1270.0 L380.80002 1264.8 L388.0 1258.0 L395.40002 1250.4 L403.4 1242.6 L411.4 1235.4 L428.4 1225.4 L436.8 1222.6 L444.59998 1221.8 L451.19998 1221.6001 L458.6 1223.6 L464.59998 1226.2001 L470.6 1230.0 L476.0 1234.4 L487.40002 1244.4 L493.0 1249.4 L499.0 1254.4 L505.80002 1259.0 L512.4 1262.6 L519.0 1266.6001 L525.60004 1270.0 L532.0 1273.0 L538.0 1275.4 L544.19995 1277.2 L550.2 1278.0 L555.60004 1277.6 L560.2 1277.6 L565.0 1276.8 L570.0 1275.4 L574.19995 1274.0 L579.19995 1271.6001 L584.39996 1268.6 L590.2 1264.4 L596.2 1260.4 L602.8 1255.4 L610.2 1250.8 L617.6 1246.6001 L625.80005 1243.0 L633.8 1240.0 L661.2 1236.2001 L669.0 1236.6001 L676.2 1237.6 L681.8 1239.8 L687.60004 1242.6 L692.60004 1245.8 L698.0 1249.8 L702.2 1254.0 L705.80005 1258.0 L712.60004 1265.8 L715.4 1269.4 L717.60004 1271.8 L724.0 1274.4 L728.0 1273.6 L730.4 1272.2 L733.0 1270.4 L736.2 1268.2 L739.80005 1265.4 L743.6 1262.6 L748.0 1259.4 L748.0 1259.4"
    stroke="rgb(25,25,25)" stroke-width="2" fill="none" stroke-linejoin="round"/>
  <path
    d="M395.2 982.60004 L395.2 982.60004 L395.0 982.60004 L395.0 982.60004 L395.40002 982.2 L395.80002 981.8 L395.80002 981.8 L396.19998 981.60004 L396.4 981.60004 L396.8 981.8 L397.0 981.8 L397.2 981.60004 L397.2 981.60004 L397.59998 981.2 L397.2 980.4 L396.8 980.4 L396.19998 979.80005 L395.6 972.2 L395.0 971.2 L394.59998 970.80005 L394.4 970.0 L394.19998 967.60004 L394.0 965.80005 L393.80002 963.6 L393.0 960.4 L392.59998 955.0 L392.40002 953.6 L392.40002 951.8 L392.0 949.4 L391.8 948.0 L391.4 945.80005 L391.0 943.0 L390.80002 940.80005 L390.40002 938.6 L390.40002 937.2 L390.2 935.4 L390.40002 932.60004 L390.40002 929.4 L390.0 925.0 L390.40002 920.4 L390.6 915.0 L390.80002 912.60004 L390.40002 911.2 L390.40002 908.6 L391.0 903.6 L391.0 902.2 L391.19998 901.2 L391.4 899.4 L391.8 896.8 L391.4 895.4 L391.19998 894.80005 L391.0 894.0 L391.19998 891.8 L391.19998 889.0 L391.19998 885.0 L391.4 881.8 L391.4 880.0 L392.0 876.8 L392.8 868.0 L392.8 867.60004 L392.8 867.60004 L392.8 867.2 L392.59998 867.60004 L392.59998 867.60004 L392.40002 867.60004 L392.40002 867.60004 L392.8 868.0 L392.8 868.0"
    stroke="rgb(25,25,25)" stroke-width="2" fill="none" stroke-linejoin="round"/>
  <path
    d="M419.59998 977.60004 L420.6 976.8 L421.19998 975.4 L421.8 974.4 L422.2 973.2 L422.2 972.60004 L422.40002 972.2 L422.40002 971.2 L422.40002 969.4 L422.2 969.0 L422.2 968.6 L422.2 967.60004 L422.0 966.8 L422.0 965.4 L422.2 963.2 L420.80002 960.4 L421.8 959.0 L421.8 957.60004 L424.0 954.80005 L422.59998 950.4 L422.8 945.80005 L423.0 943.6 L423.4 941.2 L423.6 939.0 L424.0 936.2 L424.0 933.0 L424.59998 930.4 L424.0 921.8 L424.19998 918.6 L424.0 916.8 L423.0 914.4 L423.0 911.8 L422.59998 906.8 L422.40002 903.0 L422.40002 900.80005 L422.40002 899.0 L422.2 897.2 L422.0 895.80005 L422.2 893.6 L422.2 891.8 L421.8 887.60004 L421.4 886.8 L421.8 878.6 L422.0 871.60004 L422.2 868.2 L422.40002 865.80005 L422.40002 864.4 L422.2 862.2 L422.2 861.8 L422.2 861.8 L422.2 861.8 L422.40002 861.8 L422.40002 861.8 L422.40002 862.2 L422.2 862.2 L422.2 861.8 L422.2 862.2 L422.0 862.2 L422.0 862.2 L421.4 862.2 L415.2 862.60004 L410.80002 861.8 L406.4 860.0 L406.4 860.0"
    stroke="rgb(25,25,25)" stroke-width="2" fill="none" stroke-linejoin="round"/>
  <path
    d="M380.80002 888.0 L380.80002 888.0 L381.0 888.0 L381.0 888.0 L381.0 888.0 L381.0 888.0 L381.0 888.0 L381.19998 888.0 L382.0 887.2 L381.8 887.2 L381.4 886.60004 L381.0 885.80005 L380.80002 884.4 L381.0 879.4 L381.0 876.2 L380.80002 874.0 L380.80002 871.8 L380.6 869.0 L380.6 865.80005 L379.4 853.0 L377.59998 843.0 L376.4 836.8 L375.6 833.6 L375.0 829.80005 L374.4 825.80005 L374.19998 822.60004 L374.0 819.0 L373.80002 815.0 L373.0 808.6 L372.40002 804.80005 L372.2 800.80005 L371.0 792.60004 L370.2 784.4 L369.4 769.4 L369.4 765.80005 L369.19998 762.2 L369.4 758.6 L369.4 756.2 L369.19998 753.0 L369.4 745.4 L370.40002 737.2 L370.40002 736.8 L370.6 736.8 L370.80002 736.8 L370.6 736.8 L370.6 736.8 L370.80002 736.8 L370.80002 736.8 L370.6 736.8 L370.40002 736.8 L370.80002 736.8 L370.80002 736.8 L370.80002 736.8 L370.80002 736.8 L370.80002 736.8 L370.80002 736.8 L370.80002 736.8 L370.6 736.8 L370.6 736.8 L370.6 736.8 L370.6 736.8 L370.80002 736.8 L370.80002 736.8 L370.80002 736.8 L370.80002 736.8 L370.80002 737.2 L371.0 737.60004 L371.19998 737.60004 L371.8 737.60004 L372.8 738.2 L373.0 738.6 L373.0 738.6 L373.80002 739.0 L374.0 739.0 L374.0 739.0 L375.6 739.80005 L376.4 739.80005 L377.59998 740.0 L378.6 740.0 L379.0 740.0 L380.0 740.4 L380.80002 740.4 L381.8 740.4 L385.40002 741.2 L387.40002 741.60004 L388.80002 741.8 L390.80002 742.60004 L392.2 742.60004 L394.0 743.0 L395.80002 744.0 L397.59998 745.0 L399.4 745.80005 L400.80002 746.60004 L402.40002 748.0 L402.8 748.0 L403.80002 748.6 L404.4 748.6 L405.40002 749.0 L405.80002 749.0 L405.80002 749.0 L406.4 749.0 L406.4 749.0 L406.8 749.0 L406.8 749.0 L406.8 749.0 L406.8 749.4 L406.8 749.4 L406.8 749.0 L406.8 749.4 L407.40002 748.6 L407.40002 748.6 L407.40002 748.6 L407.40002 748.6 L407.40002 748.6 L407.40002 749.0 L407.40002 749.0 L407.40002 749.0 L407.40002 749.0 L407.40002 749.0 L407.40002 749.0 L407.40002 749.0 L407.59998 749.4 L409.0 750.80005 L409.0 751.8 L409.19998 753.6 L409.0 754.80005 L409.19998 755.80005 L409.59998 757.2 L409.59998 760.4 L411.4 768.0 L412.0 769.4 L412.2 771.8 L412.2 774.0 L412.40002 776.8 L412.59998 784.0 L413.6 804.80005 L417.2 815.0 L417.40002 822.2 L418.6 826.2 L419.0 829.0 L419.59998 831.8 L420.6 833.6 L421.19998 835.80005 L422.0 838.0 L422.0 840.4 L422.59998 843.0 L423.6 845.80005 L423.80002 848.0 L424.0 851.60004 L424.59998 859.4 L424.0 864.80005 L422.40002 874.4 L422.2 877.60004 L421.8 883.0 L421.8 883.6 L421.4 884.4 L421.8 884.80005 L421.8 885.0 L421.8 885.0 L421.4 885.0 L421.0 886.2 L421.19998 887.60004 L422.0 891.2 L422.2 892.2 L422.40002 895.80005 L421.4 898.0 L421.8 899.0 L422.0 900.80005 L422.40002 903.6 L422.40002 904.4 L422.0 905.0 L422.0 904.80005 L422.0 904.80005 L422.0 904.80005 L421.8 904.4 L421.8 904.4 L421.8 904.4 L421.8 904.4 L421.4 904.0 L421.8 903.0 L421.0 901.2 L420.80002 899.4 L420.6 897.2 L420.0 895.0 L417.8 889.4 L417.8 889.4"
    stroke="rgb(25,25,25)" stroke-width="2" fill="none" stroke-linejoin="round"/>
  <path
    d="M427.40002 807.60004 L428.4 806.8 L429.0 806.2 L430.2 805.4 L431.0 804.4 L432.0 803.2 L432.40002 802.60004 L433.0 802.2 L434.0 801.2 L434.59998 800.0 L435.6 799.0 L436.4 797.60004 L437.0 796.2 L437.0 795.4 L437.40002 794.0 L437.8 792.60004 L439.59998 788.6 L440.0 787.2 L441.0 784.4 L441.19998 783.2 L441.8 781.8 L442.2 780.4 L442.40002 779.4 L443.0 778.0 L443.6 776.60004 L444.0 775.0 L444.59998 772.60004 L444.59998 771.8 L445.6 770.4 L445.80002 769.4 L446.0 768.6 L446.19998 768.0 L446.8 766.8 L447.40002 765.80005 L447.59998 764.4 L448.0 763.0 L448.6 762.60004 L448.80002 761.8 L449.0 761.2 L449.0 760.80005 L449.0 760.80005 L449.0 760.80005 L448.80002 760.80005 L448.80002 760.4 L448.80002 760.4 L448.6 760.0 L446.4 756.8 L446.4 756.8"
    stroke="rgb(25,25,25)" stroke-width="2" fill="none" stroke-linejoin="round"/>
  <path
    d="M448.6 777.2 L448.4 777.60004 L448.80002 778.0 L449.0 778.6 L449.0 779.0 L449.19998 779.80005 L450.0 780.4 L449.59998 780.4 L449.59998 780.80005 L449.59998 780.80005 L449.59998 780.80005 L449.59998 780.80005 L449.59998 780.80005 L449.59998 780.80005 L449.59998 780.80005 L449.59998 780.80005 L449.59998 780.4 L449.59998 780.4 L449.59998 780.4 L449.59998 780.4 L449.59998 780.0 L449.59998 780.0 L449.59998 780.0 L449.59998 780.0 L449.59998 780.0 L449.19998 780.0 L449.19998 780.0 L449.19998 780.0 L449.19998 779.80005 L449.19998 779.4 L449.4 778.6 L450.6 776.2 L450.6 775.4 L450.6 775.0 L450.6 774.4 L450.80002 774.0 L450.80002 773.6 L450.80002 773.2 L450.80002 773.2 L450.80002 773.2 L450.80002 773.2 L450.80002 773.2 L450.6 773.0 L450.6 773.0 L450.6 773.0 L450.6 773.0 L450.6 773.0 L450.6 773.0 L450.6 773.0 L450.6 773.0 L450.6 773.0 L450.6 773.0 L450.6 773.0 L450.6 773.0 L450.40002 773.0 L450.40002 773.0 L450.40002 773.0 L450.40002 773.0 L450.40002 773.0 L450.40002 773.0 L450.40002 773.0 L450.40002 773.0 L450.40002 773.0 L450.40002 773.0 L450.40002 773.0 L450.2 773.0 L450.2 773.0 L450.2 773.0 L450.2 773.0 L450.2 773.0 L450.2 773.0 L450.2 773.0 L450.0 773.0 L449.59998 773.0 L449.0 773.0 L448.6 772.60004 L448.0 772.60004 L447.40002 772.2 L447.0 772.2 L445.80002 772.60004 L445.40002 772.60004 L445.2 773.0 L444.59998 773.0 L444.4 773.0 L444.19998 773.0 L444.0 773.0 L444.0 773.0 L444.0 773.0 L444.0 773.0 L444.0 773.0 L444.0 773.0 L444.0 773.0 L444.19998 773.0 L444.19998 773.0 L444.4 773.0 L444.19998 773.0 L444.4 773.0 L444.4 773.0 L444.4 773.0 L444.4 773.0 L444.19998 773.0 L444.4 773.0 L444.4 773.0 L444.4 773.0 L444.4 773.0 L444.4 773.0 L444.4 773.0 L444.4 773.0 L444.4 773.0 L444.4 773.0 L444.59998 773.0 L444.4 773.0 L444.4 773.0 L444.59998 772.60004 L444.59998 773.0 L444.59998 773.0 L444.59998 773.0 L444.59998 772.60004 L444.59998 773.0 L444.59998 773.0 L444.59998 772.60004 L444.59998 772.60004 L444.59998 772.60004 L444.59998 773.0 L444.59998 773.0 L444.59998 773.0 L444.59998 773.0 L444.59998 773.0 L445.0 773.0 L445.0 773.0 L444.59998 773.0 L445.0 773.0 L444.59998 773.0 L445.0 773.0 L445.0 773.0 L445.2 772.60004 L445.40002 772.60004 L445.6 772.60004 L445.80002 772.60004 L446.0 772.60004 L446.4 772.2 L446.8 772.2 L447.59998 771.8 L449.0 771.2 L450.40002 770.4 L451.0 769.80005 L451.19998 769.80005 L451.4 768.6 L452.40002 767.60004 L455.0 764.0 L456.19998 763.0 L457.0 762.60004 L457.40002 762.2 L458.4 762.2 L459.4 762.2 L460.2 762.2 L460.80002 762.2 L461.19998 762.2 L462.0 762.2 L462.8 761.8 L466.4 762.60004 L469.19998 762.60004 L472.2 762.60004 L477.40002 761.60004 L485.0 762.2 L486.8 762.2 L493.6 763.0 L495.0 763.0 L497.8 763.2 L500.80002 763.6 L504.4 763.6 L505.80002 764.0 L525.0 767.60004 L528.4 768.6 L530.2 769.4 L534.0 770.80005 L540.2 777.2 L542.0 778.6 L544.39996 782.60004 L548.0 789.4 L549.0 791.60004 L549.6 793.0 L550.2 794.0 L550.60004 795.80005 L550.80005 796.2 L552.0 799.4 L552.4 800.80005 L553.4 802.60004 L553.8 805.0 L554.39996 807.2 L555.2 809.80005 L555.80005 812.2 L556.4 815.0 L558.6 823.2 L559.19995 826.2 L560.0 829.0 L560.4 831.2 L560.60004 840.0 L560.2 844.0 L560.2 846.2 L559.0 851.8 L558.8 855.80005 L558.0 857.60004 L557.6 859.4 L556.8 862.60004 L556.0 864.4 L555.4 866.60004 L555.0 868.0 L554.19995 869.4 L554.0 870.0 L553.6 871.2 L552.8 872.2 L552.4 873.0 L551.4 874.0 L550.60004 875.0 L549.39996 876.60004 L548.6 877.60004 L547.6 878.6 L547.0 880.0 L546.8 881.2 L545.60004 882.2 L544.0 884.0 L543.4 884.4 L541.8 885.4 L540.4 885.80005 L539.0 886.60004 L537.4 887.2 L536.0 887.60004 L535.2 888.0 L533.8 889.0 L532.0 889.80005 L530.2 890.80005 L528.4 891.8 L524.39996 893.6 L522.4 894.0 L520.80005 894.4 L518.6 894.4 L516.8 894.80005 L511.4 894.4 L510.6 894.0 L509.19998 893.6 L507.59998 893.0 L506.19998 892.60004 L503.0 892.2 L501.19998 891.8 L499.0 891.2 L497.2 890.80005 L492.59998 889.0 L490.80002 888.2 L489.0 887.60004 L486.4 886.8 L480.6 885.4 L478.80002 884.80005 L476.8 883.6 L474.59998 883.0 L473.0 882.60004 L471.0 882.60004 L469.0 882.2 L467.2 881.8 L465.0 881.8 L460.80002 880.80005 L457.40002 880.0 L455.80002 879.4 L454.19998 879.0 L452.40002 878.6 L449.4 878.0 L447.59998 877.2 L446.8 877.2 L445.2 875.80005 L443.0 874.80005 L441.19998 874.0 L440.40002 873.6 L439.0 873.0 L437.8 872.60004 L437.0 871.8 L435.80002 871.60004 L435.80002 871.2 L435.0 870.4 L434.0 869.4 L433.4 869.0 L432.8 868.0 L432.2 867.60004 L431.4 866.8 L430.6 865.80005 L429.4 864.80005 L427.40002 863.0 L425.80002 862.2 L425.2 861.2 L422.40002 860.0 L420.0 858.6 L419.0 857.60004 L417.40002 855.4 L417.0 855.0 L416.19998 854.4 L415.40002 853.6 L414.59998 853.0 L412.8 849.0 L412.8 846.8 L412.40002 846.2 L412.40002 846.2 L412.40002 845.80005 L411.8 845.4 L411.8 844.80005 L411.8 844.4 L411.8 842.60004 L411.8 841.8 L411.19998 840.0 L411.19998 839.0 L411.0 838.0 L411.19998 837.2 L411.19998 836.60004 L411.0 834.0 L411.19998 832.60004 L411.0 831.60004 L411.0 830.0 L411.0 829.0 L411.19998 827.2 L411.19998 826.2 L411.19998 824.4 L411.4 823.0 L411.8 821.8 L411.8 821.2 L411.8 820.4 L411.8 820.0 L412.0 819.4 L412.0 819.0 L412.0 816.8 L412.0 815.4 L412.40002 814.0 L412.40002 811.2 L412.40002 809.0 L412.2 807.60004 L410.6 798.2 L410.6 796.2 L410.6 795.0 L410.2 791.2 L416.0 775.80005 L417.8 772.2 L419.19998 771.2 L419.0 771.8 L420.0 772.2 L420.6 772.2 L421.0 773.0 L420.80002 773.2 L421.19998 773.2 L421.8 773.0 L422.40002 772.60004 L422.59998 773.0 L423.0 773.0 L423.0 773.0 L423.6 773.0 L423.6 773.0 L424.59998 773.0 L427.0 773.0 L427.40002 773.0 L427.59998 773.0 L428.80002 773.0 L429.0 773.0 L430.0 773.0 L430.80002 773.0 L432.2 772.60004 L432.40002 772.60004 L432.59998 772.60004 L433.0 772.60004 L433.80002 772.60004 L434.59998 772.60004 L435.80002 772.2 L436.19998 772.2 L437.40002 771.8 L437.59998 772.2 L438.0 772.2 L438.4 772.2 L438.6 772.2 L438.6 772.2 L438.80002 772.60004 L438.80002 772.60004 L438.80002 773.0 L438.80002 773.0 L438.80002 773.0 L438.6 773.0 L438.6 773.0 L438.6 773.0 L438.80002 772.60004 L438.80002 771.2 L439.0 768.6 L439.0 768.6"
    stroke="rgb(25,25,25)" stroke-width="2" fill="none" stroke-linejoin="round"/>
  <path
    d="M614.0 920.4 L614.0 920.4 L612.4 920.80005 L612.4 920.80005 L611.2 921.2 L609.19995 921.8 L610.80005 921.60004 L609.19995 921.60004 L609.0 921.2 L608.0 920.80005 L605.80005 920.4 L604.6 920.4 L603.8 919.80005 L600.80005 919.4 L599.19995 919.0 L597.4 918.6 L595.80005 918.2 L592.6 918.0 L591.4 918.0 L590.80005 918.0 L589.0 918.0 L587.6 918.0 L586.4 918.0 L585.2 918.0 L582.0 918.0 L580.2 918.0 L579.0 918.0 L577.4 917.60004 L576.8 917.60004 L575.60004 917.60004 L574.0 917.60004 L572.6 918.0 L571.4 918.2 L569.0 919.0 L567.8 919.0 L567.0 919.80005 L564.6 920.4 L563.8 921.2 L562.4 921.8 L560.60004 923.0 L550.60004 926.60004 L547.6 927.2 L545.60004 926.8 L543.8 925.4 L542.6 925.0 L540.60004 924.4 L539.19995 924.0 L538.8 924.0 L537.4 923.6 L536.4 923.6 L535.60004 923.6 L534.39996 923.2 L533.4 923.0 L532.4 923.0 L531.8 922.60004 L530.80005 923.0 L529.39996 923.2 L528.6 923.0 L527.4 923.0 L525.80005 923.2 L525.0 923.6 L524.0 923.6 L522.0 923.6 L519.19995 923.0 L518.4 923.2 L517.4 923.6 L516.8 924.0 L515.80005 924.0 L515.2 924.0 L514.19995 924.4 L513.8 924.4 L513.4 925.0 L512.8 925.0 L512.2 925.4 L510.6 927.2 L510.0 928.0 L509.4 928.6 L509.0 930.4 L508.80002 931.60004 L508.4 932.60004 L507.59998 933.6 L507.40002 934.0 L506.8 935.0 L506.19998 935.4 L505.80002 935.80005 L505.0 937.2 L503.0 941.2 L501.19998 945.0 L500.6 945.80005 L500.0 946.8 L496.8 950.4 L494.59998 952.2 L493.80002 953.2 L492.8 954.4 L492.59998 955.4 L490.0 958.2 L482.40002 965.4 L482.2 965.4 L480.0 966.2 L480.0 966.2"
    stroke="rgb(25,25,25)" stroke-width="2" fill="none" stroke-linejoin="round"/>
  <path
    d="M538.4 930.4 L538.6 932.60004 L538.0 934.4 L537.4 936.60004 L536.0 939.0 L535.4 941.2 L531.4 948.6 L530.2 950.4 L528.8 951.8 L525.4 955.0 L522.6 956.2 L521.2 958.2 L519.0 960.4 L517.2 962.2 L515.4 964.4 L513.6 966.2 L513.6 966.2"
    stroke="rgb(25,25,25)" stroke-width="2" fill="none" stroke-linejoin="round"/>
  <path
    d="M575.0 924.4 L574.39996 925.4 L573.6 927.2 L572.2 929.0 L567.8 936.2 L566.2 940.0 L564.19995 944.0 L562.0 947.60004 L559.39996 951.2 L554.6 958.0 L553.0 960.0 L552.0 960.80005 L550.4 961.8 L549.0 962.2 L547.8 962.2 L547.4 961.8 L547.4 961.8"
    stroke="rgb(25,25,25)" stroke-width="2" fill="none" stroke-linejoin="round"/>
  <path
    d="M292.0 1016.2 L290.6 1011.8 L278.8 990.80005 L275.8 986.8 L274.59998 984.4 L272.80002 978.0 L260.40002 952.60004 L255.8 944.4 L247.6 934.4 L241.4 924.0 L240.0 919.4 L238.6 916.8 L237.0 913.6 L237.0 913.6"
    stroke="rgb(25,25,25)" stroke-width="2" fill="none" stroke-linejoin="round"/>
  <path
    d="M307.0 960.0 L306.2 959.4 L302.80002 957.2 L289.2 950.0 L282.0 945.0 L269.4 934.4 L255.8 924.0 L252.0 919.0 L248.79999 915.80005 L241.8 907.2 L238.4 902.60004 L232.8 895.4 L231.20001 893.6 L224.40001 882.60004 L224.40001 882.60004"
    stroke="rgb(25,25,25)" stroke-width="2" fill="none" stroke-linejoin="round"/>
  <path
    d="M593.0 988.6 L592.6 989.0 L592.4 989.0 L592.4 989.0 L591.4 989.4 L591.0 988.6 L589.6 989.0 L589.19995 989.0 L589.39996 988.6 L587.4 989.4 L584.39996 990.4 L582.8 991.8 L582.6 991.8 L582.4 991.8 L582.4 992.2 L582.4 992.2 L582.0 992.60004 L582.2 992.60004 L582.2 992.60004 L582.2 992.60004 L582.2 992.60004 L582.2 992.60004 L582.6 993.0 L583.4 993.2 L583.6 993.2 L584.0 993.6 L588.8 995.80005 L592.4 997.2 L598.0 998.6 L598.0 998.6"
    stroke="rgb(25,25,25)" stroke-width="2" fill="none" stroke-linejoin="round"/>
  <path
    d="M626.4 984.4 L626.0 985.0 L625.80005 985.4 L625.2 985.80005 L624.39996 986.8 L624.0 987.60004 L623.6 987.60004 L623.4 988.0 L622.8 988.2 L623.0 988.6 L623.0 988.6 L623.0 988.6 L622.8 989.4 L622.8 989.4 L622.8 989.4 L622.8 989.4 L623.4 989.0 L623.4 989.0 L623.4 989.0 L623.4 989.0 L623.4 989.0 L623.4 989.0 L622.8 989.4 L623.0 989.4 L622.8 989.4 L622.8 989.4 L623.0 989.4 L623.0 989.4 L623.6 989.80005 L623.6 989.80005 L623.8 989.80005 L624.0 990.0 L624.19995 990.0 L624.19995 990.0 L624.19995 990.4 L624.39996 990.4 L624.6 990.4 L625.2 990.4 L625.80005 990.4 L626.0 990.4 L627.2 990.80005 L627.6 990.80005 L627.6 990.80005 L627.8 990.80005 L627.8 990.80005 L628.4 990.80005 L628.8 990.4 L629.0 990.4 L629.6 990.4 L630.0 990.4 L630.80005 990.4 L632.2 990.4 L633.6 990.0 L635.60004 990.0 L635.80005 990.0 L636.2 990.0 L636.2 989.80005 L636.4 989.80005 L636.8 989.80005 L636.8 989.80005 L637.2 989.80005 L637.2 989.80005 L637.4 989.4 L637.4 989.4 L637.4 989.80005 L637.4 989.80005 L637.4 989.80005 L637.4 989.80005 L638.6 989.4 L641.2 988.0 L641.2 988.6 L641.8 988.2 L641.8 988.2 L642.2 988.0 L642.2 988.0 L642.60004 988.0 L643.0 988.0 L643.6 987.60004 L644.0 987.2 L644.4 986.8 L645.0 986.60004 L645.80005 986.2 L646.2 985.80005 L646.8 985.4 L647.2 985.0 L647.60004 985.0 L648.0 984.80005 L648.2 984.4 L650.80005 981.60004 L651.2 980.4 L654.0 976.8 L654.0 976.2 L654.0 975.80005 L654.4 975.4 L655.0 975.0 L659.4 965.80005 L660.0 964.4 L660.4 964.0 L660.4 963.6 L660.4 963.2 L661.2 960.80005 L661.60004 959.0 L662.2 957.2 L663.0 955.4 L663.6 953.0 L664.4 950.80005 L665.80005 947.2 L666.2 945.4 L666.8 943.6 L667.2 942.2 L667.60004 940.0 L667.60004 939.4 L668.0 936.8 L669.0 931.8 L670.0 928.0 L673.0 914.0 L674.0 892.2 L674.4 888.2 L675.0 883.2 L674.4 881.8 L674.4 881.2 L674.4 880.80005 L674.0 879.4 L674.0 878.0 L673.0 874.4 L672.60004 862.2 L672.2 862.60004 L672.2 862.60004 L672.2 862.60004 L672.2 863.0 L672.60004 865.0 L672.60004 865.0"
    stroke="rgb(25,25,25)" stroke-width="2" fill="none" stroke-linejoin="round"/>
  <path
    d="M734.0 971.2 L733.2 970.4 L732.2 970.0 L727.60004 965.80005 L725.4 959.4 L725.0 958.6 L715.0 930.4 L714.4 925.80005 L713.0 918.6 L712.2 900.0 L712.2 894.0 L711.8 891.8 L710.4 865.80005 L710.4 864.80005 L711.2 864.0 L710.4 860.0 L710.0 859.0 L709.0 859.0 L709.0 860.0 L709.0 860.0"
    stroke="rgb(25,25,25)" stroke-width="2" fill="none" stroke-linejoin="round"/>
  <path
    d="M666.8 867.60004 L666.2 867.60004 L665.80005 867.60004 L665.4 867.2 L665.4 867.2 L665.0 867.2 L665.4 866.8 L665.4 866.2 L665.4 866.2 L665.4 866.2 L665.4 866.2 L665.80005 866.60004 L665.80005 866.60004 L666.2 866.60004 L666.2 866.8 L666.8 866.8 L666.8 866.60004 L667.2 866.60004 L667.2 866.2 L667.2 866.2 L667.2 866.2 L667.60004 866.2 L667.60004 865.80005 L668.0 865.80005 L668.0 865.80005 L668.2 865.80005 L668.2 865.80005 L671.8 864.80005 L675.80005 864.0 L676.2 864.0 L676.60004 864.0 L676.8 864.0 L677.2 864.0 L677.2 864.0 L677.60004 863.6 L678.0 863.6 L678.0 863.6 L679.0 863.6 L683.0 863.6 L684.80005 863.6 L685.4 863.6 L686.60004 863.6 L688.6 863.6 L689.0 863.6 L689.4 863.6 L689.4 863.6 L689.80005 864.0 L695.0 862.60004 L696.2 862.2 L696.8 862.2 L697.60004 862.2 L697.60004 861.8 L699.0 861.8 L703.2 860.4 L704.0 860.4 L704.0 860.4 L704.0 860.4 L703.6 860.80005 L705.4 859.4 L706.2 857.60004 L706.2 857.60004"
    stroke="rgb(25,25,25)" stroke-width="2" fill="none" stroke-linejoin="round"/>
  <path
    d="M627.4 989.4 L628.6 980.80005 L628.6 978.6 L628.8 976.8 L629.0 971.60004 L629.19995 969.4 L629.19995 967.2 L629.0 966.2 L629.0 965.80005 L628.8 963.6 L628.8 962.60004 L628.0 961.8 L627.8 961.2 L628.0 960.4 L628.4 958.6 L628.8 954.4 L629.19995 953.0 L629.19995 952.60004 L629.0 952.60004 L629.0 952.60004"
    stroke="rgb(25,25,25)" stroke-width="2" fill="none" stroke-linejoin="round"/>
  <path
    d="M624.6 977.60004 L621.4 980.0 L614.0 978.0 L612.8 977.2 L611.4 975.4 L603.8 965.4 L603.0 965.4 L634.39996 942.2 L634.6 942.2 L635.0 941.8 L637.0 938.6 L638.8 937.60004 L639.39996 938.2 L643.6 946.2 L644.0 951.8 L644.80005 954.4 L644.80005 957.2 L644.0 958.2 L644.0 959.80005 L643.0 960.0 L642.60004 960.4 L639.19995 961.8 L625.4 964.80005 L620.0 965.0 L616.2 964.0 L614.39996 963.0 L614.39996 963.0"
    stroke="rgb(25,25,25)" stroke-width="2" fill="none" stroke-linejoin="round"/>
  <path d="M733.2 919.0 L733.6 913.6 L734.4 911.2 L735.80005 908.0 L735.80005 908.0" stroke="rgb(25,25,25)"
        stroke-width="2" fill="none" stroke-linejoin="round"/>
  <path
    d="M690.4 998.2 L688.0 998.0 L686.2 995.4 L685.4 989.0 L703.2 955.0 L705.0 955.4 L712.2 959.4 L713.0 960.4 L714.4 962.60004 L703.2 1001.8 L703.2 1001.8"
    stroke="rgb(25,25,25)" stroke-width="2" fill="none" stroke-linejoin="round"/>
  <path
    d="M686.2 953.2 L674.4 937.60004 L681.60004 928.0 L689.80005 933.0 L692.60004 942.60004 L694.4 915.0 L696.2 916.2 L705.80005 931.8 L705.80005 922.60004 L705.80005 922.60004"
    stroke="rgb(25,25,25)" stroke-width="2" fill="none" stroke-linejoin="round"/>
  <path
    d="M706.2 931.2 L704.80005 929.80005 L704.4 929.4 L704.4 929.0 L709.80005 934.0 L710.4 935.0 L713.0 940.80005 L713.6 951.8 L711.8 955.0 L711.2 957.2 L707.60004 959.4 L705.80005 958.6 L703.2 954.0 L707.2 951.60004 L708.6 960.4 L709.0 963.2 L708.6 963.6 L708.6 963.6"
    stroke="rgb(25,25,25)" stroke-width="2" fill="none" stroke-linejoin="round"/>
  <path
    d="M670.80005 846.8 L670.80005 846.8 L670.80005 846.8 L670.80005 846.8 L670.80005 846.8 L670.80005 846.8 L670.4 847.2 L670.0 847.2 L669.4 847.2 L669.4 847.60004 L669.0 848.0 L669.0 848.2 L668.6 848.2 L668.6 848.6 L668.6 848.6 L668.0 848.6 L668.0 848.6 L667.60004 848.6 L667.60004 848.6 L667.2 848.6 L666.2 848.6 L665.0 849.0 L664.4 848.6 L662.60004 848.0 L660.80005 847.2 L660.0 846.8 L660.0 846.8 L659.4 846.60004 L659.0 846.60004 L659.0 846.2 L658.6 846.2 L658.0 845.0 L657.2 845.0 L656.8 841.8 L654.4 838.2 L652.2 834.80005 L650.0 830.0 L649.80005 829.80005 L649.4 829.4 L649.0 829.4 L648.6 829.80005 L649.0 829.4 L648.2 821.8 L647.60004 820.0 L647.2 819.0 L646.8 819.0 L646.8 819.0 L646.2 819.0 L646.2 819.0 L645.80005 819.0 L645.80005 818.6 L645.80005 818.2 L644.4 814.4 L644.4 813.0 L644.4 812.2 L644.0 812.2 L644.0 812.2 L644.0 811.8 L643.6 812.2 L643.6 811.8 L646.8 807.60004 L646.8 806.8 L647.60004 806.2 L647.60004 806.60004 L647.60004 806.8 L647.60004 806.60004 L647.60004 806.8 L647.60004 806.8 L648.0 807.2 L649.4 807.60004 L651.2 808.2 L651.60004 809.0 L652.2 809.0 L653.0 809.0 L653.6 809.0 L654.0 809.4 L656.2 809.0 L656.8 809.4 L657.2 809.4 L658.6 810.0 L662.2 812.2 L662.60004 813.2 L663.0 814.4 L662.60004 814.80005 L663.6 816.60004 L664.4 818.0 L665.4 819.80005 L665.80005 821.2 L668.6 825.80005 L670.0 828.0 L671.2 830.80005 L671.2 833.2 L671.2 834.0 L671.2 835.0 L670.80005 838.0 L670.80005 838.2 L670.4 838.6 L670.4 839.0 L670.0 839.4 L670.0 840.0 L669.4 840.80005 L669.0 841.8 L669.0 842.60004 L668.6 844.0 L668.6 845.80005 L668.6 848.0 L668.0 848.6 L668.0 848.6 L668.0 848.6 L667.60004 848.6 L667.60004 848.6 L666.8 848.6 L666.2 848.2 L665.80005 848.0 L665.4 848.0 L664.80005 847.2 L664.80005 847.2"
    stroke="rgb(245,60,30)" stroke-width="5" fill="none" stroke-linejoin="round"/>
  <path
    d="M689.4 826.2 L691.2 825.4 L693.6 824.80005 L700.4 824.0 L704.4 822.60004 L705.4 822.2 L706.60004 821.60004 L707.60004 821.2 L709.0 820.80005 L709.4 820.4 L713.6 819.4 L714.4 820.4 L720.0 828.6 L721.8 831.2 L723.2 835.80005 L724.0 837.60004 L724.0 837.60004 L724.4 840.80005 L724.80005 841.60004 L725.0 843.0 L725.4 844.4 L725.80005 844.4 L725.4 844.80005 L725.4 845.0 L725.4 845.4 L728.6 850.80005 L728.6 851.60004 L728.2 851.8 L728.6 851.8 L728.6 852.60004 L729.80005 856.8 L730.4 857.60004 L730.4 858.0 L730.80005 858.0 L731.2 858.2 L731.60004 858.6 L731.8 858.6 L732.2 859.0 L732.60004 859.0 L732.60004 859.4 L733.0 859.80005 L734.0 860.0 L734.4 860.4 L735.0 861.60004 L735.4 862.2 L735.4 863.0 L735.80005 863.6 L736.2 866.60004 L737.2 868.6 L738.0 871.8 L740.0 875.4 L741.8 877.2 L742.2 878.0 L744.0 883.2 L744.0 883.6 L744.4 884.0 L744.4 884.0 L744.4 884.0 L744.0 884.0 L744.0 884.4 L744.0 884.4 L743.6 884.4 L743.6 884.80005 L743.6 884.80005 L744.0 884.80005 L744.4 884.0 L744.0 884.0 L743.2 884.4 L742.60004 884.80005 L742.2 884.80005 L740.4 884.4 L740.0 884.0 L738.6 883.6 L738.2 883.6 L738.0 883.6 L738.0 884.4 L737.60004 884.4 L737.60004 884.4 L737.60004 884.4 L737.2 884.80005 L736.8 885.80005 L736.8 886.2 L736.60004 886.8 L736.8 887.2 L737.2 887.60004 L737.2 888.0 L737.2 888.0 L737.2 888.2 L736.8 888.6 L736.8 888.6 L736.8 888.6 L736.8 888.6 L736.8 888.6 L736.2 888.6 L736.2 888.6 L735.80005 889.0 L735.4 889.0 L734.80005 889.0 L734.0 889.0 L733.2 889.80005 L732.60004 890.0 L732.60004 889.80005 L732.60004 889.80005 L732.60004 890.0 L732.2 890.0 L732.60004 890.0 L732.2 890.4 L732.2 890.4 L732.2 890.4"
    stroke="rgb(245,60,30)" stroke-width="5" fill="none" stroke-linejoin="round"/>
  <path
    d="M693.0 829.0 L693.2 829.0 L693.2 829.0 L693.2 829.0 L693.2 829.0 L693.0 829.4 L693.0 829.4 L693.6 828.2 L693.6 829.0 L696.60004 831.60004 L696.8 832.2 L696.8 833.0 L696.60004 833.0 L696.8 833.0 L696.8 833.2 L696.60004 834.0 L697.2 834.80005 L698.0 838.0 L697.60004 838.2 L697.60004 838.2 L697.2 839.0 L697.2 839.0 L697.2 839.0 L696.8 839.0 L696.8 839.4 L696.8 839.0 L696.8 839.4 L696.60004 839.80005 L697.2 839.0 L698.6 853.6 L700.0 854.0 L700.0 858.6 L700.4 859.4 L700.4 860.4 L700.80005 860.0 L700.4 860.4 L700.0 860.4 L700.0 860.4 L699.4 860.80005 L699.4 860.80005 L699.4 860.80005 L699.4 861.2 L700.0 862.2 L700.0 862.2"
    stroke="rgb(245,60,30)" stroke-width="5" fill="none" stroke-linejoin="round"/>
  <path
    d="M702.2 833.0 L702.60004 833.2 L702.60004 833.6 L703.0 833.6 L703.0 834.4 L703.2 835.0 L704.0 836.8 L705.80005 839.4 L706.2 840.80005 L706.60004 842.60004 L708.6 843.2 L709.0 843.6 L709.0 844.0 L709.4 844.80005 L709.4 845.0 L710.0 846.60004 L710.0 846.8 L710.0 846.8 L709.80005 846.8 L709.80005 846.8 L709.80005 846.8 L709.80005 846.8 L709.4 847.2 L709.4 846.8 L709.4 847.2 L709.4 847.2 L709.4 840.4 L709.0 838.2 L708.6 836.2 L708.2 835.4 L708.2 835.0 L708.6 835.0 L708.0 835.4 L708.2 835.4 L708.6 835.80005 L713.0 840.80005 L714.4 842.2 L716.2 846.2 L718.6 851.2 L719.0 852.60004 L721.2 857.60004 L721.60004 858.2 L721.8 859.0 L721.8 859.0 L721.8 859.0 L720.80005 857.2 L720.0 855.80005 L719.4 854.0 L717.60004 849.4 L717.2 847.60004 L717.60004 841.8 L718.0 842.2 L721.8 848.0 L724.4 853.2 L725.4 855.4 L726.2 857.60004 L726.60004 860.4 L727.2 862.2 L727.60004 865.0 L728.2 867.2 L729.0 870.0 L729.4 871.60004 L729.4 873.0 L729.0 874.0 L729.0 874.0 L729.0 874.4 L729.0 874.4 L729.0 874.4 L729.0 874.4 L722.60004 867.2 L720.0 862.2 L716.2 855.4 L715.0 852.2 L715.4 852.2 L715.80005 852.60004 L716.8 854.4 L718.6 858.2 L719.4 860.4 L721.2 865.4 L722.60004 867.60004 L724.0 869.80005 L724.80005 871.60004 L725.80005 873.0 L726.8 874.4 L727.2 875.4 L728.2 877.2 L728.6 877.60004 L729.0 878.0 L729.0 878.0 L728.6 878.0 L728.6 878.0 L728.2 878.0 L725.80005 876.8 L725.0 875.80005 L721.2 870.80005 L719.80005 869.0 L718.6 867.2 L717.60004 865.0 L715.80005 859.0 L714.80005 856.8 L713.0 854.4 L707.60004 840.0 L707.60004 839.4 L707.60004 839.4 L707.60004 839.4 L710.4 846.8 L710.80005 849.0 L711.8 851.8 L715.80005 863.0 L717.2 867.60004 L718.0 869.4 L719.4 874.0 L720.4 877.2 L720.80005 878.6 L720.4 879.80005 L720.4 879.80005 L720.0 879.80005 L720.0 879.80005 L719.80005 879.4 L705.4 859.0 L693.6 834.4 L691.2 825.0 L691.2 825.0 L693.0 826.60004 L694.0 828.0 L695.4 830.4 L697.2 833.6 L700.80005 840.80005 L704.80005 848.6 L710.0 860.4 L710.4 864.0 L711.8 867.2 L713.2 872.2 L714.0 874.0 L715.0 874.0 L715.0 874.0 L715.0 872.60004 L714.4 870.0 L713.2 865.0 L708.6 850.0 L705.80005 838.0 L705.0 835.4 L705.0 833.6 L705.4 831.8 L705.4 831.60004 L705.4 831.8 L705.80005 832.2 L706.2 832.60004 L706.8 834.0 L712.2 844.0 L714.0 847.2 L718.2 855.0 L724.0 869.4 L725.0 874.0 L729.0 884.0 L729.4 884.80005 L729.0 883.2 L727.2 879.0 L725.80005 875.80005 L724.4 872.2 L720.80005 863.6 L711.8 838.0 L710.80005 834.80005 L715.0 836.2 L716.8 839.0 L723.0 850.4 L725.0 855.0 L735.0 880.4 L736.2 884.80005 L738.0 891.2 L738.2 893.0 L738.6 893.6 L738.6 893.6 L738.0 893.0 L738.0 892.60004 L737.2 891.2 L734.80005 887.60004 L733.6 885.0 L728.6 875.80005 L726.2 871.8 L719.4 855.4 L718.6 851.8 L718.6 845.80005 L718.2 845.80005 L720.80005 849.4 L721.8 851.2 L724.4 855.80005 L725.4 858.6 L729.0 864.4 L734.80005 875.4 L741.2 883.6 L741.8 884.0 L741.60004 883.6 L741.60004 883.0 L735.4 870.0 L732.60004 858.2 L730.4 855.0 L728.6 852.2 L728.0 850.0 L727.60004 848.2 L728.2 849.4 L728.6 851.8 L730.4 855.4 L738.6 873.6 L740.80005 880.0 L741.2 883.0 L741.8 885.4 L740.80005 886.2 L740.80005 886.60004 L737.60004 884.4 L737.2 884.0 L735.4 882.60004 L733.6 880.80005 L729.80005 875.80005 L727.60004 873.0 L725.80005 869.80005 L720.0 860.0 L718.0 854.4 L718.0 854.4 L718.0 855.0 L718.0 855.4 L719.4 858.6 L721.60004 864.4 L722.60004 868.0 L724.80005 875.4 L726.60004 883.0 L728.6 891.8 L729.0 894.0 L730.0 896.2 L730.4 898.2 L730.4 899.80005 L730.4 900.80005 L730.0 901.8 L730.0 901.2 L729.4 900.4 L728.0 899.4 L726.8 897.60004 L725.4 895.4 L723.6 892.60004 L722.2 889.0 L720.4 885.0 L718.6 880.80005 L715.4 874.0 L715.0 871.2 L714.0 869.4 L713.6 867.60004 L713.0 866.2 L713.0 864.4 L713.0 864.0 L713.6 864.0 L714.0 864.4 L715.0 865.4 L716.2 867.60004 L717.60004 872.2 L719.0 875.0 L719.80005 878.6 L722.2 889.4 L723.0 893.0 L724.0 896.8 L724.0 901.8 L724.80005 904.4 L725.0 910.80005 L725.0 911.8 L725.0 912.60004 L725.0 913.6 L725.4 913.6 L725.4 913.0 L724.0 910.80005 L723.0 909.4 L723.0 909.4"
    stroke="rgb(245,60,30)" stroke-width="5" fill="none" stroke-linejoin="round"/>
  <path
    d="M714.4 889.0 L713.0 885.0 L711.60004 881.2 L710.80005 878.0 L710.0 875.0 L709.4 872.60004 L709.4 871.60004 L709.80005 871.2 L709.4 871.8 L710.0 872.60004 L710.4 874.4 L711.2 876.2 L714.4 883.0 L716.2 886.2 L717.2 889.0 L718.0 892.2 L719.4 895.4 L720.4 899.0 L721.2 901.8 L722.60004 904.80005 L725.4 912.2 L726.60004 914.4 L726.60004 914.4"
    stroke="rgb(245,60,30)" stroke-width="5" fill="none" stroke-linejoin="round"/>
  <path
    d="M740.80005 884.0 L741.8 885.0 L742.60004 885.80005 L743.2 886.60004 L743.6 887.2 L747.60004 893.0 L753.2 904.0 L747.2 897.2 L745.80005 895.80005 L745.0 893.6 L743.6 891.8 L742.2 890.0 L740.4 887.2 L735.80005 879.0 L734.4 873.0 L734.0 873.0 L733.6 872.60004 L733.6 873.0 L734.0 873.6 L734.0 874.0 L733.6 875.0 L734.0 875.80005 L734.4 876.60004 L735.80005 878.6 L738.0 882.2 L740.0 885.80005 L740.4 886.2 L743.6 888.6 L745.80005 891.2 L746.8 892.60004 L748.0 894.0 L749.0 895.4 L749.4 896.60004 L751.2 900.0 L751.2 900.0 L750.80005 899.4 L750.4 899.0 L750.0 898.2 L748.6 897.60004 L747.60004 897.2 L746.8 896.8 L745.80005 896.60004 L744.4 896.2 L743.0 895.80005 L741.60004 895.0 L740.0 894.0 L732.2 890.0 L730.4 888.6 L728.6 887.60004 L726.8 886.8 L724.80005 885.0 L724.0 884.80005 L723.0 884.4 L722.2 884.0 L721.60004 883.6 L721.2 883.6 L720.80005 883.6 L720.4 883.6 L720.0 883.6 L720.0 883.6 L720.0 883.6 L720.0 883.2 L720.0 883.0 L720.0 883.0 L719.80005 882.60004 L720.4 881.8 L722.60004 881.8 L724.0 881.8 L728.2 883.6 L731.2 884.80005 L734.0 886.2 L737.60004 887.60004 L740.80005 889.0 L752.2 895.4 L752.2 895.4"
    stroke="rgb(245,60,30)" stroke-width="5" fill="none" stroke-linejoin="round"/>
  <path
    d="M706.8 837.2 L706.8 837.2 L707.2 838.6 L707.2 838.6 L708.2 843.2 L708.0 843.2 L707.60004 844.0 L707.60004 844.0 L707.60004 844.0 L707.2 844.0 L707.2 844.0 L707.2 844.0 L707.2 844.4 L706.8 844.4 L706.8 845.0 L706.8 845.0 L706.8 845.4 L706.60004 846.2 L706.2 846.60004 L706.2 846.8 L706.2 846.8 L706.2 847.2 L706.2 847.2 L706.2 847.2 L706.2 847.60004 L706.2 847.60004"
    stroke="rgb(245,60,30)" stroke-width="5" fill="none" stroke-linejoin="round"/>
  <path
    d="M742.2 923.0 L742.2 923.2 L742.2 923.0 L742.2 923.0 L741.8 923.2 L741.8 923.2 L741.8 923.2 L741.60004 923.6 L741.8 923.6 L741.2 923.6 L741.2 923.6 L741.2 923.6 L741.60004 923.6 L741.2 923.6 L741.2 924.0 L741.2 923.6 L740.80005 924.0 L740.80005 924.0 L740.80005 924.0 L740.80005 924.0 L740.80005 924.0 L740.80005 924.4 L740.80005 924.4 L740.80005 924.0 L740.80005 924.0 L740.80005 924.4 L740.4 924.4 L740.4 924.4 L740.80005 925.0 L747.2 934.4 L748.6 937.2 L748.2 937.60004 L745.80005 935.4 L743.0 930.0 L740.4 925.80005 L740.0 925.0 L739.80005 924.0 L739.80005 923.0 L739.4 922.2 L739.0 921.2 L739.0 921.2 L739.0 921.2 L739.0 921.2 L738.6 921.8 L738.6 921.60004 L739.0 921.60004 L740.0 922.2 L741.2 923.6 L742.2 925.0 L741.60004 920.4 L741.2 919.0 L741.2 918.6 L742.2 919.4 L742.60004 920.4 L743.6 921.8 L741.8 920.80005 L738.0 915.0 L738.2 915.0 L738.2 915.0 L738.0 915.0 L738.0 915.0 L738.2 915.0 L739.0 916.2 L742.2 919.0 L740.4 920.0 L736.8 914.4 L731.2 906.60004 L730.4 905.0 L730.0 904.4 L730.0 904.4 L730.0 904.0 L730.80005 904.80005 L731.60004 905.0 L733.6 907.60004 L735.0 909.0 L738.2 913.6 L741.60004 919.4 L743.0 921.8 L746.8 929.0 L747.2 930.4 L746.8 930.80005 L747.2 931.2 L746.8 931.2 L746.8 931.2 L746.2 931.2 L746.2 931.2 L746.2 931.2 L745.0 929.4 L741.8 926.2 L739.4 920.80005 L736.8 916.2 L733.6 908.6 L733.6 908.6 L740.0 914.0 L743.0 913.6 L739.4 904.4 L741.8 905.4 L745.4 912.60004 L745.4 911.60004 L745.80005 910.0 L742.60004 904.0 L743.2 916.8 L737.60004 910.4 L736.60004 908.6 L735.80005 908.6 L735.80005 908.6 L736.2 908.6 L736.60004 909.0 L736.8 909.4 L745.4 925.0 L749.4 934.0 L745.80005 931.8 L743.2 928.6 L741.2 925.4 L733.6 908.6 L733.6 908.2 L733.2 907.60004 L734.80005 906.8 L735.4 908.0 L736.2 908.6 L741.8 903.6 L741.2 902.2 L740.4 902.2 L740.80005 901.8 L742.2 904.4 L750.0 926.60004 L742.60004 914.0 L741.2 912.2 L737.60004 907.2 L736.2 901.8 L735.4 900.80005 L736.8 903.6 L738.0 906.60004 L739.4 909.0 L744.4 924.0 L745.4 926.2 L741.8 928.2 L740.0 926.2 L734.4 918.0 L732.60004 913.0 L732.2 911.60004 L732.2 910.4 L732.2 910.4 L732.2 910.4 L732.60004 910.80005 L733.0 911.2 L734.0 912.2 L738.2 920.4 L739.80005 924.4 L740.4 928.0 L741.60004 933.6 L741.8 938.0 L741.2 939.0 L736.60004 935.80005 L735.4 934.0 L734.0 930.80005 L733.6 927.60004 L733.2 924.80005 L733.0 922.2 L733.0 919.0 L735.4 907.60004 L735.4 907.2 L735.4 907.60004 L736.60004 908.0 L736.8 908.2 L737.2 909.0 L740.80005 911.8 L743.6 919.0 L745.0 925.80005 L745.0 928.0 L744.4 929.4 L743.0 929.4 L741.8 929.4 L740.80005 929.0 L739.0 928.6 L737.2 928.0 L734.4 925.4 L731.60004 920.80005 L729.0 911.2 L729.80005 907.60004 L730.80005 906.8 L733.0 907.2 L734.80005 908.0 L737.60004 910.4 L737.2 915.4 L737.2 915.4"
    stroke="rgb(0,190,150)" stroke-width="5" fill="none" stroke-linejoin="round"/>
  <path
    d="M690.0 931.8 L693.2 934.4 L678.0 933.6 L680.4 931.2 L682.2 931.2 L687.60004 934.4 L690.4 941.8 L691.60004 943.0 L691.8 943.0 L693.2 943.6 L697.2 942.2 L689.80005 944.80005 L681.2 935.4 L680.0 932.60004 L679.0 930.4 L685.0 937.60004 L686.60004 939.4 L689.4 944.0 L690.80005 945.4 L690.4 942.2 L690.4 942.2"
    stroke="rgb(0,190,150)" stroke-width="5" fill="none" stroke-linejoin="round"/>
  <path d="M622.2 801.2 L623.0 803.2 L622.4 805.0 L621.8 810.80005 L621.8 810.80005" stroke="rgb(0,190,150)"
        stroke-width="5" fill="none" stroke-linejoin="round"/>
  <path d="M704.80005 953.2 L686.8 928.6 L690.4 938.6 L690.4 953.2 L690.4 953.2" stroke="rgb(0,190,150)"
        stroke-width="5" fill="none" stroke-linejoin="round"/>
  <path
    d="M750.4 914.80005 L739.4 912.60004 L739.4 912.60004 L739.4 911.8 L739.80005 911.60004 L741.2 920.0 L742.60004 913.0 L746.2 904.4 L746.2 904.4"
    stroke="rgb(0,190,150)" stroke-width="5" fill="none" stroke-linejoin="round"/>
  <path d="M674.0 942.2 L689.80005 934.4 L689.80005 934.4" stroke="rgb(0,190,150)" stroke-width="5" fill="none"
        stroke-linejoin="round"/>
  <path
    d="M622.0 978.0 L619.0 974.80005 L613.8 959.80005 L612.0 954.80005 L611.8 947.2 L612.0 947.2 L612.6 947.2 L612.4 947.60004 L613.6 949.0 L615.0 952.2 L623.4 969.4 L622.8 969.0 L622.4 969.0 L614.0 957.2 L612.4 951.8 L610.80005 945.4 L610.4 945.4 L610.4 945.4 L610.2 945.4 L610.0 945.4 L610.80005 945.0 L611.8 945.0 L616.8 955.0 L612.4 946.60004 L611.4 941.60004 L610.80005 936.8 L610.80005 930.0 L610.60004 930.0 L612.6 933.0 L614.0 937.60004 L617.2 947.60004 L617.8 951.8 L622.4 971.60004 L622.0 972.2 L621.2 971.2 L620.4 970.0 L614.19995 954.0 L612.0 943.6 L612.0 943.2 L611.4 943.0 L611.0 942.2 L610.80005 940.4 L610.80005 940.4 L610.80005 940.80005 L610.80005 941.2 L613.0 958.0 L615.0 976.8 L607.4 946.8 L607.0 942.2 L607.4 935.4 L610.0 935.80005 L610.4 939.0 L616.0 969.4 L616.0 971.8 L615.80005 971.8 L615.60004 971.60004 L615.2 970.80005 L608.0 945.80005 L612.4 942.2 L614.0 948.6 L619.0 981.2 L618.8 981.2 L617.6 974.4 L614.39996 960.0 L613.6 953.2 L611.2 944.4 L611.0 944.4 L610.80005 944.80005 L611.2 946.2 L612.4 950.80005 L606.2 945.4 L601.4 925.0 L601.2 925.0 L609.39996 937.2 L612.2 944.4 L612.2 944.4"
    stroke="rgb(0,190,150)" stroke-width="5" fill="none" stroke-linejoin="round"/>
  <path
    d="M626.8 966.2 L623.6 938.0 L622.8 936.2 L622.8 936.2 L622.6 936.2 L622.4 936.2 L622.4 936.60004 L622.4 936.8 L622.4 937.2 L622.4 938.6 L622.6 940.80005 L615.80005 948.0 L615.2 944.4 L614.39996 942.2 L614.6 940.4 L614.39996 939.80005 L614.39996 939.4 L614.39996 939.4 L615.2 939.0 L615.4 939.0 L615.60004 939.4 L615.60004 940.4 L618.8 947.2 L625.0 977.60004 L620.2 955.4 L618.8 941.2 L619.19995 942.60004 L625.2 946.2 L625.4 941.8 L625.0 939.4 L625.2 939.4 L626.4 941.2 L627.6 948.2 L630.4 943.0 L631.0 938.6 L632.2 946.8 L630.4 946.2 L628.8 938.2 L627.8 935.0 L627.4 927.2 L629.19995 932.60004 L630.0 934.80005 L630.4 936.60004 L631.2 933.6 L631.2 933.2 L631.0 933.2 L631.0 933.6 L632.4 935.0 L638.0 944.80005 L638.8 940.80005 L636.8 934.4 L635.80005 933.6 L635.80005 934.0 L635.80005 934.80005 L636.2 935.4 L636.2 936.60004 L636.4 937.60004 L637.2 939.4 L637.6 942.2 L637.8 944.80005 L638.0 944.80005 L635.80005 937.60004 L635.80005 936.60004 L635.4 936.60004 L635.60004 936.60004 L635.4 936.8 L635.60004 936.8 L635.80005 939.4 L637.4 946.2 L637.4 941.8 L637.4 941.8 L637.2 942.2 L637.2 942.2 L638.0 941.2 L637.2 938.2 L636.4 935.80005 L635.80005 934.4 L635.80005 934.0 L635.80005 934.4 L635.80005 934.4 L635.80005 934.80005 L636.0 934.80005 L636.2 935.0 L636.8 935.4 L637.2 935.80005 L637.4 936.2 L639.39996 942.2 L640.4 945.80005 L641.2 948.6 L633.4 933.0 L632.2 929.80005 L632.0 929.80005 L632.4 930.0 L631.4 930.80005 L631.4 930.80005"
    stroke="rgb(0,190,150)" stroke-width="5" fill="none" stroke-linejoin="round"/>
  <path
    d="M643.2 945.80005 L638.6 938.2 L639.19995 940.80005 L640.80005 945.80005 L644.4 945.4 L643.0 942.60004 L642.60004 936.2 L650.0 946.2 L650.0 946.2"
    stroke="rgb(0,190,150)" stroke-width="5" fill="none" stroke-linejoin="round"/>
  <path
    d="M632.4 958.0 L627.8 945.4 L629.6 946.8 L635.80005 988.0 L633.6 984.4 L639.0 981.8 L635.80005 985.0 L633.8 985.0 L618.8 958.6 L618.4 949.0 L619.0 949.4 L619.39996 950.4 L623.6 965.80005 L612.4 948.6 L611.4 948.6 L611.8 949.4 L612.6 951.2 L613.4 952.2 L615.2 953.6 L614.6 952.60004 L613.8 950.80005 L613.6 950.80005 L619.6 955.4 L617.6 953.6 L616.8 951.60004 L615.60004 950.0 L622.4 944.4 L629.0 949.80005 L620.0 940.0 L618.8 939.0 L618.0 939.0 L618.0 939.4 L617.6 939.4 L617.6 939.4 L617.6 939.4 L618.0 940.0 L618.4 943.2 L619.19995 946.8 L614.39996 944.4 L613.6 943.0 L612.0 941.8 L607.6 935.80005 L607.6 935.80005 L615.2 946.60004 L617.4 941.60004 L632.8 947.60004 L630.4 940.4 L629.6 934.0 L629.39996 933.6 L629.39996 933.6 L629.6 933.6 L630.0 934.0 L630.80005 936.2 L631.0 940.4 L628.0 934.0 L624.0 927.2 L628.0 929.80005 L629.0 932.60004 L632.4 939.0 L629.0 930.4 L633.4 930.0 L635.80005 924.0 L634.39996 922.2 L639.19995 938.6 L634.0 940.4 L632.4 937.2 L630.0 930.4 L630.0 930.80005 L630.0 931.2 L630.4 932.2 L631.4 934.4 L633.8 938.0 L631.0 938.6 L631.4 936.60004 L632.4 931.8 L632.4 931.8"
    stroke="rgb(0,190,150)" stroke-width="5" fill="none" stroke-linejoin="round"/>
  <path
    d="M664.4 523.4 L667.60004 524.39996 L670.0 525.60004 L671.60004 526.4 L673.0 527.4 L674.0 528.4 L673.6 529.0 L673.0 529.6 L667.60004 530.80005 L662.60004 531.2 L656.8 532.0 L651.2 532.2 L646.8 532.4 L643.0 532.6 L640.80005 532.8 L639.0 533.0 L638.4 532.8 L639.6 533.0 L640.4 533.4 L641.8 533.4 L644.80005 533.4 L652.60004 533.6 L658.0 533.8 L663.6 533.8 L674.4 534.19995 L684.0 534.6 L686.2 535.0 L689.4 535.60004 L689.0 535.60004 L688.6 535.60004 L687.60004 535.60004 L685.4 535.4 L682.60004 535.2 L676.2 535.4 L672.2 535.0 L667.60004 534.39996 L653.2 534.19995 L651.8 534.19995 L650.4 534.19995 L650.0 534.19995 L650.4 534.0 L650.80005 534.0 L651.8 534.0 L653.6 534.19995 L661.2 534.19995 L665.80005 534.19995 L670.0 534.39996 L674.80005 535.0 L679.4 535.0 L683.6 535.0 L686.2 535.0 L687.2 535.0 L688.0 535.0 L688.2 535.2 L688.6 535.4 L688.6 535.60004 L688.2 535.60004 L688.2 535.60004 L687.60004 535.60004 L685.80005 535.60004 L683.0 535.4 L679.4 535.60004 L675.80005 535.80005 L671.8 536.0 L665.4 536.2 L660.4 536.4 L658.6 537.0 L657.60004 537.2 L657.60004 537.2 L658.2 537.0 L659.4 537.0 L661.2 536.4 L671.2 536.0 L675.0 535.80005 L679.4 535.60004 L682.60004 535.4 L685.80005 535.4 L687.60004 535.4 L688.0 535.4 L688.0 535.60004 L688.0 535.60004 L688.0 535.80005 L686.60004 535.60004 L684.80005 535.60004 L681.8 535.60004 L678.0 535.80005 L673.6 536.0 L669.4 536.4 L665.4 536.4 L658.0 537.4 L654.4 538.0 L651.8 538.6 L651.8 538.6 L651.8 538.6 L652.2 538.6 L653.0 538.8 L654.4 538.4 L657.2 537.8 L679.0 536.2 L683.6 535.80005 L689.4 535.80005 L690.4 536.2 L690.4 536.2 L690.4 536.2 L690.0 536.4 L689.0 536.4 L687.2 536.8 L684.80005 537.2 L681.2 537.6 L676.60004 538.0 L672.2 538.8 L668.0 539.19995 L664.0 539.6 L661.2 540.60004 L658.0 540.80005 L655.4 541.0 L653.6 541.2 L653.6 541.2 L654.0 541.2 L654.80005 541.0 L657.2 540.80005 L660.4 540.60004 L664.4 540.4 L668.2 539.6 L672.60004 539.0 L685.80005 537.4 L690.4 537.0 L690.4 537.0 L690.0 537.0 L689.80005 537.2 L689.0 537.2 L686.8 537.4 L684.4 537.8 L680.4 538.4 L675.4 539.0 L670.4 539.19995 L654.80005 541.0 L653.2 541.4 L652.2 542.0 L651.8 542.4 L651.60004 541.8 L652.2 542.2 L659.0 541.0 L663.0 540.80005 L671.8 540.0 L680.0 539.39996 L683.6 539.6 L686.2 539.6 L687.2 540.0 L687.60004 540.0 L687.2 540.0 L686.8 540.2 L685.4 540.2 L683.0 540.60004 L679.4 540.60004 L674.80005 540.60004 L669.4 540.60004 L664.80005 540.60004 L656.60004 541.2 L651.8 542.4 L651.2 542.4 L651.60004 542.4 L651.8 542.4 L651.8 542.4 L652.2 542.4 L653.6 542.2 L662.60004 542.6 L662.60004 542.6"
    stroke="rgb(25,25,25)" stroke-width="1" fill="none" stroke-linejoin="round"/>
  <path
    d="M697.60004 584.0 L694.0 584.19995 L691.2 584.39996 L688.6 585.0 L685.4 585.2 L682.2 585.80005 L678.6 585.80005 L675.0 586.0 L671.8 586.2 L669.0 586.4 L665.80005 586.8 L662.2 586.8 L656.2 586.4 L656.2 586.4 L656.2 586.4 L656.2 586.8 L656.2 586.8 L656.60004 586.8 L657.60004 586.8 L659.4 587.0 L666.60004 587.6 L670.0 587.8 L674.4 588.4 L677.60004 588.6 L680.4 588.6 L683.0 588.6 L685.4 588.4 L686.8 588.0 L688.2 588.0 L689.80005 588.4 L691.2 588.4 L691.2 588.4 L690.80005 588.4 L690.4 588.4 L690.0 588.4 L688.6 588.4 L685.80005 588.0 L679.80005 588.6 L675.80005 588.6 L667.60004 589.19995 L656.60004 590.4 L654.0 590.60004 L652.2 590.60004 L652.60004 590.60004 L655.0 590.60004 L658.0 590.60004 L661.2 590.4 L669.0 590.0 L673.0 589.39996 L677.60004 589.0 L681.8 589.19995 L685.0 589.0 L687.60004 588.6 L690.0 588.6 L690.80005 588.8 L691.2 588.6 L690.80005 588.8 L689.4 588.8 L687.60004 589.0 L684.4 588.8 L680.80005 589.0 L676.8 589.19995 L672.60004 589.39996 L668.6 590.0 L664.80005 590.0 L655.4 591.0 L652.60004 591.0 L652.2 591.2 L653.0 591.2 L653.6 591.2 L657.2 591.2 L667.60004 592.4 L672.2 592.4 L676.2 592.2 L680.80005 592.0 L687.2 591.4 L689.80005 591.0 L695.0 590.60004 L695.0 590.60004 L695.4 590.80005 L695.4 590.80005 L689.0 591.0 L685.4 591.2 L681.2 592.0 L677.60004 592.2 L669.4 592.4 L666.2 592.6 L662.60004 592.4 L659.4 592.6 L656.60004 592.6 L655.4 592.4 L654.4 592.2 L654.4 592.0 L655.0 592.2 L665.80005 592.4 L670.4 592.4 L675.4 592.2 L680.0 592.2 L685.0 592.0 L689.0 591.4 L693.0 591.4 L699.0 591.2 L699.80005 591.2 L699.4 591.2 L699.0 591.4 L699.0 591.2 L694.0 591.0 L690.4 591.2 L685.4 591.4 L680.4 591.8 L675.80005 592.2 L670.4 592.4 L666.2 592.4 L658.0 592.4 L653.0 591.8 L652.2 592.0 L652.60004 591.8 L652.60004 591.8 L657.2 592.4 L665.0 592.6 L670.0 592.4 L675.4 592.6 L680.80005 592.8 L689.80005 592.6 L693.0 592.8 L696.2 592.8 L698.0 592.8 L697.60004 592.8 L697.2 592.8 L696.8 593.0 L693.6 593.4 L691.2 593.8 L687.2 593.8 L682.2 593.6 L677.60004 593.6 L672.60004 593.8 L668.2 594.0 L664.80005 594.19995 L660.80005 594.39996 L658.2 594.39996 L656.2 594.6 L655.0 594.39996 L655.0 594.39996 L655.4 594.39996 L656.2 594.39996 L662.2 594.19995 L671.60004 594.0 L676.2 593.6 L681.60004 593.6 L686.8 593.4 L698.2 593.0 L699.4 592.8 L699.4 592.8 L699.4 592.8 L695.4 593.4 L692.2 593.8 L687.60004 594.0 L681.8 593.8 L675.80005 593.8 L670.0 594.0 L666.2 594.19995 L659.0 594.39996 L656.2 594.0 L655.0 594.6 L657.60004 594.39996 L660.80005 594.39996 L665.0 595.0 L670.0 595.0 L674.4 595.0 L679.0 595.4 L684.4 595.2 L688.6 595.4 L698.6 595.0 L699.4 595.2 L699.0 595.2 L698.0 595.80005 L696.60004 595.60004 L684.0 595.60004 L679.4 595.60004 L674.4 595.60004 L669.80005 595.80005 L666.8 596.0 L663.0 595.80005 L660.4 596.0 L658.6 596.4 L658.6 596.8 L659.0 596.4 L660.80005 596.2 L662.60004 596.0 L665.0 596.0 L669.4 595.80005 L674.4 595.80005 L679.4 595.80005 L691.2 595.60004 L695.80005 595.60004 L699.0 595.4 L699.4 595.60004 L699.0 595.60004 L699.0 595.80005 L698.0 595.80005 L695.80005 596.2 L691.60004 596.0 L686.2 596.0 L680.0 596.0 L674.0 596.0 L668.0 596.0 L662.60004 596.0 L654.80005 596.8 L654.80005 596.8"
    stroke="rgb(25,25,25)" stroke-width="1" fill="none" stroke-linejoin="round"/>
  <path
    d="M607.8 638.8 L607.4 639.0 L607.4 639.39996 L607.2 639.6 L606.4 640.0 L606.2 640.0 L606.0 640.0 L605.80005 640.0 L605.80005 640.0 L605.60004 640.0 L605.4 640.0 L605.2 640.0 L604.39996 639.6 L602.6 638.6 L601.2 636.8 L600.4 635.80005 L599.19995 635.2 L598.6 634.6 L597.4 634.19995 L596.8 633.8 L596.2 633.6 L595.4 632.8 L594.19995 632.4 L593.8 631.8 L593.0 631.0 L592.4 630.60004 L592.2 630.0 L591.4 629.19995 L591.0 629.0 L590.4 628.4 L589.39996 627.6 L589.0 627.4 L586.4 624.19995 L585.80005 623.4 L585.4 622.6 L584.6 622.2 L584.0 620.80005 L583.0 620.0 L582.8 619.19995 L582.4 618.8 L582.2 617.8 L582.0 617.4 L581.2 615.80005 L581.0 615.2 L580.0 612.8 L580.0 612.4 L580.0 611.8 L579.6 610.60004 L579.0 608.8 L578.6 607.0 L577.8 605.60004 L577.4 602.6 L576.4 600.60004 L575.80005 597.4 L575.0 595.60004 L574.39996 594.0 L574.19995 592.4 L574.0 592.0 L574.0 591.0 L574.0 590.4 L573.8 589.0 L573.6 586.8 L573.0 585.80005 L572.8 584.6 L572.8 583.6 L572.4 581.0 L572.4 579.6 L572.2 577.6 L572.0 577.0 L572.0 576.0 L571.4 575.2 L571.2 574.0 L571.2 573.0 L571.0 572.6 L571.0 572.4 L570.80005 571.4 L570.80005 570.60004 L570.80005 569.0 L570.80005 568.0 L570.80005 567.4 L570.80005 567.0 L570.80005 566.4 L570.80005 565.0 L570.80005 564.0 L570.80005 563.6 L570.60004 562.2 L570.60004 560.80005 L570.60004 559.6 L570.60004 558.8 L570.80005 557.8 L570.80005 556.8 L570.60004 555.60004 L570.60004 554.39996 L570.4 553.8 L570.4 552.8 L570.4 552.0 L570.60004 551.8 L570.2 550.80005 L570.2 549.39996 L570.4 548.0 L570.60004 547.4 L570.60004 546.4 L570.60004 545.80005 L570.60004 545.4 L570.60004 544.39996 L570.80005 543.6 L570.80005 542.4 L571.0 542.0 L571.2 539.39996 L571.4 538.6 L571.8 537.4 L572.0 536.8 L572.2 536.0 L572.4 534.6 L572.4 533.8 L572.6 532.6 L572.8 532.0 L573.0 531.0 L573.6 530.0 L573.8 529.19995 L573.8 528.8 L573.8 528.6 L574.0 527.8 L574.0 527.0 L574.39996 525.80005 L574.39996 525.2 L574.6 524.6 L575.4 522.4 L576.0 520.80005 L576.0 519.6 L576.4 519.0 L577.2 516.8 L577.4 515.80005 L577.8 515.0 L578.0 514.19995 L578.4 514.0 L578.6 513.6 L578.8 512.4 L578.8 511.8 L579.0 510.80002 L579.39996 510.40002 L579.6 509.59998 L580.2 509.4 L580.4 509.0 L580.80005 507.8 L580.80005 507.40002 L581.0 506.8 L581.4 505.80002 L582.0 505.0 L582.4 504.0 L582.6 503.4 L583.0 502.59998 L583.6 502.0 L583.8 501.19998 L584.0 500.80002 L584.19995 500.40002 L584.6 499.4 L584.6 499.0 L585.2 498.80002 L585.80005 497.59998 L586.2 496.8 L586.8 495.80002 L587.4 494.19998 L588.0 493.6 L588.6 492.59998 L589.19995 491.8 L590.0 491.0 L590.80005 490.40002 L591.2 489.59998 L592.0 489.0 L592.4 488.6 L592.4 488.0 L592.4 488.0 L592.4 487.8 L592.6 487.8 L592.8 487.40002 L592.8 487.40002 L593.0 487.40002 L593.4 487.0 L593.8 486.4 L594.0 485.80002 L595.4 485.2 L595.80005 484.4 L597.0 483.80002 L597.2 483.6 L597.4 483.4 L597.4 483.4 L597.6 483.0 L598.4 482.59998 L599.0 482.2 L599.6 481.4 L600.4 481.0 L600.80005 481.0 L601.2 480.6 L602.0 480.0 L602.6 479.4 L602.8 479.19998 L603.0 479.19998 L603.4 479.0 L603.8 478.80002 L604.19995 478.6 L605.4 478.0 L606.8 477.40002 L607.2 477.40002 L607.4 477.2 L607.8 477.2 L608.6 476.8 L610.80005 475.80002 L611.0 475.80002 L611.8 475.6 L612.4 475.6 L612.6 475.40002 L613.0 475.40002 L613.0 475.40002 L613.0 475.40002 L613.0 475.40002 L613.0 475.40002 L613.0 475.2 L613.0 475.40002 L613.4 475.40002 L613.4 475.40002 L613.4 475.40002 L613.4 475.40002 L613.4 475.40002 L613.4 475.40002 L613.6 475.40002 L613.6 475.40002 L613.6 475.40002 L613.8 475.2 L614.0 475.40002 L614.0 475.2 L614.19995 475.2 L614.6 475.40002 L615.4 475.2 L616.0 475.0 L616.4 475.2 L617.0 475.0 L617.2 475.2 L617.2 475.2 L617.2 475.2 L617.2 475.0 L617.2 475.2 L617.4 475.2 L617.4 475.2 L617.4 475.2 L617.4 475.2 L617.4 475.2 L617.4 475.2 L617.4 475.2 L617.4 475.2 L617.4 475.2 L617.2 475.40002 L617.4 475.40002 L617.4 475.40002 L617.4 475.40002 L617.4 475.2 L617.4 475.40002 L617.4 475.40002 L617.4 475.40002 L617.4 475.40002 L617.4 475.40002 L617.6 475.40002 L618.6 475.40002 L619.19995 475.40002 L619.6 475.40002 L620.0 475.40002 L620.80005 475.40002 L621.4 475.40002 L622.4 475.40002 L622.8 475.2 L624.19995 474.59998 L625.2 474.19998 L625.80005 474.19998 L625.80005 474.19998 L626.0 474.19998 L626.2 474.19998 L626.0 474.19998 L626.0 474.19998 L626.0 474.4 L626.0 474.4 L625.80005 474.4 L625.80005 474.19998 L625.80005 474.4 L625.80005 474.4 L625.80005 474.4 L625.80005 474.59998 L625.80005 474.59998 L625.60004 474.59998 L625.4 475.0 L625.4 475.0"
    stroke="rgb(25,25,25)" stroke-width="1" fill="none" stroke-linejoin="round"/>
  <path
    d="M502.59998 439.0 L503.0 439.0 L503.4 439.19998 L502.8 440.6 L502.40002 441.4 L500.40002 445.0 L499.0 447.2 L497.40002 449.4 L492.40002 455.80002 L490.2 459.0 L488.0 462.40002 L485.80002 465.6 L484.0 467.8 L482.0 470.40002 L480.6 472.40002 L479.19998 474.19998 L478.0 475.80002 L477.2 477.0 L476.8 477.8 L476.4 478.6 L476.4 478.80002 L476.4 479.0 L476.8 479.0 L477.0 479.0 L477.2 478.6 L478.0 477.40002 L480.0 476.0 L480.0 476.0"
    stroke="rgb(25,25,25)" stroke-width="1" fill="none" stroke-linejoin="round"/>
  <path
    d="M517.4 459.0 L517.6 459.0 L517.6 459.0 L517.2 458.4 L516.4 458.6 L515.60004 458.4 L513.8 457.40002 L511.4 456.8 L508.6 455.80002 L505.80002 455.2 L504.0 454.19998 L501.19998 454.0 L498.6 453.4 L495.2 452.40002 L489.59998 451.4 L487.40002 450.80002 L485.6 450.80002 L484.0 450.6 L482.8 450.80002 L481.4 450.6 L481.4 450.6 L481.4 450.2 L481.8 450.6 L482.0 450.80002 L482.0 451.19998 L482.40002 453.0 L482.59998 454.0 L482.59998 454.0"
    stroke="rgb(25,25,25)" stroke-width="1" fill="none" stroke-linejoin="round"/>
  <path
    d="M510.40002 476.19998 L510.6 476.19998 L510.80002 476.4 L510.80002 476.8 L510.80002 477.0 L510.80002 477.2 L510.6 477.2 L510.40002 477.40002 L510.2 477.40002 L509.59998 477.40002 L509.4 477.59998 L508.4 478.0 L504.0 480.0 L501.4 481.0 L497.40002 483.4 L495.40002 484.59998 L492.59998 486.0 L490.40002 487.40002 L488.0 488.80002 L487.2 489.4 L486.19998 490.0 L485.80002 490.40002 L485.40002 490.80002 L485.40002 490.80002 L485.80002 491.0 L486.0 491.0 L487.40002 491.4 L489.59998 491.4 L492.40002 492.0 L495.0 492.40002 L498.80002 492.8 L502.40002 494.0 L506.4 494.4 L510.40002 495.2 L514.0 495.80002 L516.4 496.0 L519.0 496.19998 L522.4 496.19998 L522.0 496.19998 L521.2 496.4 L520.0 497.2 L517.6 497.8 L515.2 499.0 L510.0 501.0 L506.8 502.40002 L504.0 504.0 L500.80002 505.2 L498.6 506.4 L494.0 509.0 L492.40002 510.2 L491.19998 510.80002 L490.80002 511.4 L490.80002 511.8 L490.80002 512.0 L491.19998 512.4 L491.4 512.4 L492.2 512.2 L493.80002 512.2 L493.80002 512.2"
    stroke="rgb(25,25,25)" stroke-width="1" fill="none" stroke-linejoin="round"/>
  <path
    d="M537.6 543.0 L537.6 543.0 L537.4 543.4 L537.2 543.6 L536.8 544.0 L536.0 544.39996 L535.2 545.2 L534.0 546.8 L532.8 548.4 L531.4 550.0 L530.2 552.2 L528.8 554.39996 L527.4 557.4 L525.80005 560.60004 L525.0 564.0 L523.8 567.0 L522.8 569.6 L522.4 571.4 L522.0 572.8 L521.4 574.0 L521.4 574.6 L521.4 575.2 L521.8 575.80005 L522.0 575.80005 L522.2 575.80005 L522.6 575.80005 L524.0 575.4 L525.80005 574.6 L528.4 573.8 L530.80005 572.8 L530.80005 572.8"
    stroke="rgb(25,25,25)" stroke-width="1" fill="none" stroke-linejoin="round"/>
  <path
    d="M549.6 561.8 L549.0 561.8 L548.8 561.4 L545.60004 560.2 L542.4 559.6 L536.4 557.8 L532.2 556.4 L528.8 556.0 L526.8 555.80005 L524.0 555.80005 L522.0 555.80005 L517.4 555.60004 L515.80005 555.60004 L514.6 555.60004 L514.19995 555.60004 L514.0 555.60004 L514.19995 555.60004 L514.19995 555.80005 L514.39996 555.80005 L514.6 555.80005 L515.4 557.0 L517.0 558.8 L517.0 558.8"
    stroke="rgb(25,25,25)" stroke-width="1" fill="none" stroke-linejoin="round"/>
  <path
    d="M522.0 592.0 L522.0 592.4 L522.4 592.6 L522.4 592.4 L522.6 592.4 L523.4 592.0 L524.0 592.0 L525.80005 591.4 L528.6 590.80005 L532.0 590.60004 L534.19995 590.4 L536.4 589.6 L542.4 587.8 L543.8 587.4 L545.60004 586.4 L549.0 584.6 L550.0 584.39996 L549.6 585.0 L549.19995 585.4 L549.39996 586.2 L547.0 587.8 L545.4 589.6 L538.4 596.2 L535.80005 599.0 L534.0 601.2 L532.6 603.6 L530.80005 606.0 L530.60004 608.0 L530.80005 608.6 L531.0 608.8 L533.0 609.0 L539.0 607.6 L544.6 607.2 L547.4 607.2 L551.4 605.80005 L553.6 605.80005 L556.2 605.60004 L557.2 605.4 L557.4 605.60004 L557.4 605.80005 L557.6 605.80005 L557.6 605.80005 L557.8 605.80005 L557.8 605.80005"
    stroke="rgb(25,25,25)" stroke-width="1" fill="none" stroke-linejoin="round"/>
  <path
    d="M414.0 664.0 L413.6 663.6 L413.4 662.60004 L413.4 662.2 L412.8 661.60004 L413.0 660.80005 L412.8 659.0 L412.40002 657.60004 L412.40002 655.80005 L412.40002 653.6 L412.0 650.80005 L412.2 647.2 L411.8 645.80005 L411.4 644.80005 L411.4 644.0 L411.19998 641.2 L411.19998 640.4 L410.80002 639.6 L410.6 638.8 L410.40002 637.6 L410.40002 637.0 L410.40002 635.80005 L410.2 635.2 L410.0 634.19995 L410.0 633.4 L409.59998 632.6 L409.4 631.4 L409.19998 630.80005 L409.19998 630.0 L409.0 629.19995 L409.0 628.8 L409.0 628.0 L409.0 627.4 L409.0 626.4 L409.0 625.60004 L408.80002 625.0 L408.6 624.0 L408.6 623.0 L408.0 622.4 L408.4 620.80005 L407.8 620.0 L407.8 619.19995 L407.8 618.0 L407.59998 617.2 L407.59998 616.2 L407.59998 615.2 L407.40002 614.0 L407.59998 612.8 L407.59998 610.80005 L407.59998 609.39996 L407.40002 608.0 L407.2 606.8 L407.0 605.60004 L407.0 604.39996 L407.2 603.6 L407.0 602.4 L407.2 601.2 L407.2 600.80005 L406.0 599.0 L405.80002 598.8 L405.80002 598.6 L405.80002 598.4 L405.6 598.0 L405.40002 597.4 L405.40002 597.4"
    stroke="rgb(0,190,150)" stroke-width="18" fill="none" stroke-linejoin="round"/>
  <path
    d="M407.8 663.2 L407.2 663.2 L404.4 663.2 L403.0 663.6 L401.4 663.2 L400.2 663.2 L398.0 663.0 L396.19998 663.0 L394.4 663.0 L392.59998 663.0 L390.6 662.60004 L388.4 662.60004 L385.80002 662.60004 L383.6 663.0 L381.19998 663.0 L377.2 663.0 L375.2 663.2 L373.4 663.6 L371.4 663.6 L369.59998 664.0 L369.0 664.0 L367.0 664.0 L365.40002 664.4 L363.80002 664.4 L362.40002 664.4 L361.0 664.0 L359.19998 664.0 L356.4 664.0 L355.40002 664.0 L354.0 664.4 L350.80002 664.4 L349.59998 664.4 L348.6 664.4 L347.8 664.80005 L347.0 664.80005 L346.0 664.80005 L345.40002 664.80005 L345.0 664.4 L344.19998 664.4 L344.0 664.4 L343.6 664.4 L343.6 664.4 L343.6 664.0 L343.80002 664.0 L343.80002 664.0 L344.0 663.6 L344.0 663.2 L344.0 662.60004 L344.0 662.2 L344.0 661.2 L344.0 660.4 L344.0 659.0 L344.0 657.60004 L345.6 654.0 L345.40002 651.2 L345.40002 649.4 L345.2 648.2 L345.2 646.60004 L345.2 645.0 L345.40002 643.6 L345.2 641.8 L345.40002 640.4 L345.40002 638.8 L345.40002 637.4 L345.40002 636.0 L345.6 633.8 L345.80002 630.4 L346.4 627.6 L346.4 626.2 L346.4 625.0 L346.8 623.6 L347.0 622.4 L347.2 621.0 L347.2 619.39996 L347.2 617.4 L346.0 615.2 L346.0 613.4 L345.80002 612.6 L345.80002 611.8 L345.6 610.4 L345.6 610.0 L345.6 609.19995 L345.80002 608.6 L345.80002 607.6 L345.80002 607.4 L345.6 606.0 L345.40002 605.80005 L345.0 604.6 L344.59998 604.0 L344.19998 603.6 L344.0 602.6 L344.0 602.2 L344.0 601.8 L344.0 600.80005 L344.0 599.19995 L344.0 599.0 L344.0 597.8 L344.0 597.4 L344.0 597.0 L344.0 596.4 L344.0 595.80005 L344.0 595.60004 L344.0 595.2 L344.0 595.0 L344.19998 594.6 L344.4 594.6 L344.59998 594.39996 L345.40002 594.19995 L346.19998 594.0 L346.8 594.0 L347.0 594.0 L347.40002 593.8 L348.0 593.8 L349.59998 593.6 L353.0 593.4 L356.8 593.4 L359.0 593.0 L360.40002 592.8 L362.59998 592.8 L365.2 592.6 L366.4 592.4 L369.0 592.4 L372.40002 592.4 L374.0 592.4 L379.59998 593.4 L381.0 593.4 L382.8 593.4 L384.59998 593.4 L386.4 593.4 L387.59998 593.0 L391.19998 592.8 L393.4 592.8 L395.0 592.4 L397.2 592.4 L399.59998 592.6 L401.19998 592.4 L402.40002 592.4 L403.6 592.2 L404.19998 592.2 L405.40002 591.8 L406.19998 591.8 L407.0 591.4 L407.59998 591.0 L408.80002 590.80005 L409.4 590.2 L409.4 590.0 L409.0 590.0 L408.80002 590.4 L408.6 590.80005 L408.6 591.0 L408.0 593.0 L408.0 594.0 L407.59998 596.0 L407.40002 597.2 L407.2 599.0 L406.8 599.39996 L406.19998 600.0 L406.19998 600.0"
    stroke="rgb(0,190,150)" stroke-width="18" fill="none" stroke-linejoin="round"/>
  <path
    d="M358.4 652.60004 L358.4 652.60004 L359.0 652.2 L361.4 650.80005 L363.80002 649.80005 L366.4 648.2 L369.4 646.8 L372.40002 645.4 L375.80002 643.6 L379.0 642.2 L382.40002 640.4 L385.80002 638.8 L388.80002 636.4 L391.4 635.2 L394.4 633.0 L395.0 632.4 L395.2 632.4 L395.0 632.2 L395.0 632.0 L394.4 632.4 L393.80002 632.6 L387.2 636.2 L379.59998 640.0 L376.0 641.8 L372.40002 643.6 L369.4 645.80005 L364.59998 649.0 L363.6 649.80005 L363.0 650.4 L362.59998 651.2 L362.59998 651.60004 L363.0 651.2 L367.40002 650.4 L371.19998 649.80005 L375.80002 648.2 L383.6 645.80005 L390.80002 643.0 L393.80002 642.2 L396.4 641.2 L398.0 640.80005 L399.4 640.4 L401.0 641.2 L400.6 641.8 L400.2 643.0 L393.4 646.8 L390.80002 648.6 L387.40002 650.80005 L384.4 652.2 L382.2 654.0 L380.2 655.4 L378.6 657.2 L378.0 657.60004 L378.4 657.60004 L379.0 658.0 L380.2 657.60004 L381.8 656.8 L386.4 655.4 L393.0 652.2 L396.4 650.80005 L397.8 650.4 L398.6 650.4 L399.19998 650.4 L400.2 650.80005 L400.2 650.80005 L400.2 650.80005 L400.0 651.2 L399.4 650.80005 L399.0 651.8 L398.4 651.8 L397.0 652.2 L393.6 653.6 L392.0 654.0 L390.6 654.80005 L389.0 655.80005 L388.80002 656.2 L388.80002 656.2 L389.0 656.60004 L389.19998 656.60004 L389.4 656.8 L390.2 656.8 L392.0 656.60004 L393.0 656.2 L394.0 655.80005 L395.2 655.80005 L396.8 655.4 L397.2 655.0 L397.40002 654.4 L397.40002 654.4 L397.2 654.80005 L397.2 654.80005 L397.0 654.4 L396.4 654.4 L395.80002 654.4 L395.80002 654.4 L395.0 654.0 L394.19998 654.0 L394.0 653.6 L393.6 653.2 L393.4 653.2 L392.40002 653.0 L392.2 652.2 L391.8 651.8 L390.80002 650.80005 L389.19998 650.4 L389.0 650.0 L388.4 649.0 L388.4 648.6 L388.80002 648.0 L390.80002 646.8 L393.0 645.4 L394.59998 643.6 L395.80002 642.2 L395.80002 642.2"
    stroke="rgb(50,90,240)" stroke-width="18" fill="none" stroke-linejoin="round"/>
  <path
    d="M388.6 639.0 L377.40002 641.8 L369.59998 643.2 L368.6 643.2 L367.40002 643.0 L367.2 643.0 L367.59998 641.8 L369.0 641.2 L379.4 637.2 L382.59998 635.80005 L389.0 632.4 L392.40002 630.60004 L395.6 628.8 L398.4 627.2 L402.59998 624.0 L403.6 623.6 L404.19998 622.8 L404.4 622.4 L404.19998 622.4 L404.0 622.4 L403.0 622.4 L399.4 622.4 L393.6 624.0 L377.40002 629.6 L374.0 631.0 L370.6 632.4 L364.0 633.4 L364.0 633.4 L363.6 633.4 L363.80002 632.6 L364.4 632.4 L365.80002 631.4 L370.40002 629.6 L373.4 628.8 L376.8 627.4 L384.0 625.2 L387.40002 624.0 L394.4 620.4 L396.8 619.0 L398.80002 618.0 L399.59998 617.4 L400.0 617.0 L400.40002 616.4 L400.40002 616.4 L400.2 616.8 L399.59998 617.0 L398.80002 617.2 L396.8 617.6 L384.4 621.8 L380.40002 623.6 L376.19998 625.80005 L372.0 627.2 L368.4 629.0 L365.2 630.60004 L362.0 632.2 L359.19998 633.4 L357.59998 634.0 L357.0 634.39996 L356.19998 634.6 L356.19998 634.6 L358.4 633.4 L360.40002 632.4 L362.59998 630.80005 L365.6 629.6 L368.6 628.4 L371.8 627.0 L375.0 625.60004 L378.0 624.19995 L382.0 622.2 L387.8 618.4 L393.0 615.80005 L394.4 614.6 L396.19998 613.4 L396.4 613.0 L396.19998 613.0 L396.0 612.8 L395.80002 613.0 L395.80002 613.0"
    stroke="rgb(50,90,240)" stroke-width="18" fill="none" stroke-linejoin="round"/>
  <path
    d="M367.40002 622.2 L365.2 623.0 L363.80002 623.4 L362.40002 623.6 L362.2 623.4 L362.40002 622.8 L363.0 622.4 L364.19998 621.8 L366.19998 620.80005 L368.6 620.2 L371.0 619.0 L373.80002 618.0 L376.8 617.0 L380.0 615.80005 L382.8 614.39996 L386.0 612.8 L389.19998 611.2 L392.2 609.39996 L394.59998 607.8 L396.8 606.4 L397.59998 605.60004 L398.6 604.39996 L398.80002 603.6 L398.6 603.8 L397.8 603.8 L396.19998 603.8 L391.8 604.39996 L388.80002 605.80005 L385.0 606.2 L380.80002 607.6 L376.4 609.19995 L372.2 610.80005 L364.4 613.0 L362.59998 614.0 L360.80002 614.19995 L359.4 614.39996 L359.0 614.19995 L359.0 614.0 L359.4 613.6 L360.6 612.8 L362.2 612.4 L364.59998 611.0 L368.4 610.2 L372.2 609.0 L376.0 607.8 L380.40002 606.2 L384.19998 604.6 L388.0 603.0 L391.8 602.0 L394.59998 600.60004 L397.2 599.0 L398.80002 597.6 L399.19998 597.2 L399.19998 596.8 L399.19998 596.8 L398.4 596.8 L396.4 597.2 L393.6 597.2 L390.40002 597.4 L386.8 598.0 L383.4 598.6 L377.0 600.2 L374.19998 600.2 L372.40002 600.4 L370.6 600.4 L369.0 600.4 L370.80002 599.0 L372.40002 599.0 L372.40002 599.0"
    stroke="rgb(50,90,240)" stroke-width="18" fill="none" stroke-linejoin="round"/>
  <path
    d="M572.4 279.4 L573.4 278.8 L578.8 279.2 L584.6 281.2 L573.0 296.2 L571.4 296.2 L565.80005 295.40002 L559.6 295.2 L560.0 295.40002 L559.0 295.2 L558.6 295.40002 L558.8 295.2 L558.8 295.2 L559.0 295.2 L561.2 295.8 L561.4 296.2 L561.8 296.2 L561.8 296.2"
    stroke="rgb(250,40,140)" stroke-width="2" fill="none" stroke-linejoin="round"/>
  <path
    d="M595.80005 319.4 L596.2 319.4 L595.80005 318.8 L595.60004 318.6 L594.19995 318.4 L593.6 317.80002 L590.2 317.0 L587.8 317.0 L575.80005 319.4 L572.8 320.6 L566.8 322.8 L599.0 335.80002 L602.0 333.0 L602.4 329.4 L591.4 322.40002 L582.4 321.19998 L582.4 321.19998"
    stroke="rgb(250,40,140)" stroke-width="2" fill="none" stroke-linejoin="round"/>
  <path
    d="M587.8 353.0 L649.0 353.80002 L640.4 352.2 L593.6 357.0 L591.4 357.8 L587.8 359.59998 L587.4 368.6 L612.0 375.80002 L608.4 365.80002 L608.4 365.80002"
    stroke="rgb(250,40,140)" stroke-width="2" fill="none" stroke-linejoin="round"/>
  <path
    d="M624.19995 384.0 L624.39996 383.6 L624.19995 382.40002 L616.2 377.2 L614.19995 376.4 L610.4 376.0 L607.6 376.0 L605.60004 375.80002 L603.8 376.19998 L601.8 376.8 L600.0 377.2 L598.8 377.8 L596.8 378.6 L595.2 379.4 L593.6 385.0 L594.0 386.0 L594.39996 387.59998 L595.2 388.80002 L599.0 391.19998 L600.2 391.8 L601.8 392.40002 L602.6 392.59998 L604.0 393.0 L604.0 393.0 L604.0 393.4 L604.19995 393.4 L604.6 394.0 L604.39996 394.0 L604.39996 394.19998 L604.39996 394.19998 L604.6 394.0 L604.6 394.19998 L604.39996 394.19998 L604.39996 394.4 L604.39996 394.59998 L604.39996 395.2 L604.39996 395.40002 L604.39996 395.40002 L604.39996 395.80002 L604.39996 396.19998 L604.39996 396.0 L604.39996 396.4 L604.19995 396.8 L604.0 397.40002 L604.0 397.40002 L604.0 397.40002 L604.0 397.8 L604.0 397.40002 L604.0 397.40002"
    stroke="rgb(250,40,140)" stroke-width="2" fill="none" stroke-linejoin="round"/>
  <path
    d="M610.0 379.0 L610.80005 378.80002 L611.8 379.0 L612.6 378.80002 L615.4 379.0 L616.4 379.19998 L617.0 379.4 L618.6 380.40002 L620.60004 381.19998 L621.0 381.8 L621.4 382.40002 L622.4 382.59998 L622.6 384.0 L620.2 392.40002 L617.6 394.4 L611.2 395.80002 L604.0 397.0 L600.2 398.80002 L598.0 399.19998 L596.2 400.2 L595.80005 400.6 L597.0 404.4 L623.0 408.6 L632.6 404.19998 L609.0 410.2 L590.4 417.40002 L584.6 419.4 L580.0 421.8 L575.80005 423.80002 L571.0 424.4 L567.0 425.6 L563.8 426.8 L559.39996 427.2 L556.4 427.40002 L553.8 427.2 L553.0 425.6 L553.6 421.0 L554.0 418.6 L556.8 413.0 L558.6 410.80002 L563.4 407.40002 L565.80005 407.2 L577.2 407.0 L588.0 409.19998 L620.0 416.0 L624.39996 417.40002 L626.2 417.40002 L626.2 417.40002"
    stroke="rgb(250,40,140)" stroke-width="2" fill="none" stroke-linejoin="round"/>
  <path
    d="M652.2 423.0 L653.0 422.8 L638.0 428.0 L630.80005 430.6 L631.8 432.0 L634.6 431.19998 L641.8 430.80002 L645.4 430.80002 L649.0 430.6 L651.60004 430.80002 L652.2 433.0 L639.19995 442.8 L634.0 445.6 L633.8 445.6 L634.19995 445.2 L635.0 445.0 L651.2 442.59998 L656.2 443.0 L660.80005 443.6 L665.80005 445.2 L666.60004 446.0 L666.8 447.0 L665.0 450.40002 L663.2 452.0 L660.0 454.0 L655.0 456.19998 L649.4 458.0 L636.4 463.80002 L632.4 465.40002 L627.0 466.8 L626.0 467.0 L626.0 467.0 L627.8 464.59998 L627.8 464.59998"
    stroke="rgb(250,40,140)" stroke-width="2" fill="none" stroke-linejoin="round"/>
  <path
    d="M449.4 272.0 L449.19998 272.0 L449.0 272.0 L448.6 272.19998 L447.8 272.6 L445.6 272.80002 L440.80002 273.8 L438.6 274.59998 L436.19998 275.40002 L435.6 276.2 L434.0 277.80002 L432.59998 280.6 L433.0 282.0 L434.0 283.0 L435.2 284.2 L445.0 288.0 L460.80002 291.2 L468.80002 291.2 L487.2 286.2 L489.0 285.0 L476.0 283.6 L465.40002 283.8 L460.2 285.2 L447.0 291.2 L446.0 292.6 L445.80002 293.8 L446.19998 295.2 L458.6 302.0 L463.80002 303.6 L469.0 305.2 L473.0 306.0 L484.59998 306.4 L490.2 305.40002 L494.0 302.80002 L495.6 301.8 L495.40002 301.8 L495.40002 301.8 L495.2 301.8 L494.59998 301.8 L493.6 301.4 L478.4 305.2 L473.4 306.0 L468.4 306.2 L463.80002 307.19998 L452.8 313.0 L451.8 314.4 L452.40002 317.80002 L454.19998 320.0 L465.0 326.19998 L482.40002 332.40002 L486.19998 332.59998 L489.4 332.59998 L492.0 332.2 L494.0 331.8 L496.0 329.0 L496.19998 328.4 L496.19998 326.8 L495.80002 325.80002 L494.19998 325.6 L492.0 324.4 L489.19998 323.4 L485.80002 322.0 L481.4 320.6 L477.59998 320.2 L474.59998 320.0 L467.59998 320.6 L464.19998 321.19998 L460.40002 326.4 L475.2 332.8 L484.0 333.80002 L487.8 333.6 L490.6 332.8 L492.59998 332.40002 L495.0 331.8 L496.19998 330.80002 L496.8 330.2 L497.2 330.0 L497.0 329.59998 L497.0 329.59998 L496.8 329.59998 L496.4 329.59998 L495.80002 329.4 L494.4 329.4 L488.6 329.59998 L485.40002 330.80002 L472.8 334.4 L468.80002 345.2 L473.0 346.4 L499.0 348.6 L502.59998 348.4 L505.80002 347.8 L510.0 346.19998 L509.59998 345.80002 L500.6 346.0 L496.4 347.0 L488.6 349.59998 L481.4 352.59998 L479.4 354.59998 L478.80002 356.8 L479.0 358.4 L500.80002 362.0 L504.4 362.40002 L515.80005 360.6 L521.4 358.6 L521.0 358.0 L513.8 358.0 L494.4 363.0 L489.59998 372.2 L490.6 373.0 L492.40002 374.59998 L505.0 377.2 L512.4 377.59998 L515.4 377.40002 L517.8 377.2 L521.0 376.19998 L524.6 374.0 L525.80005 373.6 L525.4 372.8 L523.0 373.4 L520.80005 373.80002 L518.0 374.4 L513.4 375.40002 L510.2 376.19998 L507.0 378.0 L497.59998 384.19998 L497.0 386.8 L497.2 388.6 L498.4 390.6 L501.19998 392.40002 L511.8 397.8 L522.6 400.80002 L527.6 401.8 L535.4 402.40002 L538.6 402.2 L540.80005 401.19998 L542.4 400.6 L543.8 399.19998 L544.19995 398.4 L544.0 397.40002 L543.8 396.8 L543.4 396.8 L542.6 396.0 L540.4 395.0 L536.4 393.4 L532.6 392.40002 L510.6 392.40002 L508.6 394.0 L509.19998 399.0 L520.2 403.80002 L536.4 403.4 L537.8 402.8 L538.6 402.2 L538.8 401.8 L538.8 401.4 L538.8 401.8 L538.6 401.8 L538.4 402.0 L537.8 402.0 L536.4 402.59998 L533.8 403.4 L530.4 405.2 L524.39996 409.0 L521.8 411.19998 L519.0 413.80002 L516.0 419.0 L522.0 431.0 L522.0 431.0"
    stroke="rgb(250,40,140)" stroke-width="2" fill="none" stroke-linejoin="round"/>
  <path
    d="M637.6 261.0 L638.8 261.2 L639.19995 261.2 L639.0 261.2 L639.0 261.0 L639.19995 261.0 L639.0 261.0 L639.0 261.0 L639.0 261.0 L637.4 261.4 L627.6 264.4 L626.4 265.0 L625.80005 265.40002 L624.39996 266.2 L623.8 267.0 L623.0 268.6 L623.6 269.59998 L625.0 272.19998 L626.4 273.4 L628.4 275.0 L630.80005 276.2 L633.8 277.6 L652.60004 279.2 L654.4 279.4 L660.80005 279.59998 L668.2 281.2 L670.80005 281.8 L674.4 281.8 L675.80005 282.19998 L677.60004 281.8 L679.4 281.4 L681.2 282.0 L681.8 282.0 L682.2 281.8 L673.2 280.40002 L661.60004 280.2 L658.0 280.40002 L649.4 280.6 L646.2 281.4 L640.4 282.80002 L636.8 282.19998 L636.4 283.4 L646.2 289.2 L660.4 294.4 L662.60004 295.40002 L664.80005 296.0 L666.8 297.0 L669.0 297.6 L670.4 298.0 L677.2 298.6 L685.4 299.4 L688.6 300.2 L694.80005 301.4 L692.60004 302.19998 L679.0 300.2 L675.80005 300.40002 L661.8 297.80002 L659.0 298.6 L653.0 299.4 L649.4 300.40002 L645.4 302.0 L644.4 307.0 L646.2 309.2 L655.80005 317.0 L655.80005 317.0"
    stroke="rgb(250,40,140)" stroke-width="2" fill="none" stroke-linejoin="round"/>
</svg>
