<svg width="809.8967" height="1358.2659" xmlns="http://www.w3.org/2000/svg" version="1.1"
     xmlns:xlink="http://www.w3.org/1999/xlink">
  <path
    d="M234.2 268.8 L234.40001 268.8 L234.40001 268.6 L234.2 268.4 L234.40001 268.0 L234.40001 267.80002 L234.2 267.6 L234.2 267.0 L233.6 266.0 L234.2 266.0 L234.2 265.6 L234.2 265.6 L234.2 265.6 L234.2 265.6 L234.2 266.0 L234.2 266.0 L234.40001 266.4 L234.40001 267.6 L234.40001 269.4 L233.79999 272.19998 L233.6 275.40002 L233.6 278.6 L233.0 282.0 L232.8 286.2 L232.2 290.0 L231.4 294.2 L231.0 299.2 L230.40001 301.0 L229.59999 302.19998 L227.8 305.0 L226.20001 306.2 L224.59999 306.4 L221.0 305.2 L219.59999 303.6 L218.79999 302.0 L218.4 299.59998 L217.8 296.8 L217.6 293.6 L217.0 291.2 L217.0 289.2 L217.0 287.80002 L217.0 287.0 L217.0 286.8 L217.6 287.0 L217.8 287.0 L217.8 287.0 L218.79999 287.19998 L220.40001 287.80002 L221.4 288.4 L221.4 288.4"
    stroke="rgb(250,40,140)" stroke-width="2" fill="none" stroke-linejoin="round"/>
  <path
    d="M247.2 266.2 L246.8 270.0 L246.0 272.6 L245.20001 276.0 L243.0 285.6 L242.6 290.6 L241.4 294.2 L238.79999 298.6 L239.2 300.0 L238.79999 301.0 L239.40001 302.19998 L239.40001 302.80002 L239.40001 302.80002 L239.40001 302.80002 L239.40001 302.80002 L240.40001 303.0 L240.59999 303.0 L240.59999 302.80002 L240.59999 302.80002"
    stroke="rgb(250,40,140)" stroke-width="2" fill="none" stroke-linejoin="round"/>
  <path
    d="M223.6 271.2 L222.8 271.2 L222.0 271.4 L222.0 271.4 L218.6 270.40002 L218.0 270.2 L217.2 269.2 L217.0 268.4 L216.20001 266.8 L215.8 265.6 L216.0 264.4 L215.40001 262.80002 L215.40001 262.0 L215.40001 261.2 L216.0 260.0 L216.8 259.59998 L217.0 259.4 L218.6 258.4 L220.40001 258.0 L223.6 257.0 L228.0 257.0 L232.0 257.19998 L236.20001 257.6 L244.2 257.80002 L247.2 257.6 L250.20001 257.6 L255.20001 257.80002 L255.40001 257.80002 L255.8 257.80002 L256.8 257.80002 L258.4 257.0 L260.40002 257.19998 L262.0 257.80002 L262.80002 258.6 L262.80002 258.6"
    stroke="rgb(250,40,140)" stroke-width="2" fill="none" stroke-linejoin="round"/>
  <path
    d="M257.0 280.2 L257.0 280.40002 L256.8 280.40002 L257.0 280.6 L257.0 281.2 L256.8 281.8 L255.40001 285.40002 L251.4 297.0 L251.0 302.6 L249.40001 307.6 L248.4 312.6 L247.0 321.4 L246.4 325.0 L245.59999 330.2 L245.0 333.4 L244.40001 333.6 L244.40001 333.6 L244.2 332.40002 L243.79999 330.80002 L244.2 328.6 L245.40001 323.80002 L246.20001 318.6 L247.0 314.4 L247.8 311.0 L248.79999 307.0 L250.20001 303.6 L251.8 300.2 L256.4 290.2 L259.2 286.2 L260.40002 285.0 L262.0 282.80002 L263.6 281.2 L263.8 280.6 L264.4 280.40002 L265.0 280.40002 L265.2 280.40002 L264.2 284.4 L264.4 286.8 L263.4 293.4 L263.0 296.0 L263.6 304.4 L264.2 305.40002 L264.59998 305.6 L266.2 306.0 L268.0 306.0 L274.2 300.6 L275.40002 299.2 L277.80002 295.8 L280.0 292.19998 L281.2 290.0 L283.6 284.4 L285.2 278.8 L285.2 277.0 L285.0 276.8 L284.59998 276.4 L285.40002 276.4 L282.6 277.6 L281.4 278.6 L280.40002 280.40002 L277.0 283.8 L276.2 285.6 L276.0 287.80002 L275.40002 290.2 L275.2 292.0 L275.2 293.6 L275.40002 295.0 L276.4 298.0 L277.6 299.59998 L278.6 300.6 L279.2 301.0 L279.4 301.2 L280.2 301.2 L279.59998 301.2 L280.2 301.2 L280.0 301.2 L280.2 301.2 L280.0 301.2 L279.59998 301.2 L280.0 301.2 L280.0 301.2 L280.40002 301.2 L280.40002 301.2 L280.40002 301.4 L280.40002 301.2 L280.6 301.4 L280.40002 301.4 L280.6 301.4 L280.6 301.4 L280.6 301.2 L280.40002 301.2 L279.4 300.40002 L280.40002 300.0 L280.6 299.4 L281.2 299.4 L280.6 299.4 L280.6 299.4 L280.6 299.4"
    stroke="rgb(250,40,140)" stroke-width="2" fill="none" stroke-linejoin="round"/>
  <path
    d="M279.2 297.19998 L278.8 297.19998 L278.6 297.19998 L278.6 297.6 L278.4 297.6 L278.4 297.6 L278.4 297.80002 L278.4 298.6 L276.0 301.4 L275.8 302.0 L275.8 302.0 L276.0 302.19998 L276.2 302.80002 L276.0 303.0 L276.4 303.6 L277.0 304.2 L277.19998 303.8 L278.0 304.59998 L278.8 304.59998 L280.0 304.4 L279.59998 304.59998 L280.40002 304.4 L281.0 304.59998 L281.0 304.4 L282.6 303.6 L283.4 303.4 L282.80002 303.6 L283.6 302.80002 L283.8 302.0 L284.4 302.0 L285.0 301.2 L286.0 300.40002 L287.0 299.2 L287.0 298.6 L287.6 298.0 L288.8 296.2 L289.59998 295.0 L290.40002 293.6 L291.4 291.2 L291.8 290.40002 L292.6 289.4 L295.40002 284.4 L295.8 282.0 L296.0 282.0 L296.0 282.0 L296.2 282.0 L296.2 282.0 L296.2 282.0 L296.2 282.0 L296.2 282.0 L296.2 282.80002 L295.2 288.4 L295.0 290.0 L294.2 292.6 L294.4 293.0 L293.4 296.0 L299.2 304.59998 L306.2 294.4 L309.2 288.4 L310.6 284.59998 L312.0 282.0 L314.2 278.8 L314.4 274.59998 L317.0 266.4 L317.0 263.4 L317.0 262.80002 L316.4 259.59998 L316.2 259.4 L316.0 259.4 L315.40002 259.4 L315.0 259.59998 L314.4 260.40002 L312.80002 262.19998 L311.2 265.2 L310.0 268.8 L308.6 272.19998 L307.0 281.2 L306.8 285.40002 L308.0 302.80002 L319.4 303.6 L323.0 301.2 L330.2 291.2 L330.40002 287.80002 L330.40002 286.4 L330.2 285.40002 L330.0 284.2 L329.19998 283.6 L328.0 283.0 L324.0 282.80002 L322.59998 283.4 L321.8 284.2 L320.80002 285.40002 L320.6 287.0 L320.2 288.6 L320.0 290.40002 L320.2 291.0 L332.40002 294.4 L335.6 293.4 L339.0 291.8 L342.59998 289.59998 L347.59998 286.2 L349.19998 281.0 L349.19998 280.2 L349.0 280.0 L348.80002 279.59998 L348.80002 279.59998 L344.0 280.2 L340.40002 282.80002 L339.0 285.2 L337.40002 288.4 L336.4 291.4 L363.80002 285.2 L363.80002 284.4 L364.0 283.4 L364.19998 284.4 L364.0 286.2 L363.6 288.6 L362.40002 296.2 L362.59998 298.6 L362.40002 307.0 L362.40002 306.8 L369.59998 286.2 L371.4 284.4 L372.40002 283.4 L372.40002 283.4 L374.0 283.4 L375.6 283.6 L377.2 285.40002 L377.59998 287.6 L380.2 294.4 L382.40002 288.4 L384.19998 285.40002 L386.4 281.2 L388.0 278.6 L390.6 276.4 L392.0 276.0 L392.40002 276.0 L393.0 276.0 L394.0 276.8 L394.59998 277.80002 L395.2 280.0 L396.0 287.80002 L396.8 291.2 L399.4 297.0 L401.19998 299.4 L403.6 300.40002 L407.59998 301.2 L410.6 300.6 L413.4 298.6 L416.8 295.40002 L420.80002 291.2 L425.40002 286.8 L430.6 282.0 L430.6 282.0"
    stroke="rgb(250,40,140)" stroke-width="2" fill="none" stroke-linejoin="round"/>
  <path
    d="M235.40001 350.40002 L235.20001 349.59998 L235.20001 349.59998 L235.20001 349.4 L235.0 349.59998 L235.0 349.4 L235.0 349.4 L235.0 349.59998 L234.59999 349.4 L234.59999 349.59998 L234.59999 349.59998 L234.59999 349.59998 L234.59999 349.59998 L234.59999 350.0 L234.59999 350.0 L234.59999 350.0 L234.59999 350.0 L234.59999 350.2 L234.40001 350.6 L234.40001 350.80002 L234.40001 351.0 L234.40001 351.0 L234.40001 351.0 L234.40001 351.0 L234.40001 351.0 L234.40001 351.0 L234.40001 351.19998 L235.0 351.19998 L235.40001 351.8 L237.2 353.4 L237.2 353.4"
    stroke="rgb(250,40,140)" stroke-width="2" fill="none" stroke-linejoin="round"/>
  <path
    d="M233.0 339.19998 L232.6 338.80002 L232.2 338.6 L232.2 338.6 L232.2 338.6 L232.0 338.80002 L232.0 338.80002 L232.0 339.0 L232.2 339.19998 L232.6 340.40002 L232.8 342.0 L233.4 345.80002 L233.4 350.80002 L233.6 355.2 L233.79999 358.4 L234.40001 362.0 L234.59999 365.80002 L233.6 375.2 L233.6 377.2 L233.6 380.40002 L233.79999 381.19998 L234.40001 382.8 L235.40001 384.4 L235.40001 385.6 L235.8 385.80002 L236.0 386.4 L236.20001 386.8 L236.20001 386.8 L236.20001 386.4 L236.20001 386.4 L236.4 385.80002 L237.0 384.19998 L237.8 381.8 L238.6 379.19998 L238.79999 377.40002 L239.40001 375.2 L240.40001 372.40002 L241.20001 368.80002 L241.4 366.0 L242.0 364.0 L242.6 362.0 L243.4 358.80002 L244.59999 352.40002 L245.40001 349.0 L245.59999 347.40002 L246.20001 346.19998 L246.4 345.6 L247.0 343.80002 L247.2 342.8 L247.6 342.40002 L247.6 342.59998 L247.6 342.40002 L247.6 342.40002 L247.6 342.40002 L247.6 342.59998 L247.6 342.59998 L247.6 342.59998 L247.6 342.8 L247.8 345.2 L248.6 347.40002 L249.2 350.80002 L250.0 353.80002 L250.40001 357.40002 L251.0 360.80002 L252.0 364.59998 L252.8 367.0 L253.6 370.40002 L254.2 373.4 L255.20001 375.80002 L255.8 378.6 L256.4 380.40002 L256.8 381.0 L257.0 381.4 L257.0 381.8 L257.19998 381.8 L257.19998 381.4 L257.80002 381.0 L258.0 380.40002 L259.4 378.4 L262.6 372.2 L263.6 368.6 L264.4 365.0 L266.0 361.4 L268.6 350.2 L270.0 344.0 L270.40002 341.19998 L270.6 339.19998 L271.0 338.0 L271.2 337.0 L271.2 336.8 L271.4 336.8 L272.19998 337.8 L273.0 339.4 L273.6 341.8 L273.8 343.6 L273.8 343.6"
    stroke="rgb(250,40,140)" stroke-width="2" fill="none" stroke-linejoin="round"/>
  <path
    d="M282.80002 330.80002 L282.6 330.2 L282.19998 330.2 L282.19998 330.40002 L282.0 330.6 L282.0 331.0 L282.0 332.59998 L281.0 339.0 L280.6 342.40002 L280.40002 347.40002 L280.2 352.40002 L279.59998 363.0 L279.4 368.0 L279.2 371.0 L278.6 375.80002 L278.6 377.0 L278.6 377.8 L278.6 378.0 L278.6 377.8 L278.6 377.8 L278.6 377.8 L278.6 377.8 L278.6 377.59998 L278.6 377.59998 L278.6 377.40002 L279.2 377.2 L279.4 376.0 L279.59998 374.4 L279.59998 372.40002 L280.40002 369.4 L289.59998 355.80002 L291.4 354.19998 L292.80002 352.0 L294.4 353.0 L295.8 357.59998 L298.4 382.40002 L299.4 383.4 L300.0 383.0 L300.0 383.0"
    stroke="rgb(250,40,140)" stroke-width="2" fill="none" stroke-linejoin="round"/>
  <path
    d="M325.80002 352.40002 L324.0 351.4 L321.0 351.4 L320.2 352.0 L318.6 352.40002 L315.8 355.6 L314.2 357.59998 L313.4 360.40002 L311.2 368.6 L310.6 371.0 L310.40002 372.8 L311.2 375.80002 L311.4 376.0 L316.2 377.40002 L321.19998 372.0 L324.59998 364.0 L325.40002 361.19998 L325.80002 359.59998 L325.80002 358.0 L325.80002 352.59998 L325.80002 352.40002 L325.80002 352.40002 L325.6 352.40002 L325.6 352.40002 L325.6 352.59998 L325.6 352.8 L325.40002 353.4 L325.40002 354.0 L325.0 358.4 L324.4 360.80002 L325.0 363.0 L325.40002 375.6 L327.40002 380.40002 L328.6 380.80002 L341.8 360.80002 L344.0 352.2 L344.4 349.0 L344.59998 345.6 L345.0 342.0 L345.40002 339.0 L344.59998 335.40002 L345.0 335.2 L345.40002 335.40002 L345.40002 335.40002 L345.40002 335.40002 L345.2 335.40002 L345.40002 335.6 L345.6 335.80002 L344.19998 338.6 L344.0 340.80002 L342.8 343.4 L342.59998 346.19998 L342.40002 349.4 L342.0 354.0 L342.0 358.6 L341.8 367.2 L344.19998 377.40002 L357.0 371.4 L358.80002 371.19998 L358.80002 371.4 L358.80002 371.4"
    stroke="rgb(250,40,140)" stroke-width="2" fill="none" stroke-linejoin="round"/>
  <path
    d="M350.80002 351.8 L350.80002 351.8 L351.19998 351.8 L351.0 351.8 L349.0 351.8 L347.59998 351.8 L346.4 351.8 L345.2 351.8 L341.0 352.40002 L339.59998 352.59998 L337.8 352.8 L337.0 353.6 L336.8 355.0 L336.4 356.8 L336.4 356.8"
    stroke="rgb(250,40,140)" stroke-width="2" fill="none" stroke-linejoin="round"/>
  <path
    d="M405.80002 352.0 L405.80002 351.8 L405.80002 351.4 L405.6 351.19998 L405.40002 351.0 L405.40002 351.0 L408.4 368.0 L408.80002 372.40002 L409.19998 375.80002 L409.59998 377.59998 L410.2 378.6 L410.40002 379.19998 L410.6 379.19998 L410.6 379.19998 L410.80002 378.6 L412.0 376.19998 L412.8 373.0 L413.80002 369.0 L414.4 365.40002 L415.0 362.0 L415.6 354.0 L415.80002 350.80002 L416.4 346.8 L416.4 346.8 L416.8 347.0 L417.0 347.40002 L417.59998 349.0 L418.4 352.0 L419.0 355.0 L420.0 358.4 L420.80002 361.4 L421.4 364.59998 L422.40002 368.6 L423.4 372.40002 L424.19998 375.80002 L425.40002 378.0 L426.0 379.59998 L426.8 380.80002 L427.40002 380.80002 L428.0 380.80002 L428.4 380.6 L429.0 378.80002 L430.0 375.80002 L430.6 372.40002 L431.0 368.80002 L431.4 365.40002 L432.2 361.8 L433.80002 351.19998 L435.2 347.2 L436.0 347.0 L437.40002 347.2 L438.4 349.0 L439.0 351.4 L439.0 354.4 L439.0 354.4"
    stroke="rgb(250,40,140)" stroke-width="2" fill="none" stroke-linejoin="round"/>
  <path
    d="M453.80002 354.4 L453.0 353.0 L453.0 352.40002 L452.40002 352.0 L451.4 351.19998 L450.40002 351.0 L448.4 351.19998 L447.0 352.2 L445.80002 354.19998 L444.19998 356.8 L443.0 359.4 L442.40002 362.8 L442.0 366.0 L441.8 369.0 L442.0 371.0 L442.40002 373.0 L442.59998 374.0 L444.0 374.4 L445.80002 375.0 L448.0 374.4 L450.40002 372.40002 L452.40002 370.2 L454.4 364.4 L455.2 361.0 L455.40002 358.4 L455.40002 356.19998 L455.40002 355.2 L455.2 354.59998 L454.59998 355.0 L454.0 355.80002 L454.0 355.80002"
    stroke="rgb(250,40,140)" stroke-width="2" fill="none" stroke-linejoin="round"/>
  <path
    d="M464.4 363.80002 L463.6 361.8 L463.80002 361.19998 L464.4 360.0 L465.6 358.0 L467.0 356.0 L468.6 353.80002 L469.19998 352.40002 L471.8 348.4 L472.40002 346.8 L472.8 346.0 L472.8 346.0 L472.8 346.0 L472.8 346.4 L472.59998 349.0 L472.2 352.40002 L471.19998 355.80002 L470.80002 359.19998 L470.2 363.0 L469.59998 369.59998 L469.0 373.6 L469.19998 376.0 L469.59998 377.8 L470.80002 379.4 L473.0 379.19998 L475.80002 376.19998 L477.59998 373.6 L479.4 369.59998 L482.40002 359.19998 L483.4 356.19998 L483.6 354.19998 L483.80002 352.40002 L483.80002 351.4 L483.80002 351.0 L483.6 351.0 L483.6 351.0 L483.6 351.0 L483.6 351.19998 L483.6 351.19998 L483.6 351.19998 L483.4 351.8 L483.0 352.2 L483.0 352.8 L482.40002 354.59998 L482.40002 357.0 L482.40002 370.40002 L484.0 377.0 L486.8 377.40002 L488.4 375.80002 L490.80002 373.0 L493.6 369.0 L500.40002 353.6 L503.4 338.0 L503.80002 332.59998 L503.80002 327.0 L503.6 322.59998 L503.4 319.59998 L504.0 317.80002 L504.0 317.0 L504.0 317.0 L503.80002 317.0 L503.80002 317.0 L503.4 318.4 L502.40002 321.4 L502.0 326.0 L501.8 330.6 L500.80002 336.4 L499.0 367.40002 L499.19998 371.4 L500.80002 376.0 L502.40002 377.0 L504.19998 377.40002 L506.0 376.4 L510.40002 372.40002 L516.2 367.59998 L516.2 367.59998"
    stroke="rgb(250,40,140)" stroke-width="2" fill="none" stroke-linejoin="round"/>
  <path
    d="M533.4 352.2 L532.8 350.40002 L531.8 348.4 L530.80005 347.2 L529.19995 347.0 L527.8 346.4 L526.8 346.8 L525.4 347.40002 L524.0 348.6 L522.2 353.4 L521.8 356.19998 L521.2 360.2 L520.80005 364.19998 L520.80005 368.6 L522.0 372.8 L529.0 368.6 L530.60004 364.19998 L532.4 358.80002 L533.4 352.8 L535.2 340.2 L535.60004 334.4 L535.80005 327.59998 L534.39996 316.0 L534.0 312.80002 L534.0 311.2 L534.0 310.40002 L533.6 310.40002 L532.6 311.8 L531.8 315.40002 L530.80005 320.0 L530.0 325.80002 L529.6 339.0 L530.0 353.80002 L530.60004 360.2 L530.80005 365.6 L531.0 370.40002 L531.8 372.59998 L532.6 374.0 L532.6 374.0"
    stroke="rgb(250,40,140)" stroke-width="2" fill="none" stroke-linejoin="round"/>
  <path
    d="M590.60004 362.8 L590.80005 362.40002 L590.80005 360.80002 L590.80005 360.40002 L590.80005 360.0 L591.0 359.19998 L592.8 357.0 L594.19995 354.0 L595.80005 351.4 L597.2 350.2 L599.0 347.8 L600.4 347.0 L600.80005 347.0 L602.4 347.2 L602.6 347.2 L603.0 348.0 L603.0 350.80002 L602.6 354.0 L602.4 357.40002 L602.0 360.2 L602.0 362.8 L601.8 365.80002 L602.4 368.0 L602.6 369.4 L603.4 370.40002 L604.0 370.6 L605.4 370.6 L606.8 369.19998 L610.2 364.59998 L611.8 362.0 L613.4 357.8 L615.80005 352.40002 L616.8 349.19998 L617.4 346.8 L617.6 345.6 L617.8 345.0 L618.0 344.59998 L618.4 346.19998 L619.0 349.0 L619.0 354.0 L619.19995 359.19998 L619.6 365.2 L620.2 372.40002 L621.8 386.19998 L624.19995 403.6 L624.19995 406.8 L623.8 409.4 L622.8 410.2 L621.4 410.40002 L619.19995 410.0 L617.0 408.4 L615.0 406.19998 L612.4 404.0 L611.0 400.80002 L610.2 395.0 L611.0 390.80002 L615.0 382.40002 L618.0 378.6 L621.8 374.59998 L625.2 370.80002 L634.39996 360.80002 L635.80005 359.19998 L637.0 357.8 L637.4 357.40002 L637.4 357.2 L637.4 357.2 L637.6 357.2 L637.6 357.2 L637.4 357.2 L637.4 357.40002 L637.4 357.40002 L636.4 359.19998 L635.80005 361.0 L635.80005 363.80002 L636.2 365.80002 L636.8 369.0 L637.8 371.0 L648.0 372.8 L651.8 368.0 L653.6 362.40002 L651.8 354.0 L650.80005 352.8 L649.0 351.8 L647.60004 350.80002 L645.4 350.80002 L643.6 351.8 L641.2 354.4 L635.80005 367.59998 L635.80005 367.59998"
    stroke="rgb(250,40,140)" stroke-width="2" fill="none" stroke-linejoin="round"/>
  <path
    d="M665.4 350.80002 L663.0 358.6 L661.8 362.2 L661.2 369.59998 L660.80005 376.4 L661.8 378.6 L668.6 377.8 L671.2 376.0 L679.80005 357.40002 L679.80005 352.59998 L673.0 368.0 L685.80005 380.80002 L692.2 377.2 L700.4 374.19998 L700.4 374.19998"
    stroke="rgb(250,40,140)" stroke-width="2" fill="none" stroke-linejoin="round"/>
  <path
    d="M232.8 433.80002 L233.79999 435.80002 L234.2 436.19998 L234.2 436.19998 L234.2 436.0 L237.0 431.0 L241.8 423.4 L244.2 418.4 L248.6 408.6 L249.40001 405.40002 L249.40001 403.6 L250.0 400.80002 L249.59999 398.80002 L249.59999 397.2 L249.40001 397.0 L249.40001 397.2 L249.40001 397.2 L249.40001 397.2 L249.40001 397.59998 L249.2 398.80002 L248.6 400.6 L247.8 404.19998 L247.6 409.0 L247.0 415.6 L246.20001 423.0 L245.59999 440.2 L246.20001 443.80002 L246.4 446.4 L247.0 448.4 L249.2 449.19998 L250.40001 448.80002 L252.8 447.8 L260.6 434.4 L262.0 431.8 L262.80002 429.59998 L262.80002 427.8 L262.80002 427.0 L262.80002 426.0 L263.0 425.6 L262.80002 425.40002 L262.80002 425.40002 L262.80002 425.40002 L262.80002 425.80002 L262.80002 427.0 L262.80002 428.6 L262.6 431.19998 L260.40002 443.6 L260.6 446.19998 L261.4 448.4 L262.0 450.80002 L262.19998 451.4 L262.80002 452.40002 L264.4 453.80002 L265.40002 454.0 L266.8 452.8 L267.80002 450.80002 L267.80002 450.80002"
    stroke="rgb(250,40,140)" stroke-width="2" fill="none" stroke-linejoin="round"/>
  <path
    d="M275.40002 407.40002 L275.40002 409.4 L276.2 416.19998 L275.40002 427.8 L275.40002 433.6 L275.40002 439.0 L275.40002 444.0 L275.0 450.80002 L275.2 453.6 L275.0 456.8 L275.40002 458.6 L276.8 459.0 L278.0 458.4 L280.0 456.19998 L280.0 456.19998"
    stroke="rgb(250,40,140)" stroke-width="2" fill="none" stroke-linejoin="round"/>
  <path
    d="M288.6 436.0 L286.4 439.0 L284.4 441.8 L280.40002 444.19998 L277.80002 444.59998 L274.2 443.80002 L273.6 443.6 L274.2 443.4 L274.4 443.4 L274.59998 443.0 L280.40002 442.40002 L281.8 442.8 L283.6 444.59998 L285.40002 446.0 L287.0 447.8 L287.80002 449.59998 L289.4 450.80002 L292.6 452.0 L303.4 448.80002 L312.19998 439.0 L317.19998 430.40002 L316.4 425.80002 L314.2 425.0 L313.6 426.0 L311.4 429.0 L311.4 429.0"
    stroke="rgb(250,40,140)" stroke-width="2" fill="none" stroke-linejoin="round"/>
  <path
    d="M380.80002 414.0 L380.80002 413.80002 L380.80002 414.0 L380.6 414.0 L380.2 414.19998 L379.59998 415.40002 L379.0 417.40002 L377.40002 423.0 L376.8 427.0 L375.80002 430.80002 L375.2 435.0 L374.19998 441.8 L374.4 444.0 L374.59998 446.4 L375.40002 447.8 L376.0 449.0 L377.40002 450.0 L378.4 449.59998 L379.4 450.0 L380.80002 449.4 L382.40002 448.80002 L384.59998 446.4 L386.8 445.0 L387.59998 444.19998 L389.0 443.4 L390.0 442.40002 L390.40002 442.40002 L390.40002 443.80002 L389.59998 445.2 L389.59998 445.2"
    stroke="rgb(250,40,140)" stroke-width="2" fill="none" stroke-linejoin="round"/>
  <path
    d="M389.0 426.4 L389.0 426.0 L388.4 425.6 L387.40002 425.0 L386.4 424.59998 L385.6 424.4 L384.0 424.59998 L381.4 425.2 L379.0 425.6 L375.80002 426.19998 L373.6 427.40002 L370.6 429.0 L366.19998 432.40002 L366.19998 432.40002"
    stroke="rgb(250,40,140)" stroke-width="2" fill="none" stroke-linejoin="round"/>
  <path
    d="M404.0 432.59998 L403.6 432.2 L400.80002 431.19998 L399.19998 432.2 L395.80002 436.4 L392.8 443.4 L392.8 444.59998 L393.0 447.40002 L394.0 449.19998 L395.80002 450.80002 L397.8 452.0 L399.59998 451.19998 L401.4 450.40002 L404.19998 448.6 L407.40002 444.0 L408.80002 439.59998 L408.80002 435.0 L408.80002 433.4 L408.6 432.40002 L408.0 432.40002 L408.0 432.40002"
    stroke="rgb(250,40,140)" stroke-width="2" fill="none" stroke-linejoin="round"/>
  <path
    d="M460.80002 429.59998 L460.0 429.4 L458.6 430.0 L456.4 430.40002 L452.8 431.4 L449.0 433.80002 L447.40002 435.40002 L447.0 436.8 L446.4 438.4 L446.8 448.6 L447.40002 450.6 L450.40002 452.40002 L452.40002 451.4 L456.8 445.40002 L460.40002 436.19998 L461.19998 431.4 L462.40002 427.40002 L464.19998 416.8 L464.19998 412.2 L464.0 407.8 L463.4 399.19998 L463.0 397.59998 L462.8 397.2 L462.59998 397.40002 L462.59998 397.40002 L462.40002 399.0 L460.80002 405.80002 L460.2 410.80002 L458.80002 422.8 L458.0 429.19998 L457.0 435.80002 L457.0 440.80002 L456.19998 445.6 L459.4 455.2 L461.4 455.6 L461.4 455.6"
    stroke="rgb(250,40,140)" stroke-width="2" fill="none" stroke-linejoin="round"/>
  <path
    d="M473.0 431.8 L471.4 434.0 L471.0 435.40002 L470.40002 437.59998 L469.19998 440.80002 L469.0 442.40002 L468.80002 445.2 L469.0 448.0 L469.0 449.4 L469.19998 454.0 L469.59998 455.80002 L469.59998 456.0 L469.59998 456.0 L469.59998 456.0 L469.4 455.80002 L470.0 449.19998 L470.0 444.4 L470.40002 441.4 L472.0 437.8 L473.4 436.0 L476.4 433.0 L479.0 431.4 L484.19998 430.6 L487.0 430.40002 L489.0 431.0 L490.40002 432.59998 L490.80002 434.59998 L491.0 436.8 L491.0 436.8"
    stroke="rgb(250,40,140)" stroke-width="2" fill="none" stroke-linejoin="round"/>
  <path
    d="M495.6 428.80002 L495.80002 426.4 L495.80002 426.4 L495.80002 427.0 L495.6 427.40002 L495.40002 428.80002 L495.40002 430.0 L495.6 437.59998 L495.6 439.19998 L495.2 447.0 L495.2 448.80002 L495.40002 449.19998 L495.80002 450.80002 L496.4 452.0 L497.0 452.2 L499.4 448.0 L499.4 448.0"
    stroke="rgb(250,40,140)" stroke-width="2" fill="none" stroke-linejoin="round"/>
  <path
    d="M509.0 429.0 L508.6 428.80002 L508.0 429.59998 L508.0 430.80002 L507.8 432.40002 L507.2 435.40002 L506.0 447.8 L506.0 450.80002 L505.80002 452.8 L505.80002 454.0 L505.80002 454.0 L505.80002 454.0 L505.80002 454.0 L505.2 452.8 L505.40002 451.4 L505.80002 449.0 L509.59998 435.0 L511.19998 432.8 L512.6 429.19998 L514.0 429.0 L515.4 429.0 L519.0 438.6 L519.0 442.8 L519.0 457.8 L519.0 458.4 L519.0 458.4 L519.0 458.4 L519.39996 458.6 L520.0 458.0 L522.4 453.0 L522.4 453.0"
    stroke="rgb(250,40,140)" stroke-width="2" fill="none" stroke-linejoin="round"/>
  <path
    d="M537.4 405.0 L537.4 405.40002 L536.8 405.6 L536.2 405.6 L536.2 406.19998 L535.80005 407.2 L535.80005 407.59998 L535.4 409.0 L534.6 414.4 L534.0 419.0 L533.0 429.19998 L532.8 434.59998 L532.6 439.4 L532.2 445.40002 L531.8 449.4 L531.0 453.4 L531.2 456.19998 L531.2 457.8 L531.4 459.0 L531.8 459.19998 L532.0 459.59998 L532.2 459.59998 L532.4 459.59998 L533.0 459.19998 L534.6 457.59998 L536.8 454.4 L536.8 454.4"
    stroke="rgb(250,40,140)" stroke-width="2" fill="none" stroke-linejoin="round"/>
  <path
    d="M554.0 429.0 L551.2 430.2 L550.2 433.6 L539.19995 441.8 L536.0 443.6 L533.4 445.0 L530.80005 446.19998 L528.8 447.0 L525.60004 446.4 L525.60004 440.40002 L529.39996 436.4 L531.2 436.0 L532.8 437.2 L537.0 439.59998 L541.0 443.4 L546.0 450.2 L547.4 452.0 L550.4 455.80002 L554.19995 458.4 L561.4 455.40002 L561.4 455.40002"
    stroke="rgb(250,40,140)" stroke-width="2" fill="none" stroke-linejoin="round"/>
  <path
    d="M580.80005 408.80002 L579.6 407.8 L579.0 407.0 L577.8 404.19998 L577.8 402.59998 L579.0 400.80002 L579.6 398.0 L580.80005 396.19998 L582.2 393.6 L583.4 391.8 L584.39996 390.80002 L589.0 387.8 L591.0 387.8 L594.6 389.19998 L595.4 390.6 L596.0 392.40002 L595.80005 395.40002 L595.2 400.0 L594.0 405.0 L579.0 431.8 L576.8 441.4 L582.4 442.0 L584.39996 440.80002 L590.4 437.8 L596.8 433.4 L597.6 433.0 L598.4 433.4 L597.8 434.4 L597.8 434.4"
    stroke="rgb(250,40,140)" stroke-width="2" fill="none" stroke-linejoin="round"/>
  <path
    d="M582.2 473.80002 L582.8 472.2 L583.4 470.80002 L583.8 469.0 L584.19995 467.2 L584.6 464.4 L585.0 464.0 L584.6 464.0 L584.6 464.0 L584.39996 464.19998 L584.19995 464.4 L584.19995 464.4 L584.0 464.19998 L584.0 464.19998 L584.0 464.19998 L583.0 464.0 L582.2 464.0 L582.0 464.0 L582.0 464.0 L582.0 464.59998 L582.4 465.2 L586.0 466.4 L587.4 465.6 L586.4 462.0 L585.80005 461.8 L581.2 467.40002 L582.0 467.8 L582.8 468.4 L584.0 468.6 L585.0 468.4 L585.80005 468.0 L587.4 468.0 L587.4 468.0"
    stroke="rgb(250,40,140)" stroke-width="2" fill="none" stroke-linejoin="round"/>
</svg>
