<svg width="809.8967" height="1358.2659" xmlns="http://www.w3.org/2000/svg" version="1.1"
     xmlns:xlink="http://www.w3.org/1999/xlink">
  <path
    d="M233.0 339.19998 L232.6 338.80002 L232.2 338.6 L232.2 338.6 L232.2 338.6 L232.0 338.80002 L232.0 338.80002 L232.0 339.0 L232.2 339.19998 L232.6 340.40002 L232.8 342.0 L233.4 345.80002 L233.4 350.80002 L233.6 355.2 L233.79999 358.4 L234.40001 362.0 L234.59999 365.80002 L233.6 375.2 L233.6 377.2 L233.6 380.40002 L233.79999 381.19998 L234.40001 382.8 L235.40001 384.4 L235.40001 385.6 L235.8 385.80002 L236.0 386.4 L236.20001 386.8 L236.20001 386.8 L236.20001 386.4 L236.20001 386.4 L236.4 385.80002 L237.0 384.19998 L237.8 381.8 L238.6 379.19998 L238.79999 377.40002 L239.40001 375.2 L240.40001 372.40002 L241.20001 368.80002 L241.4 366.0 L242.0 364.0 L242.6 362.0 L243.4 358.80002 L244.59999 352.40002 L245.40001 349.0 L245.59999 347.40002 L246.20001 346.19998 L246.4 345.6 L247.0 343.80002 L247.2 342.8 L247.6 342.40002 L247.6 342.59998 L247.6 342.40002 L247.6 342.40002 L247.6 342.40002 L247.6 342.59998 L247.6 342.59998 L247.6 342.59998 L247.6 342.8 L247.8 345.2 L248.6 347.40002 L249.2 350.80002 L250.0 353.80002 L250.40001 357.40002 L251.0 360.80002 L252.0 364.59998 L252.8 367.0 L253.6 370.40002 L254.2 373.4 L255.20001 375.80002 L255.8 378.6 L256.4 380.40002 L256.8 381.0 L257.0 381.4 L257.0 381.8 L257.19998 381.8 L257.19998 381.4 L257.80002 381.0 L258.0 380.40002 L259.4 378.4 L262.6 372.2 L263.6 368.6 L264.4 365.0 L266.0 361.4 L268.6 350.2 L270.0 344.0 L270.40002 341.19998 L270.6 339.19998 L271.0 338.0 L271.2 337.0 L271.2 336.8 L271.4 336.8 L272.19998 337.8 L273.0 339.4 L273.6 341.8 L273.8 343.6 L273.8 343.6"
    stroke="rgb(250,40,140)" stroke-width="2" fill="none" stroke-linejoin="round"/>
  <path
    d="M282.80002 330.80002 L282.6 330.2 L282.19998 330.2 L282.19998 330.40002 L282.0 330.6 L282.0 331.0 L282.0 332.59998 L281.0 339.0 L280.6 342.40002 L280.40002 347.40002 L280.2 352.40002 L279.59998 363.0 L279.4 368.0 L279.2 371.0 L278.6 375.80002 L278.6 377.0 L278.6 377.8 L278.6 378.0 L278.6 377.8 L278.6 377.8 L278.6 377.8 L278.6 377.8 L278.6 377.59998 L278.6 377.59998 L278.6 377.40002 L279.2 377.2 L279.4 376.0 L279.59998 374.4 L279.59998 372.40002 L280.40002 369.4 L289.59998 355.80002 L291.4 354.19998 L292.80002 352.0 L294.4 353.0 L295.8 357.59998 L298.4 382.40002 L299.4 383.4 L300.0 383.0 L300.0 383.0"
    stroke="rgb(250,40,140)" stroke-width="2" fill="none" stroke-linejoin="round"/>
</svg>
